<svg width="1920" height="670" viewBox="0 0 1920 670" fill="none" xmlns="http://www.w3.org/2000/svg">
<line opacity="0.4" x1="1699" y1="342" x2="159" y2="342" stroke="url(#paint0_linear_632_4911)" stroke-width="6"/>
<g filter="url(#filter0_f_632_4911)">
<path d="M1921 207.08H0V462.08H1921V207.08Z" fill="url(#paint1_linear_632_4911)"/>
</g>
<path d="M1920 90H-29V437H1920V90Z" fill="url(#paint2_linear_632_4911)"/>
<path d="M1926 90H1V419H1926V90Z" fill="url(#paint3_linear_632_4911)"/>
<path d="M1797 417L1597.5 290L1519.5 267L1407.5 189.5" stroke="url(#paint4_linear_632_4911)"/>
<path d="M271 414.5L464.5 249L542.5 231L598.5 172.5" stroke="url(#paint5_linear_632_4911)"/>
<path d="M1336 91L1456 147.5L1513 156.5L1611 202.5" stroke="url(#paint6_linear_632_4911)"/>
<path d="M591.5 91L506 147L519 166.5L453 214L403.5 209.5L313.5 266.5" stroke="url(#paint7_linear_632_4911)"/>
<path d="M1221 91L1272 132.5L1323 146.5L1354.5 172V203.5L1428 265.5" stroke="url(#paint8_linear_632_4911)"/>
<path d="M369.5 413.5L447.5 327L498.5 311L536 268.5" stroke="url(#paint9_linear_632_4911)"/>
<path d="M766 90.5L753 116L778 138.5L772.5 153.5" stroke="url(#paint10_linear_632_4911)"/>
<path d="M685.001 256L657.499 308" stroke="url(#paint11_linear_632_4911)"/>
<path d="M1423 419L1305.5 267L1188.5 240L1155 183.5L1202 137L1184.5 115.5" stroke="url(#paint12_linear_632_4911)"/>
<path d="M-5 414.5L79.5 355.5L155 332L228 288" stroke="url(#paint13_linear_632_4911)"/>
<path d="M1464 262.5L1513.5 303L1578.5 322L1694 410" stroke="url(#paint14_linear_632_4911)"/>
<path d="M1393 90.5L1486.5 127H1531L1575 142" stroke="url(#paint15_linear_632_4911)"/>
<path d="M479.5 90.5L430 111L390.5 116.5L353.5 130L338 150.5L258.5 179" stroke="url(#paint16_linear_632_4911)"/>
<path d="M1919.5 334L1838 289.5L1776 270L1687.5 226.5" stroke="url(#paint17_linear_632_4911)"/>
<g filter="url(#filter1_f_632_4911)">
<ellipse rx="7.5" ry="4.13735" transform="matrix(0.993068 0.117537 0 1 1406.42 185.19)" fill="#6362FA"/>
</g>
<ellipse rx="4.5" ry="2.48241" transform="matrix(0.993068 0.117537 0 1 1406.42 185.191)" fill="#6362FA"/>
<path d="M1416.19 186.136C1416.19 187.457 1415.22 188.645 1413.42 189.434C1411.63 190.214 1409.13 190.547 1406.34 190.217C1403.56 189.887 1401.06 188.962 1399.27 187.759C1397.47 186.544 1396.5 185.126 1396.5 183.805C1396.5 182.484 1397.47 181.296 1399.27 180.508C1401.06 179.727 1403.56 179.394 1406.34 179.724C1409.13 180.054 1411.63 180.979 1413.42 182.183C1415.22 183.398 1416.19 184.815 1416.19 186.136Z" stroke="#6362FA"/>
<g filter="url(#filter2_f_632_4911)">
<circle cx="959.565" cy="310.81" r="6.11996" fill="#6362FA"/>
</g>
<circle cx="959.565" cy="310.81" r="3.67198" fill="#6362FA"/>
<circle cx="959.5" cy="310.5" r="8" stroke="#6362FA"/>
<g filter="url(#filter3_f_632_4911)">
<ellipse rx="7.5" ry="4.13735" transform="matrix(0.993068 0.117537 0 1 1680.42 222.19)" fill="#6362FA"/>
</g>
<ellipse rx="4.5" ry="2.48241" transform="matrix(0.993068 0.117537 0 1 1680.42 222.191)" fill="#6362FA"/>
<path d="M1690.19 223.136C1690.19 224.457 1689.22 225.645 1687.42 226.434C1685.63 227.214 1683.13 227.547 1680.34 227.217C1677.56 226.887 1675.06 225.962 1673.27 224.759C1671.47 223.544 1670.5 222.126 1670.5 220.805C1670.5 219.484 1671.47 218.296 1673.27 217.508C1675.06 216.727 1677.56 216.394 1680.34 216.724C1683.13 217.054 1685.63 217.979 1687.42 219.183C1689.22 220.398 1690.19 221.815 1690.19 223.136Z" stroke="#6362FA"/>
<g filter="url(#filter4_f_632_4911)">
<ellipse rx="7.5" ry="4.13735" transform="matrix(0.980785 -0.19509 0.0165799 0.999863 317.393 264.972)" fill="#6362FA"/>
</g>
<ellipse rx="4.5" ry="2.48241" transform="matrix(0.980785 -0.19509 0.0165799 0.999863 317.394 264.972)" fill="#6362FA"/>
<path d="M327.038 262.843C327.06 264.164 326.123 265.657 324.359 267.013C322.612 268.355 320.153 269.476 317.399 270.023C314.644 270.571 312.164 270.434 310.385 269.793C308.587 269.145 307.608 268.033 307.586 266.712C307.564 265.392 308.5 263.898 310.264 262.543C312.011 261.2 314.47 260.08 317.225 259.532C319.979 258.984 322.459 259.122 324.239 259.763C326.036 260.41 327.016 261.522 327.038 262.843Z" stroke="#6362FA"/>
<g filter="url(#filter5_f_632_4911)">
<ellipse rx="7.5" ry="5" transform="matrix(0.999229 0.0392598 -0.518922 0.854821 227.089 287.569)" fill="#6362FA"/>
</g>
<ellipse rx="4.5" ry="3" transform="matrix(0.999229 0.0392598 -0.518922 0.854821 227.088 287.569)" fill="#6362FA"/>
<g filter="url(#filter6_f_632_4911)">
<ellipse rx="7.5" ry="5" transform="matrix(0.999229 0.0392598 -0.518922 0.854821 536.089 267.569)" fill="#6362FA"/>
</g>
<ellipse rx="4.5" ry="3" transform="matrix(0.999229 0.0392598 -0.518922 0.854821 536.088 267.569)" fill="#6362FA"/>
<g filter="url(#filter7_f_632_4911)">
<ellipse rx="7.5" ry="5" transform="matrix(0.95882 0.284015 -0.439155 0.898411 1461.39 260.622)" fill="#6362FA"/>
</g>
<ellipse rx="4.5" ry="3" transform="matrix(0.95882 0.284015 -0.439155 0.898411 1461.39 260.622)" fill="#6362FA"/>
<g filter="url(#filter8_f_632_4911)">
<ellipse rx="7.5" ry="5" transform="matrix(0.99863 -0.052336 0.25342 0.967356 1613.76 203.229)" fill="#6362FA"/>
</g>
<ellipse rx="4.5" ry="3" transform="matrix(0.99863 -0.052336 0.25342 0.967356 1613.76 203.23)" fill="#6362FA"/>
<g filter="url(#filter9_f_632_4911)">
<ellipse rx="7.5" ry="5" transform="matrix(0.99863 -0.052336 0.25342 0.967356 1577.76 143.229)" fill="#6362FA"/>
</g>
<ellipse rx="4.5" ry="3" transform="matrix(0.99863 -0.052336 0.25342 0.967356 1577.76 143.23)" fill="#6362FA"/>
<g filter="url(#filter10_f_632_4911)">
<ellipse rx="7.5" ry="5" transform="matrix(0.99863 -0.052336 0.25342 0.967356 1390.76 234.229)" fill="#6362FA"/>
</g>
<ellipse rx="4.5" ry="3" transform="matrix(0.99863 -0.052336 0.25342 0.967356 1390.76 234.23)" fill="#6362FA"/>
<g filter="url(#filter11_f_632_4911)">
<ellipse rx="7.5" ry="5" transform="matrix(0.997859 -0.0654031 0 1 656.484 310.491)" fill="#6362FA"/>
</g>
<ellipse rx="4.5" ry="3" transform="matrix(0.997859 -0.0654031 0 1 656.485 310.491)" fill="#6362FA"/>
<g filter="url(#filter12_f_632_4911)">
<circle r="7.5" transform="matrix(0.995805 0.0915016 -0.707107 0.707107 252.773 180.99)" fill="#6362FA"/>
</g>
<circle r="4.5" transform="matrix(0.995805 0.0915016 -0.707107 0.707107 252.772 180.99)" fill="#6362FA"/>
<g filter="url(#filter13_d_632_4911)">
<g filter="url(#filter14_f_632_4911)">
<path d="M1816.7 152H1679.15C1676.92 152 1676.36 155.1 1678.45 155.875L1756.66 184.875C1756.89 184.958 1757.12 185 1757.36 185H1910.73C1913.02 185 1913.51 181.765 1911.32 181.089L1817.29 152.089C1817.1 152.03 1816.9 152 1816.7 152Z" fill="#FD9DFF"/>
</g>
<path d="M1817.7 150L1679.45 147.5C1677.22 147.5 1677.36 153.1 1679.45 153.875L1757.66 182.875C1757.89 182.958 1758.12 183 1758.36 183H1911.73C1914.02 183 1915.22 177.676 1913.03 177L1819 148C1818.81 147.941 1817.9 150 1817.7 150Z" fill="#15094B"/>
<path d="M1817.7 147H1680.15C1677.92 147 1677.36 150.1 1679.45 150.875L1757.66 179.875C1757.89 179.958 1758.12 180 1758.36 180H1911.73C1914.02 180 1914.51 176.765 1912.32 176.089L1818.29 147.089C1818.1 147.03 1817.9 147 1817.7 147Z" fill="#140558"/>
</g>
<g filter="url(#filter15_f_632_4911)">
<path d="M338.486 226.696L408.111 183.181C409.813 182.117 409.062 179.489 407.055 179.485L185.374 179.001C185.127 179 184.882 179.046 184.651 179.135L70.5277 223.134C68.4599 223.931 69.031 227 71.2472 227H337.426C337.801 227 338.169 226.895 338.486 226.696Z" fill="#FD9DFF"/>
</g>
<g filter="url(#filter16_d_632_4911)">
<path d="M337.487 224.696L407.112 181.181C408.814 180.117 409.509 173.504 407.502 173.5L184.375 177.001C184.128 177 183.882 177.046 183.652 177.135L69.5004 217C67.4325 217.797 68.0319 225 70.2481 225H336.427C336.802 225 337.17 224.895 337.487 224.696Z" fill="#15094B"/>
</g>
<path d="M337.986 219.696L407.611 176.181C409.313 175.117 408.562 172.489 406.555 172.485L184.874 172.001C184.627 172 184.382 172.046 184.151 172.135L70.0277 216.134C67.9599 216.931 68.531 220 70.7472 220H336.926C337.301 220 337.669 219.895 337.986 219.696Z" fill="#140558"/>
<defs>
<filter id="filter0_f_632_4911" x="-207" y="0.0800781" width="2335" height="669" filterUnits="userSpaceOnUse" color-interpolation-filters="sRGB">
<feFlood flood-opacity="0" result="BackgroundImageFix"/>
<feBlend mode="normal" in="SourceGraphic" in2="BackgroundImageFix" result="shape"/>
<feGaussianBlur stdDeviation="103.5" result="effect1_foregroundBlur_632_4911"/>
</filter>
<filter id="filter1_f_632_4911" x="1390.98" y="172.959" width="30.8965" height="24.4624" filterUnits="userSpaceOnUse" color-interpolation-filters="sRGB">
<feFlood flood-opacity="0" result="BackgroundImageFix"/>
<feBlend mode="normal" in="SourceGraphic" in2="BackgroundImageFix" result="shape"/>
<feGaussianBlur stdDeviation="4" result="effect1_foregroundBlur_632_4911"/>
</filter>
<filter id="filter2_f_632_4911" x="945.445" y="296.69" width="28.2402" height="28.2397" filterUnits="userSpaceOnUse" color-interpolation-filters="sRGB">
<feFlood flood-opacity="0" result="BackgroundImageFix"/>
<feBlend mode="normal" in="SourceGraphic" in2="BackgroundImageFix" result="shape"/>
<feGaussianBlur stdDeviation="4" result="effect1_foregroundBlur_632_4911"/>
</filter>
<filter id="filter3_f_632_4911" x="1664.98" y="209.959" width="30.8965" height="24.4624" filterUnits="userSpaceOnUse" color-interpolation-filters="sRGB">
<feFlood flood-opacity="0" result="BackgroundImageFix"/>
<feBlend mode="normal" in="SourceGraphic" in2="BackgroundImageFix" result="shape"/>
<feGaussianBlur stdDeviation="4" result="effect1_foregroundBlur_632_4911"/>
</filter>
<filter id="filter4_f_632_4911" x="302.037" y="252.583" width="30.7129" height="24.7778" filterUnits="userSpaceOnUse" color-interpolation-filters="sRGB">
<feFlood flood-opacity="0" result="BackgroundImageFix"/>
<feBlend mode="normal" in="SourceGraphic" in2="BackgroundImageFix" result="shape"/>
<feGaussianBlur stdDeviation="4" result="effect1_foregroundBlur_632_4911"/>
</filter>
<filter id="filter5_f_632_4911" x="211.156" y="275.284" width="31.8652" height="24.5688" filterUnits="userSpaceOnUse" color-interpolation-filters="sRGB">
<feFlood flood-opacity="0" result="BackgroundImageFix"/>
<feBlend mode="normal" in="SourceGraphic" in2="BackgroundImageFix" result="shape"/>
<feGaussianBlur stdDeviation="4" result="effect1_foregroundBlur_632_4911"/>
</filter>
<filter id="filter6_f_632_4911" x="520.156" y="255.284" width="31.8652" height="24.5688" filterUnits="userSpaceOnUse" color-interpolation-filters="sRGB">
<feFlood flood-opacity="0" result="BackgroundImageFix"/>
<feBlend mode="normal" in="SourceGraphic" in2="BackgroundImageFix" result="shape"/>
<feGaussianBlur stdDeviation="4" result="effect1_foregroundBlur_632_4911"/>
</filter>
<filter id="filter7_f_632_4911" x="1445.87" y="247.649" width="31.041" height="25.9453" filterUnits="userSpaceOnUse" color-interpolation-filters="sRGB">
<feFlood flood-opacity="0" result="BackgroundImageFix"/>
<feBlend mode="normal" in="SourceGraphic" in2="BackgroundImageFix" result="shape"/>
<feGaussianBlur stdDeviation="4" result="effect1_foregroundBlur_632_4911"/>
</filter>
<filter id="filter8_f_632_4911" x="1598.16" y="190.376" width="31.1934" height="25.7061" filterUnits="userSpaceOnUse" color-interpolation-filters="sRGB">
<feFlood flood-opacity="0" result="BackgroundImageFix"/>
<feBlend mode="normal" in="SourceGraphic" in2="BackgroundImageFix" result="shape"/>
<feGaussianBlur stdDeviation="4" result="effect1_foregroundBlur_632_4911"/>
</filter>
<filter id="filter9_f_632_4911" x="1562.16" y="130.376" width="31.1934" height="25.7061" filterUnits="userSpaceOnUse" color-interpolation-filters="sRGB">
<feFlood flood-opacity="0" result="BackgroundImageFix"/>
<feBlend mode="normal" in="SourceGraphic" in2="BackgroundImageFix" result="shape"/>
<feGaussianBlur stdDeviation="4" result="effect1_foregroundBlur_632_4911"/>
</filter>
<filter id="filter10_f_632_4911" x="1375.16" y="221.376" width="31.1934" height="25.7061" filterUnits="userSpaceOnUse" color-interpolation-filters="sRGB">
<feFlood flood-opacity="0" result="BackgroundImageFix"/>
<feBlend mode="normal" in="SourceGraphic" in2="BackgroundImageFix" result="shape"/>
<feGaussianBlur stdDeviation="4" result="effect1_foregroundBlur_632_4911"/>
</filter>
<filter id="filter11_f_632_4911" x="641" y="297.467" width="30.9688" height="26.0483" filterUnits="userSpaceOnUse" color-interpolation-filters="sRGB">
<feFlood flood-opacity="0" result="BackgroundImageFix"/>
<feBlend mode="normal" in="SourceGraphic" in2="BackgroundImageFix" result="shape"/>
<feGaussianBlur stdDeviation="4" result="effect1_foregroundBlur_632_4911"/>
</filter>
<filter id="filter12_f_632_4911" x="235.611" y="167.642" width="34.3223" height="26.6963" filterUnits="userSpaceOnUse" color-interpolation-filters="sRGB">
<feFlood flood-opacity="0" result="BackgroundImageFix"/>
<feBlend mode="normal" in="SourceGraphic" in2="BackgroundImageFix" result="shape"/>
<feGaussianBlur stdDeviation="4" result="effect1_foregroundBlur_632_4911"/>
</filter>
<filter id="filter13_d_632_4911" x="1664.14" y="147" width="250.043" height="63" filterUnits="userSpaceOnUse" color-interpolation-filters="sRGB">
<feFlood flood-opacity="0" result="BackgroundImageFix"/>
<feColorMatrix in="SourceAlpha" type="matrix" values="0 0 0 0 0 0 0 0 0 0 0 0 0 0 0 0 0 0 127 0" result="hardAlpha"/>
<feOffset dx="-9" dy="21"/>
<feGaussianBlur stdDeviation="2"/>
<feComposite in2="hardAlpha" operator="out"/>
<feColorMatrix type="matrix" values="0 0 0 0 0 0 0 0 0 0 0 0 0 0 0 0 0 0 0.1 0"/>
<feBlend mode="normal" in2="BackgroundImageFix" result="effect1_dropShadow_632_4911"/>
<feBlend mode="normal" in="SourceGraphic" in2="effect1_dropShadow_632_4911" result="shape"/>
</filter>
<filter id="filter14_f_632_4911" x="1668.14" y="143" width="253.586" height="51" filterUnits="userSpaceOnUse" color-interpolation-filters="sRGB">
<feFlood flood-opacity="0" result="BackgroundImageFix"/>
<feBlend mode="normal" in="SourceGraphic" in2="BackgroundImageFix" result="shape"/>
<feGaussianBlur stdDeviation="4.5" result="effect1_foregroundBlur_632_4911"/>
</filter>
<filter id="filter15_f_632_4911" x="60.2441" y="170.001" width="357.811" height="65.999" filterUnits="userSpaceOnUse" color-interpolation-filters="sRGB">
<feFlood flood-opacity="0" result="BackgroundImageFix"/>
<feBlend mode="normal" in="SourceGraphic" in2="BackgroundImageFix" result="shape"/>
<feGaussianBlur stdDeviation="4.5" result="effect1_foregroundBlur_632_4911"/>
</filter>
<filter id="filter16_d_632_4911" x="67.2285" y="173.5" width="348.498" height="81.5" filterUnits="userSpaceOnUse" color-interpolation-filters="sRGB">
<feFlood flood-opacity="0" result="BackgroundImageFix"/>
<feColorMatrix in="SourceAlpha" type="matrix" values="0 0 0 0 0 0 0 0 0 0 0 0 0 0 0 0 0 0 127 0" result="hardAlpha"/>
<feOffset dx="3" dy="26"/>
<feGaussianBlur stdDeviation="2"/>
<feComposite in2="hardAlpha" operator="out"/>
<feColorMatrix type="matrix" values="0 0 0 0 0 0 0 0 0 0 0 0 0 0 0 0 0 0 0.2 0"/>
<feBlend mode="normal" in2="BackgroundImageFix" result="effect1_dropShadow_632_4911"/>
<feBlend mode="normal" in="SourceGraphic" in2="effect1_dropShadow_632_4911" result="shape"/>
</filter>
<linearGradient id="paint0_linear_632_4911" x1="929" y1="343.5" x2="929" y2="339.5" gradientUnits="userSpaceOnUse">
<stop stop-color="#5200FF"/>
<stop offset="0.332468" stop-color="#5200FF" stop-opacity="0.46"/>
<stop offset="0.524481" stop-color="#5200FF" stop-opacity="0"/>
<stop offset="0.735679" stop-color="#5200FF" stop-opacity="0.24"/>
<stop offset="1" stop-color="#5200FF"/>
</linearGradient>
<linearGradient id="paint1_linear_632_4911" x1="1792" y1="213.779" x2="1208.48" y2="1171.85" gradientUnits="userSpaceOnUse">
<stop stop-color="#502DFF"/>
</linearGradient>
<linearGradient id="paint2_linear_632_4911" x1="1789.12" y1="99.1164" x2="913.422" y2="1171.11" gradientUnits="userSpaceOnUse">
<stop stop-color="#19086C"/>
<stop offset="0.0001" stop-color="#0D043D"/>
</linearGradient>
<linearGradient id="paint3_linear_632_4911" x1="1796.73" y1="98.6435" x2="973.86" y2="1148" gradientUnits="userSpaceOnUse">
<stop stop-color="#19086C"/>
<stop offset="1" stop-color="#0D043D"/>
</linearGradient>
<linearGradient id="paint4_linear_632_4911" x1="1678.5" y1="335.5" x2="1435.25" y2="364.969" gradientUnits="userSpaceOnUse">
<stop stop-color="#F14BBE"/>
<stop offset="0.563906" stop-color="white"/>
<stop offset="1" stop-color="white" stop-opacity="0.02"/>
</linearGradient>
<linearGradient id="paint5_linear_632_4911" x1="271" y1="414.5" x2="487.062" y2="44.6628" gradientUnits="userSpaceOnUse">
<stop stop-color="#F14BBE"/>
<stop offset="0.563906" stop-color="white"/>
<stop offset="1" stop-color="white" stop-opacity="0.02"/>
</linearGradient>
<linearGradient id="paint6_linear_632_4911" x1="1355" y1="100" x2="1731.24" y2="181.16" gradientUnits="userSpaceOnUse">
<stop offset="0.205619" stop-color="white" stop-opacity="0.02"/>
<stop offset="0.455657" stop-color="#F14BBE"/>
<stop offset="0.56791" stop-color="white"/>
<stop offset="0.806713" stop-color="white" stop-opacity="0.02"/>
</linearGradient>
<linearGradient id="paint7_linear_632_4911" x1="611" y1="91" x2="529.942" y2="326.975" gradientUnits="userSpaceOnUse">
<stop offset="0.146086" stop-color="white" stop-opacity="0.02"/>
<stop offset="0.580333" stop-color="#F14BBE"/>
<stop offset="0.775707" stop-color="white"/>
<stop offset="1" stop-color="white" stop-opacity="0.02"/>
</linearGradient>
<linearGradient id="paint8_linear_632_4911" x1="1211" y1="91" x2="1383.91" y2="79.758" gradientUnits="userSpaceOnUse">
<stop offset="0.171257" stop-color="white" stop-opacity="0.02"/>
<stop offset="0.383082" stop-color="#F14BBE"/>
<stop offset="0.563906" stop-color="white"/>
<stop offset="1" stop-color="white" stop-opacity="0.02"/>
</linearGradient>
<linearGradient id="paint9_linear_632_4911" x1="453" y1="414.5" x2="669.063" y2="44.6629" gradientUnits="userSpaceOnUse">
<stop stop-color="#F14BBE"/>
<stop offset="0.563906" stop-color="white"/>
<stop offset="1" stop-color="white" stop-opacity="0.02"/>
</linearGradient>
<linearGradient id="paint10_linear_632_4911" x1="744.5" y1="118.5" x2="668.299" y2="178.393" gradientUnits="userSpaceOnUse">
<stop stop-color="#F14BBE"/>
<stop offset="0.185777" stop-color="white"/>
<stop offset="0.806713" stop-color="white" stop-opacity="0.02"/>
</linearGradient>
<linearGradient id="paint11_linear_632_4911" x1="657.611" y1="346.804" x2="673.332" y2="532.252" gradientUnits="userSpaceOnUse">
<stop stop-color="#F14BBE"/>
<stop offset="0.185777" stop-color="white"/>
<stop offset="0.806713" stop-color="white" stop-opacity="0.02"/>
</linearGradient>
<linearGradient id="paint12_linear_632_4911" x1="1382.5" y1="363.5" x2="1112.02" y2="315.033" gradientUnits="userSpaceOnUse">
<stop stop-color="#F14BBE"/>
<stop offset="0.563906" stop-color="white"/>
<stop offset="1" stop-color="white" stop-opacity="0.02"/>
</linearGradient>
<linearGradient id="paint13_linear_632_4911" x1="57.5" y1="379" x2="161.224" y2="254.34" gradientUnits="userSpaceOnUse">
<stop stop-color="#F14BBE"/>
<stop offset="0.563906" stop-color="white"/>
<stop offset="1" stop-color="white" stop-opacity="0.02"/>
</linearGradient>
<linearGradient id="paint14_linear_632_4911" x1="1548" y1="296" x2="1806.07" y2="375.663" gradientUnits="userSpaceOnUse">
<stop stop-color="#F14BBE"/>
<stop offset="0.185777" stop-color="white"/>
<stop offset="0.806713" stop-color="white" stop-opacity="0.02"/>
</linearGradient>
<linearGradient id="paint15_linear_632_4911" x1="1393" y1="81.5" x2="1403.07" y2="59.6472" gradientUnits="userSpaceOnUse">
<stop stop-color="#F14BBE"/>
<stop offset="0.563906" stop-color="white"/>
<stop offset="1" stop-color="white" stop-opacity="0.02"/>
</linearGradient>
<linearGradient id="paint16_linear_632_4911" x1="433.5" y1="104.5" x2="210.09" y2="145.038" gradientUnits="userSpaceOnUse">
<stop stop-color="#F14BBE"/>
<stop offset="0.504201" stop-color="white"/>
<stop offset="0.806713" stop-color="white" stop-opacity="0.02"/>
</linearGradient>
<linearGradient id="paint17_linear_632_4911" x1="1954.5" y1="357.5" x2="1699.78" y2="453.779" gradientUnits="userSpaceOnUse">
<stop stop-color="#F14BBE"/>
<stop offset="0.563906" stop-color="white"/>
<stop offset="1" stop-color="white" stop-opacity="0.02"/>
</linearGradient>
</defs>
</svg>
