<svg width="299" height="194" viewBox="0 0 299 194" fill="none" xmlns="http://www.w3.org/2000/svg">
<path d="M202.061 25.3369H60.0244V162.08H202.061V25.3369Z" fill="url(#paint0_linear_250_13758)"/>
<path d="M236.027 112.161C236.027 112.161 228.31 90.9583 210.479 96.5338C210.479 96.5338 225.524 98.9481 233.237 111.55C240.954 124.158 236.027 112.161 236.027 112.161Z" fill="url(#paint1_linear_250_13758)"/>
<path d="M233.001 112.161C233.001 112.161 240.718 90.9583 258.549 96.5338C258.549 96.5338 243.508 98.9481 235.791 111.55C228.074 124.158 233.001 112.161 233.001 112.161Z" fill="url(#paint2_linear_250_13758)"/>
<path d="M251.788 95.6278C251.788 95.6278 263.888 94.3831 252.253 113.496L258.547 114.233C258.543 114.233 280.882 94.6555 251.788 95.6278Z" fill="url(#paint3_linear_250_13758)"/>
<path d="M238.151 112.222L236.032 113.181L235.464 113.439C235.464 113.439 227.122 111.095 231.805 109.085C232.928 108.601 233.881 108.535 234.675 108.704C237.188 109.249 238.151 112.222 238.151 112.222Z" fill="url(#paint4_linear_250_13758)"/>
<path d="M236.032 113.181L235.464 113.439C235.464 113.439 227.122 111.095 231.805 109.085C232.928 108.601 233.881 108.535 234.675 108.704C234.68 108.704 234.684 108.709 234.689 108.709C234.684 108.709 231.016 109.963 236.032 113.181Z" fill="url(#paint5_linear_250_13758)"/>
<path d="M266.12 111.039H201.14V162.078H266.12V111.039Z" fill="url(#paint6_linear_250_13758)"/>
<path d="M268.425 111.039H198.832V126.361H268.425V111.039Z" fill="url(#paint7_linear_250_13758)"/>
<path d="M240.616 111.039H226.638V162.078H240.616V111.039Z" fill="url(#paint8_linear_250_13758)"/>
<path d="M275.129 128.066C275.129 128.066 269.474 126.009 266.355 123.703C265.429 123.017 264.725 122.312 264.457 121.627C264.222 121.03 264.326 120.452 264.899 119.931C264.899 119.931 265.279 119.776 266.233 120.175C267.651 120.762 270.343 122.566 274.96 127.874C275.021 127.94 275.077 128.001 275.129 128.066Z" fill="url(#paint9_linear_250_13758)"/>
<path d="M275.128 128.067L274.809 129.645C274.809 129.645 263.521 132.464 259.937 128.786C259.886 128.734 259.834 128.678 259.787 128.621C259.477 128.265 259.275 127.889 259.162 127.513C258.148 124.023 264.902 119.937 264.902 119.937C264.747 120.134 264.79 120.406 264.977 120.73C265.161 121.045 265.485 121.411 265.903 121.806C268.561 124.319 275.128 128.067 275.128 128.067Z" fill="url(#paint10_linear_250_13758)"/>
<path d="M265.904 121.805C265.904 121.805 263.579 122.763 262.879 124.266C262.175 125.77 261.785 127.047 260.813 127.507C260.362 127.724 260.019 128.184 259.784 128.621C259.474 128.264 259.272 127.888 259.159 127.512C259.239 126.911 259.46 126.253 259.962 125.657C261.404 123.947 262.87 122.716 263.048 122.096C263.185 121.627 264.387 121.007 264.974 120.729C265.162 121.04 265.481 121.406 265.904 121.805Z" fill="url(#paint11_linear_250_13758)"/>
<path d="M278.571 128.066C278.571 128.066 284.227 126.009 287.346 123.703C288.271 123.017 288.975 122.312 289.243 121.627C289.478 121.03 289.375 120.452 288.802 119.931C288.802 119.931 288.426 119.776 287.468 120.175C286.049 120.762 283.358 122.566 278.74 127.874C278.684 127.94 278.628 128.001 278.571 128.066Z" fill="url(#paint12_linear_250_13758)"/>
<path d="M278.571 128.067L278.895 129.645C278.895 129.645 290.183 132.464 293.766 128.786C293.818 128.734 293.87 128.678 293.917 128.621C294.227 128.265 294.429 127.889 294.542 127.513C295.556 124.023 288.802 119.937 288.802 119.937C288.957 120.134 288.914 120.406 288.726 120.73C288.543 121.045 288.219 121.411 287.801 121.806C285.143 124.319 278.571 128.067 278.571 128.067Z" fill="url(#paint13_linear_250_13758)"/>
<path d="M274.702 128.067C274.702 128.067 275.228 127.471 275.599 127.705C275.97 127.94 276.496 127.259 277.06 127.532C277.624 127.804 277.685 127.048 278.366 127.466C279.047 127.884 279.455 129.246 278.948 129.932C278.441 130.613 278.168 129.796 277.915 129.932C277.661 130.068 277.191 130.679 276.412 130.209C275.632 129.739 274.481 130.636 274.561 130.049C274.641 129.457 274.368 129.194 274.702 128.067Z" fill="url(#paint14_linear_250_13758)"/>
<path d="M297.534 129.589H256.171V162.079H297.534V129.589Z" fill="url(#paint15_linear_250_13758)"/>
<path d="M298.999 129.589H254.7V140.862H298.999V129.589Z" fill="url(#paint16_linear_250_13758)"/>
<path d="M281.295 129.589H272.398V162.079H281.295V129.589Z" fill="url(#paint17_linear_250_13758)"/>
<path d="M36.0404 73.1526C43.2035 78.1409 50.2257 81.4853 53.9975 79.4467C54.2183 79.3246 54.4296 79.1884 54.6269 79.0334C56.7829 77.3283 57.5438 73.3452 56.0971 66.1257C52.2502 46.9098 40.1786 43.8519 28.8961 38.0698C17.7545 32.3628 22.0007 20.2348 22.1087 19.9248C6.72098 47.1963 23.8983 64.6884 36.0404 73.1526Z" fill="url(#paint18_linear_250_13758)"/>
<path d="M53.9947 79.447C54.2155 79.3249 54.4268 79.1886 54.6241 79.0336C53.2009 75.2994 50.0632 68.0705 45.7841 64.1578C43.7644 62.3119 41.4158 60.6444 38.9357 58.8736C34.2433 55.5339 29.3912 52.0768 26.1126 46.9805L25.502 47.3703C28.8604 52.5841 33.7689 56.0788 38.5224 59.4607C40.9884 61.2128 43.3134 62.8708 45.2956 64.6886C49.4714 68.5074 52.6137 75.8067 53.9947 79.447Z" fill="url(#paint19_linear_250_13758)"/>
<path d="M15.0261 92.7863C24.9041 94.4068 31.2781 86.6001 42.6452 100.969C52.4575 113.374 66.3421 99.6628 69.9589 95.6797C70.532 95.0456 70.8467 94.6604 70.8467 94.6604C70.8467 94.6604 70.6306 94.7168 70.2501 94.8013C67.7842 95.3368 58.4416 96.854 56.2433 89.7519C53.7069 81.5507 46.4451 70.3951 36.8489 73.3355C27.2574 76.2806 25.1813 69.0564 18.098 63.6171C11.0147 58.1779 0 68.2203 0 68.2203C0 68.2203 5.14805 91.1657 15.0261 92.7863Z" fill="url(#paint20_linear_250_13758)"/>
<path d="M45.9671 90.0712C47.8412 93.3311 49.7858 96.7036 54.187 98.5543C60.1946 101.072 66.3291 98.1221 69.9553 95.6843C70.5283 95.0502 70.843 94.665 70.843 94.665C70.843 94.665 70.6269 94.7214 70.2465 94.8059C66.827 97.2344 60.5234 100.607 54.4031 98.0376C50.1757 96.2667 48.278 92.9741 46.4462 89.7941C44.3278 86.1163 42.1436 82.3116 36.3849 80.9964C33.8391 80.414 31.5845 80.6019 29.4003 80.7803C26.2579 81.0387 23.2847 81.2876 20.0342 79.0283L19.7148 79.4839C23.1297 81.856 26.1969 81.5976 29.4426 81.3346C31.5845 81.1561 33.7968 80.9729 36.2581 81.5366C41.7819 82.8001 43.8158 86.3323 45.9671 90.0712Z" fill="url(#paint21_linear_250_13758)"/>
<path d="M199.093 46.848C200.155 66.3693 215.641 65.397 216.867 65.2936C216.919 65.2889 216.947 65.2842 216.947 65.2842C216.609 64.8944 216.289 64.4951 216.003 64.0865C208.243 53.3394 217.083 38.6375 216.937 27.8247C216.787 16.608 206.792 14.1514 206.792 14.1514C214.143 20.3375 197.994 26.5189 199.093 46.848Z" fill="url(#paint22_linear_250_13758)"/>
<path d="M208.159 56.6786C210.263 60.4269 213.579 63.2734 216.867 65.2884C216.919 65.2837 216.947 65.279 216.947 65.279C216.609 64.8892 216.289 64.4899 216.003 64.0813C213.175 62.1743 210.446 59.6331 208.638 56.4062C206.313 52.2586 205.918 47.6742 207.464 42.7798C212.363 27.2605 209.582 24.7899 209.465 24.6865L209.295 24.9026L209.117 25.1093C209.117 25.1093 209.122 25.114 209.126 25.114C209.272 25.269 211.555 28.0262 206.947 42.6107C205.345 47.6648 205.759 52.3948 208.159 56.6786Z" fill="url(#paint23_linear_250_13758)"/>
<path d="M230.3 66.356C224.147 73.9419 217.627 79.7193 212.935 78.7C212.657 78.639 212.39 78.5544 212.131 78.4511C209.285 77.2862 207.232 73.2373 206.542 65.022C204.715 43.1616 216.749 36.1253 227.092 26.407C237.308 16.8108 233.846 5.08205 233.63 4.78613C258.652 29.338 240.732 53.4859 230.3 66.356Z" fill="url(#paint24_linear_250_13758)"/>
<path d="M212.935 78.6955C212.658 78.6344 212.39 78.5499 212.132 78.4466C212.503 73.989 213.635 65.2429 217.022 59.705C218.623 57.0934 220.629 54.5711 222.747 51.8984C226.759 46.849 230.906 41.6258 232.851 35.125L233.631 35.3552C231.634 42.0063 227.44 47.2859 223.381 52.401C221.277 55.0502 219.286 57.5538 217.717 60.1278C214.41 65.5295 213.292 74.3507 212.935 78.6955Z" fill="url(#paint25_linear_250_13758)"/>
<path d="M211.929 156.762H50.1512C45.0877 156.762 40.9824 152.657 40.9824 147.598V54.1209C40.9824 49.0574 45.0877 44.9521 50.1512 44.9521H211.929C216.993 44.9521 221.094 49.0574 221.094 54.1209V147.598C221.098 152.662 216.993 156.762 211.929 156.762Z" fill="url(#paint26_linear_250_13758)"/>
<path d="M190.303 83.4818C182.126 83.4818 175.475 76.8307 175.475 68.653C175.475 60.4753 182.126 53.8242 190.303 53.8242C198.481 53.8242 205.132 60.4753 205.132 68.653C205.132 76.8307 198.481 83.4818 190.303 83.4818ZM190.303 56.0037C183.328 56.0037 177.654 61.6778 177.654 68.653C177.654 75.6283 183.328 81.3024 190.303 81.3024C197.279 81.3024 202.953 75.6283 202.953 68.653C202.953 61.6778 197.279 56.0037 190.303 56.0037Z" fill="#FF7759"/>
<path d="M61.1534 131.191C60.3408 131.191 59.5845 131.05 58.8847 130.773C58.1895 130.496 57.5836 130.115 57.0716 129.641C56.5596 129.166 56.151 128.607 55.8503 127.969C55.5497 127.33 55.3994 126.639 55.3994 125.892C55.3994 125.174 55.5497 124.488 55.8503 123.835C56.151 123.187 56.5596 122.628 57.0716 122.163C57.5836 121.698 58.1895 121.327 58.8847 121.045C59.5845 120.768 60.3361 120.627 61.1534 120.627C61.9425 120.627 62.694 120.768 63.4033 121.045C64.1126 121.322 64.7232 121.698 65.2352 122.163C65.7472 122.628 66.1558 123.187 66.4564 123.835C66.7571 124.488 66.9074 125.174 66.9074 125.892C66.9074 126.635 66.7571 127.33 66.4564 127.969C66.1558 128.607 65.7472 129.166 65.2352 129.641C64.7232 130.12 64.1126 130.496 63.4033 130.773C62.694 131.055 61.9472 131.191 61.1534 131.191ZM57.3534 144.094L67.1845 132.623L76.2499 120.697L78.3777 122.581L68.8567 133.845L59.4765 145.977L57.3534 144.094ZM61.1534 128.856C61.501 128.856 61.8204 128.776 62.1116 128.612C62.4028 128.448 62.6659 128.236 62.896 127.969C63.1262 127.701 63.3094 127.386 63.4362 127.029C63.563 126.667 63.6288 126.292 63.6288 125.897C63.6288 125.085 63.3845 124.394 62.896 123.821C62.4075 123.253 61.8251 122.966 61.1534 122.966C60.8058 122.966 60.4864 123.046 60.1952 123.21C59.904 123.375 59.6409 123.586 59.4108 123.854C59.1759 124.122 58.9974 124.427 58.8706 124.779C58.7438 125.127 58.678 125.498 58.678 125.897C58.678 126.71 58.9223 127.41 59.4108 127.992C59.8993 128.565 60.4817 128.856 61.1534 128.856ZM74.6153 146.081C73.8027 146.081 73.0465 145.94 72.3466 145.663C71.6515 145.385 71.0455 145.01 70.5335 144.545C70.0216 144.08 69.6129 143.53 69.3123 142.891C69.0117 142.252 68.8614 141.562 68.8614 140.815C68.8614 140.073 69.0117 139.383 69.3123 138.739C69.6129 138.1 70.0216 137.541 70.5335 137.067C71.0455 136.592 71.6515 136.212 72.3466 135.935C73.0465 135.658 73.798 135.517 74.6153 135.517C75.4279 135.517 76.1842 135.658 76.8841 135.935C77.5792 136.212 78.1945 136.592 78.7159 137.067C79.242 137.546 79.646 138.1 79.9372 138.739C80.2284 139.378 80.374 140.068 80.374 140.815C80.374 141.562 80.2284 142.252 79.9372 142.891C79.646 143.53 79.242 144.084 78.7159 144.545C78.1945 145.01 77.5839 145.381 76.8841 145.663C76.1842 145.94 75.4279 146.081 74.6153 146.081ZM74.6153 143.746C74.9629 143.746 75.2823 143.666 75.5735 143.502C75.8648 143.342 76.1278 143.126 76.358 142.858C76.5881 142.591 76.7713 142.285 76.8981 141.933C77.025 141.586 77.0907 141.214 77.0907 140.815C77.0907 140.397 77.0203 140.007 76.8793 139.646C76.7384 139.284 76.5599 138.974 76.3392 138.706C76.1184 138.438 75.8554 138.232 75.5548 138.077C75.2541 137.926 74.9394 137.851 74.6106 137.851C74.2631 137.851 73.9436 137.931 73.6524 138.096C73.3612 138.26 73.0982 138.471 72.868 138.739C72.6332 139.007 72.4547 139.321 72.3278 139.678C72.201 140.04 72.1353 140.416 72.1353 140.81C72.1353 141.623 72.3795 142.318 72.868 142.887C73.3612 143.46 73.939 143.746 74.6153 143.746Z" fill="#FF6A59"/>
<path d="M147.066 59.4424H51.5264V66.2767H147.066V59.4424Z" fill="url(#paint27_linear_250_13758)"/>
<path d="M147.066 53.8193H51.5264V55.5902H147.066V53.8193Z" fill="url(#paint28_linear_250_13758)"/>
<path d="M100.391 70.0625H51.5264V76.8968H100.391V70.0625Z" fill="url(#paint29_linear_250_13758)"/>
<path opacity="0.95" d="M161.432 166.907H100.656C96.7951 166.907 93.6621 163.774 93.6621 159.913V80.4755C93.6621 76.6097 96.7951 73.4814 100.656 73.4814H161.427C165.289 73.4814 168.422 76.6144 168.422 80.4755V159.913C168.426 163.774 165.293 166.907 161.432 166.907Z" fill="url(#paint30_linear_250_13758)"/>
<path d="M149.965 150.769C145.423 150.769 141.727 147.072 141.727 142.53C141.727 137.988 145.423 134.291 149.965 134.291C154.507 134.291 158.204 137.988 158.204 142.53C158.204 147.072 154.507 150.769 149.965 150.769ZM149.965 135.883C146.302 135.883 143.319 138.866 143.319 142.53C143.319 146.194 146.302 149.176 149.965 149.176C153.629 149.176 156.607 146.194 156.607 142.53C156.607 138.866 153.629 135.883 149.965 135.883Z" fill="#FF5458"/>
<path d="M149.439 145.771L145.695 142.027L146.823 140.9L149.439 143.516L153.107 139.848L154.235 140.975L149.439 145.771Z" fill="#FF5458"/>
<path d="M175.238 138.904H172.847V149.924H175.238V138.904Z" fill="#FF7759"/>
<path d="M177.581 138.904H176.383V149.924H177.581V138.904Z" fill="#FF7759"/>
<path d="M180.907 138.904H178.723V149.924H180.907V138.904Z" fill="#FF7759"/>
<path d="M183.396 138.904H182.086V149.924H183.396V138.904Z" fill="#FF7759"/>
<path d="M184.922 138.941H184.312V149.961H184.922V138.941Z" fill="#FF7759"/>
<path d="M187.895 138.904H185.805V149.924H187.895V138.904Z" fill="#FF7759"/>
<path d="M190.325 138.904H188.742V149.924H190.325V138.904Z" fill="#FF7759"/>
<path d="M191.875 138.904H191.086V149.924H191.875V138.904Z" fill="#FF7759"/>
<path d="M195.015 138.904H192.77V149.924H195.015V138.904Z" fill="#FF7759"/>
<path d="M197.263 138.904H195.586V149.924H197.263V138.904Z" fill="#FF7759"/>
<path d="M198.819 138.904H197.983V149.924H198.819V138.904Z" fill="#FF7759"/>
<path d="M200.645 138.904H199.489V149.924H200.645V138.904Z" fill="#FF7759"/>
<path d="M205.136 138.951H201.468V149.971H205.136V138.951Z" fill="#FF7759"/>
<path d="M55.7275 16.5566V36.8153C55.7275 36.8153 59.7671 42.5223 64.5863 36.8153H73.4451C73.4451 36.8153 77.4846 42.5223 82.3039 36.8153H91.1673C91.1673 36.8153 95.2069 42.5223 100.026 36.8153H108.885C108.885 36.8153 112.924 42.5223 117.748 36.8153H126.607C126.607 36.8153 130.647 42.5223 135.471 36.8153H144.329C144.329 36.8153 148.369 42.5223 153.188 36.8153H162.047C162.047 36.8153 166.086 42.5223 170.91 36.8153H179.769C179.769 36.8153 183.809 42.5223 188.628 36.8153H197.491C197.491 36.8153 201.531 42.5223 206.355 36.8153V16.5566H55.7275Z" fill="url(#paint31_linear_250_13758)"/>
<path d="M64.5869 36.8153C64.5869 36.8153 68.6264 42.5223 73.4457 36.8153V16.5566H64.5869V36.8153Z" fill="#38D2E0"/>
<path d="M82.3096 36.8153C82.3096 36.8153 86.3491 42.5223 91.173 36.8153V16.5566H82.3096V36.8153Z" fill="#38D2E0"/>
<path d="M100.032 36.8153C100.032 36.8153 104.072 42.5223 108.891 36.8153V16.5566H100.032V36.8153Z" fill="#38D2E0"/>
<path d="M117.755 36.8153C117.755 36.8153 121.794 42.5223 126.614 36.8153V16.5566H117.755V36.8153Z" fill="#38D2E0"/>
<path d="M135.477 36.8153C135.477 36.8153 139.516 42.5223 144.335 36.8153V16.5566H135.477V36.8153Z" fill="#38D2E0"/>
<path d="M153.193 36.8153C153.193 36.8153 157.233 42.5223 162.052 36.8153V16.5566H153.193V36.8153Z" fill="#38D2E0"/>
<path d="M170.916 36.8153C170.916 36.8153 174.956 42.5223 179.775 36.8153V16.5566H170.916V36.8153Z" fill="#38D2E0"/>
<path d="M188.639 16.5566V36.8153C188.639 36.8153 192.678 42.5223 197.502 36.8153V16.5566H188.639Z" fill="#38D2E0"/>
<path d="M144.992 87.376L143.742 92.8763H111.75V94.1257L116.353 115.498V116.122H118.96L119.622 118.889H120.576C119.683 119.218 119.045 120.077 119.045 121.083C119.045 122.374 120.092 123.422 121.384 123.422C122.676 123.422 123.723 122.374 123.723 121.083C123.723 120.077 123.084 119.222 122.192 118.889H135.339C134.446 119.218 133.808 120.077 133.808 121.083C133.808 122.374 134.855 123.422 136.147 123.422C137.439 123.422 138.486 122.374 138.486 121.083C138.486 120.077 137.847 119.222 136.955 118.889H137.993V117.903H120.407L119.979 116.122H139.829V115.498L143.596 98.0056L145.785 88.3671H159.2V87.3807H144.992V87.376ZM122.737 121.078C122.737 121.825 122.131 122.431 121.384 122.431C120.637 122.431 120.031 121.825 120.031 121.078C120.031 120.331 120.637 119.725 121.384 119.725C122.126 119.725 122.737 120.331 122.737 121.078ZM137.495 121.078C137.495 121.825 136.889 122.431 136.142 122.431C135.395 122.431 134.789 121.825 134.789 121.078C134.789 120.331 135.395 119.725 136.142 119.725C136.889 119.725 137.495 120.331 137.495 121.078ZM123.906 101.453H132.272L131.835 107.536H124.343L123.906 101.453ZM123.244 107.536H115.761L114.451 101.453H122.807L123.244 107.536ZM132.361 100.204H123.812L123.375 94.121H132.793L132.361 100.204ZM133.897 94.121H143.305L141.995 100.204H133.46L133.897 94.121ZM131.746 108.785L131.309 114.868H124.869L124.432 108.785H131.746ZM132.845 108.785H140.149L138.838 114.868H132.408L132.845 108.785ZM140.417 107.536H132.934L133.371 101.453H141.727L140.445 107.419L140.417 107.536ZM122.281 94.121L122.718 100.204H114.183L112.873 94.121H122.281ZM116.029 108.785H123.333L123.77 114.868H117.34L116.029 108.785Z" fill="#FF5458"/>
<path d="M134.789 156.273H127.292V157.227H134.789V156.273Z" fill="#FF5458"/>
<path d="M134.789 78.8125H127.292V79.766H134.789V78.8125Z" fill="#FF5458"/>
<path d="M123.247 138.321H104.717V140.797H123.247V138.321Z" fill="#FF5458"/>
<path d="M132.148 144.263H104.717V146.738H132.148V144.263Z" fill="#FF5458"/>
<path d="M205.133 98.1553H176.382V107.606H205.133V98.1553Z" fill="#FF6A59"/>
<path d="M205.133 110.213H176.382V115.831H205.133V110.213Z" fill="#FF6A59"/>
<path d="M189.411 140.676C189.411 140.676 189.035 141.291 188.988 141.799C188.951 142.198 188.617 142.794 188.471 143.123C188.326 143.452 187.861 144.946 187.842 145.331C187.833 145.49 188.19 146.486 188.138 146.81C188.086 147.13 187.903 147.764 188.19 147.806C188.476 147.848 188.8 147.327 188.8 147.327C188.8 147.327 188.772 147.623 189.016 147.736C189.491 147.952 189.74 147.759 189.74 147.759C189.74 147.759 189.913 148.083 190.134 148.126C190.613 148.219 190.853 148.027 190.853 148.027C190.853 148.027 191.064 148.21 191.398 148.201C191.825 148.191 192.004 147.825 192.004 147.825C192.004 147.825 192.544 147.933 192.699 147.684C192.854 147.43 192.826 147.163 192.891 146.937C192.957 146.707 192.91 144.65 192.206 143.165C191.506 141.681 192.384 140.234 192.384 140.234L189.411 140.676Z" fill="#EEA886"/>
<path d="M188.733 147.134C188.733 147.134 188.686 145.283 189.17 144.889C189.658 144.494 189.714 145.161 189.714 145.161C189.714 145.161 189.649 144.504 190.179 144.414C190.71 144.325 190.734 145.109 190.734 145.109C190.734 145.109 190.823 144.602 191.382 144.706C191.941 144.809 191.809 145.462 191.809 145.462C191.809 145.462 192.345 144.823 192.688 145.438C193.27 146.472 192.711 147.688 192.711 147.688C192.711 147.688 192.547 147.965 192.016 147.829C192.016 147.829 191.659 148.543 190.865 148.031C190.865 148.031 190.053 148.477 189.752 147.759C189.747 147.763 188.85 148.191 188.733 147.134Z" fill="#DB9C7C"/>
<path d="M183.14 114.041C183.14 114.041 186.306 124.591 187.377 128.485C187.71 129.706 188.523 141.36 188.669 141.829C188.814 142.299 192.826 142.942 192.826 142.942C192.826 142.942 192.337 128.363 192.295 127.564C192.248 126.77 187.865 110.485 186.588 109.903C185.63 109.466 185.127 109.828 183.925 110.72C182.234 111.979 183.14 114.041 183.14 114.041Z" fill="#323657"/>
<path d="M185.709 186.077C185.709 186.077 186 188.077 186.033 188.378C186.071 188.679 189.241 188.2 189.241 188.2L189.5 185.813C189.5 185.818 186.104 185.795 185.709 186.077Z" fill="#424773"/>
<path d="M185.998 188.124C185.998 188.124 184.993 189.332 184.021 189.858C183.048 190.384 181.517 190.59 180.944 191.135C180.531 191.53 179.432 193.221 183.471 193.188C187.511 193.155 189.46 193.428 189.892 192.779C190.324 192.131 189.267 187.988 189.267 187.988C189.267 187.988 188.309 188.336 185.998 188.124Z" fill="#292C47"/>
<path d="M162.966 186.077C162.966 186.077 163.257 188.077 163.29 188.378C163.327 188.679 166.498 188.2 166.498 188.2L166.756 185.813C166.761 185.818 163.365 185.795 162.966 186.077Z" fill="#424773"/>
<path d="M163.255 188.124C163.255 188.124 162.25 189.332 161.278 189.858C160.305 190.384 156.726 190.816 156.153 191.361C155.74 191.755 155.049 193.334 160.733 193.188C164.772 193.085 166.722 193.428 167.154 192.779C167.586 192.131 166.529 187.988 166.529 187.988C166.529 187.988 165.623 188.359 163.255 188.124Z" fill="#292C47"/>
<path d="M183.076 134.615C183.076 134.615 186.059 139.355 185.833 143.634C185.613 147.917 186.914 152.596 187.365 157.067C187.863 162.056 189.911 173.864 189.981 176.532C190.056 179.2 189.662 187.721 189.662 187.721L185.57 187.815C185.57 187.815 182.132 167.171 181.244 165.067C180.357 162.962 175.941 147.946 175.791 146.259C175.65 144.568 183.076 134.615 183.076 134.615Z" fill="#292C47"/>
<path d="M167.383 135.254C167.383 135.254 165.133 146.992 164.837 149.613C164.541 152.234 164.344 162.3 164.193 163.939C164.043 165.578 162.808 185.33 162.413 187.814H167.646C167.646 187.814 171.662 173.422 171.662 166.607C171.662 159.796 174.762 151.802 176.768 147.306C178.768 142.811 183.353 142.708 184.584 134.371C184.584 134.371 169.05 132.609 167.383 135.254Z" fill="#292C47"/>
<path d="M178.106 94.7796C178.106 94.7796 174.104 93.2859 172.258 96.3296C170.412 99.378 170.591 105.475 172.606 106.226C174.626 106.978 177.655 106.583 178.689 104.676C179.722 102.769 180.652 100.012 180.61 98.1709C180.563 96.3296 179.158 95.3103 178.106 94.7796Z" fill="#EEA886"/>
<path d="M173.042 106.367C173.042 106.367 173.206 107.448 172.934 107.978C172.657 108.509 178.12 108.523 178.12 108.523C178.12 108.523 178.561 105.63 179.402 103.183C180.243 100.735 173.042 106.367 173.042 106.367Z" fill="#EEA886"/>
<path d="M179.4 103.181C179.4 103.181 179.024 103.801 177.484 103.562C175.943 103.322 174.069 101.274 173.425 101.049C172.782 100.823 172.777 100.448 172.777 100.448L172.373 101.035L171.692 101.077C171.692 101.077 172.312 99.2452 171.378 98.4984C170.438 97.7515 172.355 92.5706 177.287 94.2945C177.287 94.2945 181.077 95.3372 180.941 97.4932C180.8 99.6539 180.25 102.11 179.4 103.181Z" fill="#323657"/>
<path d="M172.609 107.916C172.609 107.916 172.628 106.902 173.088 106.803C173.549 106.705 178.18 106.258 178.744 106.484V107.667C178.744 107.663 177.649 108.334 172.609 107.916Z" fill="#E2D2CA"/>
<path d="M172.884 99.6623C172.968 99.3006 173.889 98.2672 174.241 99.3757C174.593 100.484 173.71 101.969 173.217 101.842C172.724 101.715 172.663 100.578 172.884 99.6623Z" fill="#EEA886"/>
<path d="M154.24 119.931C154.24 119.931 154.245 119.931 154.25 119.931C154.217 119.945 154.212 119.945 154.24 119.931Z" fill="#323657"/>
<path d="M179.245 95.1338C179.245 95.1338 184.346 95.533 179.4 103.18L179.245 95.1338Z" fill="#323657"/>
<path d="M144.464 96.6895C144.628 96.1775 145.178 96.0272 145.178 96.0272C145.408 95.6796 145.995 95.5011 145.995 95.5011C146.004 95.4776 146.018 95.4541 146.028 95.4306C145.666 95.0408 144.614 94.3127 144.553 94.1765C144.478 94.0074 144.497 93.9886 144.703 93.8806C144.872 93.7866 146.591 94.9045 147.164 95.285C147.305 95.3743 147.418 95.4588 147.442 95.4776C147.601 95.6091 147.921 95.7078 148.193 95.9943C148.221 96.0225 148.249 96.06 148.282 96.0929C148.564 96.4546 149.236 99.3668 149.236 99.3668L148.043 99.9023L146.892 100.879C146.892 100.879 145.549 99.7661 145.206 99.4185C144.858 99.0662 144.703 98.6622 144.609 98.4885C144.586 98.4462 144.543 98.3851 144.497 98.3194C144.341 98.108 144.102 97.8262 144.102 97.8262C143.985 97.6618 143.914 97.2531 143.914 97.2531C143.923 96.9008 144.464 96.6895 144.464 96.6895Z" fill="#EFAA88"/>
<path d="M164.954 109.455C168.129 109.037 172.61 107.915 172.61 107.915L178.745 107.666C178.745 107.666 184.372 108.906 186.593 109.906C186.805 110 186.805 114.927 187.383 116.219L185.546 120.099C185.546 120.099 184.484 127.779 184.264 131.198C184.165 132.767 186.453 145.905 186.453 145.905C186.453 145.905 183.996 146.628 179.811 147.089C175.626 147.549 165.165 146.919 165.099 146.426C165.034 145.933 167.124 128.014 167.218 127.088C167.359 125.665 166.725 118.098 166.725 118.098C165.757 117.346 157.274 113.41 154.958 111.358C154.338 110.808 151.722 108.262 150.98 107.384C148.35 104.27 146.189 101.602 145.926 101.024C145.63 100.695 148.786 98.9806 149.073 98.882C149.322 98.7975 152.882 103.41 154.249 104.894C154.86 105.557 157.401 107.403 157.401 107.403C157.401 107.403 162.967 109.568 164.954 109.455Z" fill="#323657"/>
<path d="M65.6191 107.015C65.6191 107.015 66.3566 105.634 66.4787 105.427C66.5961 105.22 67.1974 104.924 67.916 104.647C68.6347 104.37 69.7291 104.314 69.8372 104.394C69.9452 104.469 70.0908 104.497 70.2035 104.816C70.321 105.136 70.2035 105.474 70.2035 105.474C70.2035 105.474 70.5041 105.817 70.3773 106.221C70.3773 106.221 70.7014 106.526 70.4807 106.963C70.4807 106.963 70.7907 107.287 70.6028 107.588C70.6028 107.588 70.0016 107.884 69.8137 108.057C69.6211 108.231 68.3341 108.762 67.0142 109.077C67.0142 109.077 65.6708 108.959 65.6191 107.015Z" fill="#EEA886"/>
<path d="M67.7691 106.451C67.7691 106.451 67.6986 107.236 67.5671 107.442C67.4356 107.654 69.0749 108.325 69.0749 108.325C69.0749 108.325 68.7179 106.564 67.7691 106.451Z" fill="#CF8C6C"/>
<path d="M86.4953 126.587L66.9224 129.132L63.6016 111.208L84.0669 107.704L86.4953 126.587Z" fill="#EB4747"/>
<path d="M76.5892 109.467C76.5235 107.588 75.8565 105.333 74.3957 104.136C73.3153 103.248 72.0001 103.06 70.6427 103.276C67.4627 103.788 67.2513 107.109 67.8995 109.448L76.5892 109.467ZM68.2236 109.025C67.6788 106.536 68.1673 104.103 70.7084 103.689C71.9438 103.487 73.1509 103.657 74.1232 104.455C75.3961 105.498 75.9974 107.428 76.143 109.039L68.2236 109.025Z" fill="#23344A"/>
<path d="M77.3778 109.467C77.312 107.588 76.4713 105.333 75.0105 104.136C73.9301 103.248 72.6149 103.06 71.2575 103.276C68.0775 103.788 68.4392 107.109 69.0874 109.448L77.3778 109.467ZM69.4162 109.025C68.8713 106.536 68.7821 104.103 71.3232 103.689C72.5586 103.487 73.7657 103.657 74.738 104.455C76.0062 105.498 76.9034 107.428 77.0443 109.039L69.4162 109.025Z" fill="#23344A"/>
<path d="M83.4738 129.457L60.627 127.701L62.4635 109.189L83.6945 108.564L83.4738 129.457Z" fill="#9E4CC7"/>
<path d="M19.6586 119.217C19.6586 119.217 19.8465 117.662 19.8653 117.423C19.8841 117.183 19.5647 116.601 19.1373 115.962C18.7098 115.323 17.8456 114.652 17.714 114.652C17.5825 114.652 17.4463 114.59 17.1692 114.788C16.892 114.985 16.7746 115.314 16.7746 115.314C16.7746 115.314 16.3143 115.408 16.1875 115.812C16.1875 115.812 15.7694 115.896 15.699 116.38C15.699 116.38 15.2668 116.469 15.248 116.826C15.248 116.826 15.5675 117.413 15.6238 117.662C15.6802 117.916 16.4317 119.09 17.3289 120.105C17.3289 120.1 18.4985 120.777 19.6586 119.217Z" fill="#EEA886"/>
<path d="M22.1843 121.361C22.3722 119.924 22.189 118.078 21.2261 116.955C20.592 116.218 19.7277 115.908 18.7742 115.889C17.459 115.856 16.2377 116.222 15.3406 117.195C14.1146 118.524 13.7858 120.75 13.969 122.526L22.1843 121.361ZM14.3307 122.07C14.2555 120.52 14.5656 118.627 15.6318 117.472C16.4397 116.598 17.5576 116.264 18.7601 116.293C19.6056 116.311 20.3665 116.584 20.9114 117.218C21.724 118.162 21.9212 119.778 21.8132 121.009L14.3307 122.07Z" fill="#23344A"/>
<path d="M5.19922 142.472L6.6976 123.181L10.0466 142.204L7.73097 141.8L5.19922 142.472Z" fill="#3F74A0"/>
<path d="M10.0492 142.206L29.9227 138.711L26.6676 120.195L6.64844 123.042L10.0492 142.206Z" fill="#5B83C2"/>
<path d="M31.3115 125.505C31.6357 126.45 31.3303 127.643 30.917 128.54L31.274 128.563C31.6967 127.605 31.9738 126.398 31.6263 125.397L31.3115 125.505Z" fill="#23344A"/>
<path d="M16.666 142.943L32.9556 145.061L35.7269 130.134L18.6952 127.222L16.666 142.943Z" fill="#EB4747"/>
<path d="M13.3438 142.472L18.6797 127.229L16.6599 142.847L14.9314 142.204L13.3438 142.472Z" fill="#AD3434"/>
<path d="M31.6719 125.079C32.2496 126.225 31.9678 127.78 31.8645 128.236L32.198 128.358C32.306 127.898 32.6912 125.991 31.841 124.666L31.6719 125.079Z" fill="#23344A"/>
<path d="M14.9346 144.756L18.5561 128.288L19.1761 145.235L17.1986 144.479L14.9346 144.756Z" fill="#B06E2A"/>
<path d="M17.3311 120.1C17.3311 120.1 18.5523 121.185 19.177 121.204C19.8064 121.223 20.1258 119.499 20.1258 119.499L19.5857 118.442L17.3311 120.1Z" fill="#EEA886"/>
<path d="M64.7887 107.997C64.7887 107.997 65.3993 107.419 65.667 106.921C65.9348 106.423 67.1513 109.054 67.1513 109.054C67.1513 109.054 65.6388 109.115 64.9719 109.584C64.3049 110.054 64.7887 107.997 64.7887 107.997Z" fill="#EEA886"/>
<path d="M69.6413 104.46C69.6413 104.46 67.8376 105.207 67.9221 105.512C68.0067 105.817 68.2227 105.878 68.2227 105.878L67.6215 106.522C67.6215 106.522 67.4618 107.175 68.218 107.156C68.218 107.156 68.0067 107.748 68.7347 107.645C68.7347 107.645 68.7723 108.1 69.1152 108.11C69.4628 108.119 70.5995 107.593 70.5995 107.593C70.5995 107.593 70.7921 107.372 70.5055 106.968C70.5055 106.968 70.7404 106.564 70.4304 106.212C70.4304 106.212 70.5666 105.86 70.2331 105.479C70.2331 105.479 70.4774 104.667 69.8292 104.399C69.8338 104.394 69.7164 104.432 69.6413 104.46Z" fill="#DB9C7C"/>
<path d="M66.5324 105.399C66.5324 105.399 67.8664 105.507 68.571 105.888C68.7307 105.972 68.8669 106.085 68.8481 106.264C68.8293 106.442 68.5428 106.644 67.9651 106.625C67.3826 106.607 66.6264 106.851 66.6264 106.851C66.6264 106.851 66.0298 106.658 66.5324 105.399Z" fill="#EEA886"/>
<path d="M18.2218 117.521C18.2218 117.521 17.8319 118.202 17.8178 118.451C17.8037 118.7 16.0752 118.31 16.0752 118.31C16.0752 118.31 17.381 117.066 18.2218 117.521Z" fill="#CF8C6C"/>
<path d="M17.8316 114.817C17.8316 114.817 18.8744 116.466 18.6301 116.663C18.3859 116.865 18.1745 116.79 18.1745 116.79L18.2966 117.664C18.2966 117.664 18.0524 118.288 17.4417 117.837C17.4417 117.837 17.2726 118.443 16.7372 117.941C16.7372 117.941 16.446 118.293 16.1594 118.1C15.8682 117.913 15.2435 116.823 15.2435 116.823C15.2435 116.823 15.2153 116.532 15.6803 116.362C15.6803 116.362 15.7179 115.893 16.1782 115.785C16.1782 115.785 16.2675 115.414 16.7607 115.301C16.7607 115.301 17.0284 114.493 17.7142 114.653C17.7142 114.653 17.7893 114.747 17.8316 114.817Z" fill="#DB9C7C"/>
<path d="M19.835 117.371C19.835 117.371 18.6795 116.69 17.8904 116.601C17.7119 116.577 17.5334 116.591 17.4489 116.751C17.3596 116.906 17.4817 117.235 17.9655 117.554C18.4493 117.874 18.9285 118.508 18.9285 118.508C18.9285 118.508 19.5203 118.686 19.835 117.371Z" fill="#EEA886"/>
<path d="M41.233 189.364C40.2983 189.645 40.0212 191.228 39.2274 191.693C38.4336 192.158 34.5631 192.487 34.4269 191.275C34.286 190.063 36.0521 188.978 36.8412 188.372C37.635 187.767 39.4152 185.775 39.7769 184.981C39.7769 184.981 40.0963 185.488 41.0451 185.333C41.994 185.178 42.149 184.925 42.149 184.925C42.1114 185.864 42.4402 186.531 42.5341 186.893C42.8629 188.152 42.1631 189.086 41.233 189.364Z" fill="#3F74A0"/>
<path d="M47.5598 189.585C46.8412 190.243 46.7049 191.286 45.9111 191.751C45.681 191.887 45.23 192.023 44.6993 192.117C43.7317 192.291 42.501 192.328 41.8998 191.976C41.6931 191.859 41.5616 191.694 41.5381 191.473C41.3972 190.262 43.1962 188.904 43.9853 188.298C44.4738 187.927 44.9764 187.058 45.3803 186.26C45.634 185.762 45.8407 185.292 45.9816 184.987C45.9863 184.991 46.0285 185.076 46.146 185.156C46.3104 185.273 46.6157 185.391 47.1606 185.301C47.9215 185.175 48.2127 184.977 48.2973 184.902C48.302 184.898 48.3066 184.893 48.3113 184.893C48.316 184.888 48.3207 184.883 48.3207 184.883L48.3254 184.879C48.3254 184.879 48.3254 184.879 48.3254 184.874C48.4804 185.63 48.7294 186.405 48.8233 186.772C49.1568 188.03 48.2409 188.965 47.5598 189.585Z" fill="#3F74A0"/>
<path d="M40.708 93.8862C40.708 93.8862 43.7376 93.5668 44.8274 96.4931C45.9171 99.4194 46.9458 100.373 47.0726 101.909C47.594 108.123 50.4968 106.719 49.6795 110.298C48.8622 113.877 48.2985 114.422 48.2985 114.422L41.3609 113.06L34.334 113.083C34.334 113.083 37.0818 111.712 36.4712 108.786C35.8606 105.859 34.334 101.068 35.1936 97.8036C36.0578 94.5438 38.8996 94.1352 40.708 93.8862Z" fill="#223247"/>
<path d="M19.1715 145.236L36.7482 144.621L37.0676 128.209H18.5703L19.1715 145.236Z" fill="#FAA146"/>
<path d="M91.1027 125.276L84.0664 107.704L86.4948 126.587L88.5475 125.384L91.1027 125.276Z" fill="#AD3434"/>
<path d="M88.5757 128.88L83.6954 108.564L83.4746 129.457L85.8514 128.551L88.5757 128.88Z" fill="#5B2C73"/>
<path d="M35.7128 135.583C35.7128 135.583 33.1623 144.474 32.7161 146.748C32.2698 149.016 31.0251 160.008 30.8936 161.877C30.7621 163.747 35.0599 172.511 35.2948 173.141C36.2013 175.588 39.9121 184.461 39.9121 184.461C39.9121 184.461 42.3076 185.884 42.0399 183.799C41.2272 177.462 40.8421 175.898 40.2737 172.61C39.0243 165.409 36.4456 164.465 36.8401 163.413C40.8327 152.793 41.6359 145.588 42.1714 144.968C42.7068 144.343 42.7773 145.287 43.092 146.663C43.402 148.044 42.9652 157.537 43.5288 161.205C43.8341 163.202 44.5199 167.673 44.7454 170.257C44.9662 172.84 46.1357 184.785 46.1357 184.785C46.1357 184.785 46.2907 185.231 48.071 184.245C48.3669 184.08 49.776 173.686 49.823 170.618C49.87 167.547 48.5125 167.11 49.5975 161.163C51.932 148.42 51.6079 146.226 48.8883 137.067C42.2136 114.657 35.7128 135.583 35.7128 135.583Z" fill="#EEA886"/>
<path d="M66.8429 109.542C66.7348 109.434 60.2622 114.389 59.5529 114.798C58.1626 115.601 56.6501 115.559 55.0813 115.658C53.3199 115.766 51.3189 115.578 49.5904 115.925C48.6932 116.104 48.5899 116.339 48.1201 117.292C46.8519 119.885 46.4386 123.112 46.2695 125.963C46.091 128.936 47.2324 131.003 48.4349 133.629C48.8435 134.521 49.4166 135.442 48.6274 136.254C47.9182 136.987 46.5231 137.138 45.5884 137.26C43.2962 137.56 39.7828 137.743 37.5751 136.832C34.8743 135.719 35.3581 132.318 35.0669 129.942C34.8743 128.354 34.1086 125.972 33.6671 124.432C33.235 122.915 33.1833 122.276 33.2679 120.655C32.4271 123.046 31.7131 127.137 29.4491 128.655C27.6924 129.829 26.1282 128.255 24.8647 127.156C22.4739 125.075 20.0783 122.99 17.6875 120.909C18.1948 120.439 18.7068 119.97 19.2188 119.495C19.3879 119.34 19.3973 119.298 19.5851 119.148C20.0314 118.791 19.9797 118.659 20.4447 118.974C20.7547 119.185 21.5814 119.951 21.8445 120.195C22.7134 121.003 23.4697 121.491 24.3386 122.299C25.0902 122.999 26.3819 124.624 27.5421 124.061C28.4298 123.624 28.6741 121.816 28.9794 121.008C29.8296 118.762 30.6844 116.503 31.699 114.328C32.784 111.999 35.1796 110.763 37.5047 109.833C39.5197 109.03 42.2159 109.19 44.2591 109.711C45.6917 110.077 46.2037 110.096 47.6317 110.495C48.9938 110.876 50.2714 111.36 51.6524 111.646C53.2635 111.98 54.9122 112.097 56.5515 112.116C57.8432 112.13 58.3787 111.914 59.4684 111.158C60.9292 110.143 63.0711 108.391 64.6775 107.579C65.7015 107.052 66.0538 108.734 66.8429 109.542Z" fill="#F0DDD5"/>
<path d="M42.8028 106.033C42.8028 106.033 42.5586 109.058 43.141 109.96C43.7235 110.866 42.6431 112.092 40.4167 111.674C38.1903 111.252 38.3218 109.993 38.3218 109.993C38.3218 109.993 38.9465 108.128 38.7633 106.634C38.5848 105.145 42.8028 106.033 42.8028 106.033Z" fill="#EEA886"/>
<path d="M44.2553 109.707C44.2553 109.707 42.2497 114.395 39.6474 115.377C39.6474 115.377 37.0828 113.098 37.7733 109.726C37.7733 109.726 41.0801 108.035 44.2553 109.707Z" fill="#EEA886"/>
<path d="M41.1113 95.5953C41.1113 95.5953 45.1226 96.173 44.5355 102.096C43.9484 108.014 40.4067 107.545 40.1719 107.54C39.937 107.535 36.6208 107.662 36.3343 100.438C36.3343 100.438 36.2028 95.0974 41.1113 95.5953Z" fill="#EEA886"/>
<path d="M40.6555 97.7416C40.6555 97.7416 42.5296 99.7097 43.3986 100.71C44.2676 101.706 44.3709 103.637 44.3709 103.637C44.3709 103.637 45.8364 101.847 45.2258 99.7614C44.6105 97.6759 43.1638 93.6176 39.4906 94.867C35.8175 96.1164 35.6812 101.598 36.1134 104.318C36.1087 104.313 37.7574 98.31 40.6555 97.7416Z" fill="#223247"/>
<path d="M39.1104 107.292C39.1104 107.292 40.8248 108.151 42.5627 106.794C42.5627 106.794 41.8957 107.902 40.7309 107.964C39.566 108.025 39.1104 107.292 39.1104 107.292Z" fill="#A77860"/>
<path d="M28.0956 123.507C27.9218 123.873 27.5366 124.056 27.5366 124.056C25.7047 125.047 25.3853 127.382 25.3195 128.204L24.9297 128.199C25.2491 123.901 28.0956 123.507 28.0956 123.507Z" fill="#23344A"/>
<path d="M27.9847 123.529C27.9847 123.529 25.0255 123.67 24.1895 128.156L24.4948 128.203C24.4948 128.203 25.0725 124.896 27.4399 124.008C27.4352 124.013 27.764 123.872 27.9847 123.529Z" fill="#23344A"/>
<path d="M48.9433 134.817C48.9433 134.817 52.9922 143.201 50.2726 160.219C50.2726 160.219 42.015 159.444 29.624 158.561C29.624 158.561 35.2606 135.672 35.4156 134.215C35.5753 132.764 48.9433 134.817 48.9433 134.817Z" fill="#F0DDD5"/>
<path d="M39.8408 184.293C39.8408 184.293 40.9963 185.063 42.0673 184.034L42.1518 184.927C42.1518 184.927 40.3246 186.571 39.8408 184.805V184.293Z" fill="#EEA886"/>
<path d="M46.4649 184.142C46.4649 184.142 47.1553 184.767 48.1981 183.832L48.3343 184.875C48.3343 184.875 46.5541 186.693 46.0703 184.926L46.4649 184.142Z" fill="#EEA886"/>
<path d="M39.8368 184.805C39.8368 184.805 38.8833 185.941 38.9772 186.125C39.0712 186.312 41.1473 186.731 41.462 186.289C41.7767 185.847 42.1478 184.927 42.1478 184.927C42.1478 184.927 40.3347 185.735 39.8368 184.805Z" fill="#3F74A0"/>
<path d="M46.124 184.779C46.124 184.779 45.2363 186.029 45.3302 186.217C45.4241 186.404 47.2654 186.7 47.5801 186.259C47.8948 185.817 48.3317 184.873 48.3317 184.873C48.3317 184.873 46.6219 185.709 46.124 184.779Z" fill="#3F74A0"/>
<path d="M35.2911 133.009C35.2911 133.009 40.1573 134.813 47.1842 130.839C47.1842 130.839 47.4661 131.412 47.7808 132.196C47.7808 132.196 41.3739 136.151 35.4179 134.216C35.4132 134.221 35.2113 133.314 35.2911 133.009Z" fill="#FF4D4D"/>
<path d="M33.8917 116.574C33.3328 118.026 33.2717 120.656 33.2717 120.656C33.2717 120.656 33.0885 121.342 32.7973 122.164C32.7128 118.256 33.8917 116.574 33.8917 116.574Z" fill="#AD3434"/>
<path d="M40.3176 110.059C40.0593 110.059 39.8291 110.035 39.6319 109.998C38.8287 109.843 38.4905 109.457 38.4717 109.443L38.5703 109.068C38.575 109.072 39.0212 109.476 39.7305 109.603C40.684 109.777 41.7644 109.519 42.8259 108.852L42.9856 109.209C41.9335 109.866 41.0175 110.059 40.3176 110.059Z" fill="#C43B3B"/>
<path d="M52.7583 46.8538L43.3875 48.6105C42.8521 48.7092 42.3683 48.991 42.0113 49.3996L20.7474 73.9985C19.8784 75.0036 19.9912 76.5208 20.9917 77.3898L29.9773 85.1588C30.9824 86.0278 32.4996 85.9151 33.3686 84.9146L54.6324 60.3157C54.9894 59.9024 55.1961 59.3857 55.2149 58.8408L55.6 49.3151C55.6658 47.7697 54.2755 46.572 52.7583 46.8538ZM54.1111 50.1277C53.646 50.6632 52.8334 50.7242 52.298 50.2592C51.7625 49.7942 51.7014 48.9816 52.1665 48.4461C52.6315 47.9106 53.4441 47.8496 53.9795 48.3146C54.515 48.7796 54.5761 49.5922 54.1111 50.1277Z" fill="#EEECF0"/>
<path d="M34.4754 75.8698C34.1607 76.2362 33.799 76.5368 33.3904 76.7717C32.9817 77.0065 32.5637 77.1568 32.1409 77.2132L31.8168 75.837C31.8826 75.851 31.9859 75.8416 32.1362 75.8135C32.2865 75.7853 32.4509 75.7336 32.6388 75.6632C32.8267 75.5927 33.0146 75.4894 33.2119 75.3578C33.4091 75.2263 33.5923 75.0666 33.7567 74.8787C34.0104 74.5875 34.1372 74.3198 34.1513 74.0755C34.1607 73.836 34.0714 73.6293 33.8836 73.4649C33.7896 73.3851 33.6863 73.3428 33.5688 73.3428C33.4514 73.3381 33.3246 73.3663 33.1884 73.4132C33.0522 73.4649 32.9019 73.5354 32.7375 73.6293C32.5731 73.7232 32.3993 73.8313 32.2161 73.9487C31.7886 74.2164 31.4082 74.3714 31.0794 74.4184C30.7459 74.4607 30.4359 74.3574 30.1399 74.099C29.8393 73.8407 29.6233 73.5448 29.4917 73.2207C29.3602 72.8966 29.2992 72.5584 29.3086 72.2155C29.318 71.8726 29.3931 71.5297 29.5387 71.1915C29.6843 70.8533 29.8769 70.5433 30.1259 70.2521C30.4218 69.9092 30.7459 69.6508 31.0935 69.477C31.4411 69.3079 31.7745 69.1952 32.0893 69.1436L32.3711 70.4681C32.3194 70.4587 32.2349 70.4634 32.1127 70.4869C31.9906 70.5104 31.8544 70.5527 31.7041 70.6137C31.5538 70.6748 31.3988 70.7547 31.2438 70.858C31.0888 70.9613 30.9479 71.0835 30.821 71.2291C30.5674 71.5203 30.4453 71.7927 30.4453 72.0511C30.4453 72.3047 30.5486 72.5255 30.76 72.704C30.8445 72.7744 30.9338 72.8167 31.0277 72.8261C31.1263 72.8402 31.2297 72.8214 31.3471 72.7791C31.4645 72.7368 31.5914 72.6711 31.7323 72.5912C31.8732 72.5067 32.0329 72.4081 32.2067 72.2906C32.4274 72.1403 32.6435 72.0182 32.8455 71.9195C33.0522 71.8209 33.2494 71.7552 33.4373 71.727C33.6299 71.6988 33.8178 71.7082 34.001 71.7598C34.1842 71.8115 34.3674 71.9149 34.5458 72.0746C34.8699 72.3564 35.0954 72.6617 35.2222 72.9905C35.3444 73.3193 35.396 73.6481 35.3631 73.9816C35.335 74.3151 35.241 74.6439 35.0813 74.9633C34.9169 75.2921 34.7149 75.5927 34.4754 75.8698Z" fill="#78C2FF"/>
<path d="M37.9552 71.8718C37.772 72.0879 37.5653 72.2429 37.3399 72.3415C37.1144 72.4402 36.8796 72.4871 36.64 72.4824C36.4005 72.4777 36.1562 72.4214 35.912 72.318C35.6677 72.2147 35.4375 72.0644 35.2168 71.8765C34.9021 71.6041 34.6484 71.2847 34.4558 70.923C34.2633 70.5613 34.1458 70.1855 34.0895 69.8051C34.0378 69.4246 34.0519 69.0488 34.1411 68.6825C34.2304 68.3161 34.3901 67.9967 34.6296 67.7195C34.8551 67.4565 35.1181 67.2921 35.4141 67.2264C35.71 67.1606 35.9965 67.1888 36.2736 67.3062L35.7429 66.5922L36.5883 65.6152L38.7772 68.504C38.8195 68.565 38.857 68.612 38.8899 68.6402C38.9933 68.7294 39.0966 68.7153 39.1999 68.6026L39.881 69.4951C39.82 69.5937 39.7636 69.6829 39.7213 69.7581C39.6744 69.8333 39.6274 69.8943 39.5851 69.9413C39.4395 70.1104 39.2845 70.2137 39.1248 70.2513C38.9651 70.2889 38.8148 70.2419 38.6692 70.1151C38.6128 70.0634 38.533 69.9695 38.4296 69.8333C38.5142 70.2278 38.5095 70.6036 38.4155 70.9606C38.331 71.3175 38.176 71.6229 37.9552 71.8718ZM37.5043 70.7163C37.5747 70.6365 37.6358 70.5331 37.6875 70.411C37.7391 70.2889 37.772 70.1574 37.7908 70.0211C37.8096 69.8849 37.8096 69.744 37.8002 69.5984C37.7908 69.4528 37.7626 69.3119 37.7156 69.1804L36.9688 68.2034C36.7293 68.0483 36.4803 67.9779 36.2173 67.9967C35.9542 68.0155 35.7429 68.1188 35.5832 68.302C35.4469 68.457 35.3577 68.6449 35.3107 68.8563C35.2638 69.0723 35.2591 69.2931 35.3013 69.5138C35.3389 69.7393 35.4141 69.9554 35.5268 70.1667C35.6395 70.3781 35.7804 70.5566 35.9542 70.7069C36.2079 70.9277 36.4756 71.0404 36.7668 71.0498C37.0534 71.0686 37.2976 70.9559 37.5043 70.7163Z" fill="#78C2FF"/>
<path d="M41.3696 67.8983C41.1536 68.1472 40.9328 68.2881 40.7073 68.321C40.4819 68.3539 40.2564 68.2787 40.045 68.0909C40.0028 68.0533 39.9605 68.0157 39.9182 67.9687C39.8806 67.9265 39.8384 67.8748 39.7914 67.8184L36.1699 63.0321L37.006 62.0645L40.3504 66.475C40.3691 66.5032 40.3926 66.5267 40.4161 66.5502C40.4396 66.5737 40.4631 66.5972 40.4866 66.616C40.6838 66.7898 40.8717 66.7757 41.0455 66.5737C41.0925 66.522 41.1348 66.4516 41.177 66.3623C41.2193 66.2731 41.2522 66.1885 41.2757 66.0993L41.9943 66.771C41.938 66.9682 41.8487 67.1655 41.7266 67.3722C41.6139 67.5836 41.4918 67.7574 41.3696 67.8983Z" fill="#78C2FF"/>
<path d="M43.9868 64.8963C43.7754 65.1406 43.55 65.3238 43.301 65.4459C43.0568 65.568 42.8031 65.6338 42.5401 65.6479C42.277 65.662 42.0187 65.615 41.7604 65.5164C41.502 65.4177 41.2578 65.2674 41.0229 65.0654C40.7082 64.793 40.4593 64.4689 40.2855 64.1025C40.107 63.7315 40.0083 63.3463 39.9801 62.947C39.952 62.5478 40.0036 62.1438 40.1305 61.7399C40.2573 61.3359 40.4686 60.9649 40.7646 60.6267C41.1215 60.2133 41.4973 59.9644 41.8919 59.8751C42.2864 59.7859 42.6575 59.8939 43.0004 60.1898C43.8224 60.8991 43.5969 61.9888 42.3287 63.4543C42.2535 63.5436 42.1737 63.6328 42.0938 63.7268C42.014 63.8207 41.9248 63.9099 41.8261 64.0039L41.9201 64.0837C42.1784 64.3045 42.4367 64.4266 42.6998 64.4501C42.9628 64.4736 43.2024 64.3562 43.4184 64.1025C43.5875 63.9099 43.7003 63.6845 43.7566 63.4308C43.813 63.1772 43.8036 62.9282 43.7285 62.684L44.635 62.1203C44.6961 62.3411 44.7289 62.5807 44.7289 62.8296C44.7289 63.0786 44.7054 63.3228 44.6444 63.5671C44.588 63.8113 44.5035 64.0462 44.3907 64.2716C44.2874 64.5018 44.1512 64.7085 43.9868 64.8963ZM41.347 61.3829C41.2249 61.5238 41.1356 61.6788 41.084 61.8432C41.0276 62.0076 41.0041 62.1767 41.0135 62.3458C41.0182 62.5149 41.0511 62.6887 41.1028 62.8625C41.1544 63.0363 41.2296 63.2007 41.3235 63.3604C41.394 63.2852 41.4644 63.2148 41.5255 63.1396C41.5866 63.0692 41.6523 62.9893 41.7228 62.9142C41.9248 62.6793 42.0845 62.4726 42.2019 62.2894C42.3193 62.1062 42.3945 61.9419 42.432 61.8009C42.4696 61.66 42.4743 61.5379 42.4461 61.4393C42.4179 61.3406 42.3616 61.2514 42.2723 61.1762C42.1314 61.0541 41.9811 61.0165 41.8167 61.0635C41.6523 61.1011 41.4973 61.2091 41.347 61.3829Z" fill="#78C2FF"/>
<path d="M54.0174 48.4631L53.9375 48.1624C53.9469 48.1624 54.6656 47.9699 55.6097 47.4297L55.7647 47.7021C54.783 48.2611 54.0502 48.4584 54.0174 48.4631Z" fill="#E6E6E6"/>
<path d="M168.744 73.3915L168.448 73.2928C168.875 72.034 169.246 70.8738 169.589 69.7418L169.89 69.831C169.547 70.9678 169.171 72.1326 168.744 73.3915ZM170.9 66.2237L170.599 66.1485C170.918 64.8991 171.196 63.6731 171.421 62.5129L171.726 62.574C171.496 63.7389 171.219 64.9695 170.9 66.2237ZM172.304 58.868L171.994 58.8304C172.144 57.5481 172.234 56.2986 172.252 55.1197L172.567 55.1244C172.544 56.3174 172.454 57.5763 172.304 58.868ZM172.097 51.4136C171.956 50.1407 171.726 48.9148 171.402 47.7734L171.703 47.6888C172.027 48.8443 172.266 50.089 172.407 51.3808L172.097 51.4136ZM58.629 45.2463L58.3848 45.0537C59.1269 44.1049 59.6765 43.0058 60.0241 41.7892L60.3247 41.8738C59.9677 43.1326 59.3993 44.2646 58.629 45.2463ZM170.064 44.3304C169.495 43.2312 168.809 42.1979 168.025 41.2538L168.265 41.0518C169.068 42.01 169.763 43.0621 170.341 44.1848L170.064 44.3304ZM165.362 38.6985C164.422 37.9705 163.375 37.2988 162.248 36.7069L162.393 36.4298C163.539 37.031 164.605 37.7121 165.554 38.4543L165.362 38.6985ZM60.785 38.1396L60.475 38.1349C60.4985 37.0123 60.6112 35.7159 60.7944 34.3866L61.1044 34.4288C60.9212 35.744 60.8132 37.0263 60.785 38.1396ZM158.847 35.232C157.734 34.8375 156.536 34.4852 155.282 34.194L155.352 33.8887C156.616 34.1846 157.828 34.5416 158.95 34.9361L158.847 35.232ZM151.627 33.4988C150.448 33.325 149.204 33.1888 147.926 33.0855L147.949 32.7755C149.236 32.8741 150.486 33.015 151.67 33.1888L151.627 33.4988ZM144.201 32.7942C142.914 32.6674 141.669 32.5077 140.495 32.3245L140.542 32.0145C141.712 32.1977 142.952 32.3527 144.229 32.4795L144.201 32.7942ZM136.827 31.6247C135.568 31.3334 134.356 30.9952 133.229 30.6195L133.327 30.3236C134.445 30.6946 135.648 31.0328 136.897 31.324L136.827 31.6247ZM61.7761 30.7651L61.4708 30.6946C61.7526 29.464 62.0908 28.2474 62.476 27.0778L62.7719 27.1765C62.3961 28.3367 62.0579 29.5438 61.7761 30.7651ZM129.748 29.2338C128.607 28.6984 127.536 28.1065 126.47 27.4254L126.639 27.1624C127.691 27.8341 128.748 28.4212 129.88 28.952L129.748 29.2338ZM123.445 25.2225C122.411 24.3864 121.439 23.5127 120.626 22.7706L120.838 22.5404C121.65 23.2779 122.618 24.1468 123.642 24.9782L123.445 25.2225ZM64.1059 23.6959L63.8193 23.5691C64.336 22.3995 64.9091 21.2769 65.5291 20.2247L65.7968 20.3844C65.1862 21.4272 64.6178 22.5404 64.1059 23.6959ZM117.874 20.2576C116.826 19.3229 115.92 18.562 115.027 17.8668L115.22 17.6225C116.122 18.3224 117.028 19.088 118.08 20.0275L117.874 20.2576ZM67.8823 17.3125L67.6381 17.1199C68.4225 16.1148 69.2727 15.18 70.1604 14.3393L70.3765 14.5647C69.4935 15.3961 68.6527 16.3214 67.8823 17.3125ZM111.998 15.7202C110.969 15.0626 109.889 14.4426 108.78 13.8789L108.921 13.6018C110.039 14.1749 111.129 14.7996 112.167 15.4619L111.998 15.7202ZM105.403 12.3336C104.299 11.8827 103.125 11.4552 101.913 11.0654L102.012 10.7694C103.228 11.164 104.412 11.5961 105.525 12.0471L105.403 12.3336ZM73.2652 12.2537L73.0915 11.9954C74.1295 11.3002 75.2333 10.6849 76.3747 10.1729L76.5016 10.4547C75.3743 10.962 74.2845 11.568 73.2652 12.2537ZM98.3432 10.0273C97.3897 9.77835 96.3892 9.53879 95.3652 9.31803C95.1491 9.27106 94.9331 9.22409 94.717 9.18181L94.7781 8.8765C94.9941 8.91877 95.2102 8.96574 95.431 9.01271C96.4549 9.23348 97.4601 9.47303 98.4183 9.72198L98.3432 10.0273ZM79.9868 9.22878L79.907 8.92817C81.086 8.61816 82.326 8.3833 83.5895 8.23769L83.6224 8.5477C82.3777 8.68861 81.1517 8.91877 79.9868 9.22878ZM91.0439 8.59467C89.7756 8.44906 88.5309 8.36921 87.3331 8.35981L87.3378 8.0498C88.545 8.0592 89.8038 8.14375 91.0814 8.28936L91.0439 8.59467Z" fill="#E6E6E6"/>
<path d="M166.785 78.8687L166.494 78.7606C166.706 78.1923 166.922 77.6051 167.138 77.0039L167.429 77.1119C167.213 77.7132 166.997 78.3003 166.785 78.8687Z" fill="#E6E6E6"/>
<path d="M243.285 79.4006L253.14 73.7312L262.562 67.5451L263.6 69.4146L254.018 75.0135L244.319 81.2654L243.285 79.4006ZM249.218 71.2042C248.64 70.9975 248.142 70.711 247.715 70.3399C247.292 69.9688 246.954 69.5461 246.714 69.0811C246.47 68.616 246.324 68.1182 246.268 67.5874C246.211 67.0566 246.277 66.5305 246.465 65.9997C246.644 65.4878 246.925 65.0415 247.301 64.6517C247.677 64.2665 248.104 63.9706 248.588 63.7686C249.067 63.5666 249.589 63.4539 250.152 63.4304C250.716 63.4069 251.284 63.4962 251.867 63.7029C252.426 63.9001 252.924 64.1867 253.356 64.5624C253.788 64.9382 254.131 65.3562 254.375 65.8119C254.619 66.2722 254.77 66.7701 254.821 67.3055C254.873 67.841 254.807 68.3671 254.629 68.8791C254.441 69.4052 254.164 69.8608 253.788 70.2366C253.412 70.6123 252.985 70.9082 252.501 71.1196C252.017 71.331 251.491 71.4437 250.918 71.4625C250.345 71.4907 249.781 71.4014 249.218 71.2042ZM249.805 69.5461C250.054 69.6353 250.298 69.6541 250.547 69.6118C250.796 69.5696 251.031 69.485 251.266 69.3535C251.496 69.222 251.702 69.0435 251.886 68.8227C252.064 68.5973 252.205 68.3483 252.304 68.0665C252.51 67.4887 252.51 66.9392 252.304 66.4084C252.102 65.8823 251.759 65.5347 251.28 65.3656C251.031 65.2764 250.786 65.2576 250.538 65.2999C250.289 65.3421 250.049 65.4314 249.819 65.5582C249.589 65.6897 249.382 65.8635 249.204 66.0796C249.025 66.2957 248.884 66.5446 248.785 66.8217C248.579 67.3995 248.579 67.9538 248.781 68.4892C248.987 69.0247 249.326 69.377 249.805 69.5461ZM255.033 85.1452C254.455 84.9385 253.952 84.652 253.53 84.2809C253.102 83.9099 252.769 83.4918 252.524 83.0362C252.275 82.5759 252.125 82.0827 252.073 81.5566C252.017 81.0258 252.088 80.4998 252.271 79.969C252.459 79.4429 252.736 78.9873 253.112 78.6115C253.487 78.2357 253.915 77.9398 254.399 77.7285C254.882 77.5171 255.404 77.4044 255.967 77.3809C256.531 77.3574 257.104 77.4466 257.682 77.6533C258.26 77.8553 258.762 78.1465 259.185 78.5176C259.608 78.8886 259.946 79.3114 260.199 79.7811C260.448 80.2508 260.599 80.7487 260.646 81.2748C260.693 81.8009 260.622 82.3269 260.434 82.8577C260.246 83.3838 259.969 83.8394 259.608 84.2199C259.241 84.6003 258.814 84.8916 258.325 85.0889C257.837 85.2861 257.311 85.3989 256.747 85.4223C256.179 85.4364 255.61 85.3472 255.033 85.1452ZM255.62 83.4871C255.869 83.5764 256.113 83.5952 256.362 83.5529C256.606 83.5106 256.846 83.4214 257.081 83.2945C257.311 83.163 257.517 82.9892 257.696 82.7732C257.874 82.5571 258.011 82.3082 258.114 82.031C258.217 81.7351 258.269 81.4392 258.26 81.148C258.25 80.8567 258.203 80.589 258.114 80.3448C258.025 80.1005 257.888 79.8844 257.715 79.7013C257.536 79.5181 257.334 79.3865 257.104 79.302C256.855 79.2127 256.611 79.194 256.362 79.2362C256.113 79.2785 255.873 79.3678 255.643 79.4993C255.408 79.6308 255.206 79.8093 255.023 80.03C254.84 80.2508 254.699 80.5045 254.601 80.7863C254.399 81.364 254.399 81.9136 254.601 82.4397C254.798 82.9704 255.141 83.318 255.62 83.4871Z" fill="#78C2FF"/>
<path d="M30.6759 8.55816C30.3377 8.78362 29.9807 8.93392 29.6143 9.00908C29.248 9.08423 28.891 9.09363 28.5434 9.03726C28.1958 8.9809 27.8764 8.85877 27.5711 8.67558C27.2705 8.4924 27.0121 8.24345 26.8101 7.93344C26.6129 7.63282 26.486 7.30402 26.4297 6.94704C26.3733 6.59006 26.3921 6.24717 26.4767 5.90898C26.5612 5.57548 26.7115 5.25138 26.9276 4.94137C27.1436 4.63136 27.4161 4.36363 27.759 4.14286C28.0878 3.92679 28.44 3.77649 28.8158 3.69663C29.1916 3.61678 29.5486 3.60269 29.8868 3.65906C30.2297 3.71073 30.5538 3.83285 30.8591 4.02074C31.1644 4.20862 31.418 4.45287 31.6153 4.75349C31.822 5.0635 31.9488 5.39699 32.0005 5.74458C32.0521 6.09686 32.0333 6.43975 31.9535 6.78264C31.8689 7.12553 31.7186 7.44963 31.5026 7.75964C31.2818 8.07435 31.0047 8.33739 30.6759 8.55816ZM30.0277 7.58115C30.1733 7.48251 30.286 7.36039 30.3612 7.21478C30.4363 7.06447 30.488 6.90477 30.5115 6.72628C30.535 6.55248 30.5256 6.3693 30.4786 6.18611C30.4316 5.99822 30.3565 5.82443 30.2437 5.66003C30.0183 5.32184 29.7271 5.10107 29.3654 4.99304C29.0037 4.8897 28.6843 4.93198 28.4025 5.11986C28.2569 5.21381 28.1441 5.34063 28.069 5.48624C27.9938 5.63185 27.9422 5.79625 27.9187 5.97474C27.8952 6.15323 27.9046 6.32702 27.9468 6.51021C27.9891 6.6934 28.0643 6.86249 28.177 7.03159C28.4025 7.36978 28.6984 7.59525 29.0601 7.70328C29.4264 7.80662 29.7505 7.76434 30.0277 7.58115ZM32.6487 14.9979L33.5881 7.48721L34.0813 0L35.4904 0.19728L34.6215 7.52949L34.0531 15.1905L32.6487 14.9979ZM40.4083 11.0617C40.0701 11.2872 39.7131 11.4375 39.3468 11.5126C38.9804 11.5878 38.6234 11.6019 38.2805 11.5455C37.9376 11.4939 37.6135 11.3764 37.3129 11.1885C37.0076 11.0054 36.7587 10.7564 36.552 10.4464C36.3453 10.1364 36.2185 9.80759 36.1668 9.4553C36.1151 9.10302 36.1339 8.76013 36.2138 8.41724C36.2936 8.07905 36.4439 7.75025 36.66 7.44494C36.8761 7.13493 37.1532 6.86719 37.4914 6.64643C37.8296 6.42097 38.1866 6.27066 38.5529 6.1955C38.9193 6.12035 39.281 6.11095 39.6286 6.16262C39.9809 6.21899 40.305 6.33642 40.6009 6.5243C40.8968 6.71219 41.1505 6.96113 41.3571 7.27114C41.5638 7.58115 41.6906 7.90995 41.747 8.25754C41.8034 8.60513 41.7846 8.94801 41.6953 9.28621C41.6061 9.6244 41.4511 9.94851 41.2397 10.2585C41.0283 10.5685 40.7512 10.8363 40.4083 11.0617ZM39.7648 10.0847C39.9104 9.98608 40.0231 9.86865 40.0983 9.71835C40.1735 9.56804 40.2251 9.40833 40.2486 9.22984C40.2721 9.05605 40.2627 8.87756 40.2204 8.69437C40.1782 8.51588 40.103 8.34209 39.9903 8.17769C39.8728 8.00389 39.7366 7.85828 39.5816 7.74555C39.4219 7.63282 39.2622 7.55297 39.0978 7.5013C38.9334 7.44964 38.7643 7.43554 38.5952 7.45433C38.4261 7.47312 38.2758 7.52949 38.1396 7.61873C37.994 7.71267 37.8813 7.8395 37.8061 7.98511C37.731 8.13541 37.6793 8.29512 37.6558 8.47361C37.6323 8.6521 37.6417 8.83059 37.6887 9.01377C37.7357 9.20166 37.8108 9.37545 37.9235 9.53985C38.149 9.87805 38.4402 10.1035 38.8019 10.2021C39.1636 10.3102 39.483 10.2726 39.7648 10.0847Z" fill="#78C2FF"/>
<defs>
<linearGradient id="paint0_linear_250_13758" x1="50.382" y1="93.7086" x2="209.141" y2="93.7086" gradientUnits="userSpaceOnUse">
<stop stop-color="#A246C4"/>
<stop offset="1" stop-color="#5EAFFF"/>
</linearGradient>
<linearGradient id="paint1_linear_250_13758" x1="210.482" y1="106.459" x2="237.579" y2="106.459" gradientUnits="userSpaceOnUse">
<stop offset="0.00518135" stop-color="#595959"/>
<stop offset="1" stop-color="white"/>
</linearGradient>
<linearGradient id="paint2_linear_250_13758" x1="231.449" y1="106.459" x2="258.545" y2="106.459" gradientUnits="userSpaceOnUse">
<stop offset="0.00518135" stop-color="#595959"/>
<stop offset="1" stop-color="white"/>
</linearGradient>
<linearGradient id="paint3_linear_250_13758" x1="251.786" y1="104.914" x2="266.737" y2="104.914" gradientUnits="userSpaceOnUse">
<stop offset="0.00518135" stop-color="#B3B3B3"/>
<stop offset="1" stop-color="white"/>
</linearGradient>
<linearGradient id="paint4_linear_250_13758" x1="230.374" y1="111.027" x2="238.149" y2="111.027" gradientUnits="userSpaceOnUse">
<stop offset="0.00518135" stop-color="#B3B3B3"/>
<stop offset="1" stop-color="white"/>
</linearGradient>
<linearGradient id="paint5_linear_250_13758" x1="230.374" y1="111.027" x2="236.03" y2="111.027" gradientUnits="userSpaceOnUse">
<stop offset="0.00518135" stop-color="#595959"/>
<stop offset="1" stop-color="white"/>
</linearGradient>
<linearGradient id="paint6_linear_250_13758" x1="233.631" y1="172.778" x2="233.631" y2="129.218" gradientUnits="userSpaceOnUse">
<stop stop-color="#40D5E6"/>
<stop offset="1" stop-color="#5577FF"/>
</linearGradient>
<linearGradient id="paint7_linear_250_13758" x1="198.833" y1="118.699" x2="268.425" y2="118.699" gradientUnits="userSpaceOnUse">
<stop stop-color="#40D5E6"/>
<stop offset="1" stop-color="#5577FF"/>
</linearGradient>
<linearGradient id="paint8_linear_250_13758" x1="244.202" y1="136.558" x2="222.356" y2="136.558" gradientUnits="userSpaceOnUse">
<stop offset="0.00518135" stop-color="#B3B3B3"/>
<stop offset="1" stop-color="white"/>
</linearGradient>
<linearGradient id="paint9_linear_250_13758" x1="264.341" y1="123.985" x2="275.131" y2="123.985" gradientUnits="userSpaceOnUse">
<stop stop-color="#1F3073"/>
<stop offset="1" stop-color="#4E6CDE"/>
</linearGradient>
<linearGradient id="paint10_linear_250_13758" x1="259.058" y1="125.305" x2="275.13" y2="125.305" gradientUnits="userSpaceOnUse">
<stop stop-color="#7C3596"/>
<stop offset="1" stop-color="#3098FF"/>
</linearGradient>
<linearGradient id="paint11_linear_250_13758" x1="257.327" y1="129.316" x2="267.424" y2="119.453" gradientUnits="userSpaceOnUse">
<stop stop-color="#354996"/>
<stop offset="1" stop-color="#4E6CDE"/>
</linearGradient>
<linearGradient id="paint12_linear_250_13758" x1="278.57" y1="123.985" x2="289.361" y2="123.985" gradientUnits="userSpaceOnUse">
<stop stop-color="#1F3073"/>
<stop offset="1" stop-color="#4E6CDE"/>
</linearGradient>
<linearGradient id="paint13_linear_250_13758" x1="278.57" y1="125.305" x2="294.643" y2="125.305" gradientUnits="userSpaceOnUse">
<stop stop-color="#7C3596"/>
<stop offset="1" stop-color="#3098FF"/>
</linearGradient>
<linearGradient id="paint14_linear_250_13758" x1="276.829" y1="129.096" x2="276.595" y2="126.236" gradientUnits="userSpaceOnUse">
<stop stop-color="#354996"/>
<stop offset="1" stop-color="#4E6CDE"/>
</linearGradient>
<linearGradient id="paint15_linear_250_13758" x1="276.85" y1="155.587" x2="276.85" y2="132.104" gradientUnits="userSpaceOnUse">
<stop stop-color="#FFC05C"/>
<stop offset="1" stop-color="#FF3857"/>
</linearGradient>
<linearGradient id="paint16_linear_250_13758" x1="276.85" y1="142.799" x2="276.85" y2="116.904" gradientUnits="userSpaceOnUse">
<stop stop-color="#FFC05C"/>
<stop offset="1" stop-color="#FF3857"/>
</linearGradient>
<linearGradient id="paint17_linear_250_13758" x1="276.849" y1="163.125" x2="276.849" y2="118.211" gradientUnits="userSpaceOnUse">
<stop stop-color="#7C3596"/>
<stop offset="1" stop-color="#3098FF"/>
</linearGradient>
<linearGradient id="paint18_linear_250_13758" x1="16.017" y1="49.9878" x2="56.8394" y2="49.9878" gradientUnits="userSpaceOnUse">
<stop stop-color="#40D5E6"/>
<stop offset="1" stop-color="#5577FF"/>
</linearGradient>
<linearGradient id="paint19_linear_250_13758" x1="58.0514" y1="84.0355" x2="33.6021" y2="53.0864" gradientUnits="userSpaceOnUse">
<stop stop-color="#40D5E6"/>
<stop offset="1" stop-color="#5577FF"/>
</linearGradient>
<linearGradient id="paint20_linear_250_13758" x1="-0.00155005" y1="84.0287" x2="70.8442" y2="84.0287" gradientUnits="userSpaceOnUse">
<stop stop-color="#40D5E6"/>
<stop offset="1" stop-color="#5577FF"/>
</linearGradient>
<linearGradient id="paint21_linear_250_13758" x1="67.1139" y1="101.779" x2="26.7944" y2="74.6319" gradientUnits="userSpaceOnUse">
<stop stop-color="#40D5E6"/>
<stop offset="1" stop-color="#5577FF"/>
</linearGradient>
<linearGradient id="paint22_linear_250_13758" x1="182.44" y1="44.979" x2="218.61" y2="38.5095" gradientUnits="userSpaceOnUse">
<stop stop-color="#40D5E6"/>
<stop offset="1" stop-color="#5577FF"/>
</linearGradient>
<linearGradient id="paint23_linear_250_13758" x1="26.4387" y1="-300.024" x2="9.09611" y2="-332.417" gradientUnits="userSpaceOnUse">
<stop stop-color="#40D5E6"/>
<stop offset="1" stop-color="#5577FF"/>
</linearGradient>
<linearGradient id="paint24_linear_250_13758" x1="218.334" y1="78.8437" x2="240.494" y2="-12.7546" gradientUnits="userSpaceOnUse">
<stop stop-color="#40D5E6"/>
<stop offset="1" stop-color="#5577FF"/>
</linearGradient>
<linearGradient id="paint25_linear_250_13758" x1="205.786" y1="74.0181" x2="246.309" y2="33.4948" gradientUnits="userSpaceOnUse">
<stop stop-color="#40D5E6"/>
<stop offset="1" stop-color="#5577FF"/>
</linearGradient>
<linearGradient id="paint26_linear_250_13758" x1="40.9864" y1="100.86" x2="221.097" y2="100.86" gradientUnits="userSpaceOnUse">
<stop stop-color="#FFC05C"/>
<stop offset="1" stop-color="#FF3857"/>
</linearGradient>
<linearGradient id="paint27_linear_250_13758" x1="14.7874" y1="62.8614" x2="167.332" y2="62.8614" gradientUnits="userSpaceOnUse">
<stop stop-color="#FFC05C"/>
<stop offset="1" stop-color="#FF3857"/>
</linearGradient>
<linearGradient id="paint28_linear_250_13758" x1="14.7874" y1="54.7062" x2="167.332" y2="54.7062" gradientUnits="userSpaceOnUse">
<stop stop-color="#FFC05C"/>
<stop offset="1" stop-color="#FF3857"/>
</linearGradient>
<linearGradient id="paint29_linear_250_13758" x1="14.7874" y1="73.4791" x2="167.333" y2="73.4791" gradientUnits="userSpaceOnUse">
<stop stop-color="#FFC05C"/>
<stop offset="1" stop-color="#FF3857"/>
</linearGradient>
<linearGradient id="paint30_linear_250_13758" x1="200.576" y1="120.192" x2="67.7075" y2="120.192" gradientUnits="userSpaceOnUse">
<stop stop-color="#EDF4FF"/>
<stop offset="1" stop-color="#EDFFFE"/>
</linearGradient>
<linearGradient id="paint31_linear_250_13758" x1="131.043" y1="39.3504" x2="131.043" y2="16.5565" gradientUnits="userSpaceOnUse">
<stop stop-color="#7C3596"/>
<stop offset="1" stop-color="#3098FF"/>
</linearGradient>
</defs>
</svg>
