<svg width="299" height="299" viewBox="0 0 299 299" fill="none" xmlns="http://www.w3.org/2000/svg">
<path opacity="0.3" d="M259.897 254.741C253.939 261.014 248.301 265.06 243.846 268.256C191.486 305.825 129.531 294.874 116.362 292.2C96.9178 288.251 59.3336 280.617 32.1603 248.662C-8.95079 200.316 -2.54956 124.149 29.3393 73.8704C35.1722 64.6737 65.9832 13.6281 128.606 5.44211C166.505 0.487664 210.683 10.4797 242.676 37.283C309.832 93.5442 305.051 207.204 259.897 254.741Z" fill="url(#paint0_linear_250_13441)"/>
<path d="M3.19625 1.4749C2.92011 0.299991 4.57373 -0.481503 5.58551 0.33944C15.8654 8.67575 40.5652 33.6378 34.4091 77.2618C26.6859 131.994 39.8892 151.965 56.3251 164.147C56.3251 164.147 33.7545 158.419 19.5533 138.153C-15.3112 88.3979 8.10591 22.3716 3.19625 1.4749Z" fill="url(#paint1_linear_250_13441)"/>
<path d="M11.0196 18.5706C12.3054 24.6637 13.4516 30.7749 14.3375 36.915C15.2608 43.0486 15.9677 49.2046 16.4517 55.3702C16.908 61.5368 17.2311 67.7099 17.2492 73.8862C17.2993 80.0614 17.0434 86.2323 16.7598 92.4267C16.5168 98.619 16.2321 104.856 16.6852 111.137C17.1309 117.405 18.4508 123.728 21.0682 129.655C21.7228 131.133 22.4105 132.605 23.1931 134.028C23.9447 135.464 24.7699 136.872 25.625 138.266C27.35 141.048 29.2926 143.737 31.4558 146.288C35.7993 151.382 41.0384 155.901 46.8096 159.725C47.4173 160.128 48.2873 160.029 48.7532 159.504C49.2106 158.989 49.1082 158.256 48.5293 157.847L48.525 157.844C47.1518 156.879 45.7935 155.903 44.4896 154.877C43.8286 154.373 43.1942 153.845 42.5481 153.327C41.9265 152.788 41.2794 152.271 40.6781 151.717C38.227 149.536 35.9571 147.208 33.8973 144.747C29.7542 139.849 26.4374 134.391 23.9244 128.732C22.7048 125.889 21.7292 122.974 21.0181 120.004C20.3091 117.034 19.8624 114.011 19.6161 110.965C19.1214 104.869 19.3453 98.6936 19.5361 92.5003C19.7184 86.3059 19.8517 80.0795 19.6875 73.8574C19.615 70.7474 19.4786 67.6374 19.2781 64.5328C19.1875 62.9794 19.0628 61.4281 18.9412 59.8768C18.8026 58.3266 18.6533 56.7775 18.4902 55.2295C17.8228 49.0383 16.9368 42.8673 15.827 36.7294C14.683 30.5958 13.3503 24.491 11.7478 18.4405C11.702 18.2678 11.5026 18.1591 11.3022 18.1985C11.1081 18.238 10.9845 18.4022 11.0196 18.5706Z" fill="white"/>
<path d="M29.8255 136.624C28.5653 137.961 26.3487 137.577 25.5907 135.903C21.4071 126.667 11.9396 99.4818 27.5759 68.1633C40.7803 41.7161 45.4266 26.1214 47.045 18.895C47.3873 17.3672 49.4812 17.1646 50.1135 18.5965C57.0851 34.4023 75.4977 88.1645 29.8255 136.624Z" fill="url(#paint2_linear_250_13441)"/>
<path d="M27.535 135.649C27.4902 135.657 27.4444 135.661 27.3964 135.66C26.9998 135.653 26.6842 135.327 26.6895 134.931C26.6959 134.482 27.5702 89.5865 44.2684 51.9841C44.4294 51.6227 44.8526 51.4585 45.2151 51.6195C45.5776 51.7805 45.7407 52.2037 45.5797 52.5662C29.0031 89.8946 28.131 134.507 28.1235 134.953C28.1203 135.302 27.8666 135.589 27.535 135.649Z" fill="white"/>
<path d="M127.671 218.912L121.283 276.199H195.391L185.738 218.912H127.671Z" fill="url(#paint3_linear_250_13441)"/>
<path d="M3.18262 77.7684V208.971C3.18262 219.764 11.7833 228.591 22.5729 228.869C70.4946 230.105 238.101 233.1 283.719 232.429C291.56 232.314 297.911 226.039 298.138 218.201C299.017 187.72 300.446 114.426 295.159 80.3986C294.046 73.2329 287.997 67.8744 280.749 67.642C240.596 66.3573 62.9228 62.2792 17.3252 63.3027C9.4623 63.4786 3.18262 69.9023 3.18262 77.7684Z" fill="url(#paint4_linear_250_13441)"/>
<path d="M11.415 77.1297V201.781C11.415 208.083 16.474 213.218 22.775 213.311L277.156 216.454C283.403 216.548 288.524 211.522 288.547 205.275L288.973 81.7366C288.99 77.2694 285.431 73.6093 280.965 73.5005L20.5254 68.239C15.5294 68.1175 11.415 72.1326 11.415 77.1297Z" fill="url(#paint5_linear_250_13441)"/>
<path opacity="0.65" d="M290.463 221.601C290.461 221.601 290.459 221.601 290.457 221.601L11.4083 216.847C11.1929 216.843 11.0202 216.666 11.0245 216.45C11.0277 216.234 11.1993 216.07 11.4222 216.066L290.469 220.82C290.685 220.825 290.857 221.002 290.853 221.217C290.85 221.43 290.675 221.601 290.463 221.601Z" fill="white"/>
<path d="M211.354 287.919H102.892C99.9456 287.919 97.7333 285.82 98.3026 283.568L99.6939 278.063C100.113 276.407 101.934 275.193 104.096 275.125L208.658 271.862C210.917 271.792 212.918 272.991 213.411 274.711L215.919 283.478C216.572 285.758 214.348 287.919 211.354 287.919Z" fill="url(#paint6_linear_250_13441)"/>
<path d="M161.279 276.655C161.066 276.655 160.892 276.483 160.889 276.27C160.886 276.054 161.058 275.877 161.274 275.874L165.755 275.809C165.757 275.809 165.759 275.809 165.761 275.809C165.974 275.809 166.148 275.98 166.151 276.193C166.154 276.409 165.982 276.587 165.766 276.59L161.285 276.655C161.283 276.655 161.281 276.655 161.279 276.655Z" fill="white"/>
<path d="M102.319 284.922C102.298 284.922 102.277 284.921 102.257 284.917C102.044 284.883 101.899 284.682 101.933 284.47L102.571 280.467C102.918 278.297 104.763 276.7 106.96 276.667L154.483 275.973C154.688 275.964 154.876 276.142 154.879 276.358C154.882 276.573 154.71 276.751 154.494 276.754L106.971 277.45C105.156 277.476 103.63 278.797 103.343 280.59L102.705 284.594C102.673 284.786 102.506 284.922 102.319 284.922Z" fill="white"/>
<path opacity="0.44" d="M233.565 115.556H205.29C203.514 115.556 202.076 114.117 202.076 112.342C202.076 110.567 203.516 109.129 205.29 109.129H233.565C235.34 109.129 236.779 110.567 236.779 112.342C236.779 114.116 235.34 115.556 233.565 115.556Z" fill="white"/>
<path opacity="0.43" d="M243.973 110.497H274.492C276.408 110.497 277.96 116.205 277.96 123.246V198.324C277.96 205.365 276.408 211.073 274.492 211.073H243.973C242.057 211.073 240.505 205.365 240.505 198.324V123.246C240.504 116.205 242.057 110.497 243.973 110.497Z" fill="white"/>
<path opacity="0.46" d="M205.29 119.126H233.565C235.34 119.126 236.779 120.564 236.779 122.339V141.264C236.779 143.039 235.339 144.477 233.565 144.477H205.29C203.514 144.477 202.076 143.039 202.076 141.264V122.339C202.076 120.564 203.514 119.126 205.29 119.126Z" fill="white"/>
<path opacity="0.38" d="M205.29 150.15H233.565C235.34 150.15 236.779 153.618 236.779 157.895V203.504C236.779 207.782 235.339 211.25 233.565 211.25H205.29C203.514 211.25 202.076 207.783 202.076 203.504V157.895C202.076 153.619 203.514 150.15 205.29 150.15Z" fill="white"/>
<path opacity="0.42" d="M277.606 105.151H24.3065C21.3745 105.151 18.998 102.774 18.998 99.8424V78.7153C18.998 75.7312 21.4577 73.3323 24.4408 73.408L277.74 79.8135C280.619 79.886 282.914 82.2411 282.914 85.1208V99.8424C282.914 102.773 280.538 105.151 277.606 105.151Z" fill="white"/>
<path opacity="0.58" d="M192.866 192.013H107.52C105.369 192.013 103.626 190.27 103.626 188.12V115.323C103.626 113.173 105.369 111.43 107.52 111.43H192.866C195.016 111.43 196.759 113.173 196.759 115.323V188.12C196.759 190.27 195.016 192.013 192.866 192.013Z" fill="white"/>
<path opacity="0.28" d="M196.519 212.584L21.03 211.107C18.902 211.089 17.1865 209.359 17.1865 207.231V201.04C17.1865 198.081 19.5854 195.681 22.5461 195.681H196.281C197.424 195.681 198.351 196.607 198.351 197.75V210.768C198.351 211.776 197.529 212.592 196.519 212.584Z" fill="white"/>
<path opacity="0.47" d="M94.545 190.154H20.8552C18.8295 190.154 17.1865 188.512 17.1865 186.485V112.796C17.1865 110.77 18.8284 109.127 20.8552 109.127H94.545C96.5707 109.127 98.2136 110.769 98.2136 112.796V186.485C98.2136 188.512 96.5707 190.154 94.545 190.154Z" fill="white"/>
<path d="M148.673 117.512L231.671 116.768C233.299 116.753 234.623 118.074 234.614 119.701L234.25 183.39C234.24 185.029 232.888 186.338 231.249 186.289C216.243 185.841 149.617 183.868 146.676 183.99C143.769 184.112 145.348 132.949 145.782 120.325C145.838 118.766 147.111 117.526 148.673 117.512Z" fill="url(#paint7_linear_250_13441)"/>
<path d="M231.339 183.889H231.322C219.389 183.533 159.309 181.749 148.305 181.595L148.157 181.593L148.131 181.446C147.091 175.577 147.112 151.618 148.185 120.41C148.194 120.134 148.418 119.916 148.694 119.914L231.693 119.17C231.874 119.17 231.994 119.253 232.063 119.322C232.161 119.422 232.213 119.547 232.212 119.688L231.848 183.377C231.847 183.659 231.619 183.889 231.339 183.889ZM148.46 181.237C159.852 181.406 219.453 183.176 231.333 183.53L231.347 183.531C231.422 183.531 231.49 183.46 231.49 183.375L231.854 119.686C231.854 119.641 231.84 119.607 231.809 119.575C231.778 119.544 231.741 119.529 231.695 119.529L148.698 120.273C148.614 120.274 148.547 120.339 148.544 120.423C147.48 151.354 147.449 175.148 148.46 181.237Z" fill="white"/>
<path d="M158.689 175.699H213.097C214.791 175.699 215.843 173.859 214.984 172.4L193.444 135.782C192.545 134.256 190.3 134.372 189.564 135.984L179.164 158.773C178.547 160.126 176.789 160.483 175.693 159.478L171.486 155.622C170.508 154.726 168.965 154.897 168.208 155.986L156.892 172.26C155.882 173.712 156.921 175.699 158.689 175.699Z" fill="white"/>
<path d="M215.36 141.903C219.351 140.25 221.246 135.675 219.593 131.684C217.94 127.693 213.365 125.798 209.374 127.451C205.383 129.104 203.488 133.68 205.141 137.67C206.794 141.661 211.369 143.557 215.36 141.903Z" fill="white"/>
<path d="M283.578 193.826C281.669 186.763 275.767 180.96 269.191 179.493C267.983 179.223 267.284 177.993 267.568 176.788C267.57 176.779 267.572 176.771 267.574 176.762C268.527 172.654 265.894 169.381 261.922 168.46C257.951 167.539 254.146 169.318 253.192 173.426C252.55 176.198 253.373 179.317 255.197 181.337C255.948 182.17 256.008 183.412 255.281 184.265C251.274 188.959 249.644 196.124 251.377 202.534C253.929 211.973 262.805 216.19 271.698 213.786C280.589 211.382 286.129 203.266 283.578 193.826Z" fill="url(#paint8_linear_250_13441)"/>
<path d="M280.812 202.835L280.639 202.714C282.231 200.455 282.436 197.193 281.172 194.203C280.169 191.827 278.373 189.656 275.523 187.368C274.461 186.515 273.334 185.705 272.245 184.923C270.934 183.98 269.578 183.007 268.321 181.947C267.191 180.994 266.001 179.812 265.751 178.266C265.626 177.495 265.743 176.673 265.856 175.88C266.032 174.637 266.198 173.463 265.47 172.564L265.634 172.431C266.421 173.401 266.24 174.676 266.065 175.91C265.955 176.688 265.841 177.493 265.959 178.233C266.198 179.711 267.356 180.859 268.456 181.786C269.707 182.84 271.06 183.812 272.368 184.751C273.46 185.536 274.589 186.346 275.655 187.202C278.534 189.514 280.349 191.711 281.366 194.12C282.657 197.177 282.445 200.517 280.812 202.835Z" fill="white"/>
<path d="M276.584 204.199L276.386 204.127C277.469 201.131 277.152 197.45 275.516 194.026C273.894 190.634 271.242 187.867 269.113 185.836L269.259 185.684C271.401 187.726 274.07 190.512 275.706 193.936C277.366 197.409 277.686 201.149 276.584 204.199Z" fill="white"/>
<path d="M233.941 165.447L233.868 163.008L236.418 157.945C236.885 157.018 236.888 155.927 236.428 154.998L233.539 149.166C233.539 149.166 231.871 161.826 231.433 162.878C230.993 163.93 232.622 165.821 232.622 165.821L233.941 165.447Z" fill="url(#paint9_linear_250_13441)"/>
<path d="M233.867 163.008C233.867 163.008 241.624 184.152 254.839 190.76C254.839 190.76 250.44 197.937 248.144 198.372C248.144 198.372 234.026 180.303 232.587 165.499L233.867 163.008Z" fill="url(#paint10_linear_250_13441)"/>
<path d="M287.017 290.194L287.407 293.401C287.813 294.925 289.775 298.765 292.293 298.514C293.842 298.361 294.029 293.834 293.814 293.156C293.42 291.918 292.701 290.06 291.662 288.966H288.105C287.448 288.966 286.938 289.542 287.017 290.194Z" fill="url(#paint11_linear_250_13441)"/>
<path d="M259.156 252.631L258.556 256.163C258.556 256.163 260.567 276.528 260.924 284.674C260.98 285.952 260.65 287.214 259.979 288.302L256.483 293.98L265.369 288.736L265.546 287.652L264.092 285.652L265.997 262.838C266.109 261.498 265.833 260.154 265.2 258.967L263.362 255.515L259.156 252.631Z" fill="url(#paint12_linear_250_13441)"/>
<path d="M255.899 294.801H258.734C259.265 294.801 259.765 294.557 260.089 294.137C260.973 292.989 262.804 290.748 263.68 290.689C264.859 290.61 264.708 294.801 264.708 294.801H265.369L266.206 289.594C266.417 288.284 265.764 286.986 264.588 286.372C264.588 286.372 264.318 288.365 262.858 289.246C261.397 290.128 256.912 293.285 256.912 293.285C256.912 293.285 256.363 293.207 255.759 293.316C254.865 293.476 254.991 294.801 255.899 294.801Z" fill="url(#paint13_linear_250_13441)"/>
<path d="M271.327 254.309C271.327 254.309 283.105 276.651 284.978 281.753C286.85 286.854 287.506 291.109 287.532 291.512C287.571 292.143 288.354 292.746 290.513 292.746C291.627 292.746 292.173 292.299 292.439 291.867C292.667 291.499 292.679 291.037 292.487 290.649C291.806 289.27 289.644 284.864 288.843 282.865C287.887 280.479 285.83 269.665 284.702 265.905C283.574 262.145 282.299 258.067 277.387 254.31C277.387 254.309 274.016 251.006 271.327 254.309Z" fill="url(#paint14_linear_250_13441)"/>
<path d="M263.886 217.698C262.161 210.389 263.897 204.882 265.719 201.487C267.173 198.779 266.151 195.431 263.424 194.013C259.162 191.796 254.839 190.76 254.839 190.76C254.839 190.76 246.395 196.933 247.397 201.765C247.985 204.596 253.332 218.727 253.332 218.727C253.332 218.727 258.277 221.066 263.886 217.698Z" fill="url(#paint15_linear_250_13441)"/>
<path d="M270.622 224.073C269.386 220.348 263.886 217.699 263.886 217.699C258.278 221.067 253.332 218.727 253.332 218.727C253.332 218.727 252.224 222.966 252.989 226.906C253.755 230.845 258.557 256.163 258.557 256.163C266.123 257.696 277.761 254.62 277.761 254.62C272.941 246.063 271.859 227.798 270.622 224.073Z" fill="url(#paint16_linear_250_13441)"/>
<path d="M260.359 182.253L262.83 193.348C263.066 194.326 262.175 194.166 261.187 193.979C259.568 193.674 257.483 193.046 256.786 191.787C256.714 191.659 256.679 191.514 256.659 191.369L255.598 183.676C255.514 183.065 255.844 182.473 256.407 182.223L258.455 181.314C259.244 180.964 260.156 181.413 260.359 182.253Z" fill="url(#paint17_linear_250_13441)"/>
<path d="M229.485 174.923C229.485 174.923 235.986 197.508 262.203 195.386C263.88 195.25 265.353 196.492 265.484 198.17L265.554 199.077C265.743 201.508 263.76 203.556 261.324 203.433C252.604 202.992 233.878 199.567 227.46 178.85L229.485 174.923Z" fill="url(#paint18_linear_250_13441)"/>
<path d="M227.461 178.849C227.461 178.849 226.212 175.173 225.898 172.875C225.585 170.576 226.739 165.419 227.732 163.969C228.724 162.519 228.891 166.073 229.338 167.744C229.784 169.415 229.027 171.799 229.027 171.799L229.484 174.924L227.461 178.849Z" fill="url(#paint19_linear_250_13441)"/>
<path d="M255.294 173.099C255.294 173.099 249.049 182.198 252.933 184.734C256.817 187.269 261.264 180.803 261.264 180.803C261.264 180.803 262.659 175.861 261.072 174.224C259.483 172.585 255.294 173.099 255.294 173.099Z" fill="url(#paint20_linear_250_13441)"/>
<path d="M257.915 170.89C257.915 170.89 255.197 171.589 254.838 172.831C254.478 174.073 258.754 175.138 259.947 175.172L261.001 180.138C261.001 180.138 263.752 175.396 262.576 172.71C261.4 170.023 257.915 170.89 257.915 170.89Z" fill="url(#paint21_linear_250_13441)"/>
<path d="M260.007 180.165C260.007 180.165 262.449 177.226 263.478 179.092C264.507 180.959 261.293 182.436 260.154 181.531L260.007 180.165Z" fill="url(#paint22_linear_250_13441)"/>
<path d="M26.3633 267.389H125.803V251.239H26.3633C28.4913 251.239 28.4913 267.389 26.3633 267.389Z" fill="url(#paint23_linear_250_13441)"/>
<path d="M125.803 263.348V255.956C125.803 253.351 123.838 251.239 121.414 251.239H26.7823C24.876 251.239 23.3311 249.985 23.3311 248.438C23.3311 247.968 23.8003 247.587 24.3802 247.587H127.805C130.177 247.587 133.943 250.613 133.943 254.345V264.668C133.943 268.187 130.287 271.04 128.05 271.04H24.9229C24.0433 271.04 23.3301 270.461 23.3301 269.748C23.3301 268.445 24.6319 267.389 26.2375 267.389H122.043C124.12 267.39 125.803 265.581 125.803 263.348Z" fill="url(#paint24_linear_250_13441)"/>
<path d="M123.044 254.912H29.8055C29.6072 254.912 29.4473 254.751 29.4473 254.554C29.4473 254.355 29.6083 254.195 29.8055 254.195H123.044C123.243 254.195 123.403 254.356 123.403 254.554C123.404 254.752 123.243 254.912 123.044 254.912Z" fill="white"/>
<path d="M123.044 257.309H29.8055C29.6072 257.309 29.4473 257.148 29.4473 256.951C29.4473 256.754 29.6083 256.593 29.8055 256.593H123.044C123.243 256.593 123.403 256.754 123.403 256.951C123.403 257.148 123.243 257.309 123.044 257.309Z" fill="white"/>
<path d="M123.044 259.707H29.8055C29.6072 259.707 29.4473 259.546 29.4473 259.348C29.4473 259.15 29.6083 258.99 29.8055 258.99H123.044C123.243 258.99 123.403 259.151 123.403 259.348C123.404 259.546 123.243 259.707 123.044 259.707Z" fill="white"/>
<path d="M123.044 262.104H29.8055C29.6072 262.104 29.4473 261.943 29.4473 261.746C29.4473 261.549 29.6083 261.388 29.8055 261.388H123.044C123.243 261.388 123.403 261.549 123.403 261.746C123.403 261.943 123.243 262.104 123.044 262.104Z" fill="white"/>
<path d="M123.044 264.502H29.8055C29.6072 264.502 29.4473 264.341 29.4473 264.143C29.4473 263.946 29.6083 263.785 29.8055 263.785H123.044C123.243 263.785 123.403 263.946 123.403 264.143C123.403 264.341 123.243 264.502 123.044 264.502Z" fill="white"/>
<path d="M135.425 298.253H7.27173C6.01259 298.253 4.99121 297.232 4.99121 295.973V273.548C4.99121 272.289 6.01259 271.268 7.27173 271.268H135.425C136.684 271.268 137.706 272.289 137.706 273.548V295.973C137.706 297.233 136.684 298.253 135.425 298.253Z" fill="url(#paint25_linear_250_13441)"/>
<path d="M34.8088 295.152H20.7621C20.3357 295.152 19.9902 294.806 19.9902 294.38V275.141C19.9902 274.715 20.3357 274.369 20.7621 274.369H34.8088C35.2353 274.369 35.5807 274.715 35.5807 275.141V294.38C35.5807 294.806 35.2353 295.152 34.8088 295.152Z" fill="url(#paint26_linear_250_13441)"/>
<path d="M43.0961 295.152H38.502C38.1555 295.152 37.874 294.87 37.874 294.524V274.997C37.874 274.651 38.1555 274.369 38.502 274.369H43.0961C43.4426 274.369 43.724 274.651 43.724 274.997V294.524C43.724 294.871 43.4436 295.152 43.0961 295.152Z" fill="url(#paint27_linear_250_13441)"/>
<path d="M72.1257 174.966C72.0617 175.088 68.0039 178.074 68.0039 178.074C68.0039 178.074 68.8995 184.484 72.5383 187.015C76.5385 189.797 82.187 184.722 82.187 184.722C82.187 184.722 86.683 185.791 89.0734 176.433C89.6214 174.286 86.4559 174.105 82.6348 174.5C77.707 175.01 72.1257 174.966 72.1257 174.966Z" fill="url(#paint28_linear_250_13441)"/>
<path d="M64.5425 196.833C66.13 195.741 67.8838 194.919 69.7443 194.413C70.4426 194.223 74.2158 195.319 76.5485 195.266C79.7502 195.192 83.0084 193.735 85.6482 194.393C88.2699 195.046 90.415 195.899 91.6539 196.78C95.362 199.418 97.5391 204.335 98.8654 209.206C96.3535 211.785 93.1923 212.931 93.1923 212.931L92.6081 236.607L78.6073 243.771L62.6277 235.748L63.2002 212.61C63.2002 212.61 58.1253 210.248 57.7532 209.387C57.38 208.529 60.0657 199.912 64.5425 196.833Z" fill="url(#paint29_linear_250_13441)"/>
<path d="M57.9895 209.285C57.9895 209.285 51.1895 228.137 66.6957 235.886C69.9156 235.458 68.6767 230.112 68.6767 230.112C68.6767 230.112 61.9385 228.62 63.9621 212.894C62.1006 211.361 57.9895 209.285 57.9895 209.285Z" fill="url(#paint30_linear_250_13441)"/>
<path d="M98.5387 209.285C98.5387 209.285 103.218 228.964 89.8324 235.886C86.6126 235.458 87.8515 230.112 87.8515 230.112C87.8515 230.112 93.2814 227.438 92.566 212.894C94.4276 211.361 98.5387 209.285 98.5387 209.285Z" fill="url(#paint31_linear_250_13441)"/>
<path d="M92.2563 237.21H63.3325C62.8442 237.21 62.4443 236.81 62.4443 236.322V217.366C62.4443 216.877 62.8442 216.478 63.3325 216.478H92.2563C92.7446 216.478 93.1444 216.877 93.1444 217.366V236.322C93.1455 236.81 92.7457 237.21 92.2563 237.21Z" fill="url(#paint32_linear_250_13441)"/>
<path d="M106.611 243.356C103.098 242.55 94.9771 242.983 94.9771 242.983L94.6465 243.878L94.0996 248.324C94.0996 248.324 101.834 249.717 105.645 249.714C106.034 249.714 106.389 249.655 106.714 249.554C106.831 249.45 106.945 249.342 107.051 249.225C108.67 247.459 108.202 244.864 106.611 243.356Z" fill="url(#paint33_linear_250_13441)"/>
<path d="M92.6434 242.732L94.0188 242.791C94.7576 242.823 95.4538 243.182 95.9507 243.79C96.4475 244.398 96.7034 245.201 96.6597 246.019C96.6245 246.672 96.3569 247.283 95.9155 247.716C95.4741 248.149 94.8952 248.368 94.3067 248.327L92.2031 248.177L92.6434 242.732Z" fill="url(#paint34_linear_250_13441)"/>
<path d="M46.4051 242.929C49.9373 242.23 58.0444 242.913 58.0444 242.913L58.3525 243.817L58.7886 248.278C58.7886 248.278 51.0237 249.433 47.2133 249.313C46.8241 249.3 46.4702 249.231 46.1482 249.12C46.0341 249.012 45.9243 248.9 45.8198 248.78C44.2461 246.966 44.7771 244.387 46.4051 242.929Z" fill="url(#paint35_linear_250_13441)"/>
<path d="M60.3837 242.735L59.0073 242.751C58.2684 242.76 57.5626 243.099 57.0509 243.691C56.5391 244.282 56.264 245.078 56.2864 245.898C56.3045 246.551 56.5572 247.17 56.988 247.616C57.4187 248.063 57.9923 248.301 58.5808 248.276L60.6875 248.191L60.3837 242.735Z" fill="url(#paint36_linear_250_13441)"/>
<path d="M107.594 229.418C106.001 225.75 102.103 225.155 98.786 226.87C98.7284 226.946 77.7219 237.712 59.1963 242.431C59.7262 244.131 59.9991 245.94 60.0588 247.718C60.0695 248.114 60.0631 248.504 60.0396 248.89C74.2462 248.161 89.6639 243.423 102.912 239.26C107.021 237.934 109.359 233.482 107.594 229.418Z" fill="url(#paint37_linear_250_13441)"/>
<path d="M92.7439 247.998C92.6885 245.949 93.0872 244.04 93.9391 242.274C93.9636 242.193 93.9924 242.115 94.018 242.035C92.9604 241.707 91.5936 241.263 89.7981 240.654C76.6439 236.152 66.6081 231.607 57.0297 226.374C53.3088 224.341 49.0783 225.703 47.8874 230.107C46.8244 234.036 49.1593 237.393 52.7032 238.572C63.3051 242.1 57.7856 241.12 61.2474 242.234C70.5465 245.11 82.1186 247.729 92.7653 248.445C92.7578 248.295 92.7493 248.146 92.7439 247.998Z" fill="url(#paint38_linear_250_13441)"/>
<path d="M69.7451 194.413C69.7451 194.413 71.1599 200.544 78.0281 200.417C85.0243 200.29 85.648 194.393 85.648 194.393L81.0784 193.415L80.6967 188.323L73.8221 188.833L73.6952 193.67L69.7451 194.413Z" fill="url(#paint39_linear_250_13441)"/>
<path d="M74.7876 173.896C74.7876 173.896 66.9097 189.156 76.2546 192.858C82.8456 195.469 86.9791 182.724 85.7466 179.272C83.8403 173.935 82.5854 174.568 82.5854 174.568L74.7876 173.896Z" fill="url(#paint40_linear_250_13441)"/>
<path d="M87.6415 172.508C91.533 173.577 88.2076 182.018 82.348 180.022C76.4884 178.026 74.1865 178.055 73.2728 179.664C72.3602 181.273 72.164 186.986 70.182 184.162C68.0103 181.066 66.7991 174.851 69.4624 172.848C71.8421 171.058 72.3975 168.282 75.2527 168.378C79.0418 168.506 81.9716 166.825 83.6818 168.038C85.6467 169.429 84.7778 171.721 87.6415 172.508Z" fill="url(#paint41_linear_250_13441)"/>
<path d="M72.9126 180.977C72.9126 180.977 71.2323 179.168 70.9637 181.348C70.695 183.527 71.5586 186.333 72.5693 184.794C73.5811 183.256 72.9126 180.977 72.9126 180.977Z" fill="url(#paint42_linear_250_13441)"/>
<path d="M79.6054 225.214C79.7685 226.315 79.1789 227.312 78.0787 227.476C76.9784 227.639 75.9549 226.879 75.7918 225.778C75.6286 224.678 76.1329 223.586 77.2321 223.423C78.3335 223.261 79.4423 224.115 79.6054 225.214Z" fill="url(#paint43_linear_250_13441)"/>
<path d="M58.4884 167.253C78.3336 167.253 94.4212 151.166 94.4212 131.32C94.4212 111.475 78.3336 95.3877 58.4884 95.3877C38.6433 95.3877 22.5557 111.475 22.5557 131.32C22.5557 151.166 38.6433 167.253 58.4884 167.253Z" fill="white"/>
<path d="M28.873 129.568L36.4129 125.636V127.311C36.4129 127.438 36.3809 127.554 36.318 127.658C36.2541 127.763 36.1496 127.853 36.0035 127.929L32.5481 129.7C32.402 129.776 32.2485 129.842 32.0864 129.895C31.9244 129.949 31.7517 129.998 31.5672 130.042C31.7517 130.087 31.9244 130.136 32.0864 130.189C32.2485 130.244 32.402 130.309 32.5481 130.384L36.0035 132.165C36.1496 132.241 36.2541 132.331 36.318 132.436C36.3809 132.54 36.4129 132.656 36.4129 132.783V134.459L28.873 130.518V129.568Z" fill="url(#paint44_linear_250_13441)"/>
<path d="M39.8496 136.459V122.312H42.2016V127.749C42.5822 127.387 43.0012 127.095 43.4586 126.874C43.9159 126.652 44.4522 126.541 45.0674 126.541C45.6005 126.541 46.0739 126.632 46.4865 126.813C46.8991 126.993 47.2434 127.248 47.5196 127.574C47.7957 127.901 48.0047 128.292 48.1475 128.745C48.2904 129.199 48.3618 129.698 48.3618 130.244V136.46H46.011V130.244C46.011 129.647 45.8724 129.185 45.5973 128.859C45.3211 128.532 44.9075 128.368 44.3552 128.368C43.949 128.368 43.5684 128.46 43.2123 128.644C42.8573 128.829 42.5203 129.079 42.2037 129.396V136.46H39.8496V136.459Z" fill="url(#paint45_linear_250_13441)"/>
<path d="M53.883 136.612C53.0386 136.612 52.3883 136.372 51.932 135.894C51.4746 135.415 51.2464 134.753 51.2464 133.908V128.454H50.256C50.1291 128.454 50.0193 128.412 49.9276 128.33C49.8359 128.248 49.79 128.124 49.79 127.959V127.026L51.3605 126.769L51.8552 124.104C51.8808 123.977 51.9394 123.879 52.0311 123.809C52.1228 123.739 52.239 123.704 52.3787 123.704H53.5973V126.779H56.1678V128.455H53.5973V133.748C53.5973 134.053 53.6741 134.291 53.8255 134.463C53.9779 134.634 54.1805 134.72 54.4342 134.72C54.5803 134.72 54.7018 134.703 54.801 134.667C54.8991 134.632 54.9854 134.596 55.0579 134.558C55.1304 134.519 55.1955 134.483 55.253 134.448C55.3095 134.413 55.3671 134.396 55.4247 134.396C55.494 134.396 55.5516 134.414 55.5963 134.448C55.6411 134.483 55.688 134.535 55.7392 134.605L56.4439 135.746C56.1017 136.032 55.7072 136.247 55.2637 136.394C54.8191 136.54 54.3585 136.612 53.883 136.612Z" fill="url(#paint46_linear_250_13441)"/>
<path d="M58.043 136.46V126.692H59.4802C59.7851 126.692 59.9844 126.835 60.0793 127.121L60.2318 127.845C60.4035 127.654 60.5826 127.48 60.7702 127.321C60.9568 127.163 61.1572 127.026 61.3694 126.912C61.5816 126.798 61.8108 126.707 62.0549 126.641C62.2991 126.575 62.5678 126.541 62.8599 126.541C63.4751 126.541 63.9815 126.707 64.3781 127.041C64.7747 127.374 65.0711 127.817 65.2683 128.369C65.4208 128.046 65.6106 127.768 65.8398 127.537C66.068 127.305 66.3196 127.117 66.5914 126.971C66.8644 126.825 67.1544 126.717 67.4625 126.648C67.7706 126.578 68.0798 126.543 68.3911 126.543C68.9306 126.543 69.4093 126.625 69.8283 126.79C70.2473 126.956 70.5991 127.197 70.8849 127.513C71.1706 127.831 71.3881 128.218 71.5374 128.674C71.6866 129.132 71.7612 129.655 71.7612 130.245V136.462H69.4093V130.245C69.4093 129.623 69.2728 129.155 68.9999 128.841C68.727 128.526 68.3271 128.369 67.8005 128.369C67.5595 128.369 67.3356 128.411 67.1299 128.493C66.923 128.575 66.7428 128.695 66.5872 128.85C66.4315 129.006 66.31 129.201 66.2204 129.436C66.1319 129.67 66.0871 129.94 66.0871 130.245V136.462H63.7267V130.245C63.7267 129.591 63.5945 129.116 63.3311 128.817C63.0678 128.519 62.6786 128.369 62.1647 128.369C61.8278 128.369 61.5122 128.454 61.2169 128.622C60.9216 128.791 60.6476 129.021 60.3939 129.313V136.463H58.043V136.46Z" fill="url(#paint47_linear_250_13441)"/>
<path d="M76.5785 122.312V136.459H74.2266V122.312H76.5785Z" fill="url(#paint48_linear_250_13441)"/>
<path d="M80.1572 134.46V132.784C80.1572 132.657 80.1892 132.541 80.2521 132.437C80.315 132.332 80.4206 132.242 80.5666 132.166L84.0221 130.385C84.3014 130.246 84.6276 130.132 85.0029 130.043C84.8185 129.998 84.6458 129.949 84.4837 129.896C84.3217 129.842 84.1681 129.777 84.0221 129.701L80.5666 127.93C80.4206 127.853 80.3161 127.764 80.2521 127.659C80.1881 127.555 80.1572 127.439 80.1572 127.312V125.637L87.6971 129.569V130.521L80.1572 134.46Z" fill="url(#paint49_linear_250_13441)"/>
<path d="M140.913 139.761C158.393 139.761 172.564 125.59 172.564 108.11C172.564 90.6297 158.393 76.459 140.913 76.459C123.432 76.459 109.262 90.6297 109.262 108.11C109.262 125.59 123.432 139.761 140.913 139.761Z" fill="white"/>
<path d="M124.18 108.162L133.327 103.392V105.424C133.327 105.578 133.288 105.718 133.211 105.846C133.134 105.973 133.007 106.083 132.829 106.175L128.637 108.324C128.46 108.415 128.274 108.495 128.078 108.56C127.881 108.626 127.671 108.685 127.449 108.739C127.671 108.793 127.881 108.854 128.078 108.919C128.274 108.984 128.46 109.063 128.637 109.155L132.829 111.315C133.006 111.408 133.133 111.518 133.211 111.645C133.288 111.772 133.327 111.912 133.327 112.066V114.099L124.18 109.317V108.162Z" fill="url(#paint50_linear_250_13441)"/>
<path d="M138.49 116.559C138.421 116.736 138.332 116.89 138.224 117.021C138.117 117.152 137.993 117.262 137.854 117.351C137.716 117.439 137.57 117.506 137.415 117.552C137.261 117.599 137.11 117.622 136.965 117.622H135.764L142.509 100.366C142.64 100.043 142.828 99.7943 143.075 99.6205C143.322 99.4467 143.618 99.3604 143.965 99.3604H145.178L138.49 116.559Z" fill="url(#paint51_linear_250_13441)"/>
<path d="M147.557 114.099V112.066C147.557 111.912 147.595 111.772 147.672 111.645C147.749 111.518 147.875 111.408 148.053 111.315L152.247 109.155C152.585 108.986 152.981 108.847 153.437 108.739C153.214 108.686 153.004 108.626 152.807 108.56C152.611 108.495 152.424 108.416 152.248 108.324L148.055 106.175C147.878 106.083 147.751 105.973 147.673 105.846C147.596 105.719 147.558 105.578 147.558 105.424V103.392L156.705 108.162V109.316L147.557 114.099Z" fill="url(#paint52_linear_250_13441)"/>
<g opacity="0.64">
<path d="M283.182 126.45C283.089 126.45 282.995 126.414 282.925 126.342C282.786 126.2 282.788 125.973 282.93 125.835C283.141 125.628 283.35 125.418 283.556 125.206C283.693 125.064 283.922 125.06 284.063 125.198C284.205 125.336 284.209 125.563 284.071 125.706C283.861 125.922 283.648 126.136 283.432 126.347C283.363 126.416 283.272 126.45 283.182 126.45Z" fill="white"/>
<path d="M260.809 135.896C260.615 135.896 260.455 135.741 260.45 135.546C260.445 135.348 260.602 135.183 260.8 135.179C261.38 135.165 261.971 135.136 262.554 135.09C262.753 135.074 262.924 135.222 262.94 135.419C262.955 135.616 262.808 135.789 262.61 135.805C262.014 135.852 261.411 135.883 260.818 135.897C260.815 135.896 260.812 135.896 260.809 135.896ZM259.032 135.89C259.029 135.89 259.025 135.89 259.022 135.89C258.426 135.873 257.823 135.839 257.23 135.789C257.032 135.773 256.885 135.599 256.902 135.402C256.918 135.205 257.093 135.056 257.289 135.075C257.87 135.124 258.46 135.157 259.043 135.174C259.241 135.179 259.397 135.346 259.391 135.543C259.385 135.737 259.225 135.89 259.032 135.89ZM264.347 135.618C264.17 135.618 264.016 135.487 263.992 135.307C263.967 135.111 264.104 134.931 264.3 134.904C264.877 134.827 265.46 134.734 266.034 134.626C266.23 134.59 266.417 134.718 266.453 134.912C266.489 135.107 266.361 135.293 266.167 135.331C265.581 135.442 264.984 135.536 264.395 135.614C264.379 135.617 264.363 135.618 264.347 135.618ZM255.494 135.596C255.478 135.596 255.461 135.595 255.445 135.593C254.853 135.512 254.257 135.413 253.674 135.301C253.48 135.263 253.352 135.075 253.389 134.881C253.427 134.687 253.614 134.56 253.809 134.596C254.38 134.706 254.963 134.802 255.542 134.882C255.738 134.908 255.876 135.09 255.849 135.286C255.824 135.466 255.671 135.596 255.494 135.596ZM267.836 134.962C267.675 134.962 267.528 134.852 267.488 134.688C267.441 134.496 267.559 134.301 267.751 134.254C268.315 134.116 268.886 133.96 269.446 133.791C269.635 133.734 269.836 133.841 269.892 134.031C269.95 134.221 269.842 134.421 269.652 134.478C269.08 134.65 268.498 134.81 267.921 134.951C267.893 134.959 267.864 134.962 267.836 134.962ZM252.007 134.924C251.979 134.924 251.95 134.921 251.921 134.914C251.343 134.77 250.761 134.609 250.192 134.435C250.002 134.377 249.895 134.176 249.954 133.987C250.013 133.797 250.213 133.692 250.402 133.748C250.959 133.919 251.529 134.077 252.095 134.218C252.287 134.266 252.404 134.46 252.356 134.653C252.315 134.816 252.168 134.924 252.007 134.924ZM271.235 133.934C271.087 133.934 270.95 133.843 270.898 133.697C270.831 133.511 270.926 133.305 271.113 133.238C271.66 133.041 272.21 132.824 272.749 132.596C272.931 132.519 273.142 132.604 273.219 132.787C273.295 132.969 273.21 133.18 273.028 133.257C272.478 133.49 271.916 133.71 271.357 133.913C271.317 133.928 271.275 133.934 271.235 133.934ZM248.612 133.887C248.571 133.887 248.53 133.88 248.489 133.865C247.928 133.66 247.366 133.438 246.821 133.205C246.638 133.127 246.554 132.916 246.632 132.733C246.71 132.551 246.92 132.466 247.103 132.545C247.637 132.773 248.187 132.99 248.737 133.191C248.922 133.259 249.019 133.465 248.951 133.65C248.896 133.797 248.759 133.887 248.612 133.887ZM274.506 132.55C274.372 132.55 274.244 132.475 274.183 132.349C274.096 132.171 274.17 131.955 274.348 131.869C274.872 131.614 275.397 131.341 275.907 131.059C276.08 130.963 276.299 131.025 276.394 131.198C276.49 131.371 276.427 131.589 276.254 131.685C275.734 131.974 275.198 132.253 274.661 132.513C274.611 132.539 274.558 132.55 274.506 132.55ZM245.347 132.496C245.294 132.496 245.241 132.484 245.189 132.459C244.654 132.196 244.119 131.917 243.601 131.626C243.428 131.529 243.366 131.31 243.462 131.137C243.559 130.965 243.777 130.903 243.95 130.999C244.458 131.282 244.981 131.557 245.505 131.814C245.683 131.902 245.757 132.117 245.669 132.294C245.607 132.421 245.479 132.496 245.347 132.496ZM277.61 130.83C277.491 130.83 277.374 130.771 277.305 130.662C277.201 130.493 277.252 130.273 277.419 130.167C277.913 129.859 278.406 129.533 278.883 129.197C279.045 129.084 279.269 129.122 279.383 129.284C279.497 129.446 279.458 129.67 279.296 129.784C278.808 130.128 278.304 130.461 277.8 130.776C277.741 130.813 277.675 130.83 277.61 130.83ZM242.25 130.764C242.185 130.764 242.118 130.746 242.059 130.709C241.555 130.391 241.054 130.055 240.569 129.711C240.407 129.597 240.369 129.372 240.483 129.211C240.597 129.049 240.821 129.01 240.983 129.126C241.459 129.462 241.949 129.791 242.442 130.102C242.609 130.208 242.659 130.429 242.554 130.597C242.485 130.705 242.368 130.764 242.25 130.764ZM280.514 128.79C280.408 128.79 280.303 128.743 280.232 128.653C280.109 128.498 280.136 128.272 280.293 128.149C280.751 127.789 281.205 127.411 281.644 127.026C281.793 126.895 282.019 126.91 282.15 127.059C282.281 127.209 282.266 127.435 282.117 127.566C281.669 127.958 281.204 128.344 280.736 128.713C280.67 128.765 280.592 128.79 280.514 128.79ZM239.355 128.713C239.278 128.713 239.199 128.687 239.133 128.635C238.666 128.265 238.203 127.878 237.757 127.484C237.609 127.353 237.595 127.125 237.726 126.977C237.857 126.829 238.083 126.815 238.233 126.946C238.669 127.331 239.121 127.711 239.578 128.073C239.734 128.196 239.759 128.422 239.637 128.578C239.565 128.666 239.461 128.713 239.355 128.713ZM236.698 126.363C236.608 126.363 236.516 126.329 236.447 126.26C236.024 125.843 235.606 125.408 235.204 124.968C235.07 124.821 235.08 124.594 235.227 124.461C235.374 124.328 235.6 124.339 235.734 124.485C236.127 124.915 236.535 125.341 236.95 125.749C237.091 125.888 237.093 126.115 236.954 126.257C236.884 126.327 236.791 126.363 236.698 126.363ZM234.31 123.743C234.207 123.743 234.103 123.698 234.032 123.61C233.655 123.149 233.286 122.671 232.934 122.19C232.817 122.03 232.852 121.806 233.012 121.689C233.172 121.572 233.396 121.607 233.513 121.767C233.856 122.237 234.218 122.704 234.586 123.156C234.712 123.31 234.689 123.536 234.535 123.662C234.47 123.716 234.39 123.743 234.31 123.743ZM232.215 120.878C232.098 120.878 231.983 120.82 231.915 120.715C231.589 120.215 231.273 119.701 230.975 119.186C230.876 119.014 230.935 118.794 231.106 118.695C231.278 118.596 231.497 118.655 231.597 118.826C231.888 119.331 232.197 119.834 232.516 120.322C232.624 120.489 232.577 120.71 232.411 120.819C232.351 120.859 232.282 120.878 232.215 120.878ZM230.438 117.806C230.307 117.806 230.181 117.735 230.118 117.61C229.991 117.361 229.865 117.108 229.744 116.853C229.606 116.566 229.473 116.279 229.345 115.99C229.264 115.809 229.346 115.597 229.528 115.517C229.708 115.436 229.921 115.518 230.001 115.699C230.127 115.982 230.257 116.263 230.391 116.544C230.51 116.793 230.633 117.041 230.758 117.285C230.847 117.461 230.778 117.677 230.601 117.768C230.549 117.793 230.493 117.806 230.438 117.806ZM228.994 114.563C228.85 114.563 228.714 114.475 228.66 114.333C228.446 113.776 228.245 113.207 228.063 112.641C228.002 112.452 228.105 112.249 228.294 112.189C228.484 112.128 228.685 112.231 228.746 112.42C228.925 112.974 229.122 113.532 229.33 114.077C229.402 114.261 229.309 114.469 229.123 114.541C229.08 114.554 229.037 114.563 228.994 114.563ZM227.903 111.184C227.744 111.184 227.599 111.078 227.556 110.917C227.404 110.342 227.265 109.755 227.144 109.169C227.103 108.975 227.228 108.785 227.422 108.745C227.615 108.704 227.806 108.829 227.846 109.023C227.966 109.595 228.101 110.17 228.25 110.732C228.3 110.924 228.187 111.12 227.995 111.17C227.963 111.18 227.933 111.184 227.903 111.184ZM227.179 107.709C227.004 107.709 226.851 107.582 226.825 107.404C226.735 106.814 226.661 106.215 226.603 105.622C226.584 105.425 226.728 105.249 226.925 105.23C227.125 105.209 227.298 105.354 227.317 105.552C227.374 106.132 227.447 106.718 227.535 107.295C227.565 107.491 227.43 107.673 227.234 107.703C227.215 107.707 227.197 107.709 227.179 107.709ZM226.835 104.175C226.645 104.175 226.486 104.025 226.477 103.832C226.457 103.355 226.446 102.87 226.446 102.391C226.446 102.273 226.447 102.155 226.448 102.038C226.451 101.84 226.61 101.683 226.807 101.683C226.808 101.683 226.809 101.683 226.811 101.683C227.009 101.685 227.168 101.847 227.166 102.045C227.165 102.16 227.164 102.275 227.164 102.391C227.164 102.861 227.174 103.335 227.195 103.801C227.203 103.999 227.05 104.167 226.851 104.175C226.846 104.175 226.841 104.175 226.835 104.175Z" fill="white"/>
<path d="M226.875 100.606C226.867 100.606 226.859 100.606 226.851 100.605C226.654 100.592 226.504 100.421 226.516 100.223C226.537 99.9214 226.56 99.6208 226.588 99.3201C226.606 99.1229 226.778 98.9757 226.978 98.996C227.175 99.0141 227.32 99.189 227.302 99.3862C227.275 99.6805 227.252 99.9747 227.233 100.27C227.219 100.46 227.061 100.606 226.875 100.606Z" fill="white"/>
</g>
<g opacity="0.64">
<path d="M238.19 77.7065C238.09 77.7065 237.991 77.6649 237.919 77.5828C237.789 77.4336 237.805 77.2065 237.954 77.0764C238.181 76.8781 238.412 76.683 238.646 76.4911C238.799 76.3653 239.025 76.3866 239.152 76.5401C239.277 76.6926 239.256 76.9186 239.103 77.0455C238.874 77.2342 238.648 77.425 238.426 77.6191C238.357 77.6777 238.274 77.7065 238.19 77.7065Z" fill="white"/>
<path d="M293.113 104.532C293.106 104.532 293.099 104.532 293.093 104.532C292.895 104.522 292.743 104.352 292.755 104.154C292.788 103.555 292.805 102.946 292.805 102.346C292.805 102.147 292.966 101.988 293.163 101.988C293.36 101.988 293.521 102.149 293.521 102.346C293.521 102.96 293.504 103.581 293.47 104.193C293.46 104.384 293.302 104.532 293.113 104.532ZM293.113 100.877C292.924 100.877 292.765 100.728 292.755 100.538C292.722 99.9363 292.67 99.3296 292.604 98.7358C292.582 98.5385 292.724 98.3616 292.921 98.3392C293.116 98.3168 293.295 98.4586 293.318 98.6558C293.386 99.2635 293.437 99.883 293.471 100.498C293.482 100.695 293.33 100.865 293.133 100.877C293.126 100.877 293.119 100.877 293.113 100.877ZM292.708 97.2432C292.536 97.2432 292.384 97.1195 292.354 96.9436C292.255 96.3518 292.137 95.7548 292.005 95.1695C291.961 94.9765 292.083 94.7846 292.276 94.7409C292.47 94.6972 292.661 94.8187 292.705 95.0117C292.84 95.6109 292.959 96.2207 293.062 96.8252C293.095 97.0203 292.963 97.2058 292.767 97.2389C292.747 97.2421 292.728 97.2432 292.708 97.2432ZM291.903 93.6779C291.746 93.6779 291.603 93.5745 291.558 93.4167C291.394 92.841 291.212 92.261 291.016 91.6917C290.951 91.504 291.051 91.3004 291.237 91.2353C291.425 91.1714 291.629 91.2705 291.694 91.4571C291.894 92.0392 292.082 92.632 292.249 93.2205C292.304 93.4114 292.193 93.6097 292.002 93.6641C291.969 93.6726 291.936 93.6779 291.903 93.6779ZM290.71 90.2214C290.568 90.2214 290.435 90.1372 290.377 89.9986C290.15 89.4431 289.905 88.8855 289.649 88.3429C289.564 88.1637 289.64 87.9494 289.82 87.8652C289.999 87.781 290.213 87.8567 290.297 88.0358C290.559 88.5902 290.81 89.1595 291.041 89.7278C291.116 89.9112 291.029 90.1212 290.845 90.1958C290.801 90.2129 290.756 90.2214 290.71 90.2214ZM289.148 86.9163C289.02 86.9163 288.897 86.8481 288.832 86.7287C288.545 86.1988 288.242 85.6721 287.928 85.1625C287.825 84.994 287.877 84.7723 288.046 84.6689C288.216 84.5655 288.437 84.6177 288.54 84.7872C288.86 85.3086 289.17 85.847 289.463 86.3886C289.557 86.5624 289.493 86.7809 289.318 86.8747C289.263 86.9025 289.205 86.9163 289.148 86.9163ZM287.235 83.8021C287.121 83.8021 287.009 83.7477 286.94 83.6475C286.599 83.1549 286.238 82.6634 285.869 82.19C285.748 82.0333 285.776 81.8084 285.932 81.6868C286.088 81.5653 286.314 81.593 286.436 81.7497C286.812 82.2338 287.181 82.7349 287.529 83.2391C287.642 83.4023 287.602 83.6251 287.439 83.7381C287.376 83.7808 287.306 83.8021 287.235 83.8021ZM284.992 80.9181C284.892 80.9181 284.793 80.8765 284.721 80.7944C284.328 80.3424 283.916 79.8957 283.497 79.4649C283.359 79.3231 283.362 79.096 283.504 78.9574C283.645 78.8188 283.872 78.822 284.011 78.9638C284.44 79.4042 284.861 79.8605 285.262 80.3221C285.392 80.4714 285.376 80.6985 285.226 80.8286C285.159 80.8893 285.075 80.9181 284.992 80.9181ZM282.444 78.3018C282.357 78.3018 282.27 78.2708 282.201 78.2069C281.76 77.8017 281.302 77.403 280.837 77.0213C280.684 76.8955 280.662 76.6695 280.788 76.5159C280.914 76.3624 281.14 76.3411 281.293 76.4669C281.769 76.8571 282.238 77.2654 282.688 77.6781C282.834 77.8124 282.844 78.0395 282.709 78.1845C282.637 78.2623 282.541 78.3018 282.444 78.3018ZM240.318 76.0053C240.207 76.0053 240.098 75.9551 240.028 75.8592C239.91 75.6993 239.945 75.4754 240.104 75.3581C240.598 74.9956 241.11 74.6416 241.624 74.3058C241.789 74.197 242.012 74.244 242.121 74.4103C242.229 74.5766 242.182 74.7984 242.016 74.9071C241.513 75.2355 241.013 75.582 240.529 75.937C240.466 75.9818 240.391 76.0053 240.318 76.0053ZM279.621 75.9829C279.547 75.9829 279.472 75.9605 279.408 75.9136C278.925 75.5596 278.425 75.2131 277.921 74.8858C277.755 74.777 277.708 74.5553 277.817 74.3889C277.925 74.2226 278.147 74.1757 278.313 74.2845C278.828 74.6203 279.339 74.9732 279.833 75.3346C279.993 75.4519 280.027 75.6769 279.91 75.8357C279.84 75.9317 279.731 75.9829 279.621 75.9829ZM243.379 74.0073C243.255 74.0073 243.133 73.9433 243.067 73.8281C242.968 73.6565 243.027 73.4369 243.198 73.3377C243.729 73.0307 244.276 72.7353 244.824 72.4581C245.001 72.3686 245.218 72.44 245.306 72.6159C245.396 72.7929 245.325 73.0083 245.148 73.0978C244.613 73.3686 244.078 73.6586 243.558 73.9582C243.501 73.9913 243.439 74.0073 243.379 74.0073ZM276.559 73.9881C276.498 73.9881 276.436 73.9732 276.379 73.9401C275.861 73.6416 275.326 73.3526 274.789 73.0808C274.612 72.9912 274.54 72.7759 274.63 72.5989C274.719 72.4219 274.935 72.3504 275.112 72.44C275.661 72.7172 276.209 73.0125 276.738 73.3175C276.909 73.4166 276.968 73.6362 276.87 73.8079C276.804 73.923 276.683 73.9881 276.559 73.9881ZM246.64 72.3558C246.503 72.3558 246.37 72.2758 246.312 72.1415C246.232 71.9602 246.314 71.7481 246.496 71.6681C247.059 71.4208 247.635 71.1851 248.207 70.9698C248.392 70.9005 248.6 70.9943 248.669 71.1787C248.738 71.3643 248.644 71.5711 248.459 71.6404C247.898 71.8515 247.335 72.0807 246.784 72.3238C246.738 72.3451 246.689 72.3558 246.64 72.3558ZM273.296 72.3419C273.248 72.3419 273.199 72.3323 273.152 72.3121C272.604 72.0722 272.04 71.843 271.476 71.6329C271.291 71.5636 271.197 71.3568 271.266 71.1713C271.335 70.9858 271.543 70.8909 271.728 70.9612C272.305 71.1766 272.88 71.4101 273.441 71.6553C273.622 71.7353 273.706 71.9464 273.626 72.1276C273.566 72.2609 273.435 72.3419 273.296 72.3419ZM250.062 71.0679C249.91 71.0679 249.768 70.9698 249.72 70.8162C249.66 70.6275 249.766 70.426 249.955 70.3663C250.54 70.1819 251.137 70.0113 251.732 69.8599C251.925 69.8119 252.119 69.9271 252.168 70.119C252.217 70.3109 252.101 70.506 251.909 70.555C251.327 70.7032 250.742 70.8696 250.169 71.0497C250.134 71.0625 250.098 71.0679 250.062 71.0679ZM269.873 71.0615C269.838 71.0615 269.801 71.0561 269.765 71.0455C269.194 70.8664 268.608 70.7011 268.025 70.5529C267.833 70.5039 267.717 70.3088 267.766 70.1169C267.815 69.9249 268.008 69.8077 268.202 69.8578C268.798 70.0092 269.397 70.1776 269.98 70.361C270.169 70.4207 270.275 70.6211 270.216 70.8109C270.167 70.9634 270.025 71.0615 269.873 71.0615ZM253.604 70.1648C253.436 70.1648 253.286 70.0465 253.252 69.8748C253.214 69.6808 253.341 69.4921 253.535 69.4537C254.137 69.3354 254.75 69.2319 255.358 69.1477C255.552 69.1189 255.735 69.2575 255.763 69.4537C255.791 69.6499 255.653 69.8311 255.457 69.8588C254.863 69.942 254.263 70.0422 253.673 70.1584C253.65 70.1627 253.627 70.1648 253.604 70.1648ZM266.329 70.1638C266.306 70.1638 266.283 70.1616 266.259 70.1574C265.67 70.0422 265.07 69.9409 264.475 69.8588C264.279 69.8322 264.142 69.6499 264.169 69.4537C264.196 69.2575 264.378 69.12 264.574 69.1477C265.181 69.2319 265.795 69.3343 266.397 69.4526C266.592 69.491 266.718 69.6787 266.681 69.8738C266.648 70.0454 266.497 70.1638 266.329 70.1638ZM262.707 69.6595C262.697 69.6595 262.687 69.6595 262.677 69.6584C262.08 69.6083 261.472 69.5752 260.871 69.5582C260.673 69.5529 260.517 69.3876 260.523 69.1893C260.528 68.991 260.686 68.8268 260.891 68.8407C261.507 68.8577 262.127 68.8918 262.738 68.943C262.935 68.959 263.082 69.1328 263.065 69.33C263.049 69.5177 262.893 69.6595 262.707 69.6595ZM257.225 69.6595C257.04 69.6595 256.884 69.5177 256.868 69.33C256.852 69.1328 256.998 68.959 257.195 68.943C257.808 68.8918 258.429 68.8577 259.041 68.8407C259.243 68.8364 259.404 68.991 259.409 69.1893C259.415 69.3876 259.259 69.5518 259.061 69.5582C258.462 69.5742 257.854 69.6083 257.255 69.6584C257.245 69.6595 257.234 69.6595 257.225 69.6595Z" fill="white"/>
<path d="M292.848 107.266C292.832 107.266 292.815 107.265 292.798 107.263C292.601 107.235 292.465 107.054 292.492 106.858C292.532 106.566 292.569 106.272 292.602 105.978C292.624 105.781 292.802 105.639 292.999 105.662C293.196 105.684 293.338 105.861 293.316 106.058C293.283 106.359 293.244 106.658 293.203 106.957C293.178 107.137 293.024 107.266 292.848 107.266Z" fill="white"/>
</g>
<path d="M288.502 110.067C288.574 109.884 288.52 109.675 288.37 109.548L284.083 105.918C284.451 103.321 284.406 100.646 283.91 97.992L288.03 94.1783C288.175 94.045 288.218 93.8339 288.139 93.6538L285.423 87.4871C285.343 87.3069 285.159 87.1971 284.963 87.2131L279.368 87.6769C277.746 85.52 275.802 83.6809 273.638 82.1989L273.854 76.5856C273.862 76.3884 273.743 76.2093 273.56 76.1378L267.279 73.6974C267.096 73.6259 266.887 73.6793 266.76 73.8296L263.13 78.1166C260.533 77.7488 257.858 77.7936 255.204 78.2893L251.39 74.1697C251.257 74.0247 251.046 73.981 250.866 74.0609L244.699 76.7764C244.519 76.8553 244.409 77.0409 244.425 77.237L244.889 82.8312C242.731 84.4539 240.893 86.3975 239.411 88.5618L233.798 88.3454C233.601 88.3379 233.421 88.4562 233.35 88.6396L230.909 94.9204C230.838 95.1037 230.891 95.3127 231.041 95.4396L235.329 99.0699C234.961 101.667 235.005 104.342 235.501 106.996L231.382 110.809C231.238 110.943 231.194 111.154 231.273 111.334L233.988 117.501C234.067 117.681 234.253 117.791 234.449 117.775L240.043 117.311C241.666 119.469 243.609 121.307 245.774 122.789L245.557 128.402C245.55 128.599 245.668 128.778 245.852 128.85L252.132 131.29C252.316 131.362 252.525 131.308 252.651 131.158L256.282 126.871C258.879 127.239 261.554 127.194 264.208 126.698L268.021 130.818C268.155 130.962 268.366 131.007 268.546 130.927L274.712 128.211C274.893 128.132 275.002 127.947 274.986 127.751L274.523 122.156C276.68 120.534 278.519 118.59 280.001 116.426L285.614 116.642C285.811 116.65 285.99 116.531 286.062 116.348L288.502 110.067Z" fill="url(#paint53_linear_250_13441)"/>
<path opacity="0.56" d="M259.714 108.832C257.825 108.832 255.955 107.994 254.705 106.392C253.664 105.056 253.205 103.395 253.413 101.714C253.621 100.032 254.472 98.5332 255.808 97.4915C257.144 96.4499 258.806 95.9915 260.486 96.1994C262.167 96.4073 263.667 97.2581 264.708 98.594C266.858 101.352 266.363 105.345 263.606 107.494C262.45 108.396 261.077 108.832 259.714 108.832ZM259.696 96.8689C258.451 96.8689 257.248 97.2804 256.25 98.0577C255.066 98.981 254.311 100.31 254.127 101.802C253.942 103.293 254.348 104.766 255.273 105.952C257.179 108.397 260.72 108.837 263.166 106.929C265.612 105.023 266.052 101.482 264.144 99.0353C263.221 97.8508 261.891 97.096 260.4 96.9115C260.163 96.8838 259.929 96.8689 259.696 96.8689Z" fill="white"/>
<path opacity="0.56" d="M259.594 119.069C253.203 119.069 247.099 115.365 244.362 109.151C243.417 107.005 242.943 104.733 242.944 102.455C242.944 100.423 243.323 98.387 244.081 96.4359C245.689 92.2992 248.81 89.0346 252.872 87.2467C256.934 85.4577 261.45 85.3574 265.587 86.9652C269.725 88.573 272.989 91.6947 274.778 95.7568C275.255 96.8421 275.618 97.9754 275.855 99.1269C275.86 99.1514 275.862 99.1759 275.862 99.1994C275.862 99.3657 275.745 99.516 275.575 99.5502C275.38 99.5907 275.191 99.4649 275.152 99.2708C274.926 98.1695 274.579 97.0841 274.122 96.0457C272.41 92.1595 269.287 89.1711 265.328 87.6337C261.37 86.0963 257.05 86.1912 253.162 87.9034C249.276 89.6157 246.289 92.7385 244.75 96.6971C244.025 98.564 243.663 100.512 243.663 102.457C243.663 104.635 244.116 106.81 245.02 108.863C248.553 116.886 257.956 120.539 265.979 117.005C268.616 115.843 270.886 113.992 272.542 111.652C272.656 111.49 272.88 111.453 273.042 111.567C273.141 111.637 273.193 111.748 273.193 111.86C273.193 111.931 273.172 112.004 273.127 112.067C271.397 114.513 269.025 116.448 266.268 117.662C264.096 118.616 261.826 119.069 259.594 119.069Z" fill="white"/>
<g opacity="0.64">
<path d="M235.123 84.9326C235.029 84.9326 234.935 84.8963 234.865 84.8228C234.728 84.6799 234.732 84.4528 234.875 84.3153C235.087 84.1106 235.296 83.9027 235.5 83.6905C235.638 83.5476 235.865 83.5445 236.008 83.682C236.15 83.8195 236.154 84.0466 236.017 84.1895C235.806 84.407 235.592 84.6213 235.374 84.8313C235.303 84.8995 235.214 84.9326 235.123 84.9326Z" fill="white"/>
<path d="M216.727 92.3667C216.242 92.3667 215.751 92.3529 215.264 92.3262C215.066 92.3156 214.914 92.1461 214.924 91.9488C214.935 91.7516 215.107 91.598 215.302 91.6098C215.898 91.6428 216.497 91.6545 217.092 91.646C217.297 91.6428 217.453 91.8017 217.456 92C217.458 92.1983 217.3 92.3614 217.102 92.3635C216.978 92.3657 216.852 92.3667 216.727 92.3667ZM218.91 92.2761C218.725 92.2761 218.569 92.1343 218.553 91.9467C218.537 91.7494 218.683 91.5757 218.88 91.5597C219.472 91.5106 220.07 91.4403 220.657 91.3496C220.851 91.3209 221.036 91.4541 221.066 91.6503C221.095 91.8465 220.961 92.0288 220.765 92.0586C220.161 92.1514 219.546 92.2239 218.939 92.274C218.93 92.2751 218.92 92.2761 218.91 92.2761ZM213.477 92.1652C213.462 92.1652 213.447 92.1642 213.432 92.1621C212.825 92.0874 212.214 91.9904 211.616 91.8742C211.422 91.8369 211.294 91.6482 211.333 91.4541C211.37 91.2601 211.558 91.1332 211.753 91.1705C212.335 91.2835 212.93 91.3774 213.52 91.4509C213.717 91.4754 213.856 91.6546 213.832 91.8507C213.81 92.033 213.656 92.1652 213.477 92.1652ZM222.495 91.727C222.331 91.727 222.183 91.614 222.146 91.4466C222.102 91.2537 222.223 91.0618 222.417 91.0181C222.997 90.888 223.581 90.7355 224.15 90.566C224.339 90.5095 224.539 90.6172 224.597 90.807C224.653 90.9967 224.546 91.1972 224.356 91.2537C223.77 91.4275 223.172 91.5842 222.576 91.7185C222.549 91.7239 222.522 91.727 222.495 91.727ZM209.917 91.4754C209.886 91.4754 209.855 91.4712 209.825 91.4637C209.235 91.307 208.644 91.1279 208.065 90.9317C207.877 90.8677 207.777 90.6641 207.841 90.4764C207.905 90.2888 208.109 90.1886 208.296 90.2526C208.859 90.4445 209.436 90.6182 210.009 90.7707C210.201 90.8219 210.315 91.0181 210.264 91.2089C210.221 91.3699 210.076 91.4754 209.917 91.4754ZM225.972 90.6918C225.827 90.6918 225.69 90.6022 225.636 90.4583C225.567 90.2728 225.661 90.066 225.846 89.9967C226.401 89.7898 226.957 89.5595 227.501 89.3133C227.682 89.2312 227.894 89.3111 227.975 89.4913C228.057 89.6715 227.977 89.8847 227.797 89.9658C227.239 90.2195 226.666 90.4551 226.098 90.6684C226.056 90.6844 226.014 90.6918 225.972 90.6918ZM206.483 90.3091C206.437 90.3091 206.39 90.3005 206.345 90.2813C205.782 90.0468 205.22 89.7888 204.673 89.5158C204.496 89.4273 204.424 89.212 204.512 89.0339C204.601 88.8569 204.816 88.7844 204.994 88.8729C205.526 89.1384 206.074 89.39 206.621 89.6182C206.805 89.6949 206.891 89.905 206.814 90.0873C206.756 90.227 206.622 90.3091 206.483 90.3091ZM229.277 89.1939C229.149 89.1939 229.026 89.1256 228.96 89.0051C228.867 88.8303 228.933 88.6128 229.107 88.519C229.63 88.2375 230.151 87.9347 230.654 87.6191C230.821 87.5136 231.043 87.5637 231.148 87.7322C231.254 87.8995 231.203 88.1213 231.035 88.2269C230.519 88.551 229.984 88.8623 229.446 89.1512C229.392 89.18 229.334 89.1939 229.277 89.1939ZM203.238 88.6874C203.176 88.6874 203.114 88.6714 203.057 88.6373C202.53 88.3271 202.008 87.9955 201.505 87.6511C201.342 87.5392 201.299 87.3163 201.411 87.1522C201.523 86.989 201.747 86.9475 201.91 87.0583C202.399 87.3931 202.908 87.7162 203.421 88.0179C203.591 88.1181 203.649 88.3388 203.547 88.5094C203.481 88.6245 203.361 88.6874 203.238 88.6874ZM232.348 87.2641C232.237 87.2641 232.127 87.2129 232.058 87.1159C231.941 86.956 231.977 86.731 232.137 86.6148C232.617 86.2651 233.091 85.8941 233.546 85.5124C233.697 85.3855 233.925 85.4047 234.051 85.5561C234.178 85.7075 234.159 85.9346 234.008 86.0615C233.54 86.4538 233.052 86.8355 232.559 87.1948C232.495 87.2417 232.42 87.2641 232.348 87.2641ZM200.247 86.6393C200.169 86.6393 200.09 86.6138 200.024 86.5626C199.544 86.1841 199.073 85.7843 198.621 85.3738C198.474 85.2405 198.463 85.0134 198.596 84.8674C198.73 84.7213 198.957 84.7096 199.103 84.8429C199.542 85.2416 200.001 85.6318 200.467 85.9996C200.623 86.1222 200.65 86.3483 200.526 86.5039C200.458 86.5924 200.352 86.6393 200.247 86.6393ZM197.563 84.2C197.468 84.2 197.374 84.1626 197.304 84.0891C196.882 83.6477 196.469 83.1871 196.078 82.7191C195.951 82.5666 195.971 82.3406 196.124 82.2137C196.275 82.0868 196.502 82.1071 196.629 82.2596C197.009 82.7148 197.411 83.1637 197.822 83.5933C197.959 83.7362 197.954 83.9633 197.812 84.1008C197.742 84.1669 197.653 84.2 197.563 84.2ZM195.241 81.4162C195.13 81.4162 195.02 81.365 194.95 81.268C194.593 80.7744 194.247 80.2616 193.924 79.7423C193.82 79.5739 193.871 79.3532 194.038 79.2487C194.206 79.1432 194.428 79.1943 194.532 79.3628C194.848 79.8682 195.183 80.3682 195.531 80.848C195.647 81.009 195.611 81.2328 195.451 81.3491C195.387 81.3938 195.314 81.4162 195.241 81.4162ZM193.321 78.3404C193.193 78.3404 193.068 78.271 193.004 78.1506C192.819 77.803 192.64 77.448 192.47 77.0951C192.375 76.8968 192.284 76.6985 192.194 76.4991C192.113 76.3178 192.194 76.1057 192.374 76.0246C192.554 75.9425 192.768 76.0236 192.849 76.2048C192.936 76.3989 193.026 76.5918 193.118 76.7848C193.283 77.1281 193.457 77.4736 193.638 77.8115C193.73 77.9864 193.664 78.2039 193.489 78.2966C193.436 78.3265 193.377 78.3404 193.321 78.3404ZM191.833 75.0321C191.686 75.0321 191.55 74.9425 191.497 74.7975C191.283 74.2239 191.088 73.6364 190.917 73.0522C190.86 72.8624 190.969 72.663 191.16 72.6065C191.348 72.55 191.549 72.6588 191.605 72.8496C191.773 73.4179 191.963 73.9904 192.17 74.5491C192.24 74.7346 192.145 74.9414 191.959 75.0097C191.917 75.0246 191.874 75.0321 191.833 75.0321ZM190.807 71.5521C190.643 71.5521 190.494 71.438 190.457 71.2706C190.325 70.6747 190.212 70.0659 190.122 69.4624C190.093 69.2663 190.228 69.0839 190.424 69.0541C190.619 69.0232 190.803 69.1596 190.832 69.3558C190.921 69.9433 191.031 70.535 191.159 71.1161C191.201 71.3101 191.08 71.5009 190.886 71.5436C190.859 71.55 190.832 71.5521 190.807 71.5521ZM190.268 67.9655C190.083 67.9655 189.926 67.8227 189.911 67.635C189.862 67.0263 189.835 66.409 189.828 65.798C189.826 65.5997 189.985 65.4377 190.183 65.4355C190.184 65.4355 190.186 65.4355 190.187 65.4355C190.384 65.4355 190.544 65.5933 190.546 65.7906C190.552 66.3844 190.58 66.9868 190.627 67.5785C190.643 67.7758 190.496 67.9485 190.297 67.9645C190.289 67.9645 190.278 67.9655 190.268 67.9655Z" fill="white"/>
<path d="M190.23 64.327C190.223 64.327 190.216 64.327 190.209 64.327C190.011 64.3153 189.86 64.1458 189.872 63.9475C189.89 63.6447 189.912 63.3429 189.94 63.0423C189.958 62.845 190.134 62.7011 190.33 62.7182C190.527 62.7363 190.672 62.9111 190.654 63.1084C190.628 63.4016 190.605 63.6958 190.588 63.9901C190.576 64.1799 190.419 64.327 190.23 64.327Z" fill="white"/>
</g>
<g opacity="0.64">
<path d="M199.286 45.8433C199.185 45.8433 199.086 45.8018 199.015 45.7207C198.885 45.5715 198.901 45.3444 199.05 45.2143C199.278 45.016 199.509 44.8209 199.745 44.629C199.899 44.5042 200.125 44.5277 200.249 44.6812C200.374 44.8348 200.351 45.0608 200.197 45.1855C199.968 45.3721 199.742 45.5619 199.52 45.7548C199.453 45.8146 199.369 45.8433 199.286 45.8433Z" fill="white"/>
<path d="M243.214 66.7918C243.21 66.7918 243.205 66.7918 243.201 66.7918C243.003 66.7843 242.848 66.618 242.856 66.4197C242.867 66.102 242.873 65.7832 242.873 65.4655C242.873 65.1968 242.868 64.9282 242.86 64.6584C242.854 64.4601 243.009 64.2949 243.207 64.2885C243.4 64.2746 243.571 64.4377 243.577 64.636C243.586 64.9122 243.59 65.1883 243.59 65.4644C243.59 65.7917 243.584 66.1191 243.572 66.4453C243.565 66.6404 243.406 66.7918 243.214 66.7918ZM243.103 63.2244C242.921 63.2244 242.765 63.0858 242.746 62.9014C242.688 62.3193 242.609 61.7318 242.512 61.155C242.479 60.9599 242.612 60.7744 242.807 60.7413C243.003 60.7083 243.187 60.8405 243.22 61.0356C243.319 61.6284 243.4 62.2318 243.46 62.83C243.479 63.0272 243.335 63.2031 243.138 63.2223C243.126 63.2244 243.115 63.2244 243.103 63.2244ZM242.51 59.705C242.348 59.705 242.201 59.5942 242.162 59.43C242.026 58.8606 241.868 58.2892 241.695 57.7316C241.636 57.5429 241.742 57.3414 241.93 57.2827C242.119 57.2241 242.32 57.3296 242.379 57.5183C242.558 58.0919 242.719 58.6783 242.859 59.2636C242.905 59.4566 242.786 59.6496 242.593 59.6954C242.566 59.7018 242.538 59.705 242.51 59.705ZM241.449 56.2965C241.305 56.2965 241.17 56.2091 241.115 56.0673C240.904 55.5225 240.671 54.9777 240.424 54.4457C240.341 54.2666 240.418 54.0523 240.598 53.9691C240.777 53.8859 240.99 53.9627 241.074 54.1429C241.328 54.6888 241.567 55.2485 241.783 55.8072C241.855 55.9916 241.763 56.1995 241.578 56.2709C241.536 56.2891 241.492 56.2965 241.449 56.2965ZM239.943 53.0607C239.816 53.0607 239.693 52.9936 239.628 52.8752C239.347 52.3613 239.044 51.8517 238.73 51.3602C238.623 51.1939 238.672 50.9711 238.838 50.8644C239.005 50.7578 239.226 50.8058 239.334 50.9732C239.657 51.4785 239.967 52.002 240.257 52.5287C240.353 52.7025 240.289 52.9211 240.116 53.016C240.06 53.0469 240.001 53.0607 239.943 53.0607ZM238.02 50.0542C237.91 50.0542 237.801 50.0041 237.731 49.9081C237.382 49.4369 237.014 48.9731 236.637 48.5285C236.509 48.3771 236.527 48.1511 236.678 48.0231C236.829 47.8952 237.056 47.9133 237.184 48.0647C237.572 48.521 237.95 48.9987 238.307 49.4827C238.425 49.6416 238.392 49.8665 238.232 49.9849C238.168 50.0318 238.093 50.0542 238.02 50.0542ZM235.709 47.3355C235.615 47.3355 235.523 47.2992 235.452 47.2267C235.046 46.8088 234.619 46.3994 234.182 46.0081C234.035 45.8759 234.023 45.6488 234.155 45.5017C234.287 45.3545 234.514 45.3417 234.661 45.4739C235.11 45.8759 235.549 46.2981 235.967 46.7267C236.105 46.8685 236.103 47.0956 235.96 47.2342C235.889 47.3013 235.799 47.3355 235.709 47.3355ZM233.052 44.9537C232.976 44.9537 232.898 44.9291 232.832 44.878C232.372 44.5187 231.893 44.17 231.408 43.8417C231.244 43.7308 231.201 43.5079 231.312 43.3437C231.423 43.1796 231.646 43.1369 231.81 43.2478C232.308 43.5858 232.801 43.944 233.273 44.3129C233.429 44.4344 233.456 44.6605 233.335 44.8161C233.265 44.9067 233.159 44.9537 233.052 44.9537ZM201.396 44.1882C201.283 44.1882 201.172 44.1348 201.103 44.0368C200.989 43.8747 201.027 43.6508 201.189 43.5367C201.68 43.1913 202.188 42.8565 202.702 42.5441C202.871 42.4407 203.092 42.494 203.195 42.6635C203.298 42.8331 203.244 43.0538 203.075 43.1561C202.575 43.461 202.079 43.7862 201.603 44.1221C201.54 44.1668 201.467 44.1882 201.396 44.1882ZM230.098 42.9514C230.036 42.9514 229.974 42.9354 229.918 42.9024C229.414 42.6081 228.892 42.3266 228.368 42.0654C228.191 41.9769 228.118 41.7616 228.207 41.5846C228.295 41.4076 228.509 41.334 228.687 41.4236C229.226 41.6912 229.762 41.9801 230.279 42.2829C230.45 42.3831 230.508 42.6028 230.408 42.7734C230.342 42.8885 230.222 42.9514 230.098 42.9514ZM204.444 42.332C204.314 42.332 204.189 42.2616 204.125 42.139C204.034 41.9631 204.102 41.7466 204.278 41.655C204.547 41.5142 204.82 41.3778 205.097 41.2455C205.366 41.1165 205.637 40.9918 205.909 40.8724C206.091 40.7924 206.302 40.8756 206.381 41.0568C206.461 41.2381 206.378 41.4503 206.197 41.5291C205.932 41.6454 205.668 41.7669 205.406 41.8927C205.136 42.0217 204.871 42.155 204.608 42.2914C204.556 42.3181 204.5 42.332 204.444 42.332ZM226.903 41.3639C226.857 41.3639 226.81 41.3554 226.765 41.3362C226.227 41.1123 225.672 40.9022 225.117 40.7146C224.929 40.6506 224.829 40.447 224.893 40.2593C224.957 40.0717 225.16 39.9715 225.348 40.0355C225.918 40.2295 226.488 40.4438 227.041 40.6741C227.225 40.7498 227.311 40.9598 227.234 41.1432C227.177 41.2807 227.043 41.3639 226.903 41.3639ZM207.712 40.8958C207.565 40.8958 207.427 40.8052 207.375 40.6592C207.308 40.4726 207.404 40.2668 207.59 40.1996C208.155 39.9949 208.735 39.8073 209.312 39.641C209.503 39.5855 209.701 39.6964 209.756 39.8862C209.81 40.077 209.7 40.2753 209.51 40.3297C208.949 40.4907 208.386 40.6741 207.834 40.8735C207.794 40.8884 207.752 40.8958 207.712 40.8958ZM223.524 40.2156C223.493 40.2156 223.462 40.2114 223.431 40.2028C222.866 40.0525 222.288 39.9192 221.715 39.8062C221.521 39.7678 221.394 39.5791 221.431 39.3851C221.47 39.1911 221.657 39.0642 221.852 39.1015C222.442 39.2166 223.035 39.3542 223.616 39.5088C223.808 39.56 223.921 39.7561 223.871 39.948C223.828 40.109 223.683 40.2156 223.524 40.2156ZM211.142 39.9097C210.976 39.9097 210.827 39.7945 210.791 39.626C210.749 39.432 210.872 39.2412 211.066 39.1996C211.653 39.0727 212.253 38.965 212.848 38.8787C213.045 38.851 213.226 38.9864 213.254 39.1825C213.283 39.3787 213.146 39.561 212.95 39.5898C212.371 39.674 211.788 39.7785 211.216 39.9022C211.193 39.9065 211.167 39.9097 211.142 39.9097ZM220.022 39.5301C220.007 39.5301 219.992 39.529 219.976 39.5269C219.395 39.4533 218.804 39.3979 218.222 39.3638C218.025 39.3521 217.873 39.1825 217.885 38.9842C217.897 38.787 218.069 38.6292 218.265 38.6473C218.863 38.6825 219.469 38.739 220.066 38.8147C220.263 38.8392 220.402 39.0194 220.377 39.2156C220.354 39.3979 220.2 39.5301 220.022 39.5301ZM214.674 39.3958C214.488 39.3958 214.331 39.2529 214.317 39.0642C214.302 38.8669 214.45 38.6942 214.647 38.6793C215.245 38.6335 215.854 38.6079 216.455 38.6025C216.456 38.6025 216.458 38.6025 216.459 38.6025C216.656 38.6025 216.816 38.7614 216.817 38.9586C216.819 39.1569 216.659 39.319 216.461 39.3201C215.875 39.3254 215.284 39.351 214.702 39.3947C214.692 39.3958 214.683 39.3958 214.674 39.3958Z" fill="white"/>
<path d="M242.98 69.4736C242.964 69.4736 242.947 69.4725 242.929 69.4704C242.733 69.4427 242.597 69.2614 242.623 69.0652C242.664 68.7731 242.7 68.481 242.73 68.1878C242.75 67.9906 242.924 67.8488 243.125 67.8679C243.322 67.8882 243.465 68.0652 243.444 68.2624C243.412 68.5641 243.376 68.8648 243.335 69.1633C243.309 69.3435 243.155 69.4736 242.98 69.4736Z" fill="white"/>
</g>
<path d="M239.507 71.6398C239.564 71.4927 239.522 71.3264 239.402 71.2251L235.975 68.323C236.268 66.2461 236.233 64.1085 235.837 61.9868L239.13 58.9387C239.245 58.832 239.28 58.6636 239.217 58.5197L237.047 53.5908C236.983 53.4469 236.836 53.3584 236.679 53.3722L232.206 53.7433C230.909 52.0182 229.355 50.549 227.625 49.3645L227.798 44.8771C227.804 44.7193 227.709 44.5764 227.563 44.5188L222.543 42.5688C222.396 42.5123 222.229 42.5539 222.128 42.6744L219.226 46.101C217.15 45.8078 215.011 45.843 212.89 46.2396L209.841 42.9463C209.734 42.8311 209.565 42.7959 209.422 42.8588L204.493 45.0295C204.349 45.0935 204.26 45.2406 204.274 45.3974L204.645 49.8699C202.92 51.1674 201.451 52.7208 200.266 54.4512L195.779 54.2785C195.622 54.2721 195.478 54.367 195.421 54.513L193.471 59.5336C193.413 59.6807 193.456 59.847 193.576 59.9483L197.003 62.8504C196.71 64.9262 196.745 67.0649 197.141 69.1866L193.848 72.2358C193.733 72.3424 193.698 72.5109 193.761 72.6548L195.931 77.5837C195.994 77.7276 196.142 77.8161 196.299 77.8022L200.772 77.4312C202.069 79.1562 203.623 80.6254 205.353 81.811L205.18 86.2985C205.174 86.4563 205.269 86.5991 205.415 86.6567L210.435 88.6067C210.583 88.6632 210.749 88.6216 210.85 88.5011L213.752 85.0745C215.829 85.3677 217.967 85.3325 220.088 84.9359L223.138 88.2293C223.244 88.3444 223.413 88.3796 223.557 88.3167L228.486 86.146C228.629 86.0831 228.718 85.9349 228.704 85.7782L228.333 81.3056C230.057 80.0081 231.527 78.4547 232.712 76.7254L237.199 76.8981C237.357 76.9045 237.5 76.8096 237.557 76.6636L239.507 71.6398Z" fill="url(#paint54_linear_250_13441)"/>
<path opacity="0.56" d="M216.495 70.7246C214.963 70.7246 213.446 70.0455 212.435 68.7458C211.59 67.6626 211.218 66.316 211.388 64.9524C211.556 63.5899 212.246 62.3745 213.329 61.5301C214.412 60.6857 215.76 60.3136 217.123 60.482C218.485 60.6505 219.701 61.3403 220.545 62.4235C222.288 64.6592 221.887 67.8961 219.652 69.6393C218.712 70.3707 217.599 70.7246 216.495 70.7246ZM216.48 61.1612C215.5 61.1612 214.554 61.4842 213.768 62.0962C211.844 63.5963 211.5 66.3811 212.999 68.3055C214.498 70.2289 217.284 70.5743 219.208 69.0753C221.132 67.5752 221.477 64.7904 219.977 62.866C219.251 61.9341 218.205 61.3403 217.032 61.1953C216.848 61.1718 216.663 61.1612 216.48 61.1612Z" fill="white"/>
<path opacity="0.56" d="M216.397 78.908C211.262 78.908 206.355 75.9302 204.156 70.9363C203.387 69.191 203.023 67.3668 203.023 65.5714C203.023 60.4357 206.002 55.5303 210.995 53.3308C217.734 50.3626 225.632 53.431 228.601 60.1702C228.705 60.4069 228.802 60.6468 228.893 60.8888C229.089 61.4144 229.252 61.9507 229.381 62.4934C229.382 62.4987 229.383 62.504 229.384 62.5094C229.389 62.5264 229.392 62.5435 229.396 62.5595C229.421 62.665 229.444 62.7717 229.465 62.8783C229.471 62.9028 229.473 62.9273 229.473 62.9508C229.473 63.1171 229.355 63.2674 229.186 63.3015C228.992 63.342 228.802 63.2162 228.763 63.0222C228.582 62.1469 228.307 61.2844 227.944 60.4581C225.627 55.1987 220.137 52.302 214.707 53.0238C213.553 53.1773 212.402 53.4939 211.284 53.9865C206.559 56.0676 203.741 60.7097 203.74 65.5693C203.74 67.2676 204.084 68.9938 204.811 70.6452C207.621 77.0219 215.093 79.9251 221.471 77.1179C223.568 76.1946 225.372 74.7233 226.688 72.8629C226.802 72.7008 227.026 72.6635 227.188 72.7776C227.287 72.8479 227.339 72.9588 227.339 73.0708C227.339 73.1422 227.318 73.2147 227.273 73.2776C225.882 75.2436 223.976 76.798 221.76 77.7747C220.016 78.5444 218.193 78.908 216.397 78.908Z" fill="white"/>
<defs>
<linearGradient id="paint0_linear_250_13441" x1="331.262" y1="381.792" x2="71.8546" y2="59.6242" gradientUnits="userSpaceOnUse">
<stop stop-color="#B37CFF"/>
<stop offset="1" stop-color="#F895E7"/>
</linearGradient>
<linearGradient id="paint1_linear_250_13441" x1="-21.5271" y1="60.6991" x2="81.4912" y2="103.318" gradientUnits="userSpaceOnUse">
<stop stop-color="#A737D5"/>
<stop offset="1" stop-color="#EF497A"/>
</linearGradient>
<linearGradient id="paint2_linear_250_13441" x1="4.7437" y1="119.297" x2="72.2286" y2="36.352" gradientUnits="userSpaceOnUse">
<stop stop-color="#CE1567"/>
<stop offset="1" stop-color="#7A1DBC"/>
</linearGradient>
<linearGradient id="paint3_linear_250_13441" x1="159.81" y1="305.36" x2="155.964" y2="229.212" gradientUnits="userSpaceOnUse">
<stop stop-color="#2B3582"/>
<stop offset="1" stop-color="#150E42"/>
</linearGradient>
<linearGradient id="paint4_linear_250_13441" x1="3.18262" y1="147.832" x2="298.999" y2="147.832" gradientUnits="userSpaceOnUse">
<stop stop-color="#2B3582"/>
<stop offset="1" stop-color="#150E42"/>
</linearGradient>
<linearGradient id="paint5_linear_250_13441" x1="200.44" y1="83.8147" x2="-49.1828" y2="369.768" gradientUnits="userSpaceOnUse">
<stop stop-color="#FDF53F"/>
<stop offset="1" stop-color="#D93C65"/>
</linearGradient>
<linearGradient id="paint6_linear_250_13441" x1="160.049" y1="276.626" x2="124.667" y2="354.313" gradientUnits="userSpaceOnUse">
<stop stop-color="#2B3582"/>
<stop offset="1" stop-color="#150E42"/>
</linearGradient>
<linearGradient id="paint7_linear_250_13441" x1="215.643" y1="112.213" x2="98.9659" y2="292.908" gradientUnits="userSpaceOnUse">
<stop stop-color="#CB236D"/>
<stop offset="1" stop-color="#4C246D"/>
</linearGradient>
<linearGradient id="paint8_linear_250_13441" x1="255.917" y1="220.066" x2="280.871" y2="156.006" gradientUnits="userSpaceOnUse">
<stop stop-color="#2B3582"/>
<stop offset="1" stop-color="#150E42"/>
</linearGradient>
<linearGradient id="paint9_linear_250_13441" x1="232.536" y1="156.276" x2="255.059" y2="207.132" gradientUnits="userSpaceOnUse">
<stop stop-color="#F9B776"/>
<stop offset="1" stop-color="#F47960"/>
</linearGradient>
<linearGradient id="paint10_linear_250_13441" x1="232.936" y1="156.099" x2="255.459" y2="206.955" gradientUnits="userSpaceOnUse">
<stop stop-color="#F9B776"/>
<stop offset="1" stop-color="#F47960"/>
</linearGradient>
<linearGradient id="paint11_linear_250_13441" x1="289.11" y1="258.958" x2="290.659" y2="297.165" gradientUnits="userSpaceOnUse">
<stop stop-color="#53D8FF"/>
<stop offset="1" stop-color="#3840F7"/>
</linearGradient>
<linearGradient id="paint12_linear_250_13441" x1="258.032" y1="318.881" x2="267.9" y2="203.542" gradientUnits="userSpaceOnUse">
<stop stop-color="#F9B776"/>
<stop offset="1" stop-color="#F47960"/>
</linearGradient>
<linearGradient id="paint13_linear_250_13441" x1="262.668" y1="255.922" x2="260.344" y2="298.002" gradientUnits="userSpaceOnUse">
<stop stop-color="#53D8FF"/>
<stop offset="1" stop-color="#3840F7"/>
</linearGradient>
<linearGradient id="paint14_linear_250_13441" x1="277.883" y1="320.597" x2="287.755" y2="205.228" gradientUnits="userSpaceOnUse">
<stop stop-color="#F9B776"/>
<stop offset="1" stop-color="#F47960"/>
</linearGradient>
<linearGradient id="paint15_linear_250_13441" x1="274.198" y1="182.333" x2="244.398" y2="223.976" gradientUnits="userSpaceOnUse">
<stop stop-color="#53D8FF"/>
<stop offset="1" stop-color="#3840F7"/>
</linearGradient>
<linearGradient id="paint16_linear_250_13441" x1="290.674" y1="202.79" x2="237.586" y2="274.378" gradientUnits="userSpaceOnUse">
<stop stop-color="#CB236D"/>
<stop offset="1" stop-color="#4C246D"/>
</linearGradient>
<linearGradient id="paint17_linear_250_13441" x1="256.95" y1="205.191" x2="258.804" y2="191.63" gradientUnits="userSpaceOnUse">
<stop stop-color="#F9B776"/>
<stop offset="1" stop-color="#F47960"/>
</linearGradient>
<linearGradient id="paint18_linear_250_13441" x1="247.151" y1="173.481" x2="245.408" y2="216.382" gradientUnits="userSpaceOnUse">
<stop stop-color="#F9B776"/>
<stop offset="1" stop-color="#F47960"/>
</linearGradient>
<linearGradient id="paint19_linear_250_13441" x1="227.675" y1="173.112" x2="226.051" y2="213.078" gradientUnits="userSpaceOnUse">
<stop stop-color="#F9B776"/>
<stop offset="1" stop-color="#F47960"/>
</linearGradient>
<linearGradient id="paint20_linear_250_13441" x1="254.632" y1="174.918" x2="262.888" y2="191.938" gradientUnits="userSpaceOnUse">
<stop stop-color="#F9B776"/>
<stop offset="1" stop-color="#F47960"/>
</linearGradient>
<linearGradient id="paint21_linear_250_13441" x1="242.745" y1="215.667" x2="267.921" y2="151.036" gradientUnits="userSpaceOnUse">
<stop stop-color="#2B3582"/>
<stop offset="1" stop-color="#150E42"/>
</linearGradient>
<linearGradient id="paint22_linear_250_13441" x1="258.331" y1="173.123" x2="266.586" y2="190.143" gradientUnits="userSpaceOnUse">
<stop stop-color="#F9B776"/>
<stop offset="1" stop-color="#F47960"/>
</linearGradient>
<linearGradient id="paint23_linear_250_13441" x1="62.4629" y1="250.485" x2="152.426" y2="308.804" gradientUnits="userSpaceOnUse">
<stop stop-color="#53D8FF"/>
<stop offset="1" stop-color="#3840F7"/>
</linearGradient>
<linearGradient id="paint24_linear_250_13441" x1="90.8973" y1="201.948" x2="79.2835" y2="253.905" gradientUnits="userSpaceOnUse">
<stop stop-color="#A737D5"/>
<stop offset="1" stop-color="#EF497A"/>
</linearGradient>
<linearGradient id="paint25_linear_250_13441" x1="72.98" y1="257.679" x2="70.0699" y2="305.987" gradientUnits="userSpaceOnUse">
<stop stop-color="#53D8FF"/>
<stop offset="1" stop-color="#3840F7"/>
</linearGradient>
<linearGradient id="paint26_linear_250_13441" x1="11.2989" y1="264.566" x2="63.4206" y2="328.409" gradientUnits="userSpaceOnUse">
<stop stop-color="#53D8FF"/>
<stop offset="1" stop-color="#3840F7"/>
</linearGradient>
<linearGradient id="paint27_linear_250_13441" x1="20.2009" y1="259.53" x2="70.6893" y2="321.372" gradientUnits="userSpaceOnUse">
<stop stop-color="#53D8FF"/>
<stop offset="1" stop-color="#3840F7"/>
</linearGradient>
<linearGradient id="paint28_linear_250_13441" x1="96.3592" y1="153.084" x2="79.7265" y2="176.721" gradientUnits="userSpaceOnUse">
<stop stop-color="#2B3582"/>
<stop offset="1" stop-color="#150E42"/>
</linearGradient>
<linearGradient id="paint29_linear_250_13441" x1="78.2918" y1="197.125" x2="78.2918" y2="253.138" gradientUnits="userSpaceOnUse">
<stop stop-color="#CB236D"/>
<stop offset="1" stop-color="#4C246D"/>
</linearGradient>
<linearGradient id="paint30_linear_250_13441" x1="54.5154" y1="204.216" x2="81.1202" y2="268.483" gradientUnits="userSpaceOnUse">
<stop stop-color="#F9B776"/>
<stop offset="1" stop-color="#F47960"/>
</linearGradient>
<linearGradient id="paint31_linear_250_13441" x1="101.679" y1="204.078" x2="75.0746" y2="268.344" gradientUnits="userSpaceOnUse">
<stop stop-color="#F9B776"/>
<stop offset="1" stop-color="#F47960"/>
</linearGradient>
<linearGradient id="paint32_linear_250_13441" x1="78.148" y1="212.522" x2="76.7651" y2="268.532" gradientUnits="userSpaceOnUse">
<stop stop-color="#2B3582"/>
<stop offset="1" stop-color="#150E42"/>
</linearGradient>
<linearGradient id="paint33_linear_250_13441" x1="94.1159" y1="246.224" x2="108.655" y2="246.336" gradientUnits="userSpaceOnUse">
<stop stop-color="#2B3582"/>
<stop offset="1" stop-color="#150E42"/>
</linearGradient>
<linearGradient id="paint34_linear_250_13441" x1="103.712" y1="220.01" x2="88.3657" y2="261.577" gradientUnits="userSpaceOnUse">
<stop stop-color="#F9B776"/>
<stop offset="1" stop-color="#F47960"/>
</linearGradient>
<linearGradient id="paint35_linear_250_13441" x1="58.8307" y1="246.152" x2="44.2888" y2="245.861" gradientUnits="userSpaceOnUse">
<stop stop-color="#2B3582"/>
<stop offset="1" stop-color="#150E42"/>
</linearGradient>
<linearGradient id="paint36_linear_250_13441" x1="72.9641" y1="207.484" x2="57.6096" y2="249.074" gradientUnits="userSpaceOnUse">
<stop stop-color="#F9B776"/>
<stop offset="1" stop-color="#F47960"/>
</linearGradient>
<linearGradient id="paint37_linear_250_13441" x1="110.216" y1="219.207" x2="70.3209" y2="249.176" gradientUnits="userSpaceOnUse">
<stop stop-color="#53D8FF"/>
<stop offset="1" stop-color="#3840F7"/>
</linearGradient>
<linearGradient id="paint38_linear_250_13441" x1="74.1385" y1="246.087" x2="63.6825" y2="219.425" gradientUnits="userSpaceOnUse">
<stop stop-color="#53D8FF"/>
<stop offset="1" stop-color="#3840F7"/>
</linearGradient>
<linearGradient id="paint39_linear_250_13441" x1="77.8708" y1="209.522" x2="77.5168" y2="178.723" gradientUnits="userSpaceOnUse">
<stop stop-color="#F9B776"/>
<stop offset="1" stop-color="#F47960"/>
</linearGradient>
<linearGradient id="paint40_linear_250_13441" x1="76.845" y1="192.426" x2="82.2429" y2="166.151" gradientUnits="userSpaceOnUse">
<stop stop-color="#F9B776"/>
<stop offset="1" stop-color="#F47960"/>
</linearGradient>
<linearGradient id="paint41_linear_250_13441" x1="97.0389" y1="149.488" x2="78.3235" y2="176.084" gradientUnits="userSpaceOnUse">
<stop stop-color="#2B3582"/>
<stop offset="1" stop-color="#150E42"/>
</linearGradient>
<linearGradient id="paint42_linear_250_13441" x1="73.2668" y1="195.916" x2="69.3978" y2="154.06" gradientUnits="userSpaceOnUse">
<stop stop-color="#F9B776"/>
<stop offset="1" stop-color="#F47960"/>
</linearGradient>
<linearGradient id="paint43_linear_250_13441" x1="77.9923" y1="211.36" x2="77.0982" y2="254.146" gradientUnits="userSpaceOnUse">
<stop stop-color="#53D8FF"/>
<stop offset="1" stop-color="#3840F7"/>
</linearGradient>
<linearGradient id="paint44_linear_250_13441" x1="72.818" y1="40.5398" x2="18.2851" y2="164.707" gradientUnits="userSpaceOnUse">
<stop stop-color="#53D8FF"/>
<stop offset="1" stop-color="#3840F7"/>
</linearGradient>
<linearGradient id="paint45_linear_250_13441" x1="81.4587" y1="44.3347" x2="26.9255" y2="168.502" gradientUnits="userSpaceOnUse">
<stop stop-color="#53D8FF"/>
<stop offset="1" stop-color="#3840F7"/>
</linearGradient>
<linearGradient id="paint46_linear_250_13441" x1="89.7491" y1="47.9758" x2="35.2161" y2="172.143" gradientUnits="userSpaceOnUse">
<stop stop-color="#53D8FF"/>
<stop offset="1" stop-color="#3840F7"/>
</linearGradient>
<linearGradient id="paint47_linear_250_13441" x1="99.6989" y1="52.3457" x2="45.1659" y2="176.513" gradientUnits="userSpaceOnUse">
<stop stop-color="#53D8FF"/>
<stop offset="1" stop-color="#3840F7"/>
</linearGradient>
<linearGradient id="paint48_linear_250_13441" x1="107.696" y1="55.8575" x2="53.1629" y2="180.025" gradientUnits="userSpaceOnUse">
<stop stop-color="#53D8FF"/>
<stop offset="1" stop-color="#3840F7"/>
</linearGradient>
<linearGradient id="paint49_linear_250_13441" x1="114.36" y1="58.7846" x2="59.8274" y2="182.952" gradientUnits="userSpaceOnUse">
<stop stop-color="#53D8FF"/>
<stop offset="1" stop-color="#3840F7"/>
</linearGradient>
<linearGradient id="paint50_linear_250_13441" x1="150.658" y1="41.6791" x2="114.699" y2="155.694" gradientUnits="userSpaceOnUse">
<stop stop-color="#53D8FF"/>
<stop offset="1" stop-color="#3840F7"/>
</linearGradient>
<linearGradient id="paint51_linear_250_13441" x1="160.558" y1="44.8013" x2="124.599" y2="158.816" gradientUnits="userSpaceOnUse">
<stop stop-color="#53D8FF"/>
<stop offset="1" stop-color="#3840F7"/>
</linearGradient>
<linearGradient id="paint52_linear_250_13441" x1="170.55" y1="47.9527" x2="134.591" y2="161.968" gradientUnits="userSpaceOnUse">
<stop stop-color="#53D8FF"/>
<stop offset="1" stop-color="#3840F7"/>
</linearGradient>
<linearGradient id="paint53_linear_250_13441" x1="261.452" y1="47.7118" x2="258.636" y2="136.102" gradientUnits="userSpaceOnUse">
<stop stop-color="#A737D5"/>
<stop offset="1" stop-color="#EF497A"/>
</linearGradient>
<linearGradient id="paint54_linear_250_13441" x1="217.926" y1="22.2426" x2="215.631" y2="91.4332" gradientUnits="userSpaceOnUse">
<stop stop-color="#A737D5"/>
<stop offset="1" stop-color="#EF497A"/>
</linearGradient>
</defs>
</svg>
