<svg width="300" height="274" viewBox="0 0 300 274" fill="none" xmlns="http://www.w3.org/2000/svg">
<path d="M61.4844 137.357C61.4906 137.201 61.5656 137.132 61.7093 137.132L65.9025 137.257C66.315 137.269 66.6712 137.332 66.9586 137.444C67.2461 137.557 67.4773 137.713 67.6523 137.913C67.8273 138.113 67.946 138.344 68.021 138.625C68.096 138.9 68.1272 139.207 68.1147 139.544L68.0772 140.694C68.0647 141.031 68.0147 141.338 67.9272 141.606C67.8398 141.875 67.7023 142.106 67.5148 142.294C67.3273 142.481 67.0899 142.619 66.7961 142.719C66.5024 142.812 66.1462 142.856 65.7338 142.844L63.4778 142.775L63.0091 141.456H62.9467L62.9092 142.762L61.3281 142.712L61.4844 137.357ZM62.9467 141.313L65.6275 141.394C65.9275 141.4 66.1462 141.344 66.2775 141.213C66.4087 141.081 66.4774 140.85 66.4899 140.513L66.5212 139.575C66.5337 139.225 66.4774 138.988 66.3525 138.857C66.2275 138.725 66.015 138.657 65.715 138.65L63.1529 138.575C63.1154 138.575 63.0904 138.588 63.0654 138.607C63.0466 138.632 63.0341 138.657 63.0341 138.688L62.9467 141.313Z" fill="#F1F1F4"/>
<path d="M70.3824 139.75H70.3261L70.2762 141.425C70.2762 141.494 70.3074 141.531 70.3824 141.538L75.0943 141.681L75.0505 143.131L68.8701 142.944C68.7201 142.937 68.6514 142.862 68.6514 142.706L68.8076 137.576C68.8138 137.419 68.8888 137.351 69.0388 137.351L75.0443 137.532C75.2005 137.538 75.2755 137.613 75.2692 137.769L75.2255 139.219L73.7444 139.719H73.6819L73.7069 138.975C73.7069 138.919 73.6819 138.888 73.632 138.888L70.4636 138.794C70.4199 138.794 70.3949 138.807 70.3824 138.825C70.3699 138.85 70.3636 138.875 70.3636 138.9L70.3449 139.6L72.9571 139.682L72.9195 140.819L70.7323 140.75L70.3824 139.75Z" fill="#F1F1F4"/>
<path d="M80.8569 139.651H80.7944L80.8132 139.038C80.8132 138.976 80.7882 138.944 80.7257 138.944L77.7761 138.857C77.6699 138.857 77.5949 138.876 77.5511 138.919C77.5074 138.963 77.4886 139.032 77.4824 139.119L77.4761 139.257C77.4699 139.363 77.4886 139.432 77.5261 139.463C77.5636 139.494 77.6324 139.519 77.7324 139.538L81.1881 140.126C81.4069 140.163 81.5943 140.219 81.7443 140.282C81.8943 140.35 82.0193 140.438 82.113 140.544C82.2068 140.65 82.2692 140.782 82.3067 140.938C82.3442 141.094 82.3567 141.275 82.3505 141.488L82.338 141.932C82.3317 142.163 82.2942 142.363 82.2318 142.538C82.1693 142.713 82.0755 142.856 81.9443 142.975C81.8131 143.094 81.6381 143.175 81.4319 143.231C81.2194 143.288 80.9632 143.306 80.657 143.3L75.6826 143.15L75.7264 141.7L80.1883 141.838C80.3195 141.844 80.4132 141.819 80.457 141.775C80.5007 141.725 80.5257 141.644 80.532 141.519L80.5382 141.363C80.5382 141.263 80.5257 141.194 80.4945 141.157C80.4632 141.119 80.4007 141.088 80.3008 141.075L76.9637 140.55C76.7387 140.513 76.545 140.463 76.3888 140.394C76.2325 140.325 76.1013 140.244 76.0013 140.138C75.9013 140.032 75.8326 139.907 75.7889 139.757C75.7451 139.607 75.7326 139.432 75.7389 139.226L75.7514 138.832C75.7639 138.426 75.8826 138.12 76.1013 137.901C76.3263 137.682 76.6825 137.582 77.1887 137.601L82.1568 137.751C82.313 137.757 82.3942 137.838 82.388 138.001L82.3505 139.151L80.8569 139.651Z" fill="#F1F1F4"/>
<path d="M82.9551 143.369L83.1238 137.782L84.7048 137.832L84.5361 143.419L82.9551 143.369Z" fill="#F1F1F4"/>
<path d="M90.4043 141.2C90.4043 141.119 90.4043 141.032 90.3981 140.944C90.3918 140.857 90.3856 140.776 90.3793 140.707V140.638L91.9479 140.688L91.8666 143.431C91.8604 143.575 91.7979 143.644 91.6667 143.638L87.461 143.513C87.0485 143.5 86.6923 143.438 86.4049 143.325C86.1174 143.213 85.8862 143.056 85.7112 142.857C85.5362 142.657 85.4112 142.425 85.3425 142.144C85.2675 141.869 85.2363 141.563 85.2488 141.225L85.2863 140.076C85.2988 139.738 85.3488 139.432 85.4362 139.163C85.5237 138.895 85.6612 138.663 85.8487 138.476C86.0362 138.288 86.2736 138.151 86.5673 138.051C86.8611 137.957 87.2173 137.913 87.6297 137.926L91.8104 138.051C91.9604 138.057 92.0291 138.132 92.0291 138.288L91.9916 139.494L90.5106 139.988H90.4481L90.4668 139.451C90.4668 139.401 90.4481 139.376 90.3981 139.369L87.7297 139.288C87.5735 139.282 87.4485 139.294 87.3422 139.319C87.236 139.344 87.1485 139.388 87.0798 139.457C87.011 139.526 86.961 139.613 86.9235 139.732C86.8923 139.844 86.8673 139.988 86.8611 140.157L86.8298 141.138C86.8173 141.475 86.8735 141.713 86.9985 141.85C87.1235 141.988 87.336 142.063 87.6359 142.069L90.2856 142.15C90.3418 142.15 90.3731 142.125 90.3731 142.063L90.4043 141.2Z" fill="#F1F1F4"/>
<path d="M95.292 138.15C95.4108 138.156 95.492 138.175 95.542 138.213C95.592 138.25 95.6295 138.306 95.6732 138.388L97.673 142.468C97.7042 142.531 97.7542 142.562 97.8167 142.562H97.8979C97.9792 142.562 98.0229 142.525 98.0229 142.443L98.1479 138.238L99.5852 138.281L99.4227 143.649C99.4165 143.799 99.3477 143.868 99.204 143.862L96.9293 143.793C96.8231 143.793 96.7418 143.774 96.6918 143.737C96.6356 143.706 96.5919 143.643 96.5481 143.556L94.4734 139.481C94.4421 139.419 94.3984 139.388 94.3297 139.388H94.2547C94.1734 139.388 94.1297 139.425 94.1297 139.506L94.0047 143.706L92.5674 143.662L92.7299 138.3C92.7361 138.144 92.8049 138.075 92.9486 138.075L95.292 138.15Z" fill="#F1F1F4"/>
<path d="M205.5 205.5C243.332 167.668 243.332 106.331 205.5 68.5C167.669 30.6685 106.332 30.6685 68.5 68.5C30.6685 106.332 30.6685 167.668 68.5 205.5C106.332 243.332 167.668 243.331 205.5 205.5Z" fill="#E0F3FF"/>
<path d="M65.7916 130.801C63.4107 126.702 59.1988 125.015 59.1988 125.015L57.7302 125.702L61.036 131.701C60.5923 134.007 59.0113 135.276 59.0113 135.276L59.005 135.263C59.005 135.263 57.0178 135.663 54.9618 134.52L52.4809 128.133L51.0124 128.82C51.0124 128.82 49.6063 133.132 51.2186 137.594C51.2186 137.594 51.8435 139.038 51.956 139.169C52.5372 139.85 54.0557 140.631 56.9928 140.45L67.1165 159.766C66.2728 161.216 66.1291 163.035 66.8915 164.659C68.1288 167.309 71.2784 168.453 73.928 167.215C76.5777 165.978 77.7213 162.828 76.484 160.179C75.7216 158.548 74.2343 157.492 72.5845 157.21L64.2668 137.057C66.2478 134.97 66.6665 133.326 66.5165 132.376C66.4915 132.17 65.7916 130.801 65.7916 130.801ZM74.1155 164.116L71.4346 165.372L69.01 163.678L69.2662 160.729L71.9471 159.473L74.3717 161.166L74.1155 164.116Z" fill="url(#paint0_linear_250_13175)"/>
<path d="M66.5231 132.376C64.1422 128.276 59.9302 126.589 59.9302 126.589L58.4617 127.276L61.7675 133.275C61.3238 135.581 59.7427 136.85 59.7427 136.85L59.7365 136.838C59.7365 136.838 57.7493 137.237 55.6933 136.094L53.2124 129.707L51.7438 130.395C51.7438 130.395 50.3377 134.707 51.95 139.168C51.95 139.168 54.2372 142.237 57.718 142.024L67.8417 161.34C66.998 162.79 66.8543 164.609 67.6167 166.234C68.854 168.883 72.0036 170.027 74.6532 168.789C77.3029 167.552 78.4465 164.403 77.2092 161.753C76.4468 160.122 74.9595 159.066 73.3097 158.785L64.992 138.631C67.4105 136.1 66.5231 132.376 66.5231 132.376ZM74.8532 165.69L72.1723 166.946L69.7476 165.252L70.0039 162.303L72.6848 161.047L75.1094 162.74L74.8532 165.69Z" fill="url(#paint1_linear_250_13175)"/>
<path d="M52.482 128.135L51.0156 128.82L51.751 130.394L53.2174 129.709L52.482 128.135Z" fill="#E5E2FF"/>
<path d="M59.192 125.013L57.7256 125.698L58.461 127.272L59.9274 126.587L59.192 125.013Z" fill="#E5E2FF"/>
<path d="M74.1212 164.113L71.4375 165.367L72.1729 166.941L74.8566 165.687L74.1212 164.113Z" fill="#E5E2FF"/>
<path d="M59.8945 143.455L68.0747 159.171C70.2244 159.271 71.3742 157.628 71.3742 157.628L64.7189 141.199C61.7318 141.093 59.8945 143.455 59.8945 143.455ZM70.7431 157.759C70.5056 157.965 70.1432 158.24 69.687 158.453C69.3245 158.621 68.9433 158.734 68.5559 158.79L60.3632 143.399C60.7632 143.042 61.4506 142.517 62.3317 142.105C62.9941 141.799 63.669 141.599 64.3564 141.505L70.7431 157.759Z" fill="url(#paint2_linear_250_13175)"/>
<path d="M70.7436 157.759L71.3748 157.628C71.3748 157.628 70.4374 159.29 68.0752 159.171L68.5564 158.79C68.5564 158.79 69.725 158.653 70.7436 157.759Z" fill="#E5E2FF"/>
<path opacity="0.62" d="M59.8945 143.455L60.3632 143.393C60.3632 143.393 61.763 141.943 64.3564 141.506L64.7126 141.206C64.7126 141.206 63.669 141.024 62.0442 141.78C60.4257 142.537 59.8945 143.455 59.8945 143.455Z" fill="url(#paint3_linear_250_13175)"/>
<path opacity="0.62" d="M57.7236 142.019C57.7236 142.019 61.6544 141.319 65.0102 138.626L66.0725 141.201C66.0725 141.201 64.8664 140.007 62.2168 141.088C59.1234 142.35 59.2922 144.838 59.2922 144.838L57.7236 142.019Z" fill="url(#paint4_linear_250_13175)"/>
<path opacity="0.5" d="M66.0756 141.207C65.3194 140.663 64.457 140.65 64.457 140.65L72.3747 159.773L73.3308 158.785L66.0756 141.207Z" fill="url(#paint5_linear_250_13175)"/>
<path d="M66.0746 141.206C66.0746 141.206 65.2435 143.762 67.6307 144.974L66.0746 141.206Z" fill="white"/>
<path d="M185.15 264.768H155.812C152.741 247.753 145.6 225.613 145.6 225.613C143.864 224.585 140.475 225.849 140.475 225.849L129.751 264.768H102.946C101.523 240.753 114.694 213.493 114.694 213.493L114.688 213.487C114.644 213.393 114.226 212.559 114.338 211.998C114.382 211.755 114.832 211.294 115.337 210.84C116.061 210.18 116.923 209.519 116.923 209.519L166.929 209.208C166.929 209.208 167.435 209.463 168.078 209.849H168.084C169.176 210.51 170.656 211.531 170.656 212.278C170.656 213.306 170.25 213.972 170.15 214.122L170.125 214.153C180.849 234.344 185.15 264.768 185.15 264.768Z" fill="url(#paint6_linear_250_13175)"/>
<path opacity="0.5" d="M110.401 272.886C104.38 271.502 102.415 257.846 106.002 242.378C109.59 226.91 117.377 215.489 123.398 216.867C129.419 218.251 131.384 231.907 127.797 247.375C124.209 262.849 116.416 274.271 110.401 272.886Z" fill="url(#paint7_radial_250_13175)"/>
<path opacity="0.5" d="M176.876 272.15C170.894 273.803 162.534 262.781 158.196 247.528C153.866 232.276 155.203 218.572 161.184 216.918C167.166 215.265 175.526 226.287 179.863 241.54C184.194 256.792 182.857 270.497 176.876 272.15Z" fill="url(#paint8_radial_250_13175)"/>
<path d="M126.296 264.801L125.99 264.751C129.409 244.629 138.076 227.756 138.164 227.587L138.201 227.543L140.407 225.612L140.613 225.85L138.426 227.762C138.032 228.512 129.64 245.097 126.296 264.801Z" fill="url(#paint9_linear_250_13175)"/>
<path d="M159.847 264.801C156.498 245.085 147.874 228.337 147.486 227.594L145.53 225.838L145.736 225.606L147.749 227.425C147.836 227.594 156.735 244.629 160.153 264.751L159.847 264.801Z" fill="url(#paint10_linear_250_13175)"/>
<path opacity="0.76" d="M170.745 212.278C170.745 213.306 170.337 213.972 170.236 214.122L170.211 214.153C159.73 216.501 151.757 226.198 151.757 226.198C157.468 237.06 166.994 264.768 166.994 264.768H155.803C152.712 247.753 145.524 225.613 145.524 225.613C143.777 224.585 140.365 225.849 140.365 225.849L129.57 264.768H122.583C125.084 248.463 132.467 228.558 132.467 228.558C125.21 220.182 114.415 213.493 114.415 213.493L114.409 213.487L113.127 212.689L114.057 211.998C118.725 216.439 133.78 222.237 134.245 222.418L115.062 210.84C115.791 210.18 116.658 209.519 116.658 209.519L166.994 209.208C166.994 209.208 167.503 209.463 168.15 209.849L154.402 217.348L170.745 212.278Z" fill="url(#paint11_linear_250_13175)"/>
<path opacity="0.76" d="M145.366 225.32L151.54 221.555L150.074 225.32L148.998 236.645L145.366 225.32Z" fill="url(#paint12_linear_250_13175)"/>
<path opacity="0.76" d="M140.564 225.757L134.449 222.427L121.358 216.754L138.028 227.358L139.02 231.158L140.564 225.757Z" fill="url(#paint13_linear_250_13175)"/>
<path d="M156.957 108.373C156.994 108.646 157.025 108.792 157.025 108.792C156.722 110.086 156.375 111.286 155.997 112.384C154.783 115.958 153.271 118.497 152.138 120.077C151.153 121.442 150.453 122.096 150.453 122.096C141.414 119.189 136.96 110.131 135.251 105.624C135.238 105.605 135.232 105.58 135.226 105.554C134.898 104.704 134.681 104.018 134.545 103.574C134.545 103.574 134.545 103.574 134.545 103.568C134.439 103.212 134.39 103.016 134.39 103.016C134.427 102.939 134.464 102.857 134.501 102.781L134.52 102.749C134.668 102.432 134.817 102.108 134.953 101.797C136.137 99.1436 136.923 96.6618 137.431 94.7068C137.871 93.0438 138.106 91.7617 138.218 91.0825C138.274 90.7334 138.299 90.543 138.299 90.543L142.511 92.8217L157.025 100.692C156.808 102.057 156.722 103.339 156.716 104.463C156.703 105.256 156.728 105.967 156.771 106.57C156.815 107.306 156.889 107.89 156.945 108.271V108.277C156.945 108.316 156.951 108.341 156.957 108.373Z" fill="#FE9083"/>
<path d="M153.313 122.614C152.454 123.44 151.443 124.18 150.235 124.796C150.209 124.815 150.184 124.827 150.158 124.839C150.158 124.839 150.126 124.821 150.069 124.79L150.063 124.784C149.738 124.593 148.632 123.933 147.143 122.848C143.25 120.007 136.75 114.262 134.892 106.52C134.886 106.508 134.886 106.502 134.879 106.489C134.663 105.571 134.511 104.634 134.434 103.66C134.434 103.66 134.434 103.66 134.434 103.654C134.415 103.401 134.396 103.149 134.39 102.89C134.39 102.89 135.681 105.83 137.92 109.004C140.553 112.74 144.503 116.814 149.223 116.839C153.307 116.863 155.4 114.157 156.462 111.661C156.913 110.601 157.181 109.584 157.321 108.826C157.327 108.819 157.327 108.813 157.327 108.813C157.371 108.591 157.403 108.394 157.435 108.228V108.221C157.448 108.135 157.46 108.061 157.467 107.993C157.505 107.716 157.518 107.556 157.518 107.556C157.518 107.556 159.082 117.024 153.313 122.614Z" fill="url(#paint14_linear_250_13175)"/>
<path opacity="0.5" d="M153.313 122.653C152.454 123.481 151.443 124.222 150.235 124.839H150.158L150.069 124.833L150.063 124.827C149.738 124.636 148.632 123.975 147.143 122.888C143.25 120.041 136.75 114.284 134.892 106.527C134.886 106.515 134.886 106.509 134.879 106.496C134.663 105.576 134.511 104.637 134.434 103.662C134.434 103.662 134.434 103.662 134.434 103.655C134.415 103.402 134.396 103.149 134.39 102.89C134.39 102.89 135.681 105.836 137.92 109.016C137.92 109.016 140.49 115.872 146.049 119.269C148.835 120.967 150.947 120.72 152.499 119.719C154.051 118.725 155.056 116.99 155.648 115.68C156.239 114.365 156.43 113.136 156.462 112.234C156.468 112.03 156.468 111.845 156.462 111.678C156.913 110.616 157.181 109.597 157.321 108.837C157.327 108.831 157.327 108.825 157.327 108.825C157.371 108.603 157.403 108.405 157.435 108.238V108.232C157.448 108.145 157.46 108.071 157.467 108.003C157.505 107.726 157.518 107.565 157.518 107.565C157.518 107.565 159.082 117.051 153.313 122.653Z" fill="url(#paint15_linear_250_13175)"/>
<path d="M188.305 179.404C188.236 179.435 188.205 179.454 188.205 179.454C187.693 179.517 186.1 179.166 184.013 177.354L184.007 177.348C184.007 177.341 184.001 177.335 183.988 177.329C183.982 177.323 183.976 177.31 183.963 177.304C182.214 175.768 180.115 173.204 178.022 169.003C173.836 160.609 172.636 155.005 172.443 154.027L172.418 153.876L169.975 157.763C168.319 162.759 165.183 183.435 165.24 184.325C165.296 185.215 168.02 189.554 167.963 190.086C167.963 190.086 167.963 190.093 167.957 190.099C167.882 190.638 166.658 191.823 166.308 193.114C166.07 193.973 167.732 196.682 168.9 198.706V198.713C169.507 199.766 169.975 200.631 169.975 200.957C169.975 201.904 167.014 206.537 167.014 206.537V209.032L166.97 209.076L166.833 209.201L166.72 209.295C165.596 210.185 160.829 213.1 145.935 213.903C128.286 214.849 116.528 209.151 116.528 209.151L117.415 206.712C117.415 206.712 116.591 206.004 116.528 205.646C116.472 205.289 117.178 204.455 117.178 204.455C117.178 204.455 115.404 203.509 115.404 202.317C115.404 201.133 118.958 197.453 118.84 194.299C118.721 191.152 115.997 188.362 115.641 186.582C115.285 184.802 120.258 180.407 120.258 180.407C115.997 166.866 115.166 148.692 115.166 148.692L114.342 147.739C114.342 147.739 109.25 159.38 104.633 165.079C104.083 165.756 103.502 166.427 102.903 167.073C101.616 168.471 100.247 169.781 98.9291 170.928C95.7305 173.724 92.8254 175.561 92.0882 175.417C90.9012 175.179 86.1656 165.794 86.3843 156.171C86.4842 151.594 89.2331 146.472 92.0882 142.366C92.3943 141.927 92.7004 141.495 93.0128 141.075C95.037 138.31 96.9799 136.141 97.9108 135.15C98.2732 134.762 98.4793 134.555 98.4793 134.555C98.4793 134.555 97.8296 132.455 97.386 130.63C97.3798 130.586 97.3673 130.543 97.3548 130.499C97.3548 130.48 97.3486 130.455 97.3423 130.436C97.3361 130.405 97.3298 130.392 97.3298 130.392C97.0674 129.27 96.905 128.298 97.0549 128.06C97.4485 127.427 99.7413 126.712 100.135 126.242C100.528 125.765 102.184 117.766 103.446 116.895C104.658 116.061 106.788 115.453 113.892 112.651C114.242 112.513 114.598 112.375 114.973 112.224C122.938 109.058 130.754 105.215 130.754 105.215L133.752 101.517H135.089L134.652 102.457L134.633 102.488C134.846 103.441 135.089 104.357 135.364 105.228C135.37 105.253 135.377 105.278 135.389 105.297C139.513 118.349 150.121 122.556 150.121 122.556C157.493 117.095 157.349 108.425 157.349 108.425V107.234L158.73 107.648L159.673 109.905C159.673 109.905 161.272 112.4 167.607 115.196C168.701 115.679 169.875 116.287 171.087 116.982C176.885 120.286 183.332 125.396 183.826 126.48C183.876 126.593 183.932 126.769 183.994 127.019V127.026C184.675 129.709 186.075 139.758 187.374 143.344C188.186 145.582 189.467 146.817 190.41 147.457C190.417 147.463 190.417 147.463 190.423 147.463C191.123 147.946 191.635 148.096 191.635 148.096C191.735 148.648 191.829 149.193 191.916 149.732C194.634 166.922 189.467 178.589 188.305 179.404Z" fill="url(#paint16_linear_250_13175)"/>
<path opacity="0.5" d="M119.987 147.059L114.942 148.778L114.134 147.835C114.134 147.835 109.145 159.362 104.621 165.005C104.083 165.675 103.513 166.339 102.926 166.979C101.665 168.363 100.324 169.66 99.0325 170.796L95.1881 153.993L93.2354 141.236C95.2187 138.499 97.1225 136.351 98.0347 135.37C98.3897 134.985 98.5917 134.78 98.5917 134.78C98.5917 134.78 97.9551 132.701 97.5204 130.895C97.5143 130.851 97.5021 130.808 97.4898 130.764C97.4898 130.746 97.4837 130.721 97.4776 130.702C97.4715 130.671 97.4654 130.659 97.4654 130.659C97.2082 129.548 97.0491 128.585 97.196 128.349C97.5817 127.723 99.8283 127.015 100.214 126.549C100.6 126.078 102.222 118.157 103.458 117.294C103.458 117.294 102.65 124.898 106.942 134.545L109.029 137.524L115.138 142.503C115.138 142.503 117.458 145.625 119.987 147.059Z" fill="url(#paint17_linear_250_13175)"/>
<path d="M105.372 160.969C104.274 169.233 92.128 175.597 92.128 175.597C89.4221 175.597 86.3996 170.826 83.6565 164.94C80.9133 159.055 80.7457 142.148 80.603 141.103C80.454 140.058 78.9273 137.969 78.8342 137.075C78.7473 136.181 81.3043 134.331 81.3043 134.331L81.2857 134.286L81.267 134.242C81.0002 133.663 79.4983 130.397 79.6038 129.799C79.7217 129.144 82.5952 127.715 82.5952 127.715L82.7752 130.932C82.7752 130.932 89.4655 129.647 91.7308 124.392L92.128 122.78L93.2451 123.536V130.453C93.2451 130.453 93.4747 131.53 93.8285 131.53C94.1822 131.53 96.7889 130.208 97.335 130.39C97.8874 130.573 98.4273 134.274 99.1597 134.746C99.8858 135.224 101.828 136.597 102.12 137.251C102.25 137.547 102.263 138.611 102.275 139.863C102.294 141.399 102.306 143.212 102.53 144.232C102.945 146.076 106.471 152.698 105.372 160.969Z" fill="url(#paint18_linear_250_13175)"/>
<path d="M217.143 154.043C216.596 154.915 213.85 156.74 213.142 157.455C212.433 158.164 213.142 160.509 213.142 160.509C201.604 172.871 189.576 179.061 188.364 179.663C188.296 179.694 188.265 179.713 188.265 179.713C181.021 174.796 181.642 166.699 184.046 159.876C186.345 153.328 190.284 147.954 190.458 147.722L190.464 147.715C190.464 147.715 190.464 147.715 190.471 147.709C190.601 147.659 192.67 146.793 194.149 146.68C194.639 146.643 195.087 146.837 195.509 147.107C196.392 147.659 197.137 148.531 197.858 148.167C198.92 147.627 201.294 141.964 202.903 141.807C204.027 141.701 205.587 142.855 206.624 143.513C207.078 143.802 207.432 143.996 207.606 143.946C208.196 143.789 210.197 141.368 210.358 141.306C210.514 141.237 211.427 141.914 211.427 141.914L210.787 142.717C211.769 148.424 214.987 152.262 214.987 152.262L217.143 149.076C217.143 149.076 217.696 153.172 217.143 154.043Z" fill="url(#paint19_linear_250_13175)"/>
<path d="M157.025 107.889C157.013 107.97 157.001 108.05 156.995 108.131C156.964 108.299 156.928 108.46 156.879 108.627C156.879 108.627 156.879 108.634 156.873 108.64C156.149 111.376 153.223 114.175 149.53 112.828C145.497 111.358 137.819 94.7708 137.819 94.7708L138.592 91.2275L156.812 106.369L157.013 107.802L157.025 107.889Z" fill="#CB4D7A"/>
<path d="M94.9638 105.03C94.9638 105.03 93.8202 98.7119 94.3326 94.0562C94.8451 89.4006 94.2014 84.1076 94.2014 84.1076C94.2014 84.1076 93.0703 83.6326 92.2391 84.1076C91.408 84.5825 89.477 89.3944 90.3457 93.2626C91.2143 97.1308 90.5456 106.405 90.5456 106.405H89.2458L86.4024 102.499L85.0214 102.105C85.0214 102.105 77.0662 109.604 77.1849 114.066L78.2223 118.034L88.0147 117.697L94.4076 110.398L94.9638 105.03Z" fill="#EE8183"/>
<path d="M85.0137 102.105C85.0137 102.105 85.2199 107.079 86.3323 111.341C86.3323 111.341 86.1448 113.085 84.1013 113.203L83.5951 112.641C83.5951 112.641 83.2389 114.622 81.4329 114.772L79.7144 113.053L80.1581 114.472C80.1581 114.472 79.5394 115.984 77.9084 115.922C77.9084 115.922 75.1838 113.791 75.0088 111.01L77.7022 108.729V106.985L80.9017 104.736L80.958 103.461C80.9705 103.467 82.8452 102.08 85.0137 102.105Z" fill="url(#paint20_linear_250_13175)"/>
<path opacity="0.6" d="M94.4436 92.7188C94.4436 92.7188 93.9624 93.9373 93.2812 94.4123C92.6001 94.8872 90.6253 95.2497 90.6253 95.2497L90.5378 106.411H89.238L86.3946 102.505C86.3946 102.505 87.8382 104.736 87.9257 106.411L86.8008 106.961L85.826 103.617L85.3635 106.023L85.826 109.017C85.826 109.017 87.5132 107.567 90.5628 107.511L91.019 108.342C91.019 108.342 85.501 112.91 84.2324 115.603C84.2324 115.603 86.9571 112.141 93.175 108.323L93.7686 106.486L94.556 102.105C94.5435 102.105 93.7999 95.7933 94.4436 92.7188Z" fill="url(#paint21_linear_250_13175)"/>
<path d="M99.0652 112.174C98.5528 113.711 93.1848 120.104 92.5911 121.491C91.9974 122.872 91.6412 124.684 91.6412 124.684C89.0041 130.39 82.6237 131.177 82.6237 131.177L82.33 126.028C82.33 126.028 78.8992 124.053 78.318 122.972L78.3118 122.953L78.243 122.772C78.068 121.766 78.218 118.035 78.218 118.035L84.2235 115.604C86.8294 112.23 93.166 108.324 93.166 108.324L93.4597 106.556C88.9104 104.318 89.6728 97.5506 90.4414 96.7194C91.21 95.8945 92.6286 95.8945 92.6286 95.8945C92.6286 95.8945 94.2909 101.338 95.3532 103.887C96.4218 106.431 99.5777 110.636 99.0652 112.174Z" fill="url(#paint22_linear_250_13175)"/>
<path d="M80.9683 103.468C80.9683 103.468 81.637 109.686 83.6055 112.642C83.6055 112.642 81.1121 109.542 80.9121 104.736L80.9683 103.468Z" fill="#E28183"/>
<path d="M77.7139 106.992C77.7139 106.992 78.3638 111.998 81.4446 114.779C81.4446 114.779 78.72 113.416 77.7139 108.742V106.992Z" fill="#E28183"/>
<path opacity="0.91" d="M93.4223 120.165C93.4223 120.165 86.6545 126.739 82.3301 126.027L82.6238 131.176C82.6238 131.176 89.7291 130.557 92.0413 123.083C92.0413 123.083 92.8724 120.934 93.4223 120.165Z" fill="url(#paint23_linear_250_13175)"/>
<path d="M236.555 129.101C236.555 129.101 230.338 140.468 223.057 143.961H220.57L214.827 152.666C214.827 152.666 211.115 150.335 210.84 142.68C210.84 142.68 212.14 141.324 212.459 139.793C212.459 139.793 210.409 138.181 209.853 137C209.303 135.812 209.103 132.263 208.709 130.801C208.315 129.338 204.96 126.301 204.21 125.907C203.46 125.514 200.067 125.314 200.067 125.314C200.067 125.314 199.592 124.089 200.067 123.501C200.541 122.908 205.828 120.852 208.709 122.827C208.709 122.827 208.909 124.326 209.222 125.12C209.54 125.907 212.065 128.707 212.459 128.707C212.852 128.707 214.552 127.288 215.302 126.182C216.021 125.12 219.839 116.89 220.764 114.109C220.77 114.078 220.776 114.053 220.789 114.028C220.801 113.984 220.82 113.94 220.826 113.903C220.839 113.872 220.845 113.847 220.851 113.822C220.858 113.809 220.864 113.803 220.864 113.79C221.576 111.384 225.719 106.766 227.932 105.504C227.932 105.504 228.875 105.266 229.388 106.448C229.388 106.448 227.613 111.503 225.757 114.503C225.444 115.009 225.107 115.603 224.757 116.24C224.757 116.24 224.757 116.24 224.751 116.24C223.17 119.146 221.389 122.952 221.132 123.508L221.101 123.576L222.089 124.083L224.757 121.552L227.494 118.958L233.775 125.589L233.156 126.376L231.194 128.895L232.187 129.076L234.499 126.52L236.555 129.101Z" fill="url(#paint24_linear_250_13175)"/>
<path opacity="0.6" d="M235.1 131.52L233.112 134.438C233.112 134.438 222.208 126.027 219.839 125.314C217.471 124.602 216.602 125.077 216.602 125.077L214.159 128.195C214.159 128.195 218.658 132.182 219.052 137.55C219.052 137.55 217.552 130.763 212.459 128.707C212.853 128.707 214.552 127.289 215.302 126.183C216.021 125.12 219.839 116.89 220.764 114.109C220.639 114.584 220.477 115.509 220.864 116.24C221.402 117.234 224.564 116.297 224.751 116.24C224.757 116.24 224.757 116.24 224.757 116.24L221.133 123.508L221.102 123.577L222.089 124.083L224.757 121.552L223.42 124.658L233.156 126.376L231.194 128.895L232.188 129.076L235.1 131.52Z" fill="url(#paint25_linear_250_13175)"/>
<path d="M227.495 118.958C227.495 118.958 229.389 118.683 230.614 121.126L230.339 121.913C230.339 121.913 232.182 122.276 233.97 125.269C233.97 125.269 232.389 128.15 228.483 129.45C228.483 129.45 226.664 128.937 226.352 127.4L226.708 126.413L225.29 127.481C225.29 127.481 223.59 127.994 222.84 125.469L227.495 118.958Z" fill="url(#paint26_linear_250_13175)"/>
<path d="M237.123 128.314C237.123 128.314 237.516 126.496 235.585 125.314L231.836 129.458C231.836 129.458 231.948 130.789 233.573 131.076C233.573 131.076 236.135 130.208 237.123 128.314Z" fill="url(#paint27_linear_250_13175)"/>
<path opacity="0.91" d="M209.853 136.999C209.853 136.999 214.196 141.848 220.57 143.961L217.82 148.123L212.09 140.842L212.458 139.792C212.458 139.792 210.165 138.068 209.853 136.999Z" fill="url(#paint28_linear_250_13175)"/>
<path d="M230.337 121.921C230.337 121.921 228.518 124.921 226.706 126.42L226.35 127.408C226.35 127.408 229.874 125.027 231.168 122.283C231.174 122.283 230.749 121.977 230.337 121.921Z" fill="#E28183"/>
<path opacity="0.5" d="M217.139 154.126C216.587 154.995 213.813 156.814 213.098 157.526C212.383 158.232 213.098 160.57 213.098 160.57C201.445 172.888 189.297 179.056 188.073 179.656C188.004 179.687 187.973 179.706 187.973 179.706C187.019 179.825 182.382 178.525 177.745 169.288C173.541 160.92 172.336 155.332 172.141 154.357L172.116 154.207L173.139 152.826L174.658 135.777L175.724 139.208C179.765 134.352 183.574 126.896 183.574 126.896L183.744 127.434V127.44C184.428 130.115 185.833 140.133 187.138 143.708C187.954 145.939 189.241 147.17 190.188 147.808L190.194 147.82L190.188 147.827C186.467 151.208 184.622 156.07 183.712 159.938C182.878 163.488 182.821 166.207 182.821 166.207C182.821 166.207 183.85 161.395 187.101 155.607C188.281 153.501 190 151.62 191.7 150.076C192.98 148.914 194.254 147.939 195.29 147.214C196.181 147.764 196.934 148.633 197.662 148.27C192.767 155.589 192.886 170.075 197.486 167.313C202.079 164.551 203.133 158.688 203.133 158.688C202.048 151.545 202.374 143.489 203.246 141.958C204.307 141.996 207.338 144.114 207.513 144.064C207.237 152.47 211.203 158.082 211.203 158.082L213.82 154.051C210.011 147.658 210.293 141.433 210.293 141.433C210.45 141.364 211.372 142.039 211.372 142.039L210.726 142.839C211.717 148.526 214.968 152.351 214.968 152.351L217.145 149.176C217.139 149.176 217.698 153.257 217.139 154.126Z" fill="url(#paint29_linear_250_13175)"/>
<path opacity="0.5" d="M167.317 206.586V209.065L167.273 209.109L167.135 209.233L167.023 209.327C165.896 210.211 161.119 213.107 146.196 213.905C128.511 214.845 116.73 209.183 116.73 209.183L117.619 206.761C117.619 206.761 116.793 206.057 116.73 205.702C116.674 205.347 117.381 204.518 117.381 204.518C117.381 204.518 115.603 203.578 115.603 202.394C115.603 201.329 118.508 198.246 118.977 195.35C119.034 195.039 119.059 194.734 119.046 194.428C118.927 191.314 116.223 188.555 115.847 186.786C115.841 186.767 115.841 186.761 115.841 186.761C115.484 184.992 120.467 180.626 120.467 180.626C116.198 167.173 115.365 149.117 115.365 149.117L114.539 148.17C114.539 148.17 109.437 159.736 104.811 165.398C100.185 171.066 93.424 175.905 92.2409 175.668C89.5115 175.668 86.4629 170.947 83.696 165.124C80.9291 159.3 80.7601 142.571 80.6161 141.537C80.4659 140.503 78.9259 138.435 78.832 137.551C81.7993 142.627 86.5255 141.132 86.5255 141.132C83.1013 141.207 81.3235 134.835 81.3235 134.835L81.3047 134.791L81.2859 134.748L79.6145 130.357C79.8023 130.569 83.7148 134.922 87.4958 132.238C91.3708 129.485 93.3677 124.153 93.3677 124.153V130.998C93.3677 130.998 93.5993 132.063 93.9561 132.063C93.7245 135.215 93.0547 139.052 92.2409 142.832C90.4818 151.01 88.0718 158.908 88.0718 158.908C88.0718 158.908 94.6072 155.37 96.9046 146.401C98.0001 142.11 98.1816 138.379 98.0752 135.663C97.9813 133.34 97.6746 131.752 97.5494 131.173C97.5431 131.129 97.5306 131.086 97.5181 131.042C97.5181 131.023 97.5118 130.998 97.5055 130.98C97.5055 130.967 97.4993 130.955 97.4993 130.948L98.1315 132.281L99.3335 135.246C100.729 146.756 97.8498 164.102 97.8498 164.102C102.044 158.908 102.914 147.423 102.733 144.632C102.651 143.299 102.545 141.655 102.476 140.31C102.382 138.84 102.319 137.725 102.319 137.725L110.902 142.82L109.318 137.825L115.566 142.82C115.566 142.82 121.181 149.546 126.952 150.331C132.724 151.122 153.914 150.649 153.914 150.649C153.914 150.649 135.491 151.826 130.114 153.402C124.736 154.978 123.71 156.784 123.71 156.784C127.597 176.459 149.113 183.093 149.783 183.292C130.264 180.377 121.181 163.866 121.181 163.866C121.181 163.866 120.862 173.152 122.364 176.69C123.866 180.228 132.724 188.885 144.111 190.691C145.069 190.841 146.014 190.934 146.947 190.978C156.55 191.426 164.5 186.543 165.314 186.02C165.357 185.989 165.382 185.976 165.382 185.976C165.382 185.976 165.376 185.989 165.364 186.008C165.057 186.475 161.119 191.981 145.219 192.585C144.255 192.622 143.316 192.616 142.402 192.578C142.396 192.578 142.39 192.578 142.39 192.578C127.654 191.962 120.148 182.196 120.148 182.196C120.148 182.196 114.695 185.111 118.176 189.433C118.214 189.477 118.251 189.527 118.289 189.57C119.315 190.747 121.575 192.186 124.248 193.668C124.323 193.712 124.398 193.756 124.467 193.793C127.697 195.568 131.485 197.399 134.414 198.913C134.433 198.919 134.446 198.925 134.458 198.931C136.249 199.859 137.72 200.657 138.54 201.255C138.546 201.255 138.546 201.261 138.546 201.261C139.372 201.859 139.541 202.245 138.734 202.338C134.621 202.812 119.046 199.43 118.414 200.37C117.782 201.317 119.184 203.752 119.184 203.752C133.482 210.803 164.074 207.327 165.038 207.221C139.435 213.743 118.489 205.484 118.489 205.484L119.184 207.925C119.184 207.925 130.59 211.855 144.03 212.173C157.476 212.484 165.858 209.065 165.858 209.065L167.317 206.586Z" fill="url(#paint30_linear_250_13175)"/>
<path opacity="0.5" d="M156.342 150.219C156.342 150.219 166.668 150.766 173.49 152.537L169.974 157.764C169.968 157.764 164.675 153.202 156.342 150.219Z" fill="url(#paint31_linear_250_13175)"/>
<path opacity="0.5" d="M165.94 178.341C165.94 178.341 159.629 183.719 153.423 186.201C147.217 188.69 141.247 188.925 141.247 188.925C141.247 188.925 144.816 190.011 153.591 188.563C162.371 187.122 165.375 182.265 165.375 182.265L165.94 178.341Z" fill="url(#paint32_linear_250_13175)"/>
<path opacity="0.5" d="M168.686 198.542C157.147 201.565 142.499 197.236 142.622 196.707C142.745 196.178 146.634 196.943 155.654 195.115C164.398 193.342 167.568 190.195 167.759 190.002C167.685 190.537 166.481 191.712 166.136 192.994C165.903 193.846 167.537 196.533 168.686 198.542Z" fill="url(#paint33_linear_250_13175)"/>
<path opacity="0.5" d="M137.136 151.873C127.087 152.907 124.381 155.74 124.381 155.74C121.555 156.102 115.209 148.78 115.209 148.78L114.382 147.816C114.382 147.816 109.276 159.588 104.647 165.351C104.095 166.035 103.513 166.713 102.911 167.366L103.569 165.87C103.569 165.87 104.647 165.351 104.96 159.626C105.279 153.908 102.586 145.376 102.567 144.216C102.548 143.056 102.153 137.186 102.153 137.186L110.742 142.371L109.157 137.287L115.41 142.371C115.41 142.371 117.859 146.098 124.042 149.205C129.875 152.14 136.415 151.905 137.136 151.873Z" fill="url(#paint34_linear_250_13175)"/>
<path opacity="0.5" d="M114.498 148.235L120.391 147.475C120.391 147.475 122.746 149.013 127.474 150.911L123.535 156.646C123.535 156.646 125.101 164.82 129.588 169.424C129.588 169.424 117.679 162.898 116.002 157.412L114.498 148.235Z" fill="url(#paint35_linear_250_13175)"/>
<path opacity="0.5" d="M79.5146 130.167L81.2193 134.507C81.2193 134.507 82.9552 140.364 86.4083 140.611C89.8613 140.859 93.2332 130.788 93.2332 130.788V124.153C93.2332 124.153 89.5616 131.76 85.5965 132.618C81.6377 133.481 79.5146 130.167 79.5146 130.167Z" fill="url(#paint36_linear_250_13175)"/>
<path opacity="0.5" d="M100.091 126.494C100.091 126.494 103.168 132.572 106.95 134.442C106.95 134.442 102.45 123.644 103.399 117.294C103.399 117.294 101.745 118.312 100.091 126.494Z" fill="url(#paint37_linear_250_13175)"/>
<path opacity="0.76" d="M174.708 135.813L175.806 139.241L176.918 167.366C176.918 167.366 174.094 162.016 172.116 154.374L173.144 152.845C173.144 152.845 174.876 142.244 174.708 135.813Z" fill="url(#paint38_linear_250_13175)"/>
<path opacity="0.5" d="M207.459 144.045C207.459 144.045 206.832 157.839 212.963 159.03L213.27 160.507C213.27 160.507 205.332 160.227 207.459 144.045Z" fill="url(#paint39_linear_250_13175)"/>
<path opacity="0.3" d="M197.496 147.879C197.496 147.879 197.276 148.389 195.182 146.788C195.182 146.788 187.941 152.197 185.149 159.821C185.149 159.821 189.612 152.817 191.987 152.062C194.362 151.307 194.937 154.102 194.937 154.102C194.937 154.102 195.88 150.158 197.496 147.879Z" fill="url(#paint40_linear_250_13175)"/>
<path opacity="0.5" d="M78.8471 137.186C78.8471 137.186 81.7051 142.558 87.0632 140.874C87.0632 140.874 83.8534 143.077 80.6373 141.284C80.6373 141.284 78.6398 137.794 78.8471 137.186Z" fill="url(#paint41_linear_250_13175)"/>
<path opacity="0.5" d="M97.258 130.326C97.258 130.326 101.038 145.21 91.1768 156.391C91.1768 156.391 97.578 152.931 99.0334 144.917C100.483 136.897 97.258 130.326 97.258 130.326Z" fill="url(#paint42_linear_250_13175)"/>
<path opacity="0.5" d="M167.415 118.665C167.415 118.665 166.975 125.478 163.784 130.369C160.601 135.26 154.283 138.557 154.283 138.557C154.283 138.557 162.211 135.563 165.848 131.343C169.485 127.13 167.415 118.665 167.415 118.665Z" fill="url(#paint43_linear_250_13175)"/>
<path opacity="0.5" d="M126.856 109.062C126.856 109.062 126.856 114.612 128.652 120.269C130.448 125.926 146.049 135.813 146.049 135.813C146.049 135.813 129.968 129.175 126.856 123.204C123.739 117.233 126.856 109.062 126.856 109.062Z" fill="url(#paint44_linear_250_13175)"/>
<path d="M126.845 135.133V144.058C126.845 144.058 147.61 143.89 170.897 145.417L171.43 137.379C171.43 137.386 151.185 135.008 126.845 135.133Z" fill="url(#paint45_linear_250_13175)"/>
<path d="M130.741 137.357C130.747 137.201 130.822 137.132 130.959 137.132L135.153 137.257C135.565 137.269 135.921 137.332 136.209 137.444C136.496 137.557 136.727 137.713 136.902 137.913C137.077 138.113 137.196 138.344 137.271 138.625C137.346 138.9 137.377 139.207 137.365 139.544L137.327 140.694C137.315 141.031 137.265 141.338 137.177 141.606C137.09 141.875 136.952 142.106 136.765 142.294C136.577 142.481 136.34 142.619 136.046 142.719C135.752 142.812 135.396 142.856 134.984 142.844L132.728 142.775L132.259 141.456H132.197L132.159 142.762L130.578 142.712L130.741 137.357ZM132.203 141.313L134.884 141.394C135.184 141.4 135.402 141.344 135.534 141.213C135.665 141.081 135.734 140.85 135.746 140.513L135.777 139.575C135.79 139.225 135.734 138.988 135.609 138.857C135.484 138.725 135.271 138.657 134.971 138.65L132.409 138.575C132.372 138.575 132.347 138.588 132.322 138.607C132.303 138.632 132.29 138.657 132.29 138.688L132.203 141.313Z" fill="#EBEFFF"/>
<path d="M139.63 139.75H139.574L139.524 141.425C139.524 141.494 139.555 141.531 139.63 141.538L144.342 141.681L144.299 143.131L138.118 142.944C137.968 142.937 137.899 142.862 137.899 142.706L138.056 137.576C138.062 137.419 138.137 137.351 138.287 137.351L144.292 137.532C144.449 137.538 144.524 137.613 144.517 137.769L144.474 139.219L142.992 139.719H142.93L142.955 138.975C142.955 138.919 142.93 138.888 142.88 138.888L139.712 138.794C139.668 138.794 139.643 138.807 139.63 138.825C139.618 138.85 139.612 138.875 139.612 138.9L139.593 139.6L142.205 139.682L142.168 140.819L139.98 140.75L139.63 139.75Z" fill="#EBEFFF"/>
<path d="M150.113 139.651H150.05L150.069 139.038C150.069 138.976 150.044 138.944 149.982 138.944L147.032 138.857C146.926 138.857 146.851 138.876 146.807 138.919C146.763 138.963 146.744 139.032 146.738 139.119L146.732 139.257C146.726 139.363 146.744 139.432 146.782 139.463C146.819 139.494 146.888 139.519 146.988 139.538L150.444 140.126C150.663 140.163 150.85 140.219 151 140.282C151.15 140.35 151.275 140.438 151.369 140.544C151.463 140.65 151.525 140.782 151.563 140.938C151.6 141.094 151.613 141.275 151.606 141.488L151.594 141.932C151.588 142.163 151.55 142.363 151.488 142.538C151.425 142.713 151.331 142.856 151.2 142.975C151.069 143.094 150.894 143.175 150.688 143.231C150.475 143.288 150.219 143.306 149.913 143.3L144.938 143.15L144.982 141.7L149.444 141.838C149.575 141.844 149.669 141.819 149.713 141.775C149.757 141.725 149.782 141.644 149.788 141.519L149.794 141.363C149.794 141.263 149.782 141.194 149.75 141.157C149.719 141.119 149.657 141.088 149.557 141.075L146.22 140.55C145.995 140.513 145.801 140.463 145.645 140.394C145.488 140.325 145.357 140.244 145.257 140.138C145.157 140.032 145.088 139.907 145.045 139.757C145.001 139.607 144.988 139.432 144.995 139.226L145.007 138.832C145.02 138.426 145.138 138.12 145.357 137.901C145.582 137.682 145.938 137.582 146.445 137.601L151.413 137.751C151.569 137.757 151.65 137.838 151.644 138.001L151.606 139.151L150.113 139.651Z" fill="#EBEFFF"/>
<path d="M152.21 143.369L152.379 137.782L153.96 137.832L153.791 143.419L152.21 143.369Z" fill="#EBEFFF"/>
<path d="M159.66 141.2C159.66 141.119 159.66 141.032 159.654 140.944C159.648 140.857 159.641 140.776 159.635 140.707V140.638L161.204 140.688L161.122 143.431C161.116 143.575 161.054 143.644 160.923 143.638L156.717 143.513C156.304 143.5 155.948 143.438 155.661 143.325C155.373 143.213 155.142 143.056 154.967 142.857C154.792 142.657 154.667 142.425 154.598 142.144C154.523 141.869 154.492 141.563 154.505 141.225L154.542 140.076C154.555 139.738 154.605 139.432 154.692 139.163C154.78 138.895 154.917 138.663 155.105 138.476C155.292 138.288 155.529 138.151 155.823 138.051C156.117 137.957 156.473 137.913 156.886 137.926L161.066 138.051C161.216 138.057 161.285 138.132 161.285 138.288L161.247 139.494L159.766 139.988H159.704L159.723 139.451C159.723 139.401 159.704 139.376 159.654 139.369L156.986 139.288C156.829 139.282 156.704 139.294 156.598 139.319C156.492 139.344 156.404 139.388 156.336 139.457C156.267 139.526 156.217 139.613 156.179 139.732C156.148 139.844 156.123 139.988 156.117 140.157L156.086 141.138C156.073 141.475 156.129 141.713 156.254 141.85C156.379 141.988 156.592 142.063 156.892 142.069L159.541 142.15C159.598 142.15 159.629 142.125 159.629 142.063L159.66 141.2Z" fill="#EBEFFF"/>
<path d="M164.548 138.149C164.667 138.155 164.748 138.174 164.798 138.212C164.848 138.249 164.885 138.305 164.929 138.387L166.929 142.467C166.96 142.53 167.01 142.561 167.073 142.561H167.154C167.235 142.561 167.279 142.524 167.279 142.442L167.404 138.237L168.841 138.28L168.679 143.648C168.672 143.798 168.604 143.867 168.46 143.861L166.185 143.792C166.079 143.792 165.998 143.773 165.948 143.736C165.898 143.705 165.848 143.642 165.804 143.555L163.729 139.48C163.698 139.418 163.654 139.387 163.586 139.387H163.511C163.429 139.387 163.386 139.424 163.386 139.505L163.261 143.705L161.823 143.661L161.986 138.299C161.992 138.143 162.061 138.074 162.204 138.074L164.548 138.149Z" fill="#EBEFFF"/>
<path opacity="0.5" d="M159.771 109.904C159.285 115.734 157.523 119.796 155.642 122.536C153.051 126.297 150.249 127.582 150.249 127.582C147.446 126.353 145.018 124.824 142.925 123.137C134.045 115.991 131.18 106.086 130.962 105.272C134.711 114.386 140.216 119.909 144.389 123.018C147.752 125.532 150.249 126.479 150.249 126.479V123.564C149.583 123.313 148.935 123.025 148.318 122.711C140.97 118.981 137.109 111.208 135.303 106.181C135.296 106.168 135.296 106.162 135.29 106.149C134.312 103.429 133.932 101.517 133.932 101.517H135.265L134.829 102.457L134.811 102.488C135.022 103.441 135.265 104.356 135.539 105.228C135.545 105.253 135.552 105.278 135.564 105.297C139.674 118.348 150.249 122.554 150.249 122.554C157.597 117.094 157.454 108.425 157.454 108.425V107.234L158.831 107.647L159.771 109.904Z" fill="url(#paint46_linear_250_13175)"/>
<path opacity="0.3" d="M203.281 141.987C203.281 141.987 201.151 148.432 203.161 158.45C203.161 158.45 204.17 145.751 204.919 144.644C205.676 143.537 207.785 144.06 207.785 144.06C207.785 144.06 204.468 142.356 203.281 141.987Z" fill="url(#paint47_linear_250_13175)"/>
<path opacity="0.5" d="M183.991 177.655C182.188 176.121 180.024 173.56 177.867 169.366C173.552 160.982 172.316 155.384 172.116 154.408L173.14 152.874L174.512 139.976L175.793 139.231C175.793 139.231 180.372 134.316 183.849 126.896C183.901 127.009 183.958 127.184 184.023 127.435V127.441C184.725 130.121 186.167 140.157 187.507 143.739C188.344 145.974 189.664 147.207 190.636 147.846C190.636 147.846 182.709 159.279 182.323 167.437C181.982 174.863 183.682 177.28 183.991 177.655Z" fill="url(#paint48_linear_250_13175)"/>
<path opacity="0.5" d="M138.506 200.976C138.506 200.976 124.653 198.72 118.998 195.1C118.998 195.1 118.991 195.1 118.991 195.094C119.048 194.784 119.073 194.48 119.06 194.176C118.941 191.077 116.245 188.332 115.87 186.571C115.933 186.739 116.338 187.668 118.305 189.342C119.547 190.402 121.426 191.765 124.248 193.42C124.323 193.464 124.397 193.507 124.466 193.544C128.461 195.887 131.901 197.474 134.386 198.639C134.404 198.645 134.417 198.651 134.429 198.658C136.664 199.699 138.112 200.387 138.5 200.97C138.506 200.97 138.506 200.976 138.506 200.976Z" fill="url(#paint49_linear_250_13175)"/>
<path opacity="0.5" d="M168 190.002C167.926 190.577 166.71 191.84 166.363 193.218C166.363 193.218 161.313 198.98 142.621 197.209C142.745 196.641 146.672 197.463 155.779 195.497C164.607 193.592 167.808 190.209 168 190.002Z" fill="url(#paint50_linear_250_13175)"/>
<path opacity="0.5" d="M170.746 117.276L158.768 121.21L155.261 122.862L155.242 122.869L152.96 122.875L149.876 122.881L147.948 123.039L146.928 123.114L144.024 123.348L142.562 123.468L128.197 118.197L125.629 117.257L113.813 112.919C114.162 112.781 114.516 112.642 114.889 112.491C122.818 109.307 130.598 105.442 130.598 105.442L133.583 101.722H134.913C136.101 99.0862 136.891 96.621 137.401 94.679L138.191 91.0789C138.247 90.7321 138.272 90.543 138.272 90.543L142.5 92.8065L156.76 104.37C156.747 105.158 156.772 105.864 156.816 106.463L157.021 107.919C157.058 107.636 157.071 107.472 157.071 107.472L158.445 107.888L159.384 110.158C159.384 110.158 160.976 112.667 167.282 115.479C168.37 115.965 169.539 116.576 170.746 117.276Z" fill="#7A4AC0"/>
<path d="M161.892 106.292C161.892 106.292 156.28 107.554 150.087 104.555C143.894 101.555 138.689 92.7124 138.37 90.5065C138.058 88.2943 140.739 82.5326 140.739 78.0332C140.739 73.5338 138.533 65.7973 142.238 61.6104C145.95 57.4297 162.998 56.7985 168.529 62.1665C168.529 62.1665 170.241 66.466 170.241 68.8969C170.241 69.4843 170.135 70.3467 169.978 71.3403C169.928 71.709 169.86 72.1027 169.797 72.5089C169.303 75.4523 168.622 79.0455 168.941 80.6203C169.053 81.1702 169.228 81.6764 169.435 82.1576V82.1639C170.116 83.7386 171.128 84.9947 171.309 86.357C171.547 88.1381 169.16 100.768 161.892 106.292Z" fill="url(#paint51_linear_250_13175)"/>
<path d="M140.693 76.7647C140.693 76.7647 139.162 72.9215 135.313 72.8652C135.313 72.8652 133.063 73.7526 132.707 75.4711C132.707 75.4711 133.538 81.6891 134.482 84.5887C135.432 87.4883 138.9 87.0696 138.9 87.0696C138.9 87.0696 141.925 82.439 140.693 76.7647Z" fill="url(#paint52_linear_250_13175)"/>
<path d="M155.48 89.4185C155.48 89.4185 156.762 89.3185 157.311 89.7309C157.861 90.1434 159.88 92.0994 162.423 92.6306C164.967 93.1617 166.679 90.9933 167.216 90.887C167.76 90.7746 168.354 91.5432 168.354 91.5432C168.354 91.5432 168.123 90.6558 166.791 90.2559C166.791 90.2559 166.254 92.2994 162.567 91.5994C158.88 90.8995 157.305 89.2623 157.305 89.2623L157.118 88.9248C157.13 88.9248 156.087 89.1435 155.48 89.4185Z" fill="url(#paint53_linear_250_13175)"/>
<path opacity="0.6" d="M150.036 70.302L150.086 69.9083C150.086 69.9083 153.766 63.4467 161.047 63.2717C168.327 63.0967 169.97 67.6586 169.97 67.6586L171.32 65.6089L168.246 59.366L146.848 59.0098L141.637 63.2155L140.98 73.5078L143.299 87.0935L148.936 90.0994L150.529 88.6871C149.942 84.1377 146.561 79.982 146.561 79.982L149.029 78.2697C149.029 78.2697 155.366 81.338 159.022 80.4194C159.022 80.4194 161.778 72.383 161.615 66.4338C161.615 66.4213 152.235 67.8086 150.036 70.302Z" fill="url(#paint54_linear_250_13175)"/>
<path d="M149.712 70.7774C149.712 70.7774 150.068 68.4527 153.993 67.5216C158.367 66.4843 161.923 65.6094 161.923 65.6094C161.923 65.6094 161.148 68.159 159.692 69.1152C159.692 69.1152 155.061 68.9464 152.724 69.4776C150.374 70.015 149.712 70.7774 149.712 70.7774Z" fill="#38368E"/>
<path d="M169.98 67.6592C169.98 67.6592 167.761 69.3715 166.249 73.4584C166.249 73.4584 167.699 71.5649 169.03 71.5962C169.942 71.6149 169.799 72.521 169.799 72.521C169.799 72.521 170.705 70.0714 169.98 67.6592Z" fill="#38368E"/>
<path d="M151.181 77.3586C151.181 77.3586 151.418 72.4467 156.211 71.2031C156.211 71.2031 157.93 73.4216 158.105 75.94C158.105 75.94 155.561 75.4651 151.181 77.3586Z" fill="url(#paint55_linear_250_13175)"/>
<path d="M164.915 79.3135C164.915 79.3135 165.302 75.4016 167.552 73.958C167.552 73.958 169.083 75.1079 168.927 78.3824C168.921 78.3762 167.577 77.895 164.915 79.3135Z" fill="url(#paint56_linear_250_13175)"/>
<path d="M151.181 77.358C151.181 77.358 152.737 79.2703 157.099 79.6452C157.099 79.6452 157.93 78.3829 157.849 75.902C157.849 75.9082 153.843 75.527 151.181 77.358Z" fill="#FFEBED"/>
<path d="M164.915 79.3136V79.8885C164.915 79.8885 165.584 81.2884 167.996 81.5258C167.996 81.5258 168.771 80.3197 168.84 78.3575C168.833 78.3575 167.302 77.9701 164.915 79.3136Z" fill="#FFEBED"/>
<path d="M155.843 75.8076C155.843 75.8076 154.736 77.1512 154.836 79.2759C154.836 79.2759 156.286 79.6196 157.099 79.6508C157.099 79.6508 158.055 78.3198 157.849 75.9076C157.849 75.9076 156.58 75.6389 155.843 75.8076Z" fill="#7F9EC9"/>
<path d="M167.195 78.4196C167.195 78.4196 166.57 79.0883 166.451 81.1443C166.451 81.1443 167.307 81.5192 167.988 81.5192C167.988 81.5192 168.863 80.2756 168.832 78.3509C168.832 78.3571 168.22 78.1197 167.195 78.4196Z" fill="#7F9EC9"/>
<path d="M155.48 79.4202C155.48 79.4202 155.087 76.7643 156.605 75.752L157.849 75.9082C157.849 75.9082 158.261 78.0079 157.099 79.6514C157.099 79.6514 155.862 79.5077 155.48 79.4202Z" fill="#38368E"/>
<path d="M167.746 78.3077C167.746 78.3077 167.183 79.4888 166.921 81.3261C166.921 81.3261 167.352 81.501 167.99 81.526C167.99 81.526 168.839 80.4824 168.833 78.3577C168.833 78.3577 168.183 78.1827 167.746 78.3077Z" fill="#38368E"/>
<path d="M151.181 77.3576C151.181 77.3576 154.08 75.6703 159.023 76.6327L158.105 75.939C158.105 75.939 154.58 74.8454 151.181 77.3576Z" fill="#131163"/>
<path d="M164.915 79.3143C164.915 79.3143 167.24 78.0769 169.952 78.7331L168.833 77.9082C168.833 77.9082 167.015 77.627 164.915 79.3143Z" fill="#131163"/>
<path d="M154.317 77.3576C154.317 77.3576 155.105 77.1827 155.817 77.9013C155.817 77.9076 154.842 78.1888 154.317 77.3576Z" fill="white"/>
<path d="M165.978 79.6513C165.978 79.6513 167.215 79.4139 167.64 79.9763C167.646 79.9763 166.984 80.4262 165.978 79.6513Z" fill="white"/>
<path d="M151.465 77.6455C151.465 77.6455 153.721 79.8765 157.333 80.4076L157.427 79.0953L157.095 79.6515C157.095 79.6515 153.627 79.4453 151.465 77.6455Z" fill="#C6659C"/>
<path d="M164.915 79.8887C164.915 79.8887 165.315 81.3322 168.252 81.9821L168.158 81.276L167.996 81.526C167.99 81.526 165.902 81.2572 164.915 79.8887Z" fill="#C6659C"/>
<path d="M159.021 85.6505C159.021 85.6505 160.114 85.413 162.126 85.6505C164.139 85.8879 166.401 86.4379 167.638 85.6505C167.638 85.6505 165.995 87.294 164.57 87.544C163.145 87.7939 160.976 86.5441 160.976 86.5441L160.027 86.5628C160.039 86.5628 159.308 86.2004 159.021 85.6505Z" fill="#CB5F7D"/>
<path d="M160.179 86.5574C160.179 86.5574 160.672 86.2387 161.085 86.3199C161.497 86.4011 161.922 87.0011 161.922 87.0011C161.922 87.0011 161.047 86.5386 160.179 86.5574Z" fill="#9F4A8B"/>
<path d="M167.646 85.6498C168.171 85.1374 165.447 80.2881 164.147 80.1068C162.847 79.9256 161.622 85.5436 161.622 85.5436C161.622 85.5436 163.434 85.7998 165.19 86.031C166.94 86.2685 167.646 85.6498 167.646 85.6498Z" fill="#FFBCAF"/>
<path opacity="0.6" d="M169.59 70.378C168.852 70.2843 166.246 73.4526 166.246 73.4526C166.246 73.4526 164.59 78.5832 164.915 80.1017C165.24 81.6265 169.265 82.4327 169.265 82.4327L169.433 82.1639V82.1577C169.227 81.6765 169.052 81.1703 168.94 80.6204C168.621 79.0456 169.302 75.4523 169.796 72.509C169.796 72.509 169.958 71.9028 169.977 71.3404C169.996 70.8655 169.927 70.4155 169.59 70.378Z" fill="url(#paint57_linear_250_13175)"/>
<path d="M169.469 91.2125C168.638 89.4752 169.15 88.5691 161.933 87.6255C151.715 86.2819 150.84 89.4002 149.103 88.9253C149.04 88.9065 148.966 88.8815 148.897 88.8503C147.016 88.1191 142.585 83.7635 142.473 77.8955C142.354 71.7963 146.441 67.4719 146.441 67.4719C144.96 66.2283 144.366 62.6225 145.966 61.079C147.566 59.5417 150.29 59.8979 156.977 60.6041C163.67 61.3165 163.67 60.904 163.67 60.904C165.795 61.4477 167.013 63.4412 167.357 64.0786C167.426 64.2036 167.457 64.2786 167.457 64.2786L168.288 63.5099C170.538 66.7657 170.125 70.3153 170.125 70.3153C170.125 70.3153 173.793 62.8538 173.375 61.7977C172.612 59.8479 170.494 57.0045 170.363 56.8233L170.356 56.8171C170.356 56.8171 169.763 51.1366 167.988 51.1366C166.213 51.1366 158.633 52.8489 158.633 52.8489C159.464 50.8991 159.345 48.6494 159.345 48.6494C159.345 48.6494 159.333 48.6619 159.314 48.6807C156.839 50.8991 154.421 51.1428 150.996 52.7301C149.272 53.5363 148.459 54.2799 147.791 55.0548L147.559 55.3298L147.316 55.6235C147.078 55.9234 146.835 56.2297 146.541 56.5421C146.528 56.5609 146.51 56.5734 146.503 56.5796C146.491 56.5921 146.485 56.5984 146.485 56.5984C146.21 56.8983 145.885 57.2045 145.491 57.5295C143.241 59.3605 138.292 60.5853 137.698 62.5226C137.105 64.4536 138.448 67.0969 139.161 69.8216C139.867 72.5462 139.542 74.9522 139.542 74.9522C139.542 74.9522 141.898 77.9892 141.117 82.4324C140.423 86.4131 138.904 87.063 138.904 87.063C137.836 89.2565 138.342 91.3062 138.342 91.3062C140.529 100.005 149.578 105.186 149.578 105.186C157.627 108.185 162.92 106.879 162.92 106.879C162.92 106.879 162.92 106.879 162.926 106.873C168.782 103.055 170.788 90.4188 170.875 89.8314C170.775 89.9876 169.688 91.6749 169.469 91.2125ZM165.857 99.2677C164.438 99.0302 164.138 95.4369 163.67 94.962C163.195 94.4933 160.626 94.687 160.626 94.687C160.626 94.687 158.258 97.3742 157.314 97.4492C156.365 97.5304 151.315 95.4744 152.409 92.3998C153.496 89.319 157.314 88.9253 157.314 88.9253C157.314 88.9253 159.289 90.5813 162.245 90.775C165.207 90.9688 166.276 90.4251 166.626 90.2689C166.982 90.1064 168.888 90.975 168.838 93.6622C168.807 95.5307 167.282 99.5051 165.857 99.2677Z" fill="url(#paint58_linear_250_13175)"/>
<path d="M165.491 81.1816C165.491 81.1816 168.041 84.35 167.797 85.5436C167.528 86.8496 164.572 87.5433 164.572 87.5433C164.572 87.5433 166.941 86.7247 167.428 85.5436C167.434 85.5436 166.822 83.1439 165.491 81.1816Z" fill="#D2726C"/>
<path opacity="0.6" d="M170.126 70.3146C170.126 70.3146 170.539 66.7651 168.289 63.5093C170.095 60.2847 170.358 56.8164 170.358 56.8164L170.364 56.8227C170.976 58.3287 171.326 61.2596 171.326 61.2596L173.376 61.797C173.795 62.8531 170.126 70.3146 170.126 70.3146Z" fill="url(#paint59_linear_250_13175)"/>
<path opacity="0.6" d="M167.357 64.0786C167.013 63.4412 165.795 61.4477 163.67 60.904C163.67 60.904 163.67 61.3165 156.977 60.6041C150.29 59.8979 147.566 59.5417 145.966 61.079C144.366 62.6225 144.96 66.2283 146.441 67.4719C146.441 67.4719 142.354 71.7963 142.473 77.8955C142.585 83.7635 147.016 88.1191 148.897 88.8503L148.809 89.5002C148.809 89.5002 149.14 102.936 152.409 104.005C155.671 105.067 162.445 104.517 163.076 105.148C163.676 105.748 162.989 106.779 162.926 106.873C162.92 106.879 162.92 106.879 162.92 106.879C162.92 106.879 157.627 108.185 149.578 105.186C149.578 105.186 140.529 100.005 138.342 91.3062C138.342 91.3062 137.836 89.2565 138.904 87.063C138.904 87.063 140.423 86.4131 141.117 82.4324C141.898 77.9892 139.542 74.9522 139.542 74.9522C139.542 74.9522 139.867 72.5462 139.161 69.8216C138.448 67.0969 137.105 64.4536 137.698 62.5226C141.485 63.1162 143.972 61.1415 143.972 61.1415C143.972 61.1415 144.635 60.2229 147.566 59.7479C150.497 59.273 162.276 60.4603 162.276 60.4603C162.276 60.4603 161.095 59.4792 158.608 58.8293C156.258 58.2106 148.234 58.9293 147.372 58.998C148.291 58.8356 157.389 57.2733 158.427 57.5857C159.527 57.9107 163.464 59.7167 163.464 59.7167C163.107 57.9107 159.583 53.5613 159.583 53.5613C159.583 53.5613 154.609 53.6487 151.353 54.3299C148.447 54.9361 146.853 56.2671 146.541 56.5421L147.316 55.6235L147.559 55.3298L147.791 55.0548L148.928 54.8611L154.64 52.5551C156.558 51.5303 159.014 48.9931 159.314 48.6807C159.333 48.6619 159.345 48.6494 159.345 48.6494C159.345 48.6494 159.464 50.8991 158.633 52.8489C163.457 52.2552 165.088 52.5551 165.088 52.5551C167.282 55.661 167.357 64.0786 167.357 64.0786Z" fill="url(#paint60_linear_250_13175)"/>
<path opacity="0.5" d="M149.581 105.185C149.581 105.185 152.537 104.485 156.999 104.667C161.461 104.848 164.029 104.867 162.923 106.879C162.923 106.879 157.318 108.147 149.581 105.185Z" fill="url(#paint61_linear_250_13175)"/>
<path d="M165.088 52.5545C165.088 52.5545 167.8 51.4984 168.875 51.6671C168.875 51.6671 168.45 51.0985 168.007 50.9797C167.563 50.861 158.633 52.842 158.633 52.842C158.633 52.842 164.201 52.1983 165.088 52.5545Z" fill="url(#paint62_linear_250_13175)"/>
<path d="M159.583 53.5603C159.583 53.5603 159.371 56.5162 158.427 57.5848L147.372 58.9971L144.129 58.4222C144.129 58.4222 145.385 57.8847 146.766 56.2787C148.141 54.6664 155.352 53.0854 159.583 53.5603Z" fill="url(#paint63_linear_250_13175)"/>
<path d="M170.359 56.8164C170.359 56.8164 171.259 59.7223 171.328 61.2596L173.378 61.797C173.378 61.797 172.753 59.5973 170.359 56.8164Z" fill="url(#paint64_linear_250_13175)"/>
<path opacity="0.8" d="M140.24 81.976C140.24 81.976 139.465 78.2452 137.559 76.4017C135.653 74.5582 133.484 75.1456 133.484 75.1456C133.484 75.1456 134.078 82.0635 134.697 83.7507C135.315 85.438 136.265 85.8817 136.265 85.8817C136.265 85.8817 134.934 84.7131 134.753 82.4259C134.578 80.1387 134.516 76.9142 135.022 76.5267C135.528 76.1393 137.559 77.6453 137.559 77.6453C137.559 77.6453 136.915 78.4327 136.534 80.4699C136.147 82.5072 137.571 83.9882 138.103 83.957C138.634 83.9257 138.071 81.601 138.159 80.9261C138.246 80.2637 139.427 80.4074 140.24 81.976Z" fill="url(#paint65_linear_250_13175)"/>
<path opacity="0.8" d="M138.33 77.3457C138.33 77.3457 136.249 78.7143 136.474 81.5139C136.699 84.3198 138.299 84.1948 138.305 83.6074C138.311 83.0199 137.999 81.5014 138.161 80.6453C138.324 79.7891 139.705 80.1766 139.705 80.1766C139.705 80.1766 138.805 77.9519 138.33 77.3457Z" fill="url(#paint66_linear_250_13175)"/>
<path d="M170.875 89.8311C170.875 89.8311 168.288 101.623 162.92 106.879C162.92 106.879 169.044 104.473 170.875 89.8311Z" fill="#34C7FF"/>
<path d="M168.009 50.9873C168.009 50.9873 169.371 52.0497 169.634 55.7304C169.89 59.4174 168.296 63.5106 168.296 63.5106C168.296 63.5106 170.346 60.4485 170.546 57.0927C170.733 53.7369 169.09 51.4122 168.009 50.9873Z" fill="#34C7FF"/>
<path d="M151.54 58.4946C151.54 58.4946 154.749 59.6367 158.27 59.9621C161.79 60.2875 162.515 60.3605 162.515 60.3605C162.515 60.3605 161.098 58.9262 158.086 58.4946C155.073 58.0629 151.54 58.4946 151.54 58.4946Z" fill="url(#paint67_linear_250_13175)"/>
<path d="M166.656 89.872C166.656 89.872 168.24 89.872 168.862 91.7977C169.359 93.3358 169.497 94.6577 169.497 94.6577L170.06 92.5477C170.06 92.5477 169.326 89.872 168.567 89.2682C168.017 88.8361 167.075 88.3975 166.63 88.4992L166.656 89.872Z" fill="url(#paint68_linear_250_13175)"/>
<path d="M162.515 88.4878L162.764 90.5234C162.764 90.5234 164.548 90.6591 165.732 90.2011L165.944 88.9684C165.944 88.9684 163.668 88.4369 162.515 88.4878Z" fill="url(#paint69_linear_250_13175)"/>
<path d="M170.744 117.294C170.744 117.294 181.815 125.14 183.248 127.841C184.688 130.542 185.266 139.006 187.206 142.673C187.206 142.673 185.876 136.679 184.945 131.983C184.013 127.286 184.238 127.217 183.717 126.064C183.21 124.91 174.94 119.34 170.744 117.294Z" fill="#34C7FF"/>
<path d="M168.84 161.193C168.84 161.193 163.663 183.294 163.894 184.787C164.131 186.279 167.48 189.326 167.636 190.16C167.636 190.16 165.073 193.58 165.191 194.338C165.31 195.097 169.682 199.885 169.563 201.372C169.532 201.801 166.694 206.465 166.694 206.465C166.694 206.465 169.9 201.882 170.056 201.148C170.212 200.414 166.127 194.289 166.008 193.667C165.697 192.056 168.048 190.868 168.122 189.811C168.204 188.748 164.948 186.161 164.917 184.432C164.904 182.71 168.84 161.193 168.84 161.193Z" fill="#34C7FF"/>
<path d="M170.06 214.01C170.06 214.01 181.313 239.386 185.15 264.768C185.15 264.768 184.511 239.998 170.06 214.01Z" fill="#34C7FF"/>
<path d="M99.2915 112.493C99.2915 112.493 96.4476 111.857 95.2647 109.257C94.0818 106.658 94.8541 102.89 94.8541 102.89C94.8541 102.89 97.085 107.37 98.1944 108.898C99.3037 110.426 99.604 112.165 99.2915 112.493Z" fill="#FFBCAF"/>
<path opacity="0.6" d="M188.62 98.9357L190.632 156.303C190.714 158.578 192.582 160.384 194.857 160.384H293.675C295.968 160.384 297.843 158.553 297.899 156.259L299.28 98.2233C299.337 95.8361 297.412 93.8801 295.025 93.8926L192.813 94.5613C190.432 94.5738 188.533 96.5548 188.62 98.9357Z" fill="#36D1F7"/>
<path d="M293.673 160.533H194.855C192.48 160.533 190.555 158.677 190.474 156.302L188.462 98.935C188.418 97.7415 188.849 96.6104 189.681 95.748C190.505 94.8856 191.618 94.4044 192.818 94.3982L295.035 93.7295C296.223 93.7357 297.354 94.1857 298.191 95.0418C299.029 95.898 299.478 97.0228 299.447 98.2164L298.066 156.252C297.997 158.652 296.073 160.533 293.673 160.533ZM295.054 94.042C295.048 94.042 295.035 94.042 295.029 94.042L192.811 94.7106C191.699 94.7169 190.668 95.1606 189.899 95.9604C189.131 96.7603 188.731 97.8102 188.768 98.9226L190.78 156.29C190.855 158.496 192.643 160.221 194.849 160.221H293.667C295.86 160.221 297.685 158.44 297.735 156.246L299.116 98.2101C299.141 97.0978 298.729 96.0542 297.947 95.2605C297.185 94.4731 296.16 94.042 295.054 94.042Z" fill="#744CA2"/>
<path opacity="0.6" d="M188.764 101.853H299.162L299.337 98.8286C299.493 96.1539 297.356 93.9042 294.675 93.923L192.501 94.7291C190.371 94.7479 188.658 96.5039 188.702 98.6348L188.764 101.853Z" fill="url(#paint70_linear_250_13175)"/>
<path opacity="0.3" d="M194.32 106.485V139.68H228.11V106.31L194.32 106.485Z" fill="url(#paint71_linear_250_13175)"/>
<path opacity="0.3" d="M275.467 108.709H260.769V123.407H275.467V108.709Z" fill="url(#paint72_linear_250_13175)"/>
<path opacity="0.3" d="M292.806 108.709H278.108V123.407H292.806V108.709Z" fill="url(#paint73_linear_250_13175)"/>
<path opacity="0.3" d="M257.827 108.709H243.129V123.407H257.827V108.709Z" fill="url(#paint74_linear_250_13175)"/>
<path d="M292.806 131.981H255.217V135.5H292.806V131.981Z" fill="#D1D4FB"/>
<path d="M292.816 137.336H245.822V138.423H292.816V137.336Z" fill="#D1D4FB"/>
<path d="M255.254 125.282H246.262V126.37H255.254V125.282Z" fill="#D1D4FB"/>
<path d="M272.616 125.282H263.623V126.37H272.616V125.282Z" fill="#D1D4FB"/>
<path d="M289.957 125.282H280.965V126.37H289.957V125.282Z" fill="#D1D4FB"/>
<path d="M258.246 139.111H243.129V140.199H258.246V139.111Z" fill="#D1D4FB"/>
<path d="M292.816 140.861H245.822V141.949H292.816V140.861Z" fill="#D1D4FB"/>
<path d="M292.804 142.61H243.129V143.698H292.804V142.61Z" fill="#D1D4FB"/>
<path d="M292.804 144.36H243.129V145.448H292.804V144.36Z" fill="#D1D4FB"/>
<path d="M292.816 151.436H245.822V152.523H292.816V151.436Z" fill="#D1D4FB"/>
<path d="M292.804 153.185H243.129V154.272H292.804V153.185Z" fill="#D1D4FB"/>
<path d="M292.804 154.935H243.129V156.022H292.804V154.935Z" fill="#D1D4FB"/>
<path d="M290.81 146.11H243.129V147.198H290.81V146.11Z" fill="#D1D4FB"/>
<path d="M292.816 147.86H245.822V148.948H292.816V147.86Z" fill="#D1D4FB"/>
<path d="M283.38 149.61H243.129V150.698H283.38V149.61Z" fill="#D1D4FB"/>
<path d="M203.788 133.024C198.489 133.024 194.177 128.712 194.177 123.413C194.177 118.114 198.489 113.802 203.788 113.802C209.087 113.802 213.399 118.114 213.399 123.413C213.399 128.712 209.087 133.024 203.788 133.024ZM203.788 114.42C198.832 114.42 194.802 118.451 194.802 123.407C194.802 128.362 198.832 132.393 203.788 132.393C208.744 132.393 212.774 128.362 212.774 123.407C212.774 118.451 208.744 114.42 203.788 114.42Z" fill="#E0FFFF"/>
<path d="M203.786 128.631C206.671 128.631 209.01 126.292 209.01 123.407C209.01 120.522 206.671 118.183 203.786 118.183C200.901 118.183 198.562 120.522 198.562 123.407C198.562 126.292 200.901 128.631 203.786 128.631Z" fill="white"/>
<path d="M228.108 115.922C222.809 115.922 218.497 111.61 218.497 106.31C218.497 101.011 222.809 96.6992 228.108 96.6992C233.408 96.6992 237.72 101.011 237.72 106.31C237.726 111.61 233.408 115.922 228.108 115.922ZM228.108 97.3179C223.153 97.3179 219.122 101.349 219.122 106.304C219.122 111.26 223.153 115.29 228.108 115.29C233.064 115.29 237.095 111.26 237.095 106.304C237.101 101.355 233.064 97.3179 228.108 97.3179Z" fill="#E0FFFF"/>
<path d="M232.956 107.082C233.378 104.399 231.545 101.881 228.862 101.459C226.179 101.037 223.662 102.87 223.24 105.553C222.818 108.236 224.651 110.753 227.334 111.175C230.017 111.597 232.534 109.765 232.956 107.082Z" fill="white"/>
<path d="M192.629 97.3485L193.335 96.2861L197.135 99.6107L196.547 100.423L192.629 97.3485Z" fill="white"/>
<path d="M197.232 97.3485L196.532 96.2861L192.732 99.6107L193.314 100.423L197.232 97.3485Z" fill="white"/>
<path d="M296.493 97.0049H262.473V98.7109H296.493V97.0049Z" fill="white"/>
<path d="M83.4453 72.3769V87.1437L101.105 87.2936L101.343 71.9082L83.4453 72.3769Z" fill="url(#paint75_linear_250_13175)"/>
<path d="M101.343 71.9082L102.493 73.8454L101.918 87.2749L101.105 87.2936L101.343 71.9082Z" fill="url(#paint76_linear_250_13175)"/>
<path d="M86.6016 77.3636L88.2326 74.9951L97.0439 82.3941L95.6941 84.2001L86.6016 77.3636Z" fill="white"/>
<path d="M97.2758 77.3636L95.6447 74.9951L86.8271 82.3941L88.177 84.2001L97.2758 77.3636Z" fill="white"/>
<path opacity="0.81" d="M124.638 246.14H64.2145C61.5274 246.14 59.3277 243.991 59.2652 241.304L58.1341 191.742C58.0716 188.967 60.3026 186.68 63.0834 186.68H125.994C128.781 186.68 131.018 188.979 130.943 191.767L129.581 241.329C129.512 244.01 127.319 246.14 124.638 246.14Z" fill="url(#paint77_linear_250_13175)"/>
<path d="M124.633 246.297H64.2097C61.46 246.297 59.1666 244.06 59.1041 241.31L57.973 191.748C57.9418 190.36 58.4604 189.054 59.4291 188.061C60.3977 187.073 61.6913 186.523 63.0786 186.523H125.989C127.376 186.523 128.676 187.073 129.645 188.067C130.613 189.061 131.126 190.379 131.088 191.766L129.726 241.329C129.657 244.116 127.42 246.297 124.633 246.297ZM63.0848 186.842C61.785 186.842 60.5664 187.355 59.6603 188.286C58.7479 189.217 58.2667 190.448 58.298 191.748L59.4291 241.31C59.4853 243.891 61.635 245.99 64.2222 245.99H124.645C127.258 245.99 129.363 243.941 129.438 241.329L130.801 191.766C130.838 190.46 130.357 189.229 129.445 188.292C128.532 187.355 127.314 186.842 126.008 186.842H63.0848Z" fill="#473DA2"/>
<path d="M106.199 196.822H74.4219V198.185H106.199V196.822Z" fill="white"/>
<path d="M90.3073 200.128H74.4219V201.49H90.3073V200.128Z" fill="white"/>
<path d="M90.3073 202.896H74.4219V204.258H90.3073V202.896Z" fill="white"/>
<path d="M104.737 202.896H92.0947V204.258H104.737V202.896Z" fill="white"/>
<path d="M100.037 205.658H74.4219V207.021H100.037V205.658Z" fill="white"/>
<path d="M83.5394 208.42H74.4219V209.782H83.5394V208.42Z" fill="white"/>
<path d="M101.181 216.707H85.4141V218.069H101.181V216.707Z" fill="white"/>
<path d="M102.999 211.183H74.4219V212.545H102.999V211.183Z" fill="white"/>
<path d="M96.4064 213.945H74.4219V215.308H96.4064V213.945Z" fill="white"/>
<path d="M84.7642 216.707H74.4219V218.069H84.7642V216.707Z" fill="white"/>
<path d="M90.3073 219.469H74.4219V220.831H90.3073V219.469Z" fill="white"/>
<path d="M78.9775 222.231H74.4219V223.594H78.9775V222.231Z" fill="white"/>
<path d="M97.3956 222.231H80.8604V223.594H97.3956V222.231Z" fill="white"/>
<path d="M101.181 224.912H85.4141V226.274H101.181V224.912Z" fill="white"/>
<path d="M84.7642 224.912H74.4219V226.274H84.7642V224.912Z" fill="white"/>
<path d="M90.3073 227.675H74.4219V229.037H90.3073V227.675Z" fill="white"/>
<path d="M78.9775 230.437H74.4219V231.799H78.9775V230.437Z" fill="white"/>
<path d="M97.3956 230.437H80.8604V231.799H97.3956V230.437Z" fill="white"/>
<path d="M286.666 82.9976C286.666 84.5137 285.439 85.7413 283.922 85.7413C282.406 85.7413 281.179 84.5137 281.179 82.9976C281.179 81.4815 282.406 80.2539 283.922 80.2539C285.439 80.2539 286.666 81.4815 286.666 82.9976Z" fill="url(#paint78_linear_250_13175)"/>
<path d="M25.3274 147.475C25.3274 149.368 23.6379 150.904 21.5548 150.904C19.4718 150.904 17.7822 149.368 17.7822 147.475C17.7822 145.581 19.4718 144.045 21.5548 144.045C23.6379 144.045 25.3274 145.581 25.3274 147.475Z" fill="url(#paint79_linear_250_13175)"/>
<path d="M292.156 85.7413C293.671 85.7413 294.9 84.5129 294.9 82.9976C294.9 81.4823 293.671 80.2539 292.156 80.2539C290.64 80.2539 289.412 81.4823 289.412 82.9976C289.412 84.5129 290.64 85.7413 292.156 85.7413Z" fill="url(#paint80_linear_250_13175)"/>
<path d="M112.101 104.261C113.048 104.261 113.815 103.34 113.815 102.203C113.815 101.067 113.048 100.146 112.101 100.146C111.153 100.146 110.386 101.067 110.386 102.203C110.386 103.34 111.153 104.261 112.101 104.261Z" fill="url(#paint81_linear_250_13175)"/>
<path d="M244.14 191.374C245.276 191.374 246.198 190.453 246.198 189.317C246.198 188.18 245.276 187.259 244.14 187.259C243.003 187.259 242.082 188.18 242.082 189.317C242.082 190.453 243.003 191.374 244.14 191.374Z" fill="url(#paint82_linear_250_13175)"/>
<path d="M39.047 210.58C40.1835 210.58 41.1048 209.812 41.1048 208.865C41.1048 207.918 40.1835 207.15 39.047 207.15C37.9106 207.15 36.9893 207.918 36.9893 208.865C36.9893 209.812 37.9106 210.58 39.047 210.58Z" fill="url(#paint83_linear_250_13175)"/>
<path opacity="0.73" d="M69.1546 191.517H38.6586C36.2027 191.517 34.1905 189.574 34.1092 187.118L33.4343 167.058C33.3468 164.484 35.4091 162.353 37.9837 162.353H69.767C72.3354 162.353 74.3976 164.477 74.3164 167.046L73.7039 187.105C73.629 189.561 71.6167 191.517 69.1546 191.517Z" fill="url(#paint84_linear_250_13175)"/>
<path d="M69.1537 191.674H38.6578C36.1081 191.674 34.0396 189.674 33.9521 187.124L33.2772 167.064C33.2335 165.777 33.7022 164.558 34.5958 163.634C35.4894 162.709 36.6955 162.196 37.9828 162.196H69.7661C71.0534 162.196 72.2533 162.702 73.1469 163.627C74.0405 164.552 74.5155 165.765 74.4717 167.052L73.8593 187.112C73.7843 189.668 71.7158 191.674 69.1537 191.674ZM37.9828 162.515C36.783 162.515 35.6582 162.99 34.8208 163.852C33.9834 164.715 33.5459 165.852 33.5897 167.058L34.2646 187.118C34.3458 189.499 36.2768 191.367 38.6578 191.367H69.1537C71.5409 191.367 73.4719 189.493 73.5468 187.105L74.1593 167.046C74.1968 165.846 73.7531 164.715 72.9219 163.852C72.0845 162.99 70.9659 162.515 69.7661 162.515H37.9828Z" fill="#953DA2"/>
<path d="M46.7883 169.563L39.2705 178.281L46.932 184.78V181.424L42.5013 177.587L46.6133 172.938L46.7883 169.563Z" fill="white"/>
<path d="M60.0066 169.958L67.5306 178.669L59.8691 185.168V181.819L64.2997 177.982L59.3691 172.764L60.0066 169.958Z" fill="white"/>
<path d="M48.4346 184.78L54.9837 170.345H58.0645L50.6405 184.78H48.4346Z" fill="white"/>
<path opacity="0.73" d="M274.339 232.793H236.188C233.119 232.793 230.601 230.362 230.495 227.294L229.645 202.203C229.539 198.985 232.113 196.316 235.338 196.316H275.101C278.313 196.316 280.888 198.972 280.794 202.184L280.026 227.275C279.938 230.349 277.42 232.793 274.339 232.793Z" fill="url(#paint85_linear_250_13175)"/>
<path d="M274.34 232.95H236.189C233.015 232.95 230.452 230.469 230.34 227.3L229.49 202.21C229.434 200.61 230.021 199.098 231.134 197.948C232.246 196.798 233.739 196.167 235.339 196.167H275.103C276.696 196.167 278.19 196.798 279.302 197.942C280.414 199.085 281.002 200.598 280.952 202.191L280.19 227.282C280.09 230.456 277.521 232.95 274.34 232.95ZM235.346 196.473C233.833 196.473 232.415 197.073 231.365 198.16C230.315 199.248 229.759 200.685 229.809 202.197L230.659 227.288C230.759 230.287 233.19 232.637 236.195 232.637H274.347C277.359 232.637 279.79 230.281 279.883 227.269L280.652 202.179C280.696 200.666 280.146 199.235 279.09 198.154C278.04 197.067 276.627 196.473 275.115 196.473H235.346Z" fill="#953DA2"/>
<path d="M272.239 200.354H237.3V221.107H272.239V200.354Z" fill="#D1D4FB"/>
<path d="M251.674 205.503V215.958L260.604 210.252L251.674 205.503Z" fill="white"/>
<path d="M272.239 224.932H237.3V226.831H272.239V224.932Z" fill="#D1D4FB"/>
<path d="M246.342 224.932H237.3V226.831H246.342V224.932Z" fill="white"/>
<path fill-rule="evenodd" clip-rule="evenodd" d="M211.7 193.8L209.876 199.018C210.888 196.131 212.338 194.262 211.7 193.8ZM209.882 199.012L208.057 204.23C208.513 204.092 208.87 201.899 209.882 199.012ZM211.7 193.8L209.876 199.018C210.888 196.131 212.338 194.262 211.7 193.8ZM209.882 199.012L208.057 204.23C208.513 204.092 208.87 201.899 209.882 199.012ZM215.144 203.536L216.912 204.542L218.825 199.324L216.775 198.98C216.812 198.787 216.85 198.593 216.875 198.399C217.025 197.505 217.075 196.631 217.05 195.799L219.193 194.456L218.218 189.857L216.162 191.819C215.875 191.231 215.525 190.719 215.113 190.288C215 190.163 214.881 190.05 214.756 189.944L216.012 187.044L212.669 185.957L211.869 188.882C211.119 188.882 210.363 189.069 209.607 189.413L209.238 186.651L205.558 189.438L206.407 191.887C205.745 192.644 205.139 193.519 204.614 194.5L202.839 193.5L200.927 198.718L202.977 199.062C202.758 200.161 202.677 201.23 202.708 202.242L200.564 203.586L201.539 208.185L203.595 206.223C203.964 206.973 204.433 207.61 205.001 208.098L203.745 211.004L207.032 212.285L207.539 210.435L207.882 209.173C208.632 209.173 209.395 208.985 210.151 208.648L210.513 211.41L214.194 208.623L213.344 206.173C213.863 205.579 214.35 204.911 214.794 204.173C214.919 203.948 215.031 203.742 215.144 203.536ZM209.882 199.012C208.87 201.892 209.882 204.867 208.057 204.23C206.226 203.586 205.558 200.73 206.57 197.855C207.582 194.975 209.882 193.162 211.707 193.8C213.538 194.437 210.888 196.131 209.882 199.012ZM211.7 193.8L209.876 199.018C210.888 196.131 212.338 194.262 211.7 193.8ZM209.882 199.012L208.057 204.23C208.513 204.092 208.87 201.899 209.882 199.012Z" fill="url(#paint86_linear_250_13175)"/>
<path fill-rule="evenodd" clip-rule="evenodd" d="M216.92 204.535L218.832 199.317L216.882 198.392L216.57 198.242L216.776 195.368L218.938 194.312L218.226 189.85L213.508 188.312L214.376 190.381L216.02 187.031L212.676 185.944L211.302 185.494L208.008 184.213L207.396 186.463L204.527 185.1L200.847 187.887L201.965 190.9L198.522 200.436L196.822 206.629L200.091 206.985L199.028 209.441L202.322 210.722L207.033 212.259L206.277 210.747L205.802 209.841L207.546 210.409L210.52 211.378L214.201 208.591L211.927 205.91L214.801 204.141L216.92 204.535ZM206.565 197.855C207.577 194.974 209.877 193.162 211.702 193.799L209.877 199.017L208.052 204.235C206.221 203.585 205.552 200.729 206.565 197.855Z" fill="url(#paint87_linear_250_13175)"/>
<path fill-rule="evenodd" clip-rule="evenodd" d="M212.201 202.998L214.114 197.78L212.064 197.436C212.283 196.336 212.364 195.268 212.339 194.262L214.482 192.918L213.507 188.319L211.451 190.281C211.089 189.531 210.614 188.894 210.045 188.406L211.301 185.507L208.008 184.226L207.158 187.344C206.408 187.35 205.646 187.531 204.896 187.869L204.534 185.107L200.853 187.888L201.703 190.337C201.04 191.093 200.434 191.975 199.909 192.956L198.134 191.956L196.222 197.174L198.272 197.518C198.053 198.617 197.972 199.686 197.997 200.692L195.854 202.036L196.828 206.635L198.884 204.673C199.247 205.423 199.722 206.06 200.29 206.548L199.034 209.447L202.328 210.728L203.178 207.61C203.927 207.604 204.69 207.422 205.44 207.085L205.802 209.847L209.483 207.066L208.633 204.617C209.295 203.86 209.902 202.979 210.427 201.998L212.201 202.998ZM203.334 202.692C201.503 202.048 200.84 199.199 201.846 196.318C202.853 193.437 205.159 191.625 206.99 192.262C208.821 192.906 209.483 195.755 208.477 198.636C207.471 201.517 205.165 203.329 203.334 202.692Z" fill="url(#paint88_linear_250_13175)"/>
<path opacity="0.5" fill-rule="evenodd" clip-rule="evenodd" d="M219.19 194.449L214.478 192.918L212.335 194.262L217.047 195.793L219.19 194.449Z" fill="#601734"/>
<path fill-rule="evenodd" clip-rule="evenodd" d="M214.199 208.598L209.481 207.061L208.631 204.617L213.349 206.154L214.199 208.598Z" fill="#B3D9FF"/>
<path opacity="0.5" fill-rule="evenodd" clip-rule="evenodd" d="M210.034 188.405L212.621 189.155L213.496 188.318L215.215 188.874L216.008 187.037L211.297 185.506L210.034 188.405Z" fill="#601734"/>
<path opacity="0.5" fill-rule="evenodd" clip-rule="evenodd" d="M203.17 207.616L205.638 208.641L205.432 207.085C205.438 207.085 204.107 207.791 203.17 207.616Z" fill="#601734"/>
<path opacity="0.5" fill-rule="evenodd" clip-rule="evenodd" d="M203.552 193.473L207.707 195.673C207.707 195.673 208.307 194.867 208.776 194.542C208.782 194.542 207.695 189.955 203.552 193.473Z" fill="#601734"/>
<path d="M107.906 37.7256L111.755 46.0633L109.185 47.3286L105.582 39.6721L107.906 37.7256Z" fill="#FF1D9C"/>
<path d="M17.7822 225.062L21.7236 229.1L23.2697 227.434L19.5472 223.612L17.7822 225.062Z" fill="#6877FF"/>
<path d="M206.411 86.7883L202.491 89.171L200.924 86.1844L205.212 83.6836L206.411 86.7883Z" fill="#4F31E0"/>
<path d="M224.932 230.588L219.573 234.587L218.072 231.606L223.275 228.414L224.932 230.588Z" fill="#4F31E0"/>
<path fill-rule="evenodd" clip-rule="evenodd" d="M217.727 67.4898L216.821 46.4551H244.361L243.23 67.4273L217.727 67.4898Z" fill="url(#paint89_linear_250_13175)"/>
<path fill-rule="evenodd" clip-rule="evenodd" d="M216.822 46.4551L215.997 47.6924L216.822 67.4898H217.728L216.822 46.4551Z" fill="url(#paint90_linear_250_13175)"/>
<path d="M225.964 50.6548L221.646 50.1924L222.233 64.603L225.964 64.2405V62.747L223.801 62.797L223.558 51.6859L225.964 51.7547V50.6548Z" fill="white"/>
<path d="M234.818 50.6548L239.137 50.1924L238.543 64.603L234.818 64.2405V62.747L236.974 62.797L237.224 51.6859L234.818 51.7547V50.6548Z" fill="white"/>
<path fill-rule="evenodd" clip-rule="evenodd" d="M27.8257 113.533L28.4444 99.1914H9.67188L10.4405 113.49L27.8257 113.533Z" fill="url(#paint91_linear_250_13175)"/>
<path fill-rule="evenodd" clip-rule="evenodd" d="M28.4458 99.1914L29.0082 100.041L28.4458 113.533H27.8271L28.4458 99.1914Z" fill="url(#paint92_linear_250_13175)"/>
<path d="M21.2156 102.078C21.2156 102.078 23.2716 101.997 23.6403 102.166C24.0027 102.334 23.5465 105.69 23.5465 105.69L24.3652 106.446L23.5965 107.19C23.5965 107.19 23.634 110.59 23.1528 110.871C22.6654 111.152 21.0156 110.871 21.0156 110.871V110.021C21.0156 110.021 22.3654 110.108 22.5904 109.927C22.8154 109.746 22.7904 106.778 22.7904 106.778L23.1528 106.378L22.7904 105.946C22.7904 105.946 22.8591 103.828 22.8154 103.247C22.7904 102.859 21.2156 102.841 21.2156 102.841V102.078Z" fill="white"/>
<path d="M16.4933 102.078C16.4933 102.078 14.4374 101.997 14.0687 102.166C13.7062 102.334 14.1624 105.69 14.1624 105.69L13.3438 106.446L14.1124 107.19C14.1124 107.19 14.0749 110.59 14.5561 110.871C15.0373 111.152 16.6933 110.871 16.6933 110.871V110.021C16.6933 110.021 15.3435 110.108 15.1185 109.927C14.8935 109.746 14.9185 106.778 14.9185 106.778L14.5561 106.378L14.9185 105.946C14.9185 105.946 14.8498 103.828 14.8935 103.247C14.9185 102.859 16.4933 102.841 16.4933 102.841V102.078Z" fill="white"/>
<path d="M186.248 69.3839L181.648 57.3418L193.578 59.8352L186.248 69.3839ZM182.142 57.7667L186.342 68.7528L193.028 60.0414L182.142 57.7667Z" fill="#744CA2"/>
<path d="M223.005 234.412L218.963 239.926L219.215 240.111L223.257 234.597L223.005 234.412Z" fill="#744CA2"/>
<path d="M181.286 189.261L176.942 183.856L177.186 183.662L181.529 189.068L181.286 189.261Z" fill="#744CA2"/>
<path d="M47.3473 227.206L38.6797 220.919L38.8609 220.669L47.5285 226.956L47.3473 227.206Z" fill="#744CA2"/>
<path d="M46.2303 219.594L39.7432 228.109L39.9917 228.299L46.4788 219.783L46.2303 219.594Z" fill="#744CA2"/>
<path d="M27.8934 131.801L27.748 132.077L33.3573 135.024L33.5026 134.748L27.8934 131.801Z" fill="#744CA2"/>
<path d="M248.859 59.4105L248.628 59.2043L255.108 51.8115L255.34 52.0177L248.859 59.4105Z" fill="#744CA2"/>
<path d="M122.958 77.2905L122.679 77.4297L125.576 83.254L125.856 83.1148L122.958 77.2905Z" fill="#744CA2"/>
<path d="M84.2825 175.289L76.834 181.52L77.0345 181.759L84.4829 175.528L84.2825 175.289Z" fill="#744CA2"/>
<defs>
<linearGradient id="paint0_linear_250_13175" x1="73.9363" y1="167.216" x2="55.1049" y2="126.911" gradientUnits="userSpaceOnUse">
<stop stop-color="#DBCCFF"/>
<stop offset="1" stop-color="#D1BBFF"/>
</linearGradient>
<linearGradient id="paint1_linear_250_13175" x1="74.6689" y1="168.789" x2="55.8375" y2="128.484" gradientUnits="userSpaceOnUse">
<stop stop-color="#B5A6E7"/>
<stop offset="1" stop-color="#7760BF"/>
</linearGradient>
<linearGradient id="paint2_linear_250_13175" x1="69.9889" y1="158.768" x2="62.0512" y2="141.779" gradientUnits="userSpaceOnUse">
<stop stop-color="#B5A6E7"/>
<stop offset="1" stop-color="#7760BF"/>
</linearGradient>
<linearGradient id="paint3_linear_250_13175" x1="59.7991" y1="143.245" x2="64.621" y2="140.993" gradientUnits="userSpaceOnUse">
<stop stop-color="#8B8BE0"/>
<stop offset="1" stop-color="#A177B7"/>
</linearGradient>
<linearGradient id="paint4_linear_250_13175" x1="62.7306" y1="143.24" x2="61.3669" y2="140.321" gradientUnits="userSpaceOnUse">
<stop stop-color="white"/>
<stop offset="1" stop-color="#A177B7"/>
</linearGradient>
<linearGradient id="paint5_linear_250_13175" x1="73.3501" y1="159.312" x2="64.5994" y2="140.583" gradientUnits="userSpaceOnUse">
<stop/>
<stop offset="1" stop-color="white"/>
</linearGradient>
<linearGradient id="paint6_linear_250_13175" x1="143.995" y1="264.768" x2="143.995" y2="209.208" gradientUnits="userSpaceOnUse">
<stop stop-color="#6456C0"/>
<stop offset="1" stop-color="#5F2C95"/>
</linearGradient>
<radialGradient id="paint7_radial_250_13175" cx="0" cy="0" r="1" gradientUnits="userSpaceOnUse" gradientTransform="translate(116.896 244.877) rotate(12.9278) scale(11.1808 28.7535)">
<stop stop-color="#4B474B"/>
<stop offset="1"/>
</radialGradient>
<radialGradient id="paint8_radial_250_13175" cx="0" cy="0" r="1" gradientUnits="userSpaceOnUse" gradientTransform="translate(169.03 244.535) rotate(-15.4588) scale(11.2398 28.7055)">
<stop stop-color="#4B474B"/>
<stop offset="1"/>
</radialGradient>
<linearGradient id="paint9_linear_250_13175" x1="125.988" y1="245.204" x2="140.61" y2="245.204" gradientUnits="userSpaceOnUse">
<stop stop-color="#9E8CEF"/>
<stop offset="1" stop-color="#CAAFEE"/>
</linearGradient>
<linearGradient id="paint10_linear_250_13175" x1="160.155" y1="245.205" x2="145.532" y2="245.205" gradientUnits="userSpaceOnUse">
<stop stop-color="#9E8CEF"/>
<stop offset="1" stop-color="#CAAFEE"/>
</linearGradient>
<linearGradient id="paint11_linear_250_13175" x1="141.936" y1="264.768" x2="141.936" y2="209.208" gradientUnits="userSpaceOnUse">
<stop stop-color="#CCCCFF"/>
<stop offset="1" stop-color="#755CBB"/>
</linearGradient>
<linearGradient id="paint12_linear_250_13175" x1="148.453" y1="236.648" x2="148.453" y2="221.557" gradientUnits="userSpaceOnUse">
<stop stop-color="#CCCCFF"/>
<stop offset="1" stop-color="#755CBB"/>
</linearGradient>
<linearGradient id="paint13_linear_250_13175" x1="130.96" y1="231.157" x2="130.96" y2="216.753" gradientUnits="userSpaceOnUse">
<stop stop-color="#CCCCFF"/>
<stop offset="1" stop-color="#755CBB"/>
</linearGradient>
<linearGradient id="paint14_linear_250_13175" x1="146.05" y1="124.839" x2="146.05" y2="102.89" gradientUnits="userSpaceOnUse">
<stop stop-color="#D5CDF8"/>
<stop offset="1" stop-color="#F3EDFB"/>
</linearGradient>
<linearGradient id="paint15_linear_250_13175" x1="134.39" y1="113.865" x2="157.711" y2="113.865" gradientUnits="userSpaceOnUse">
<stop stop-color="#CCCCFF"/>
<stop offset="1" stop-color="#755CBB"/>
</linearGradient>
<linearGradient id="paint16_linear_250_13175" x1="139.536" y1="214.009" x2="139.536" y2="101.517" gradientUnits="userSpaceOnUse">
<stop stop-color="#9E8CEF"/>
<stop offset="1" stop-color="#CAAFEE"/>
</linearGradient>
<linearGradient id="paint17_linear_250_13175" x1="93.2354" y1="144.045" x2="119.987" y2="144.045" gradientUnits="userSpaceOnUse">
<stop stop-color="#CCCCFF"/>
<stop offset="1" stop-color="#755CBB"/>
</linearGradient>
<linearGradient id="paint18_linear_250_13175" x1="92.2077" y1="175.597" x2="92.2077" y2="122.78" gradientUnits="userSpaceOnUse">
<stop stop-color="#9E8CEF"/>
<stop offset="1" stop-color="#DAC7F3"/>
</linearGradient>
<linearGradient id="paint19_linear_250_13175" x1="182.406" y1="160.507" x2="217.389" y2="160.507" gradientUnits="userSpaceOnUse">
<stop stop-color="#A999F1"/>
<stop offset="1" stop-color="#DAC7F3"/>
</linearGradient>
<linearGradient id="paint20_linear_250_13175" x1="80.6787" y1="115.933" x2="80.6787" y2="102.107" gradientUnits="userSpaceOnUse">
<stop offset="0.016" stop-color="#FFC2A9"/>
<stop offset="1" stop-color="#FF9595"/>
</linearGradient>
<linearGradient id="paint21_linear_250_13175" x1="89.3849" y1="115.606" x2="89.3849" y2="92.7197" gradientUnits="userSpaceOnUse">
<stop stop-color="#FFEADB"/>
<stop offset="0.9944" stop-color="#C27CB6"/>
</linearGradient>
<linearGradient id="paint22_linear_250_13175" x1="88.6396" y1="131.177" x2="88.6396" y2="95.8945" gradientUnits="userSpaceOnUse">
<stop offset="0.016" stop-color="#FFC2A9"/>
<stop offset="1" stop-color="#FF9595"/>
</linearGradient>
<linearGradient id="paint23_linear_250_13175" x1="82.3301" y1="125.67" x2="93.4236" y2="125.67" gradientUnits="userSpaceOnUse">
<stop offset="0.016" stop-color="#D1A1D6"/>
<stop offset="0.9944" stop-color="#BD89C4"/>
</linearGradient>
<linearGradient id="paint24_linear_250_13175" x1="218.205" y1="152.666" x2="218.205" y2="105.484" gradientUnits="userSpaceOnUse">
<stop offset="0.016" stop-color="#FFC2A9"/>
<stop offset="1" stop-color="#FF9595"/>
</linearGradient>
<linearGradient id="paint25_linear_250_13175" x1="223.78" y1="137.55" x2="223.78" y2="114.109" gradientUnits="userSpaceOnUse">
<stop stop-color="#FFEADB"/>
<stop offset="0.9944" stop-color="#C27CB6"/>
</linearGradient>
<linearGradient id="paint26_linear_250_13175" x1="228.405" y1="129.458" x2="228.405" y2="118.95" gradientUnits="userSpaceOnUse">
<stop stop-color="#FFB0B0"/>
<stop offset="0.984" stop-color="#FFC2A9"/>
</linearGradient>
<linearGradient id="paint27_linear_250_13175" x1="234.497" y1="131.078" x2="234.497" y2="125.315" gradientUnits="userSpaceOnUse">
<stop stop-color="#FFB0B0"/>
<stop offset="0.984" stop-color="#FFC2A9"/>
</linearGradient>
<linearGradient id="paint28_linear_250_13175" x1="209.853" y1="142.562" x2="220.57" y2="142.562" gradientUnits="userSpaceOnUse">
<stop offset="0.016" stop-color="#D1A1D6"/>
<stop offset="0.9944" stop-color="#BD89C4"/>
</linearGradient>
<linearGradient id="paint29_linear_250_13175" x1="194.752" y1="179.713" x2="194.752" y2="126.896" gradientUnits="userSpaceOnUse">
<stop stop-color="#CCCCFF"/>
<stop offset="1" stop-color="#755CBB"/>
</linearGradient>
<linearGradient id="paint30_linear_250_13175" x1="78.832" y1="169.082" x2="167.317" y2="169.082" gradientUnits="userSpaceOnUse">
<stop stop-color="#CCCCFF"/>
<stop offset="1" stop-color="#755CBB"/>
</linearGradient>
<linearGradient id="paint31_linear_250_13175" x1="156.339" y1="153.992" x2="173.486" y2="153.992" gradientUnits="userSpaceOnUse">
<stop stop-color="#CCEDFF"/>
<stop offset="1" stop-color="#755CBB"/>
</linearGradient>
<linearGradient id="paint32_linear_250_13175" x1="141.247" y1="183.832" x2="165.938" y2="183.832" gradientUnits="userSpaceOnUse">
<stop stop-color="#CCEDFF"/>
<stop offset="1" stop-color="#755CBB"/>
</linearGradient>
<linearGradient id="paint33_linear_250_13175" x1="142.621" y1="194.805" x2="168.686" y2="194.805" gradientUnits="userSpaceOnUse">
<stop stop-color="#CCEDFF"/>
<stop offset="1" stop-color="#755CBB"/>
</linearGradient>
<linearGradient id="paint34_linear_250_13175" x1="119.644" y1="167.366" x2="119.644" y2="137.186" gradientUnits="userSpaceOnUse">
<stop stop-color="#CCEDFF"/>
<stop offset="1" stop-color="#755CBB"/>
</linearGradient>
<linearGradient id="paint35_linear_250_13175" x1="122.039" y1="169.426" x2="122.039" y2="147.476" gradientUnits="userSpaceOnUse">
<stop stop-color="#CCEDFF"/>
<stop offset="1" stop-color="#755CBB"/>
</linearGradient>
<linearGradient id="paint36_linear_250_13175" x1="86.3739" y1="140.616" x2="86.3739" y2="124.153" gradientUnits="userSpaceOnUse">
<stop stop-color="#CCEDFF"/>
<stop offset="1" stop-color="#755CBB"/>
</linearGradient>
<linearGradient id="paint37_linear_250_13175" x1="100.091" y1="125.868" x2="106.949" y2="125.868" gradientUnits="userSpaceOnUse">
<stop stop-color="#CCEDFF"/>
<stop offset="1" stop-color="#755CBB"/>
</linearGradient>
<linearGradient id="paint38_linear_250_13175" x1="174.518" y1="167.366" x2="174.518" y2="135.813" gradientUnits="userSpaceOnUse">
<stop stop-color="#CCCCFF"/>
<stop offset="1" stop-color="#755CBB"/>
</linearGradient>
<linearGradient id="paint39_linear_250_13175" x1="210.184" y1="160.507" x2="210.184" y2="144.045" gradientUnits="userSpaceOnUse">
<stop stop-color="#CCCCFF"/>
<stop offset="1" stop-color="#755CBB"/>
</linearGradient>
<linearGradient id="paint40_linear_250_13175" x1="191.323" y1="159.821" x2="191.323" y2="146.788" gradientUnits="userSpaceOnUse">
<stop stop-color="#CCCCFF"/>
<stop offset="1" stop-color="#755CBB"/>
</linearGradient>
<linearGradient id="paint41_linear_250_13175" x1="82.9472" y1="141.987" x2="82.9472" y2="137.186" gradientUnits="userSpaceOnUse">
<stop stop-color="#CCEDFF"/>
<stop offset="1" stop-color="#755CBB"/>
</linearGradient>
<linearGradient id="paint42_linear_250_13175" x1="95.293" y1="156.389" x2="95.293" y2="130.326" gradientUnits="userSpaceOnUse">
<stop stop-color="#CCCCFF"/>
<stop offset="1" stop-color="#755CBB"/>
</linearGradient>
<linearGradient id="paint43_linear_250_13175" x1="161.141" y1="138.56" x2="161.141" y2="118.664" gradientUnits="userSpaceOnUse">
<stop stop-color="#CCEDFF"/>
<stop offset="1" stop-color="#755CBB"/>
</linearGradient>
<linearGradient id="paint44_linear_250_13175" x1="135.761" y1="135.81" x2="135.761" y2="109.059" gradientUnits="userSpaceOnUse">
<stop stop-color="#CCEDFF"/>
<stop offset="1" stop-color="#755CBB"/>
</linearGradient>
<linearGradient id="paint45_linear_250_13175" x1="126.845" y1="140.272" x2="171.427" y2="140.272" gradientUnits="userSpaceOnUse">
<stop stop-color="#8642A0"/>
<stop offset="1" stop-color="#6456C0"/>
</linearGradient>
<linearGradient id="paint46_linear_250_13175" x1="130.962" y1="114.549" x2="159.771" y2="114.549" gradientUnits="userSpaceOnUse">
<stop stop-color="#CCCCFF"/>
<stop offset="1" stop-color="#755CBB"/>
</linearGradient>
<linearGradient id="paint47_linear_250_13175" x1="205.046" y1="158.449" x2="205.046" y2="141.986" gradientUnits="userSpaceOnUse">
<stop stop-color="#CCCCFF"/>
<stop offset="1" stop-color="#755CBB"/>
</linearGradient>
<linearGradient id="paint48_linear_250_13175" x1="181.376" y1="177.655" x2="181.376" y2="126.896" gradientUnits="userSpaceOnUse">
<stop stop-color="#CCCCFF"/>
<stop offset="1" stop-color="#755CBB"/>
</linearGradient>
<linearGradient id="paint49_linear_250_13175" x1="127.188" y1="200.976" x2="127.188" y2="186.571" gradientUnits="userSpaceOnUse">
<stop stop-color="#CCCCFF"/>
<stop offset="1" stop-color="#755CBB"/>
</linearGradient>
<linearGradient id="paint50_linear_250_13175" x1="155.311" y1="197.547" x2="155.311" y2="190.002" gradientUnits="userSpaceOnUse">
<stop stop-color="#CCCCFF"/>
<stop offset="1" stop-color="#755CBB"/>
</linearGradient>
<linearGradient id="paint51_linear_250_13175" x1="154.835" y1="106.556" x2="154.835" y2="58.3076" gradientUnits="userSpaceOnUse">
<stop offset="0.016" stop-color="#FFC2A9"/>
<stop offset="1" stop-color="#FF9595"/>
</linearGradient>
<linearGradient id="paint52_linear_250_13175" x1="136.847" y1="87.0866" x2="136.847" y2="72.8619" gradientUnits="userSpaceOnUse">
<stop offset="0.016" stop-color="#FFC2A9"/>
<stop offset="1" stop-color="#FF9595"/>
</linearGradient>
<linearGradient id="paint53_linear_250_13175" x1="161.541" y1="92.4651" x2="162.138" y2="89.3597" gradientUnits="userSpaceOnUse">
<stop stop-color="#E1616A"/>
<stop offset="1" stop-color="#FF8883"/>
</linearGradient>
<linearGradient id="paint54_linear_250_13175" x1="156.156" y1="90.0888" x2="156.156" y2="59.0075" gradientUnits="userSpaceOnUse">
<stop stop-color="#FFEADB"/>
<stop offset="0.9944" stop-color="#C27CB6"/>
</linearGradient>
<linearGradient id="paint55_linear_250_13175" x1="154.642" y1="77.3615" x2="154.642" y2="71.2044" gradientUnits="userSpaceOnUse">
<stop stop-color="#CF6074"/>
<stop offset="1" stop-color="#F37270"/>
</linearGradient>
<linearGradient id="paint56_linear_250_13175" x1="166.922" y1="79.3142" x2="166.922" y2="73.9564" gradientUnits="userSpaceOnUse">
<stop stop-color="#CF6074"/>
<stop offset="1" stop-color="#FF817F"/>
</linearGradient>
<linearGradient id="paint57_linear_250_13175" x1="167.426" y1="82.4327" x2="167.426" y2="70.376" gradientUnits="userSpaceOnUse">
<stop stop-color="#FFEADB"/>
<stop offset="0.9944" stop-color="#C27CB6"/>
</linearGradient>
<linearGradient id="paint58_linear_250_13175" x1="155.479" y1="107.162" x2="155.479" y2="48.6494" gradientUnits="userSpaceOnUse">
<stop stop-color="#2E33A0"/>
<stop offset="1" stop-color="#0665A5"/>
</linearGradient>
<linearGradient id="paint59_linear_250_13175" x1="170.849" y1="70.3146" x2="170.849" y2="56.8164" gradientUnits="userSpaceOnUse">
<stop stop-color="#FFEADB"/>
<stop offset="0.9944" stop-color="#8860C7"/>
</linearGradient>
<linearGradient id="paint60_linear_250_13175" x1="152.454" y1="107.162" x2="152.454" y2="48.6494" gradientUnits="userSpaceOnUse">
<stop stop-color="#CCC2DB"/>
<stop offset="0.9944" stop-color="#8860C7"/>
</linearGradient>
<linearGradient id="paint61_linear_250_13175" x1="156.38" y1="107.148" x2="156.38" y2="104.634" gradientUnits="userSpaceOnUse">
<stop stop-color="#776D7E"/>
<stop offset="1" stop-color="#9D68C2"/>
</linearGradient>
<linearGradient id="paint62_linear_250_13175" x1="163.753" y1="52.8482" x2="163.753" y2="50.9806" gradientUnits="userSpaceOnUse">
<stop stop-color="#1F77D1"/>
<stop offset="1" stop-color="#0686C9"/>
</linearGradient>
<linearGradient id="paint63_linear_250_13175" x1="151.855" y1="58.9971" x2="151.855" y2="53.475" gradientUnits="userSpaceOnUse">
<stop stop-color="#1F77D1"/>
<stop offset="1" stop-color="#0686C9"/>
</linearGradient>
<linearGradient id="paint64_linear_250_13175" x1="171.869" y1="61.797" x2="171.869" y2="56.8164" gradientUnits="userSpaceOnUse">
<stop stop-color="#1F77D1"/>
<stop offset="1" stop-color="#0686C9"/>
</linearGradient>
<linearGradient id="paint65_linear_250_13175" x1="138.921" y1="83.7147" x2="132.55" y2="75.9088" gradientUnits="userSpaceOnUse">
<stop stop-color="#FFEADB"/>
<stop offset="0.9944" stop-color="#B060F4"/>
</linearGradient>
<linearGradient id="paint66_linear_250_13175" x1="139.585" y1="82.7095" x2="136.45" y2="78.8688" gradientUnits="userSpaceOnUse">
<stop stop-color="#FFEADB"/>
<stop offset="0.9944" stop-color="#B060F4"/>
</linearGradient>
<linearGradient id="paint67_linear_250_13175" x1="151.542" y1="59.3315" x2="162.515" y2="59.3315" gradientUnits="userSpaceOnUse">
<stop stop-color="#1F77D1"/>
<stop offset="1" stop-color="#0686C9"/>
</linearGradient>
<linearGradient id="paint68_linear_250_13175" x1="166.628" y1="91.5745" x2="170.056" y2="91.5745" gradientUnits="userSpaceOnUse">
<stop stop-color="#1F77D1"/>
<stop offset="1" stop-color="#0686C9"/>
</linearGradient>
<linearGradient id="paint69_linear_250_13175" x1="162.516" y1="89.5138" x2="165.944" y2="89.5138" gradientUnits="userSpaceOnUse">
<stop stop-color="#1F77D1"/>
<stop offset="1" stop-color="#0686C9"/>
</linearGradient>
<linearGradient id="paint70_linear_250_13175" x1="188.706" y1="97.8888" x2="299.352" y2="97.8888" gradientUnits="userSpaceOnUse">
<stop stop-color="#9D68C2"/>
<stop offset="1" stop-color="#AEC2FF"/>
</linearGradient>
<linearGradient id="paint71_linear_250_13175" x1="211.214" y1="139.68" x2="211.214" y2="106.308" gradientUnits="userSpaceOnUse">
<stop stop-color="#CCEDFF"/>
<stop offset="1" stop-color="#9D68C2"/>
</linearGradient>
<linearGradient id="paint72_linear_250_13175" x1="268.119" y1="123.409" x2="268.119" y2="108.71" gradientUnits="userSpaceOnUse">
<stop stop-color="#CCEDFF"/>
<stop offset="1" stop-color="#9D68C2"/>
</linearGradient>
<linearGradient id="paint73_linear_250_13175" x1="285.461" y1="123.409" x2="285.461" y2="108.71" gradientUnits="userSpaceOnUse">
<stop stop-color="#CCEDFF"/>
<stop offset="1" stop-color="#9D68C2"/>
</linearGradient>
<linearGradient id="paint74_linear_250_13175" x1="250.481" y1="123.409" x2="250.481" y2="108.71" gradientUnits="userSpaceOnUse">
<stop stop-color="#CCEDFF"/>
<stop offset="1" stop-color="#9D68C2"/>
</linearGradient>
<linearGradient id="paint75_linear_250_13175" x1="92.3929" y1="87.292" x2="92.3929" y2="71.9053" gradientUnits="userSpaceOnUse">
<stop stop-color="#D93DE3"/>
<stop offset="1" stop-color="#FF6DBA"/>
</linearGradient>
<linearGradient id="paint76_linear_250_13175" x1="101.798" y1="87.292" x2="101.798" y2="71.9053" gradientUnits="userSpaceOnUse">
<stop stop-color="#A242EA"/>
<stop offset="1" stop-color="#FE117E"/>
</linearGradient>
<linearGradient id="paint77_linear_250_13175" x1="89.7209" y1="249.384" x2="98.0416" y2="183.134" gradientUnits="userSpaceOnUse">
<stop stop-color="#067EFF"/>
<stop offset="1" stop-color="#3E37A0"/>
</linearGradient>
<linearGradient id="paint78_linear_250_13175" x1="283.922" y1="85.7403" x2="283.922" y2="80.2546" gradientUnits="userSpaceOnUse">
<stop stop-color="#459FFF"/>
<stop offset="1" stop-color="#A96DFF"/>
</linearGradient>
<linearGradient id="paint79_linear_250_13175" x1="21.5519" y1="150.903" x2="21.5519" y2="144.042" gradientUnits="userSpaceOnUse">
<stop stop-color="#459FFF"/>
<stop offset="1" stop-color="#A96DFF"/>
</linearGradient>
<linearGradient id="paint80_linear_250_13175" x1="292.158" y1="85.7403" x2="292.158" y2="80.2546" gradientUnits="userSpaceOnUse">
<stop stop-color="#B31A8F"/>
<stop offset="1" stop-color="#FE117E"/>
</linearGradient>
<linearGradient id="paint81_linear_250_13175" x1="112.102" y1="104.258" x2="112.102" y2="100.143" gradientUnits="userSpaceOnUse">
<stop stop-color="#B31A8F"/>
<stop offset="1" stop-color="#FE117E"/>
</linearGradient>
<linearGradient id="paint82_linear_250_13175" x1="244.14" y1="191.376" x2="244.14" y2="187.261" gradientUnits="userSpaceOnUse">
<stop stop-color="#8642A0"/>
<stop offset="1" stop-color="#6456C0"/>
</linearGradient>
<linearGradient id="paint83_linear_250_13175" x1="39.0458" y1="210.582" x2="39.0458" y2="207.146" gradientUnits="userSpaceOnUse">
<stop stop-color="#8642A0"/>
<stop offset="1" stop-color="#6456C0"/>
</linearGradient>
<linearGradient id="paint84_linear_250_13175" x1="53.8773" y1="191.518" x2="53.8773" y2="162.358" gradientUnits="userSpaceOnUse">
<stop stop-color="#D906E3"/>
<stop offset="1" stop-color="#FF6DF9"/>
</linearGradient>
<linearGradient id="paint85_linear_250_13175" x1="255.225" y1="232.794" x2="255.225" y2="196.315" gradientUnits="userSpaceOnUse">
<stop stop-color="#D906E3"/>
<stop offset="1" stop-color="#FF6DF9"/>
</linearGradient>
<linearGradient id="paint86_linear_250_13175" x1="207.896" y1="212.397" x2="211.831" y2="185.828" gradientUnits="userSpaceOnUse">
<stop stop-color="#1852A0"/>
<stop offset="1" stop-color="#067ED3"/>
</linearGradient>
<linearGradient id="paint87_linear_250_13175" x1="204.962" y1="211.71" x2="212.069" y2="185.314" gradientUnits="userSpaceOnUse">
<stop stop-color="#1852A0"/>
<stop offset="1" stop-color="#067ED3"/>
</linearGradient>
<linearGradient id="paint88_linear_250_13175" x1="201.624" y1="210.622" x2="205.819" y2="183.877" gradientUnits="userSpaceOnUse">
<stop stop-color="#188DC1"/>
<stop offset="1" stop-color="#06BFE7"/>
</linearGradient>
<linearGradient id="paint89_linear_250_13175" x1="226.546" y1="69.8629" x2="233.627" y2="43.5643" gradientUnits="userSpaceOnUse">
<stop stop-color="#188DC1"/>
<stop offset="1" stop-color="#06BFE7"/>
</linearGradient>
<linearGradient id="paint90_linear_250_13175" x1="214.374" y1="66.829" x2="219.655" y2="47.2177" gradientUnits="userSpaceOnUse">
<stop stop-color="#1852A0"/>
<stop offset="1" stop-color="#067ED3"/>
</linearGradient>
<linearGradient id="paint91_linear_250_13175" x1="21.8149" y1="115.152" x2="16.9875" y2="97.224" gradientUnits="userSpaceOnUse">
<stop stop-color="#188DC1"/>
<stop offset="1" stop-color="#06BFE7"/>
</linearGradient>
<linearGradient id="paint92_linear_250_13175" x1="30.1143" y1="113.084" x2="26.5143" y2="99.7145" gradientUnits="userSpaceOnUse">
<stop stop-color="#1852A0"/>
<stop offset="1" stop-color="#067ED3"/>
</linearGradient>
</defs>
</svg>
