<svg width="254" height="273" viewBox="0 0 254 273" fill="none" xmlns="http://www.w3.org/2000/svg">
<path d="M108.167 179.61C108.903 182.597 110.675 185.45 113.181 187.391C115.687 189.332 118.786 190.526 121.912 190.828C125.015 191.223 128.31 190.869 131.303 189.737C134.297 188.606 137.082 186.721 139.119 184.245C140.137 183.007 141.085 181.651 141.776 180.129C142.442 178.701 143.038 177.155 143.353 175.537C144.052 172.418 144.118 169.038 143.429 165.863C141.983 159.397 137.897 153.852 132.649 150.109C127.424 146.272 120.992 144.023 114.43 143.841C107.799 143.54 101.179 145.541 95.7032 148.934C90.1097 152.397 85.6153 157.042 81.9883 162.208C80.2098 164.85 78.6192 167.54 77.2164 170.279C76.4561 171.683 75.9077 173.041 75.2413 174.469C74.5749 175.897 74.0724 177.467 73.5939 178.944C71.6318 185.036 70.8212 191.324 70.9284 197.548C71.0355 203.771 72.0363 210.023 74.2147 215.978C76.2992 221.909 79.6554 227.566 84.3356 231.963C88.9918 236.454 95.0442 239.405 101.295 240.407C104.562 240.944 107.951 240.614 111.108 239.624C114.195 238.517 117.075 236.657 119.229 234.111C121.36 231.659 122.835 228.639 123.464 225.403C123.778 223.784 123.811 222.094 123.632 220.449C123.359 218.78 122.756 217.227 122.035 215.743C120.381 212.82 117.735 210.643 114.612 209.543C113.649 209.396 112.897 209.204 112.028 209.081C111.652 208.984 111.252 208.982 110.758 208.955C110.358 208.953 109.958 208.95 109.559 208.947C107.911 209.125 106.286 209.608 104.87 210.444C102.014 212.21 100.303 215.369 100.356 218.681C100.441 220.301 100.926 221.925 101.883 223.269C102.84 224.614 104.317 225.492 105.914 225.901C106.196 225.974 106.432 225.834 106.504 225.553C106.576 225.272 106.436 225.036 106.155 224.964C104.839 224.627 103.668 223.727 102.851 222.618C102.128 221.533 101.688 220.122 101.743 218.736C101.852 215.966 103.419 213.37 105.849 212.094C107.028 211.397 108.324 211.029 109.736 210.991C111.053 210.929 112.462 211.291 113.73 211.815C116.264 212.865 118.371 214.804 119.675 217.136C120.955 219.563 121.246 222.336 120.573 224.962C119.994 227.611 118.639 230.162 116.747 232.076C114.925 234.107 112.471 235.477 109.95 236.329C107.335 237.158 104.606 237.258 102.021 236.796C96.4753 235.774 91.3865 232.971 87.5038 228.978C83.6211 224.985 80.8024 219.965 78.9976 214.506C77.1687 209.14 76.4476 203.359 76.5022 197.677C76.5568 191.995 77.4351 186.224 79.2988 180.906C79.7292 179.617 80.2776 178.258 80.802 176.994C81.4444 175.659 82.0627 174.419 82.7051 173.084C84.0597 170.534 85.4843 168.101 87.1667 165.834C90.4616 161.182 94.412 157.098 99.1315 154.31C100.311 153.613 101.491 152.916 102.717 152.431C103.967 151.852 105.193 151.366 106.488 150.999C107.784 150.631 109.056 150.358 110.421 150.108C111.787 149.859 113.104 149.796 114.422 149.734C119.856 149.628 125.375 151.143 130.016 154.131C134.657 157.119 138.301 161.651 139.754 166.92C140.493 169.508 140.572 172.326 140.087 175C139.626 177.58 138.529 180.297 136.87 182.47C133.624 186.934 127.801 189.339 122.111 188.88C119.266 188.651 116.472 187.835 114.105 186.129C111.809 184.541 110.035 182.088 109.25 179.288C109.134 178.959 108.877 178.793 108.547 178.908C108.311 179.047 108.145 179.305 108.167 179.61Z" fill="#746AA8"/>
<path d="M99.3997 152.48C99.7777 152.177 100.274 151.804 100.864 151.456C101.36 151.083 101.925 150.828 102.491 150.574C103.553 149.947 104.685 149.437 105.887 149.046C108.22 148.145 110.67 147.573 113.141 147.307C115.612 147.041 118.105 147.081 120.644 147.332C123.159 147.676 125.626 148.209 128.044 148.928C130.463 149.648 132.786 150.743 135.109 151.838C137.407 153.027 139.588 154.285 141.72 155.731C145.985 158.623 149.942 161.936 153.733 165.506L159.183 171.199C160.142 172.145 161.219 173.02 162.178 173.966C163.161 174.817 164.239 175.693 165.316 176.569C169.437 180.023 173.936 183.175 178.649 185.882C187.957 191.366 198.331 195.423 209.166 196.901C214.596 197.593 220.218 197.535 225.68 196.537C228.435 195.944 231.12 195.233 233.644 193.981C236.262 192.753 238.739 191.29 240.843 189.331C245.122 185.53 247.997 180.171 248.991 174.73L249.161 173.674L249.238 172.595L249.461 170.553C249.441 169.849 249.539 169.075 249.52 168.37C249.406 167.641 249.386 166.937 249.273 166.208C248.794 163.387 247.704 160.609 246 158.274C242.733 153.439 237.199 150.422 231.509 149.963C228.57 149.71 225.579 150.442 223.101 151.905C221.803 152.672 220.669 153.581 219.699 154.631C218.729 155.682 217.899 156.968 217.281 158.208C216.638 159.543 216.278 160.949 216.011 162.38C215.769 163.717 215.76 165.314 216.199 166.725C216.866 169.594 218.804 172.19 221.336 173.638C222.555 174.35 224.034 174.829 225.492 175.003C226.949 175.177 228.503 174.975 229.846 174.42C232.652 173.241 234.572 170.435 234.636 167.453C234.662 166.96 234.334 166.676 233.864 166.556C233.465 166.554 233.087 166.856 232.966 167.325C232.765 169.672 231.201 171.869 229.079 172.725C227.972 173.14 226.842 173.251 225.667 173.149C224.515 172.954 223.318 172.547 222.356 172.001C220.364 170.791 218.799 168.691 218.388 166.387C217.86 164.153 218.415 161.597 219.461 159.467C219.986 158.202 220.72 157.291 221.548 156.404C222.376 155.517 223.344 154.866 224.406 154.238C226.505 153.078 228.931 152.6 231.282 152.803C236.172 153.257 240.791 155.94 243.356 159.995C244.732 162.046 245.637 164.377 245.93 166.75C246.092 167.291 246.041 167.878 246.179 168.513C246.129 169.1 246.078 169.686 246.122 170.297L245.829 172.221L245.683 173.183L245.443 174.12C244.523 178.881 242.076 183.351 238.248 186.567C234.514 189.807 229.823 191.703 224.854 192.728C219.909 193.659 214.711 193.626 209.682 192.936C199.552 191.439 189.742 187.526 180.809 182.139C176.378 179.504 172.161 176.425 168.11 173.088C167.245 172.167 166.238 171.409 165.279 170.463C164.295 169.612 163.312 168.76 162.353 167.815L156.668 162.26C152.713 158.549 148.616 155 143.999 151.918C141.679 150.424 139.334 149.024 136.848 147.787C134.337 146.644 131.827 145.501 129.126 144.709C118.584 141.307 105.994 142.378 96.9918 149.764C96.2358 150.37 96.1354 151.543 96.7428 152.298C97.3502 153.054 98.5257 153.155 99.2817 152.549L99.3997 152.48Z" fill="#746AA8"/>
<path d="M172.198 156.748C171.418 157.447 170.24 157.745 169.231 157.386C168.198 157.121 167.52 156.248 167.079 155.236C166.731 154.247 166.714 153.144 167.072 152.136C167.406 151.222 167.999 150.475 168.967 149.823C170.666 148.66 173.09 148.582 174.824 149.626C175.692 150.148 176.393 150.927 176.977 151.777C177.536 152.719 177.977 153.732 178.113 154.766C178.478 156.858 177.901 159.109 176.669 160.791C176.433 160.931 176.267 161.188 176.125 161.352C175.983 161.515 175.723 161.748 175.581 161.912C175.179 162.308 174.707 162.587 174.305 162.984C173.902 163.38 173.361 163.541 172.983 163.844C172.511 164.123 171.969 164.284 171.521 164.469C169.565 165.067 167.45 164.725 165.386 163.796C163.415 162.891 161.47 161.493 159.619 160.119C155.942 157.278 152.337 154.156 148.424 151.454C144.486 148.846 140.171 146.541 135.521 145.149C133.221 144.359 130.8 144.039 128.473 143.742C127.297 143.641 126.028 143.515 124.828 143.508C123.605 143.594 122.429 143.492 121.181 143.672C116.381 144.041 111.694 145.138 107.263 146.801C106.815 146.986 106.601 147.43 106.787 147.878C106.973 148.325 107.418 148.539 107.866 148.354C112.249 146.879 116.818 145.852 121.382 145.622C122.512 145.512 123.688 145.614 124.793 145.597C125.993 145.605 127.05 145.776 128.25 145.784C130.483 146.056 132.786 146.447 134.899 147.188C139.266 148.507 143.3 150.74 147.143 153.324C151.081 155.932 154.616 158.937 158.387 161.802C160.308 163.294 162.252 164.692 164.599 165.693C165.139 165.931 165.678 166.169 166.336 166.338L167.276 166.579L168.239 166.726C168.897 166.894 169.533 166.757 170.238 166.738C170.85 166.695 171.486 166.558 172.122 166.422C172.688 166.167 173.348 165.936 173.937 165.588C174.433 165.215 174.999 164.961 175.495 164.588C175.991 164.215 176.487 163.843 176.913 163.353C177.173 163.119 177.339 162.862 177.599 162.629C177.766 162.372 178.026 162.139 178.192 161.881C179.638 159.754 180.241 157.01 179.878 154.519C179.697 153.273 179.21 152.049 178.486 150.964C177.763 149.88 176.828 148.84 175.679 148.246C174.529 147.652 173.19 147.408 171.873 147.47C170.531 147.626 169.329 148.018 168.219 148.832C167.133 149.554 166.351 150.652 165.921 151.941C165.514 153.136 165.648 154.569 166.159 155.699C166.415 156.265 166.788 156.76 167.256 157.28C167.747 157.706 168.357 158.062 169.015 158.23C170.33 158.567 171.65 158.106 172.596 157.149C172.714 157.08 172.668 156.868 172.598 156.75C172.434 156.608 172.316 156.678 172.198 156.748Z" fill="#746AA8"/>
<path d="M228.597 166.404C228.164 168.092 229.143 169.742 230.834 170.176C232.525 170.609 234.295 169.564 234.704 167.969C235.136 166.282 234.157 164.632 232.466 164.198C230.775 163.765 229.029 164.716 228.597 166.404Z" fill="#746AA8"/>
<path d="M169.22 155.085C168.932 156.21 169.561 157.271 170.688 157.56C171.816 157.849 172.878 157.221 173.166 156.096C173.455 154.971 172.825 153.91 171.698 153.621C170.664 153.356 169.485 154.053 169.22 155.085Z" fill="#746AA8"/>
<path d="M111.068 182.353C108.837 181.781 107.491 179.513 108.061 177.286C108.632 175.059 110.904 173.717 113.135 174.289C115.366 174.861 116.712 177.13 116.141 179.356C115.571 181.583 113.299 182.925 111.068 182.353Z" fill="#746AA8"/>
<path d="M61.4076 134.296C58.8907 132.841 57.0515 130.513 55.9866 127.894C55.0186 125.276 54.825 122.269 55.309 119.456C56.277 113.831 60.1492 108.884 65.183 106.75C67.6999 105.684 70.5072 105.393 73.3145 105.49C76.0251 105.684 78.7356 106.459 81.0589 107.817C85.8023 110.533 89.2872 115.286 91.0297 120.426C92.7722 125.761 92.869 131.483 91.4169 136.72C91.0297 137.981 90.6425 139.339 90.0616 140.503C89.4808 141.764 88.9 142.928 88.2224 144.092C87.5447 145.256 86.7703 146.322 85.8991 147.389C85.0278 148.456 84.1566 149.426 83.1886 150.396C79.2196 154.179 74.2826 157.088 69.0552 159.125C66.4414 160.192 63.6341 160.968 60.9236 161.647C59.5684 161.938 58.1163 162.229 56.6642 162.52C55.309 162.714 53.8569 162.908 52.5017 163.005C46.887 163.49 41.1756 162.908 35.5609 161.55C30.0431 160.192 24.6221 157.961 19.8787 154.955C15.1353 151.948 10.8759 147.971 7.97177 143.122C5.06765 138.369 3.61559 132.744 4.00281 127.118C4.09961 124.403 4.97085 121.784 6.42291 119.553C7.87497 117.322 9.81105 115.286 12.2312 114.025C14.5544 112.667 17.3618 111.988 20.0723 112.085C22.7828 112.085 25.3965 113.055 27.4294 114.898C29.4623 116.643 30.8175 119.262 31.108 121.978C31.3016 123.336 31.3016 124.791 30.9143 126.052C30.5271 127.312 29.8495 128.573 28.8815 129.543C27.0422 131.483 24.0413 132.453 21.4275 131.871C20.0723 131.58 18.8138 130.804 17.9426 129.834C17.0714 128.767 16.4905 127.506 16.4905 126.052C16.4905 125.761 16.2969 125.567 16.0065 125.567C15.7161 125.567 15.5225 125.761 15.5225 126.052C15.5225 127.7 16.0065 129.349 17.0714 130.61C18.1362 131.871 19.5883 132.744 21.1371 133.229C24.3317 134.102 27.8166 133.132 30.2367 130.901C31.4952 129.737 32.3664 128.282 32.8504 126.73C32.9472 126.342 33.044 125.955 33.1408 125.567C33.2376 125.179 33.3344 124.694 33.3344 124.306C33.4312 123.53 33.4312 122.657 33.3344 121.881C33.044 118.583 31.592 115.48 29.1719 113.152C28.0102 111.988 26.5582 111.018 25.0093 110.436C23.4604 109.757 21.8148 109.369 20.1691 109.369C16.8778 109.175 13.5864 109.854 10.6823 111.309C7.77816 112.764 5.16445 114.995 3.32517 117.807C1.4859 120.523 0.324244 123.821 0.13064 127.118C-0.450186 133.423 0.905069 140.115 4.0996 145.644C7.29414 151.269 11.8439 155.828 17.0714 159.416C22.2988 162.908 28.107 165.527 34.1089 167.175C40.1107 168.824 46.4998 169.6 52.7921 169.212C54.3409 169.115 55.9866 168.921 57.5355 168.727C59.0843 168.436 60.6332 168.145 62.0853 167.854C65.0862 167.175 68.1839 166.302 71.088 165.236C76.9931 163.005 82.7045 159.804 87.3511 155.246C91.9977 150.784 95.5795 144.771 96.9347 138.369C98.3868 131.968 97.806 125.179 95.3859 119.165C92.9658 113.152 88.6096 107.72 82.8013 104.811C79.8972 103.356 76.6059 102.58 73.4113 102.483C71.7657 102.483 70.2168 102.58 68.5711 102.871C67.0223 103.162 65.3766 103.647 63.9245 104.423C61.1172 105.49 58.6003 107.72 56.761 110.339C54.9218 112.958 53.7601 116.061 53.3729 119.165C52.9857 122.269 53.2761 125.567 54.5345 128.476C55.793 131.386 58.0195 133.811 60.8268 135.266C61.1172 135.363 61.4076 135.266 61.6012 135.072C61.698 134.781 61.6012 134.49 61.4076 134.296Z" fill="#746AA8"/>
<path d="M86.8671 153.5C96.3539 146.517 100.42 134.684 99.742 123.627C99.6452 120.814 99.1612 118.099 98.6772 115.383C98.0964 112.667 97.4187 110.048 96.4507 107.43C94.6114 102.289 92.2881 97.3427 89.5776 92.5902L85.6086 85.7038C84.931 84.54 84.3502 83.3761 83.7694 82.2122C83.1885 81.0483 82.6077 79.8844 82.0269 78.7205C79.8004 73.968 77.8643 69.2155 76.4123 64.172C73.4113 54.279 72.0561 43.804 73.1209 33.5231C73.7017 28.4796 74.9602 23.4361 77.0899 18.8775C79.2196 14.319 82.3173 10.2454 86.3831 7.43269C90.3521 4.61998 95.2891 3.26213 100.323 3.55311L101.291 3.55312L102.259 3.65008L104.098 3.84407C104.679 3.94105 105.26 4.13502 105.841 4.23202C106.422 4.42599 107.002 4.61999 107.583 4.81398C109.81 5.78387 111.843 7.14172 113.391 8.98454C116.683 12.5732 118.135 17.7137 117.36 22.4662C116.973 24.794 115.908 27.0247 114.263 28.7706C113.488 29.6435 112.52 30.4194 111.455 31.0013C110.391 31.5833 109.326 31.9712 108.067 32.2622C105.744 32.7472 103.13 32.6502 101.097 31.5833C98.9676 30.5164 97.3219 28.5766 96.6443 26.3458C96.3539 25.4729 96.2571 24.309 96.3539 23.0481C96.4507 21.8842 96.8379 20.8174 97.6124 19.8475C98.9676 18.0046 101.485 16.9377 103.808 17.4227C104.292 17.5197 104.679 17.2287 104.776 16.7438C104.873 16.3558 104.582 15.8708 104.098 15.7739C101.194 15.1919 97.9996 16.3558 96.1603 18.6836C95.1923 19.8474 94.6114 21.3023 94.5146 22.7572C94.321 24.212 94.4178 25.6669 94.805 27.1217C95.5795 29.9344 97.5156 32.4562 100.226 33.8141C101.485 34.493 103.033 34.8809 104.389 35.0749C105.841 35.1719 107.293 35.1719 108.745 34.8809C110.197 34.59 111.552 34.105 112.811 33.4261C114.069 32.7472 115.231 31.8742 116.296 30.8073C118.328 28.7706 119.78 25.9578 120.265 23.1451C121.329 17.5197 119.684 11.4093 115.812 7.04474C113.875 4.91096 111.552 3.06813 108.938 1.90425C108.261 1.61328 107.583 1.41933 106.906 1.12836C106.228 0.934371 105.55 0.740356 104.776 0.643371L102.743 0.352416L101.678 0.158431L100.613 0.0614463C94.9987 -0.326509 89.0936 1.12833 84.447 4.32901C82.0269 5.88086 79.994 7.91765 78.2515 10.0514C76.4123 12.1852 75.057 14.707 73.7985 17.1317C71.3784 22.1752 70.0232 27.6067 69.3456 33.0381C68.0871 43.998 69.4424 54.9579 72.4433 65.4329C73.8953 70.6704 75.9282 75.7138 78.1547 80.6604C78.7356 81.9212 79.3164 83.0851 79.8972 84.346C80.5748 85.5099 81.1557 86.7707 81.8333 87.9346L85.6086 94.8209C88.1256 99.3795 90.352 104.035 92.0945 108.885C92.9658 111.309 93.6434 113.734 94.2242 116.256C94.7082 118.778 95.1923 121.299 95.2891 123.821C95.3859 126.343 95.3859 128.865 94.9986 131.386C94.6114 133.908 94.0306 136.333 93.1594 138.661C92.2881 140.988 91.1265 143.219 89.6744 145.256C88.9968 146.226 88.2224 147.196 87.3511 148.166C86.9639 148.651 86.4799 149.038 86.0927 149.523C85.7054 149.911 85.1246 150.396 84.7374 150.687L84.5438 150.784C83.7694 151.366 83.5758 152.53 84.1566 153.306C84.931 153.888 86.0927 153.985 86.8671 153.5Z" fill="#746AA8"/>
<path d="M98.5808 78.5257C97.5159 79.1077 96.7415 80.3685 96.6447 81.7264C96.6447 82.4053 96.7415 83.0843 97.1287 83.6662C97.4191 84.2481 97.9032 84.7331 98.3872 85.1211C99.3552 85.994 100.71 86.3819 101.969 86.2849C103.227 86.285 104.583 85.703 105.551 84.8301C106.519 84.0542 107.293 82.8903 107.777 81.6294C108.164 80.3685 108.261 79.0107 107.971 77.7498C107.68 76.3919 106.906 75.3251 106.035 74.3551C105.163 73.3852 104.099 72.6093 102.937 72.1244C100.614 71.0575 97.8064 70.9605 95.3863 71.9304C95.0958 72.0274 94.8054 72.2214 94.515 72.3183C94.2246 72.4153 93.9342 72.6093 93.6438 72.8033C93.1598 73.1913 92.5789 73.4822 92.0949 73.8702C91.6109 74.2581 91.1269 74.7431 90.6429 75.1311C90.1588 75.616 89.8684 76.101 89.3844 76.6829C89.094 77.2649 88.7068 77.8468 88.5132 78.4287C88.3196 79.1077 88.126 79.6896 88.0291 80.3685L88.0291 81.2415L88.0291 82.2114C88.0291 82.8903 88.126 83.4722 88.2228 84.0542C88.7068 86.4789 89.578 88.8067 90.4492 90.9405C92.2885 95.305 94.3214 99.4756 95.9671 103.84C97.5159 108.205 98.6776 112.666 98.8712 117.225C99.0648 119.553 98.8712 121.783 98.5808 124.014C98.3872 125.178 98.1936 126.245 97.9032 127.409C97.6128 128.476 97.4191 129.64 97.0319 130.706C95.6767 135.265 93.547 139.436 91.0301 143.315C90.7397 143.703 90.9333 144.188 91.3205 144.479C91.7077 144.77 92.1917 144.576 92.4821 144.285C95.1926 140.406 97.4191 136.138 98.968 131.579C99.3552 130.416 99.6456 129.252 100.033 128.088C100.323 126.924 100.517 125.76 100.71 124.499C101.001 122.074 101.195 119.65 101.098 117.322C100.904 112.472 99.7424 107.72 98.1936 103.258C96.5479 98.7967 94.4182 94.5291 92.5789 90.2616C91.7077 88.1278 90.8365 85.994 90.4493 83.7632C90.062 81.6294 90.2556 79.3986 91.3205 77.6528C91.6109 77.2648 91.9013 76.7799 92.2885 76.3919C92.6757 76.004 93.063 75.616 93.4502 75.325C93.9342 75.0341 94.3214 74.6461 94.8054 74.3551C94.999 74.2582 95.2895 74.0642 95.4831 73.9672C95.6767 73.8702 95.9671 73.7732 96.1607 73.6762C98.0968 72.9003 100.42 72.9003 102.356 73.7732C103.324 74.1612 104.195 74.7431 104.97 75.519C105.744 76.2949 106.325 77.1679 106.519 78.1378C107.1 80.0776 106.422 82.4053 104.776 83.7632C104.002 84.5391 103.034 84.9271 101.969 85.0241C100.904 85.1211 99.8392 84.8301 98.968 84.2481C98.0968 83.6662 97.4191 82.6963 97.4191 81.6294C97.4191 80.5625 97.9032 79.4956 98.8712 78.9137C98.968 78.8167 99.0648 78.7197 98.968 78.5257C98.8712 78.4287 98.7744 78.4287 98.5808 78.5257Z" fill="#746AA8"/>
<path d="M103.517 21.9805C101.774 21.9805 100.419 20.6226 100.419 18.8768C100.419 17.131 101.774 15.7731 103.517 15.7731C105.259 15.7731 106.615 17.2279 106.615 18.8768C106.711 20.5256 105.259 21.9805 103.517 21.9805Z" fill="#746AA8"/>
<path d="M99.7415 82.2109C98.5799 82.2109 97.7086 81.338 97.7086 80.1741C97.7086 79.0102 98.5799 78.1373 99.7415 78.1373C100.903 78.1373 101.774 79.0102 101.774 80.1741C101.774 81.338 100.806 82.2109 99.7415 82.2109Z" fill="#746AA8"/>
<path d="M58.8907 131.87C58.8907 129.567 60.7543 127.7 63.0532 127.7C65.3522 127.7 67.2158 129.567 67.2158 131.87C67.2158 134.174 65.3522 136.041 63.0532 136.041C60.7543 136.041 58.8907 134.174 58.8907 131.87Z" fill="#746AA8"/>
</svg>
