<svg width="254" height="273" viewBox="0 0 254 273" fill="none" xmlns="http://www.w3.org/2000/svg">
<path d="M145.833 92.4114C145.096 89.4245 143.324 86.572 140.818 84.6305C138.312 82.6891 135.214 81.4953 132.087 81.1936C128.984 80.7981 125.689 81.1528 122.696 82.2844C119.702 83.4159 116.917 85.3002 114.88 87.7762C113.862 89.0143 112.914 90.3702 112.223 91.8921C111.557 93.3202 110.961 94.8662 110.646 96.4844C109.947 99.603 109.881 102.984 110.57 106.158C112.016 112.625 116.102 118.169 121.35 121.913C126.575 125.75 133.007 127.998 139.569 128.181C146.2 128.481 152.82 126.481 158.296 123.087C163.889 119.624 168.384 114.98 172.011 109.814C173.789 107.171 175.38 104.481 176.783 101.743C177.543 100.339 178.091 98.9803 178.758 97.5522C179.424 96.1241 179.927 94.554 180.405 93.0777C182.367 86.985 183.178 80.6971 183.071 74.4738C182.964 68.2505 181.963 61.998 179.784 56.0433C177.7 50.1127 174.344 44.4557 169.663 40.0584C165.007 35.5672 158.955 32.617 152.704 31.6144C149.437 31.077 146.048 31.4076 142.891 32.3972C139.804 33.5047 136.924 35.3649 134.77 37.9106C132.639 40.3626 131.164 43.3824 130.535 46.6188C130.221 48.237 130.188 49.9275 130.367 51.5724C130.64 53.2413 131.243 54.7949 131.964 56.2789C133.618 59.2011 136.264 61.3783 139.387 62.4783C140.35 62.6253 141.102 62.818 141.971 62.9409C142.347 63.0372 142.747 63.0398 143.241 63.0664C143.641 63.0689 144.041 63.0715 144.44 63.074C146.088 62.8967 147.713 62.4139 149.129 61.5776C151.985 59.8112 153.696 56.6521 153.643 53.3408C153.558 51.7201 153.073 50.0967 152.116 48.7522C151.159 47.4077 149.682 46.5294 148.085 46.1201C147.803 46.0478 147.567 46.1872 147.495 46.4685C147.423 46.7499 147.563 46.9856 147.844 47.0578C149.16 47.3949 150.331 48.2947 151.148 49.4035C151.871 50.4883 152.311 51.9 152.256 53.285C152.147 56.0552 150.58 58.6516 148.15 59.9276C146.971 60.6246 145.675 60.992 144.263 61.03C142.946 61.0921 141.537 60.7309 140.269 60.2062C137.735 59.1569 135.628 57.218 134.324 54.885C133.044 52.4582 132.753 49.6856 133.426 47.0599C134.005 44.4102 135.36 41.8593 137.252 39.9459C139.074 37.9146 141.528 36.5448 144.049 35.692C146.664 34.8634 149.393 34.7633 151.978 35.2259C157.524 36.2475 162.613 39.0507 166.495 43.0438C170.378 47.0369 173.197 52.0565 175.001 57.5157C176.83 62.8811 177.551 68.6622 177.497 74.3444C177.442 80.0266 176.564 85.7974 174.7 91.1159C174.27 92.4046 173.721 93.7631 173.197 95.0277C172.555 96.3621 171.936 97.6027 171.294 98.937C169.939 101.488 168.515 103.921 166.832 106.188C163.537 110.84 159.587 114.924 154.868 117.712C153.688 118.409 152.508 119.105 151.282 119.591C150.032 120.17 148.807 120.655 147.511 121.023C146.215 121.39 144.944 121.664 143.578 121.913C142.212 122.163 140.895 122.225 139.577 122.287C134.143 122.393 128.624 120.879 123.983 117.891C119.342 114.902 115.698 110.371 114.245 105.102C113.506 102.514 113.427 99.6956 113.912 97.0218C114.373 94.4418 115.47 91.7249 117.129 89.5517C120.375 85.0874 126.198 82.6824 131.888 83.1413C134.733 83.3707 137.527 84.1869 139.894 85.8926C142.19 87.4805 143.964 89.9339 144.749 92.7332C144.865 93.0627 145.122 93.2287 145.452 93.1134C145.688 92.974 145.854 92.7168 145.833 92.4114Z" fill="#746AA8"/>
<path d="M154.599 119.542C154.221 119.845 153.725 120.217 153.135 120.566C152.639 120.938 152.074 121.193 151.508 121.448C150.446 122.075 149.314 122.584 148.112 122.976C145.779 123.877 143.329 124.448 140.858 124.714C138.387 124.98 135.894 124.941 133.355 124.69C130.84 124.345 128.373 123.813 125.955 123.093C123.536 122.373 121.213 121.278 118.891 120.183C116.592 118.995 114.411 117.736 112.279 116.29C108.014 113.398 104.057 110.086 100.266 106.516L94.8165 100.822C93.8572 99.8767 92.78 99.001 91.8208 98.0556C90.8376 97.204 89.7604 96.3284 88.6832 95.4527C84.5623 91.9981 80.0635 88.8464 75.3505 86.1395C66.0425 80.656 55.6683 76.598 44.833 75.1201C39.4034 74.4281 33.7815 74.4862 28.3191 75.4846C25.5639 76.0776 22.8786 76.7884 20.355 78.0403C17.7374 79.2682 15.2596 80.7317 13.1556 82.6908C8.87743 86.491 6.00207 91.85 5.00797 97.2914L4.83755 98.347L4.76108 99.4267L4.53824 101.468C4.55791 102.173 4.45959 102.947 4.47926 103.652C4.59289 104.38 4.61256 105.085 4.72618 105.813C5.20472 108.634 6.29504 111.412 7.99933 113.748C11.2659 118.582 16.8004 121.599 22.4901 122.058C25.4288 122.312 28.42 121.58 30.8978 120.116C32.1956 119.349 33.3296 118.441 34.2997 117.39C35.2698 116.34 36.1001 115.054 36.7185 113.813C37.3608 112.479 37.7213 111.072 37.9879 109.641C38.2304 108.305 38.2391 106.708 37.7999 105.296C37.1335 102.427 35.1954 99.8318 32.663 98.3833C31.4438 97.6711 29.9646 97.1921 28.5072 97.0184C27.0498 96.8447 25.4963 97.0462 24.1526 97.6012C21.3471 98.7809 19.4266 101.586 19.3632 104.568C19.337 105.061 19.6648 105.345 20.1345 105.465C20.5344 105.468 20.9124 105.165 21.0325 104.696C21.2335 102.349 22.7979 100.152 24.9195 99.2967C26.0273 98.8811 27.1569 98.7709 28.3324 98.8723C29.4839 99.0675 30.6813 99.4743 31.6427 100.021C33.6354 101.231 35.1998 103.331 35.6106 105.634C36.1394 107.869 35.5844 110.424 34.5378 112.555C34.0135 113.819 33.2793 114.73 32.4512 115.617C31.6232 116.504 30.6552 117.156 29.5933 117.783C27.4936 118.944 25.0683 119.421 22.7173 119.219C17.8273 118.765 13.2083 116.082 10.6431 112.027C9.26657 109.975 8.36198 107.645 8.06917 105.271C7.90748 104.73 7.95773 104.143 7.82007 103.508C7.87032 102.922 7.92056 102.335 7.87686 101.724L8.16963 99.8006L8.31601 98.8388L8.55635 97.901C9.47617 93.1401 11.9233 88.6708 15.7513 85.4547C19.4854 82.2145 24.1765 80.3189 29.1451 79.2939C34.0896 78.3626 39.2876 78.3957 44.3174 79.0852C54.4469 80.5821 64.2574 84.4956 73.1896 89.8828C77.6207 92.5175 81.8377 95.5969 85.8887 98.9336C86.7539 99.8549 87.7612 100.613 88.7204 101.558C89.7037 102.41 90.6869 103.261 91.6461 104.207L97.3314 109.761C101.286 113.473 105.383 117.021 110 120.103C112.32 121.597 114.665 122.998 117.151 124.235C119.662 125.378 122.172 126.521 124.873 127.313C135.415 130.714 148.005 129.644 157.007 122.258C157.763 121.652 157.864 120.478 157.256 119.723C156.649 118.968 155.473 118.866 154.717 119.472L154.599 119.542Z" fill="#746AA8"/>
<path d="M81.8009 115.274C82.5809 114.574 83.7586 114.277 84.768 114.635C85.8015 114.9 86.4789 115.773 86.9202 116.786C87.2677 117.774 87.2851 118.878 86.9268 119.885C86.5925 120.799 86.0004 121.547 85.0325 122.198C83.3326 123.361 80.9095 123.44 79.1746 122.396C78.3072 121.873 77.6058 121.094 77.0224 120.245C76.463 119.302 76.0217 118.29 75.8862 117.256C75.5213 115.163 76.0981 112.913 77.3304 111.23C77.5664 111.091 77.7324 110.833 77.8744 110.67C78.0165 110.506 78.2765 110.273 78.4185 110.11C78.8205 109.713 79.2925 109.434 79.6945 109.038C80.0965 108.641 80.6384 108.48 81.0164 108.177C81.4883 107.899 82.0302 107.738 82.4781 107.553C84.4337 106.955 86.5487 107.297 88.6135 108.226C90.5843 109.131 92.529 110.528 94.3796 111.902C98.057 114.743 101.662 117.866 105.575 120.568C109.513 123.176 113.828 125.481 118.478 126.873C120.778 127.662 123.199 127.983 125.526 128.279C126.702 128.381 127.971 128.506 129.171 128.514C130.395 128.428 131.57 128.529 132.818 128.349C137.618 127.981 142.305 126.883 146.736 125.221C147.184 125.036 147.398 124.591 147.212 124.144C147.026 123.696 146.581 123.482 146.133 123.667C141.75 125.142 137.181 126.17 132.617 126.399C131.487 126.509 130.311 126.408 129.206 126.424C128.006 126.417 126.949 126.245 125.749 126.238C123.516 125.965 121.213 125.575 119.1 124.834C114.733 123.514 110.699 121.281 106.856 118.697C102.919 116.089 99.3832 113.085 95.6119 110.219C93.6914 108.728 91.7467 107.33 89.4001 106.329C88.8604 106.091 88.3207 105.852 87.663 105.684L86.7235 105.443L85.7599 105.296C85.1022 105.127 84.4664 105.264 83.7607 105.283C83.1489 105.326 82.5131 105.463 81.8772 105.6C81.3113 105.855 80.6515 106.085 80.0615 106.434C79.5656 106.806 78.9997 107.061 78.5037 107.433C78.0077 107.806 77.5117 108.179 77.0856 108.669C76.8256 108.902 76.6596 109.159 76.3996 109.393C76.2335 109.65 75.9735 109.883 75.8075 110.14C74.361 112.268 73.758 115.011 74.1207 117.503C74.3021 118.748 74.7894 119.972 75.5126 121.057C76.2358 122.142 77.171 123.181 78.3203 123.775C79.4696 124.37 80.809 124.613 82.1265 124.551C83.4681 124.395 84.6698 124.004 85.7797 123.189C86.8657 122.468 87.6479 121.369 88.0783 120.081C88.4847 118.886 88.3514 117.452 87.8401 116.322C87.5845 115.757 87.2108 115.261 86.7432 114.742C86.2516 114.316 85.642 113.96 84.9843 113.791C83.669 113.454 82.3493 113.915 81.4032 114.872C81.2852 114.942 81.3311 115.153 81.401 115.271C81.5649 115.413 81.6829 115.344 81.8009 115.274Z" fill="#746AA8"/>
<path d="M25.4024 105.617C25.835 103.929 24.8562 102.279 23.165 101.846C21.4738 101.412 19.704 102.458 19.2954 104.052C18.8628 105.74 19.8417 107.39 21.5329 107.823C23.224 108.257 24.9698 107.305 25.4024 105.617Z" fill="#746AA8"/>
<path d="M84.7789 116.937C85.0673 115.811 84.438 114.751 83.3106 114.462C82.1831 114.173 81.1212 114.8 80.8328 115.925C80.5444 117.051 81.1737 118.111 82.3011 118.4C83.3346 118.665 84.5145 117.968 84.7789 116.937Z" fill="#746AA8"/>
<path d="M142.931 89.6682C145.162 90.2401 146.508 92.5089 145.938 94.7359C145.367 96.9628 143.095 98.3046 140.864 97.7327C138.633 97.1608 137.287 94.892 137.858 92.665C138.428 90.4381 140.7 89.0963 142.931 89.6682Z" fill="#746AA8"/>
<path d="M192.591 137.726C195.108 139.181 196.948 141.508 198.012 144.127C198.98 146.746 199.174 149.753 198.69 152.565C197.722 158.191 193.85 163.137 188.816 165.271C186.299 166.338 183.492 166.629 180.684 166.532C177.974 166.338 175.263 165.562 172.94 164.204C168.197 161.488 164.712 156.736 162.969 151.595C161.227 146.261 161.13 140.539 162.582 135.301C162.969 134.04 163.357 132.682 163.937 131.518C164.518 130.258 165.099 129.094 165.777 127.93C166.454 126.766 167.229 125.699 168.1 124.632C168.971 123.565 169.842 122.595 170.81 121.625C174.779 117.843 179.716 114.933 184.944 112.896C187.558 111.829 190.365 111.053 193.075 110.375C194.431 110.084 195.883 109.793 197.335 109.502C198.69 109.308 200.142 109.114 201.497 109.017C207.112 108.532 212.823 109.114 218.438 110.472C223.956 111.829 229.377 114.06 234.12 117.067C238.864 120.074 243.123 124.05 246.027 128.9C248.931 133.652 250.383 139.278 249.996 144.903C249.899 147.619 249.028 150.238 247.576 152.468C246.124 154.699 244.188 156.736 241.768 157.997C239.445 159.355 236.637 160.034 233.927 159.937C231.216 159.937 228.603 158.967 226.57 157.124C224.537 155.378 223.181 152.759 222.891 150.044C222.697 148.686 222.697 147.231 223.085 145.97C223.472 144.709 224.15 143.448 225.118 142.478C226.957 140.539 229.958 139.569 232.571 140.151C233.927 140.442 235.185 141.217 236.056 142.187C236.928 143.254 237.508 144.515 237.508 145.97C237.508 146.261 237.702 146.455 237.993 146.455C238.283 146.455 238.477 146.261 238.477 145.97C238.477 144.321 237.993 142.672 236.928 141.411C235.863 140.151 234.411 139.278 232.862 138.793C229.667 137.92 226.182 138.89 223.762 141.12C222.504 142.284 221.633 143.739 221.149 145.291C221.052 145.679 220.955 146.067 220.858 146.455C220.761 146.843 220.665 147.328 220.665 147.716C220.568 148.492 220.568 149.365 220.665 150.141C220.955 153.438 222.407 156.542 224.827 158.87C225.989 160.034 227.441 161.003 228.99 161.585C230.539 162.264 232.184 162.652 233.83 162.652C237.121 162.846 240.413 162.167 243.317 160.713C246.221 159.258 248.835 157.027 250.674 154.214C252.513 151.498 253.675 148.201 253.868 144.903C254.449 138.599 253.094 131.906 249.899 126.378C246.705 120.753 242.155 116.194 236.928 112.605C231.7 109.114 225.892 106.495 219.89 104.846C213.888 103.197 207.499 102.421 201.207 102.809C199.658 102.906 198.012 103.1 196.464 103.294C194.915 103.585 193.366 103.876 191.914 104.167C188.913 104.846 185.815 105.719 182.911 106.786C177.006 109.017 171.294 112.217 166.648 116.776C162.001 121.237 158.42 127.251 157.064 133.652C155.612 140.054 156.193 146.843 158.613 152.856C161.033 158.87 165.389 164.301 171.198 167.211C174.102 168.666 177.393 169.442 180.588 169.539C182.233 169.539 183.782 169.442 185.428 169.151C186.977 168.86 188.622 168.375 190.074 167.599C192.882 166.532 195.399 164.301 197.238 161.682C199.077 159.064 200.239 155.96 200.626 152.856C201.013 149.753 200.723 146.455 199.464 143.545C198.206 140.636 195.98 138.211 193.172 136.756C192.882 136.659 192.591 136.756 192.398 136.95C192.301 137.241 192.398 137.532 192.591 137.726Z" fill="#746AA8"/>
<path d="M167.132 118.521C157.645 125.505 153.579 137.338 154.257 148.394C154.354 151.207 154.838 153.923 155.322 156.639C155.903 159.354 156.58 161.973 157.548 164.592C159.388 169.732 161.711 174.679 164.421 179.431L168.39 186.318C169.068 187.482 169.649 188.645 170.23 189.809C170.81 190.973 171.391 192.137 171.972 193.301C174.199 198.053 176.135 202.806 177.587 207.849C180.588 217.742 181.943 228.217 180.878 238.498C180.297 243.542 179.039 248.585 176.909 253.144C174.779 257.702 171.682 261.776 167.616 264.589C163.647 267.402 158.71 268.759 153.676 268.468L152.708 268.468L151.74 268.371L149.901 268.177C149.32 268.08 148.739 267.886 148.158 267.789C147.577 267.595 146.997 267.401 146.416 267.208C144.189 266.238 142.156 264.88 140.608 263.037C137.316 259.448 135.864 254.308 136.639 249.555C137.026 247.228 138.091 244.997 139.736 243.251C140.511 242.378 141.479 241.602 142.544 241.02C143.609 240.438 144.673 240.05 145.932 239.759C148.255 239.274 150.869 239.371 152.902 240.438C155.031 241.505 156.677 243.445 157.355 245.676C157.645 246.549 157.742 247.712 157.645 248.973C157.548 250.137 157.161 251.204 156.387 252.174C155.031 254.017 152.514 255.084 150.191 254.599C149.707 254.502 149.32 254.793 149.223 255.278C149.126 255.666 149.417 256.151 149.901 256.248C152.805 256.83 155.999 255.666 157.839 253.338C158.807 252.174 159.388 250.719 159.484 249.264C159.678 247.809 159.581 246.355 159.194 244.9C158.42 242.087 156.483 239.565 153.773 238.207C152.515 237.528 150.966 237.141 149.61 236.947C148.158 236.85 146.706 236.85 145.254 237.141C143.802 237.432 142.447 237.916 141.188 238.595C139.93 239.274 138.768 240.147 137.703 241.214C135.671 243.251 134.219 246.064 133.735 248.876C132.67 254.502 134.315 260.612 138.187 264.977C140.124 267.111 142.447 268.953 145.061 270.117C145.738 270.408 146.416 270.602 147.093 270.893C147.771 271.087 148.449 271.281 149.223 271.378L151.256 271.669L152.321 271.863L153.386 271.96C159 272.348 164.905 270.893 169.552 267.692C171.972 266.141 174.005 264.104 175.747 261.97C177.587 259.836 178.942 257.315 180.2 254.89C182.621 249.846 183.976 244.415 184.653 238.983C185.912 228.023 184.557 217.064 181.556 206.589C180.104 201.351 178.071 196.308 175.844 191.361C175.263 190.1 174.683 188.936 174.102 187.676C173.424 186.512 172.843 185.251 172.166 184.087L168.39 177.201C165.873 172.642 163.647 167.986 161.905 163.137C161.033 160.712 160.356 158.287 159.775 155.766C159.291 153.244 158.807 150.722 158.71 148.2C158.613 145.679 158.613 143.157 159 140.635C159.388 138.113 159.968 135.689 160.84 133.361C161.711 131.033 162.873 128.802 164.325 126.766C165.002 125.796 165.777 124.826 166.648 123.856C167.035 123.371 167.519 122.983 167.906 122.498C168.294 122.11 168.874 121.625 169.262 121.334L169.455 121.237C170.23 120.655 170.423 119.491 169.842 118.715C169.068 118.133 167.906 118.036 167.132 118.521Z" fill="#746AA8"/>
<path d="M155.418 193.496C156.483 192.914 157.258 191.653 157.354 190.295C157.354 189.616 157.258 188.937 156.87 188.355C156.58 187.773 156.096 187.288 155.612 186.9C154.644 186.028 153.289 185.64 152.03 185.737C150.772 185.737 149.416 186.318 148.448 187.191C147.48 187.967 146.706 189.131 146.222 190.392C145.835 191.653 145.738 193.011 146.028 194.272C146.319 195.63 147.093 196.696 147.964 197.666C148.836 198.636 149.9 199.412 151.062 199.897C153.385 200.964 156.193 201.061 158.613 200.091C158.903 199.994 159.194 199.8 159.484 199.703C159.774 199.606 160.065 199.412 160.355 199.218C160.839 198.83 161.42 198.539 161.904 198.151C162.388 197.763 162.872 197.278 163.356 196.89C163.84 196.405 164.131 195.921 164.615 195.339C164.905 194.757 165.292 194.175 165.486 193.593C165.679 192.914 165.873 192.332 165.97 191.653L165.97 190.78L165.97 189.81C165.97 189.131 165.873 188.549 165.776 187.967C165.292 185.543 164.421 183.215 163.55 181.081C161.71 176.716 159.678 172.546 158.032 168.181C156.483 163.817 155.321 159.355 155.128 154.797C154.934 152.469 155.128 150.238 155.418 148.007C155.612 146.843 155.805 145.777 156.096 144.613C156.386 143.546 156.58 142.382 156.967 141.315C158.322 136.756 160.452 132.586 162.969 128.706C163.259 128.318 163.066 127.833 162.679 127.542C162.291 127.251 161.807 127.445 161.517 127.736C158.806 131.616 156.58 135.884 155.031 140.442C154.644 141.606 154.353 142.77 153.966 143.934C153.676 145.098 153.482 146.262 153.289 147.522C152.998 149.947 152.805 152.372 152.901 154.7C153.095 159.549 154.257 164.302 155.805 168.763C157.451 173.225 159.581 177.492 161.42 181.76C162.291 183.894 163.163 186.028 163.55 188.258C163.937 190.392 163.743 192.623 162.679 194.369C162.388 194.757 162.098 195.242 161.71 195.63C161.323 196.018 160.936 196.405 160.549 196.696C160.065 196.987 159.678 197.375 159.194 197.666C159 197.763 158.71 197.957 158.516 198.054C158.322 198.151 158.032 198.248 157.838 198.345C155.902 199.121 153.579 199.121 151.643 198.248C150.675 197.86 149.804 197.278 149.029 196.502C148.255 195.727 147.674 194.854 147.48 193.884C146.899 191.944 147.577 189.616 149.223 188.258C149.997 187.482 150.965 187.094 152.03 186.997C153.095 186.9 154.16 187.191 155.031 187.773C155.902 188.355 156.58 189.325 156.58 190.392C156.58 191.459 156.096 192.526 155.128 193.108C155.031 193.205 154.934 193.302 155.031 193.496C155.128 193.593 155.225 193.593 155.418 193.496Z" fill="#746AA8"/>
<path d="M150.482 250.041C152.225 250.041 153.58 251.399 153.58 253.145C153.58 254.891 152.225 256.248 150.482 256.248C148.74 256.248 147.384 254.794 147.384 253.145C147.288 251.496 148.74 250.041 150.482 250.041Z" fill="#746AA8"/>
<path d="M154.257 189.811C155.419 189.811 156.29 190.683 156.29 191.847C156.29 193.011 155.419 193.884 154.257 193.884C153.096 193.884 152.225 193.011 152.225 191.847C152.225 190.683 153.193 189.811 154.257 189.811Z" fill="#746AA8"/>
<path d="M195.108 140.151C195.108 142.454 193.245 144.322 190.946 144.322C188.647 144.322 186.783 142.454 186.783 140.151C186.783 137.848 188.647 135.98 190.946 135.98C193.245 135.98 195.108 137.848 195.108 140.151Z" fill="#746AA8"/>
</svg>
