<svg width="373" height="100" viewBox="0 0 373 100" fill="none" xmlns="http://www.w3.org/2000/svg">
<path d="M335.748 38.2644C336.466 39.2421 337.576 39.959 338.686 40.1545C339.796 40.35 341.037 40.0893 341.951 39.4376C343.844 38.0689 344.824 35.6575 344.693 33.3112C344.628 32.138 344.236 30.9649 343.648 29.9873C343.061 29.0097 342.277 28.2927 341.428 27.641C339.731 26.4027 337.576 26.0116 335.617 26.533C334.638 26.7937 333.724 27.25 332.875 27.9017C332.026 28.5534 331.373 29.3355 330.785 30.1828C329.61 31.8773 328.892 34.0281 328.761 36.1789C328.696 37.2868 328.761 38.3296 328.957 39.3724C329.153 40.4152 329.545 41.458 329.936 42.3704C330.851 44.2605 332.222 45.8247 333.854 46.9326C335.421 48.0406 337.184 48.7575 339.012 49.2137C340.775 49.67 342.604 49.8655 344.432 49.8655C346.26 49.8655 348.088 49.67 349.851 49.3441C350.766 49.2137 351.614 48.953 352.528 48.6923C353.377 48.4316 354.291 48.1058 355.14 47.7799C356.838 47.063 358.47 46.2157 360.037 45.2381C360.821 44.7819 361.539 44.1301 362.323 43.6087C363.041 42.957 363.759 42.3704 364.412 41.6535C365.13 41.0018 365.718 40.2197 366.371 39.5028C366.959 38.7207 367.546 37.9386 368.069 37.0913C368.591 36.3092 369.048 35.3968 369.571 34.4843C369.766 34.0281 369.962 33.5719 370.158 33.1157L370.485 32.3987C370.55 32.138 370.681 31.9425 370.746 31.6818C372.117 27.9017 372.835 23.7957 372.509 19.6897C372.378 17.6693 371.986 15.5837 371.268 13.6937C370.615 11.8036 369.701 9.91355 368.526 8.34936C367.416 6.72 366.045 5.22099 364.543 4.04785C363.041 2.87471 361.409 1.83192 359.646 1.18017L358.993 0.919474C358.797 0.854299 358.536 0.789125 358.34 0.72395C357.883 0.593601 357.426 0.463252 356.969 0.332904C356.054 0.202555 355.14 0.00703122 354.161 0.00703122C352.267 -0.0581432 350.374 0.332903 348.611 1.04982C345.085 2.54884 342.081 5.67721 340.579 9.58768C339.796 11.5429 339.404 13.6285 339.339 15.8444C339.339 16.9524 339.404 18.0604 339.665 19.1031C339.861 20.1459 340.253 21.1887 340.775 22.1663C341.232 23.144 341.82 24.0564 342.538 24.8385C343.257 25.6206 343.975 26.4027 344.889 26.9241C345.281 27.25 345.738 27.4455 346.195 27.7062C346.652 27.9017 347.109 28.1624 347.631 28.2927C347.893 28.3579 348.088 28.4883 348.35 28.5534L349.133 28.6838C349.394 28.749 349.656 28.749 349.917 28.8141C350.178 28.8141 350.439 28.8793 350.7 28.8793C352.855 28.9445 355.075 27.9669 356.773 26.3375C357.622 25.4902 358.405 24.5126 358.993 23.4047C359.58 22.2967 359.972 20.9932 360.233 19.6897L360.299 19.429C360.56 17.7997 359.646 16.2355 358.144 15.9096C356.707 15.5837 355.271 16.6917 355.01 18.3211C354.944 18.6469 354.944 18.9076 355.01 19.2335C355.14 20.537 354.814 21.9708 353.965 23.0788C353.181 24.2519 351.941 25.034 350.57 25.2295C350.374 25.2947 350.243 25.2947 350.047 25.2947C349.851 25.2947 349.721 25.2947 349.525 25.2947L348.937 25.2295C348.741 25.2295 348.545 25.1644 348.35 25.0992C347.958 25.034 347.631 24.9037 347.24 24.7733C347.044 24.7081 346.913 24.643 346.717 24.5778C346.521 24.5126 346.391 24.4475 346.195 24.3171C345.477 23.9261 344.889 23.4047 344.301 22.8833C343.714 22.2967 343.191 21.645 342.8 20.8629C341.951 19.3638 341.494 17.6041 341.494 15.8444C341.494 14.0847 341.885 12.1947 342.473 10.5653C343.779 7.17622 346.26 4.43889 349.329 3.07023C350.831 2.35331 352.528 2.02744 354.161 2.09261C355.01 2.09261 355.793 2.22296 356.642 2.35331C357.034 2.41849 357.491 2.54884 357.883 2.67918C358.079 2.74436 358.274 2.80953 358.47 2.87471L359.058 3.07023C360.69 3.59163 362.192 4.50407 363.563 5.61203C365 6.65483 366.175 8.02349 367.22 9.45733C368.265 10.8912 369.113 12.5857 369.766 14.3454C370.419 16.1051 370.811 17.9952 370.942 19.8201C371.138 21.7101 370.942 23.6002 370.746 25.5554L370.485 26.9893L370.354 27.7062L370.158 28.4231L369.766 29.7918L369.309 31.1604C369.244 31.3559 369.179 31.6166 369.048 31.8122L368.787 32.4639C368.591 32.9201 368.395 33.3112 368.199 33.7674C367.742 34.6147 367.351 35.4619 366.828 36.1789C366.371 36.9609 365.783 37.6779 365.261 38.46C364.673 39.1117 364.086 39.8938 363.433 40.4804C362.78 41.1321 362.127 41.7187 361.409 42.3052C360.69 42.8266 359.972 43.4132 359.254 43.8694C357.752 44.8471 356.185 45.6943 354.553 46.3461C353.769 46.6719 352.92 46.9326 352.071 47.2585C351.288 47.3237 350.504 47.5844 349.59 47.7147C347.893 48.0406 346.195 48.2361 344.432 48.2361C342.734 48.2361 340.971 48.0406 339.339 47.5844C337.706 47.1282 336.074 46.4764 334.703 45.4988C333.332 44.5212 332.156 43.1525 331.373 41.5883C330.655 39.959 330.263 38.1341 330.459 36.3092C330.589 34.4843 331.177 32.7898 332.222 31.3559C332.744 30.7042 333.332 29.9873 333.919 29.5311C334.572 29.0748 335.291 28.6838 336.009 28.5534C337.511 28.2276 339.143 28.5534 340.384 29.4659C341.037 29.9221 341.559 30.5738 342.016 31.2256C342.408 31.8773 342.669 32.6594 342.669 33.4415C342.734 34.2236 342.538 35.0709 342.212 35.7226C342.016 36.0485 341.82 36.3744 341.624 36.7002C341.363 37.0261 341.102 37.2216 340.841 37.4172C340.318 37.743 339.665 37.8734 339.012 37.743C338.425 37.6127 337.837 37.2216 337.445 36.7002C337.054 36.1789 336.335 36.0485 335.878 36.5047C335.356 36.8958 335.291 37.6779 335.748 38.2644C335.682 38.2644 335.682 38.2644 335.748 38.2644Z" fill="url(#paint0_linear_13_7254)"/>
<path d="M337.642 61.9883C337.772 61.6624 337.903 61.4017 338.033 61.2062C338.229 61.0107 338.425 60.9455 338.621 60.8804C339.143 60.75 339.862 61.0107 340.449 61.4017C341.102 61.7928 341.625 62.3142 342.016 63.0311C342.408 63.6829 342.604 64.4649 342.604 65.3122C342.604 66.0943 342.474 66.9416 342.082 67.5933C341.755 68.2451 341.168 68.962 340.58 69.4182C339.339 70.461 337.772 70.852 336.205 70.5913C335.422 70.461 334.703 70.1351 334.05 69.7441C333.397 69.2879 332.81 68.7013 332.287 67.9844C331.243 66.6157 330.59 64.9212 330.394 63.0963C330.198 61.2714 330.459 59.4465 331.177 57.8172C331.896 56.1878 333.006 54.8191 334.442 53.7763C337.25 51.6908 340.776 50.9087 344.171 50.8435C347.632 50.7783 351.092 51.4952 354.357 52.7987C357.622 54.1022 360.691 56.0574 363.303 58.5992C365.914 61.141 367.939 64.3346 369.245 67.9192C369.897 69.6789 370.355 71.569 370.616 73.459C370.877 75.3491 371.008 77.3043 370.877 79.1944C370.55 82.9745 369.245 86.6894 367.155 89.6223C365.066 92.6203 362.127 94.8362 358.928 96.0094C357.296 96.596 355.598 96.9218 353.965 96.9218C352.333 96.9218 350.635 96.5308 349.134 95.8139C346.065 94.38 343.584 91.5775 342.343 88.1884C341.755 86.4939 341.364 84.6039 341.429 82.8441C341.494 81.0844 342.016 79.3247 342.865 77.8909C343.779 76.457 344.955 75.2839 346.391 74.567C347.109 74.2411 347.828 73.9804 348.546 73.8501C348.938 73.7849 349.33 73.7849 349.656 73.7197C349.982 73.7197 350.374 73.7197 350.701 73.8501C352.072 74.1108 353.508 74.958 354.357 76.0008C354.814 76.5222 355.075 77.1088 355.141 77.6302C355.206 78.1516 355.141 78.4775 354.945 78.8033C354.096 80.2372 354.488 82.1272 355.794 83.0397C357.034 83.9521 358.732 83.5611 359.581 82.1272C359.777 81.8014 359.907 81.4103 359.973 81.0193L360.103 80.3023C360.234 79.5202 360.234 78.673 360.103 77.8909C359.973 77.1088 359.777 76.3267 359.45 75.675C358.863 74.3063 357.948 73.3287 357.034 72.5466C355.206 71.0476 353.117 70.2655 351.027 70.2003C350.505 70.2003 349.982 70.2003 349.395 70.2655C348.872 70.3306 348.35 70.461 347.893 70.5913C346.914 70.852 345.934 71.3083 345.085 71.8948C343.322 73.0028 341.821 74.6322 340.841 76.5874C339.796 78.4775 339.274 80.6934 339.274 82.9093C339.274 85.1253 339.666 87.2108 340.449 89.2312C341.951 93.2069 344.889 96.4004 348.415 97.9646C350.178 98.7467 352.072 99.1378 353.965 99.1378C355.859 99.0726 357.687 98.6815 359.45 98.0298C362.976 96.7263 366.11 94.1845 368.461 90.9258C370.746 87.6671 372.183 83.6262 372.509 79.5202C372.705 77.4347 372.509 75.3491 372.248 73.3287C371.922 71.3083 371.465 69.2879 370.746 67.3978C369.375 63.6177 367.155 60.1634 364.413 57.4913C361.67 54.754 358.471 52.7335 355.01 51.3649C351.55 49.9962 347.958 49.2793 344.302 49.2793C342.474 49.2793 340.645 49.54 338.882 49.9962C337.119 50.4524 335.356 51.2345 333.724 52.4077C332.157 53.5156 330.786 55.145 329.937 57.1002C329.088 59.0555 328.696 61.2062 328.892 63.4222C329.088 65.5729 329.872 67.6585 331.112 69.353C331.765 70.2003 332.418 70.9172 333.267 71.569C334.116 72.1555 335.095 72.5466 336.075 72.7421C338.033 73.1331 340.188 72.6118 341.821 71.2431C342.669 70.5913 343.388 69.7441 343.91 68.7013C344.432 67.6585 344.694 66.4854 344.694 65.3122C344.694 64.1391 344.367 62.9008 343.845 61.9231C343.322 60.8804 342.474 60.0331 341.559 59.4465C340.645 58.8599 339.601 58.4037 338.295 58.5992C337.642 58.6644 336.989 58.9903 336.532 59.5117C336.009 60.0331 335.748 60.6197 335.552 61.2062C335.356 61.858 335.618 62.5749 336.205 62.8356C336.793 62.9659 337.446 62.6401 337.642 61.9883Z" fill="url(#paint1_linear_13_7254)"/>
<path d="M339.143 47.5195L11.0352 48.9534C10.774 48.9534 10.5128 49.2141 10.5128 49.5399C10.5128 49.8658 10.7087 50.0613 11.0352 50.0613L339.143 51.4952C340.123 51.4952 340.906 50.6479 340.906 49.5399C340.972 48.432 340.188 47.5195 339.143 47.5195C339.209 47.5195 339.143 47.5195 339.143 47.5195Z" fill="url(#paint2_linear_13_7254)"/>
<path d="M5.94195 56.1218C9.20671 56.1218 11.8838 53.1237 11.8838 49.474C11.8838 45.8242 9.20671 42.8262 5.94195 42.8262C2.6772 42.8262 7.05719e-05 45.8242 7.05719e-05 49.474C7.05719e-05 53.1889 2.6772 56.1218 5.94195 56.1218ZM5.94195 43.4779C8.88024 43.4779 11.2962 46.1501 11.2962 49.474C11.2962 52.7979 8.88024 55.47 5.94195 55.47C3.00367 55.47 0.587753 52.7979 0.587753 49.474C0.587753 46.2152 3.00367 43.4779 5.94195 43.4779Z" fill="url(#paint3_linear_13_7254)"/>
<path d="M9.33691 49.4742C9.33691 47.3234 7.76984 45.6289 5.87628 45.6289C3.98272 45.6289 2.41564 47.3234 2.41564 49.4742C2.41564 51.625 3.98272 53.3195 5.87628 53.3195C7.76984 53.3195 9.33691 51.625 9.33691 49.4742Z" fill="url(#paint4_linear_13_7254)"/>
<path d="M339.078 47.715C336.728 47.9757 334.442 46.8026 332.549 45.1081C330.59 43.4135 328.827 41.3931 327.129 39.2424C323.734 35.006 320.404 30.5742 316.551 26.5985C314.593 24.6433 312.568 22.8184 310.348 21.2542C309.238 20.4721 308.063 19.7552 306.888 19.1686C305.712 18.5169 304.406 17.9303 303.166 17.5393C297.942 15.9751 292.131 16.9527 287.691 20.4069C285.471 22.1015 283.577 24.4478 282.337 27.1199C281.031 29.7921 280.508 32.9856 280.9 35.9836C281.618 42.0449 285.863 47.3892 291.217 48.3668C292.523 48.5623 293.894 48.432 295.2 48.0409C296.506 47.6499 297.681 46.9329 298.726 46.0205C299.771 45.1081 300.619 43.9349 301.207 42.6314C301.86 41.3279 302.121 39.8289 302.056 38.3299C301.925 35.3319 300.228 32.5294 297.681 31.3563C296.44 30.7697 295.004 30.7045 293.633 31.0956C292.98 31.2911 292.327 31.617 291.739 32.2035C291.152 32.7249 290.76 33.507 290.564 34.3543V34.4195C290.499 34.8105 290.694 35.1364 291.021 35.2667C291.347 35.3319 291.674 35.1364 291.739 34.7453V34.6802C291.87 33.507 292.784 32.5946 293.894 32.1383C295.004 31.6821 296.31 31.7473 297.42 32.1383C298.53 32.5946 299.575 33.507 300.293 34.615C301.011 35.7229 301.468 37.0916 301.533 38.4603C301.729 41.2628 300.293 43.9349 298.334 45.6295C296.375 47.324 293.763 48.0409 291.347 47.5195C290.107 47.2588 288.997 46.7374 287.952 45.9553C286.907 45.2384 285.993 44.326 285.21 43.218C283.643 41.1324 282.663 38.5254 282.467 35.7881C281.945 30.3786 284.753 25.0995 288.736 22.0363C292.653 18.9731 297.942 18.1258 302.578 19.5597C303.754 19.9507 304.864 20.4069 305.974 21.0587C307.149 21.6453 308.194 22.3622 309.238 23.0791C311.328 24.5781 313.352 26.2726 315.245 28.1627C319.033 31.9428 322.297 36.3095 325.823 40.5459C327.586 42.6314 329.415 44.7822 331.569 46.5419C332.614 47.3892 333.789 48.2364 335.095 48.7578C336.401 49.2792 337.838 49.5399 339.209 49.3444C339.601 49.2792 339.927 48.8882 339.862 48.432C339.862 47.9757 339.47 47.6499 339.078 47.715Z" fill="url(#paint5_linear_13_7254)"/>
<path d="M339.144 49.9308C337.773 49.7353 336.336 49.9308 335.03 50.4522C333.724 50.9736 332.549 51.7557 331.439 52.603C329.284 54.3627 327.456 56.4483 325.693 58.5338C322.167 62.7702 318.837 67.1369 315.05 70.8518C313.156 72.7419 311.198 74.4364 309.043 75.9354C307.998 76.6523 306.888 77.3041 305.778 77.9558C304.668 78.6076 303.558 79.0638 302.383 79.4548C297.681 80.8887 292.458 79.9762 288.41 76.8479C284.427 73.7847 281.684 68.4404 282.206 63.0961C282.468 60.4239 283.382 57.8169 285.014 55.7313C285.798 54.6886 286.712 53.7761 287.757 53.0592C288.801 52.2771 289.911 51.7557 291.152 51.5602C293.568 51.0388 296.18 51.7557 298.138 53.5154C300.097 55.21 301.534 57.8821 301.273 60.6846C301.207 62.0533 300.75 63.4219 300.032 64.5299C299.314 65.6379 298.269 66.4851 297.159 67.0065C296.049 67.4627 294.743 67.4627 293.633 67.0065C292.523 66.5503 291.674 65.6379 291.478 64.3996C291.413 64.0085 291.087 63.7478 290.76 63.813C290.434 63.8782 290.172 64.204 290.238 64.5951V64.6602V64.7254C290.434 65.5075 290.891 66.2896 291.413 66.811C291.935 67.3976 292.588 67.7234 293.307 67.919C294.678 68.31 296.049 68.2448 297.355 67.6583C299.836 66.4851 301.599 63.6826 301.73 60.6846C301.795 59.1856 301.534 57.6866 300.881 56.3831C300.293 55.0796 299.444 53.9065 298.4 52.994C297.355 52.0816 296.18 51.3647 294.874 50.9736C293.568 50.5826 292.262 50.4522 290.891 50.6477C285.537 51.5602 281.227 56.9045 280.509 62.9657C280.117 65.9637 280.639 69.1573 281.945 71.8946C283.186 74.5668 285.014 76.913 287.234 78.6728C291.674 82.1922 297.486 83.1698 302.709 81.6056C304.015 81.2146 305.321 80.6932 306.431 80.0414C307.606 79.4548 308.782 78.7379 309.892 77.9558C312.112 76.3916 314.201 74.5668 316.16 72.6115C320.078 68.7011 323.408 64.2692 326.803 60.098C328.501 58.0125 330.264 55.9269 332.288 54.2975C334.247 52.6681 336.532 51.495 338.883 51.7557C339.274 51.8209 339.666 51.495 339.731 51.0388C339.862 50.387 339.536 49.996 339.144 49.9308Z" fill="url(#paint6_linear_13_7254)"/>
<path d="M294.09 35.0707C294.09 33.8975 293.241 32.9199 292.196 32.9199C291.152 32.9199 290.303 33.8975 290.303 35.0707C290.303 36.2438 291.152 37.2214 292.196 37.2214C293.241 37.1563 294.09 36.2438 294.09 35.0707Z" fill="url(#paint7_linear_13_7254)"/>
<path d="M292.065 66.1589C291.02 66.1589 290.172 65.196 290.172 64.0082C290.172 62.8203 291.02 61.8574 292.065 61.8574C293.111 61.8574 293.959 62.8203 293.959 64.0082C293.959 65.196 293.111 66.1589 292.065 66.1589Z" fill="url(#paint8_linear_13_7254)"/>
<path d="M340.515 62.7048C340.515 61.0103 339.274 59.6416 337.772 59.6416C336.27 59.6416 335.03 61.0103 335.03 62.7048C335.03 64.3993 336.27 65.768 337.772 65.768C339.274 65.768 340.515 64.3993 340.515 62.7048Z" fill="url(#paint9_linear_13_7254)"/>
<path d="M356.12 84.4735C353.848 84.4735 352.006 82.4018 352.006 79.8461C352.006 77.2905 353.848 75.2188 356.12 75.2188C358.392 75.2188 360.233 77.2905 360.233 79.8461C360.233 82.4018 358.392 84.4735 356.12 84.4735Z" fill="url(#paint10_linear_13_7254)"/>
<path d="M337.707 33.2461C336.205 33.2461 334.964 34.6148 334.964 36.3093C334.964 38.0038 336.205 39.3725 337.707 39.3725C339.209 39.3725 340.449 38.0038 340.449 36.3093C340.384 34.6148 339.209 33.2461 337.707 33.2461Z" fill="url(#paint11_linear_13_7254)"/>
<path d="M356.055 23.2743C353.783 23.2743 351.942 21.2026 351.942 18.6469C351.942 16.0913 353.783 14.0195 356.055 14.0195C358.327 14.0195 360.169 16.0913 360.169 18.6469C360.169 21.2026 358.327 23.2743 356.055 23.2743Z" fill="url(#paint12_linear_13_7254)"/>
<defs>
<linearGradient id="paint0_linear_13_7254" x1="374.882" y1="20.6228" x2="326.687" y2="20.6228" gradientUnits="userSpaceOnUse">
<stop stop-color="#E3B392"/>
<stop offset="1" stop-color="#E3B392" stop-opacity="0"/>
</linearGradient>
<linearGradient id="paint1_linear_13_7254" x1="374.878" y1="69.8991" x2="326.798" y2="69.8991" gradientUnits="userSpaceOnUse">
<stop stop-color="#E3B392"/>
<stop offset="1" stop-color="#E3B392" stop-opacity="0"/>
</linearGradient>
<linearGradient id="paint2_linear_13_7254" x1="358.202" y1="49.1637" x2="-4.92704" y2="49.1634" gradientUnits="userSpaceOnUse">
<stop stop-color="#E3B392"/>
<stop offset="1" stop-color="#E3B392" stop-opacity="0"/>
</linearGradient>
<linearGradient id="paint3_linear_13_7254" x1="12.5057" y1="48.3248" x2="-0.555269" y2="48.3248" gradientUnits="userSpaceOnUse">
<stop stop-color="#E3B392"/>
<stop offset="1" stop-color="#E3B392" stop-opacity="0"/>
</linearGradient>
<linearGradient id="paint4_linear_13_7254" x1="9.69915" y1="48.8095" x2="2.0922" y2="48.8095" gradientUnits="userSpaceOnUse">
<stop stop-color="#E3B392"/>
<stop offset="1" stop-color="#E3B392" stop-opacity="0"/>
</linearGradient>
<linearGradient id="paint5_linear_13_7254" x1="342.963" y1="30.2952" x2="278.011" y2="30.2952" gradientUnits="userSpaceOnUse">
<stop stop-color="#E3B392"/>
<stop offset="1" stop-color="#E3B392" stop-opacity="0"/>
</linearGradient>
<linearGradient id="paint6_linear_13_7254" x1="342.868" y1="63.2854" x2="277.607" y2="63.2854" gradientUnits="userSpaceOnUse">
<stop stop-color="#E3B392"/>
<stop offset="1" stop-color="#E3B392" stop-opacity="0"/>
</linearGradient>
<linearGradient id="paint7_linear_13_7254" x1="294.288" y1="34.6989" x2="290.126" y2="34.6989" gradientUnits="userSpaceOnUse">
<stop stop-color="#E3B392"/>
<stop offset="1" stop-color="#E3B392" stop-opacity="0"/>
</linearGradient>
<linearGradient id="paint8_linear_13_7254" x1="294.157" y1="63.6364" x2="289.995" y2="63.6364" gradientUnits="userSpaceOnUse">
<stop stop-color="#E3B392"/>
<stop offset="1" stop-color="#E3B392" stop-opacity="0"/>
</linearGradient>
<linearGradient id="paint9_linear_13_7254" x1="340.802" y1="62.1753" x2="334.774" y2="62.1753" gradientUnits="userSpaceOnUse">
<stop stop-color="#E3B392"/>
<stop offset="1" stop-color="#E3B392" stop-opacity="0"/>
</linearGradient>
<linearGradient id="paint10_linear_13_7254" x1="360.664" y1="79.0462" x2="351.622" y2="79.0462" gradientUnits="userSpaceOnUse">
<stop stop-color="#E3B392"/>
<stop offset="1" stop-color="#E3B392" stop-opacity="0"/>
</linearGradient>
<linearGradient id="paint11_linear_13_7254" x1="340.736" y1="35.7798" x2="334.708" y2="35.7798" gradientUnits="userSpaceOnUse">
<stop stop-color="#E3B392"/>
<stop offset="1" stop-color="#E3B392" stop-opacity="0"/>
</linearGradient>
<linearGradient id="paint12_linear_13_7254" x1="360.6" y1="17.847" x2="351.557" y2="17.847" gradientUnits="userSpaceOnUse">
<stop stop-color="#E3B392"/>
<stop offset="1" stop-color="#E3B392" stop-opacity="0"/>
</linearGradient>
</defs>
</svg>
