<svg width="381" height="108" viewBox="0 0 381 108" fill="none" xmlns="http://www.w3.org/2000/svg">
<mask id="mask0_42_365" style="mask-type:alpha" maskUnits="userSpaceOnUse" x="4" y="0" width="373" height="100">
<path d="M339.748 38.2644C340.466 39.2421 341.576 39.959 342.686 40.1545C343.796 40.35 345.037 40.0893 345.951 39.4376C347.844 38.0689 348.824 35.6575 348.693 33.3112C348.628 32.138 348.236 30.9649 347.648 29.9873C347.061 29.0097 346.277 28.2927 345.428 27.641C343.731 26.4027 341.576 26.0116 339.617 26.533C338.638 26.7937 337.724 27.25 336.875 27.9017C336.026 28.5534 335.373 29.3355 334.785 30.1828C333.61 31.8773 332.892 34.0281 332.761 36.1789C332.696 37.2868 332.761 38.3296 332.957 39.3724C333.153 40.4152 333.545 41.458 333.936 42.3704C334.851 44.2605 336.222 45.8247 337.854 46.9326C339.421 48.0406 341.184 48.7575 343.012 49.2137C344.775 49.67 346.604 49.8655 348.432 49.8655C350.26 49.8655 352.088 49.67 353.851 49.3441C354.766 49.2137 355.614 48.953 356.529 48.6923C357.377 48.4316 358.291 48.1058 359.14 47.7799C360.838 47.063 362.47 46.2157 364.037 45.2381C364.821 44.7819 365.539 44.1301 366.323 43.6087C367.041 42.957 367.759 42.3704 368.412 41.6535C369.13 41.0018 369.718 40.2197 370.371 39.5027C370.959 38.7207 371.546 37.9386 372.069 37.0913C372.591 36.3092 373.048 35.3968 373.571 34.4843C373.766 34.0281 373.962 33.5719 374.158 33.1157L374.485 32.3987C374.55 32.138 374.681 31.9425 374.746 31.6818C376.117 27.9017 376.835 23.7957 376.509 19.6897C376.378 17.6693 375.986 15.5837 375.268 13.6937C374.615 11.8036 373.701 9.91355 372.526 8.34936C371.416 6.72 370.045 5.22099 368.543 4.04785C367.041 2.87471 365.409 1.83192 363.646 1.18017L362.993 0.919474C362.797 0.854299 362.536 0.789125 362.34 0.72395C361.883 0.593601 361.426 0.463252 360.969 0.332904C360.054 0.202555 359.14 0.00703122 358.161 0.00703122C356.267 -0.0581432 354.374 0.332903 352.611 1.04982C349.085 2.54883 346.081 5.67721 344.579 9.58768C343.796 11.5429 343.404 13.6285 343.339 15.8444C343.339 16.9524 343.404 18.0604 343.665 19.1031C343.861 20.1459 344.253 21.1887 344.775 22.1663C345.232 23.144 345.82 24.0564 346.538 24.8385C347.257 25.6206 347.975 26.4027 348.889 26.9241C349.281 27.25 349.738 27.4455 350.195 27.7062C350.652 27.9017 351.109 28.1624 351.631 28.2927C351.893 28.3579 352.088 28.4883 352.35 28.5534L353.133 28.6838C353.394 28.749 353.656 28.749 353.917 28.8141C354.178 28.8141 354.439 28.8793 354.7 28.8793C356.855 28.9445 359.075 27.9669 360.773 26.3375C361.622 25.4902 362.405 24.5126 362.993 23.4047C363.58 22.2967 363.972 20.9932 364.233 19.6897L364.299 19.429C364.56 17.7997 363.646 16.2355 362.144 15.9096C360.707 15.5837 359.271 16.6917 359.01 18.3211C358.944 18.6469 358.944 18.9076 359.01 19.2335C359.14 20.537 358.814 21.9708 357.965 23.0788C357.181 24.2519 355.941 25.034 354.57 25.2295C354.374 25.2947 354.243 25.2947 354.047 25.2947C353.851 25.2947 353.721 25.2947 353.525 25.2947L352.937 25.2295C352.741 25.2295 352.545 25.1644 352.35 25.0992C351.958 25.034 351.631 24.9037 351.24 24.7733C351.044 24.7081 350.913 24.643 350.717 24.5778C350.521 24.5126 350.391 24.4475 350.195 24.3171C349.477 23.9261 348.889 23.4047 348.301 22.8833C347.714 22.2967 347.191 21.645 346.8 20.8629C345.951 19.3638 345.494 17.6041 345.494 15.8444C345.494 14.0847 345.885 12.1947 346.473 10.5653C347.779 7.17622 350.26 4.43889 353.329 3.07023C354.831 2.35331 356.529 2.02744 358.161 2.09261C359.01 2.09261 359.793 2.22296 360.642 2.35331C361.034 2.41849 361.491 2.54884 361.883 2.67918C362.079 2.74436 362.274 2.80953 362.47 2.87471L363.058 3.07023C364.69 3.59163 366.192 4.50407 367.563 5.61203C369 6.65483 370.175 8.02349 371.22 9.45733C372.265 10.8912 373.113 12.5857 373.766 14.3454C374.419 16.1051 374.811 17.9952 374.942 19.8201C375.138 21.7101 374.942 23.6002 374.746 25.5554L374.485 26.9893L374.354 27.7062L374.158 28.4231L373.766 29.7918L373.309 31.1604C373.244 31.3559 373.179 31.6166 373.048 31.8122L372.787 32.4639C372.591 32.9201 372.395 33.3112 372.199 33.7674C371.742 34.6147 371.351 35.4619 370.828 36.1789C370.371 36.9609 369.783 37.6779 369.261 38.46C368.673 39.1117 368.086 39.8938 367.433 40.4804C366.78 41.1321 366.127 41.7187 365.409 42.3052C364.69 42.8266 363.972 43.4132 363.254 43.8694C361.752 44.8471 360.185 45.6943 358.553 46.3461C357.769 46.6719 356.92 46.9326 356.071 47.2585C355.288 47.3237 354.504 47.5844 353.59 47.7147C351.893 48.0406 350.195 48.2361 348.432 48.2361C346.734 48.2361 344.971 48.0406 343.339 47.5844C341.706 47.1282 340.074 46.4764 338.703 45.4988C337.332 44.5212 336.156 43.1525 335.373 41.5883C334.655 39.959 334.263 38.1341 334.459 36.3092C334.589 34.4843 335.177 32.7898 336.222 31.3559C336.744 30.7042 337.332 29.9873 337.919 29.5311C338.572 29.0748 339.291 28.6838 340.009 28.5534C341.511 28.2276 343.143 28.5534 344.384 29.4659C345.037 29.9221 345.559 30.5738 346.016 31.2256C346.408 31.8773 346.669 32.6594 346.669 33.4415C346.734 34.2236 346.538 35.0709 346.212 35.7226C346.016 36.0485 345.82 36.3744 345.624 36.7002C345.363 37.0261 345.102 37.2216 344.841 37.4172C344.318 37.743 343.665 37.8734 343.012 37.743C342.425 37.6127 341.837 37.2216 341.445 36.7002C341.054 36.1789 340.335 36.0485 339.878 36.5047C339.356 36.8958 339.291 37.6779 339.748 38.2644C339.682 38.2644 339.682 38.2644 339.748 38.2644Z" fill="url(#paint0_linear_42_365)"/>
<path d="M341.642 61.9883C341.772 61.6624 341.903 61.4017 342.033 61.2062C342.229 61.0107 342.425 60.9455 342.621 60.8804C343.143 60.75 343.862 61.0107 344.449 61.4017C345.102 61.7928 345.625 62.3142 346.016 63.0311C346.408 63.6829 346.604 64.4649 346.604 65.3122C346.604 66.0943 346.474 66.9416 346.082 67.5933C345.755 68.2451 345.168 68.962 344.58 69.4182C343.339 70.461 341.772 70.852 340.205 70.5913C339.422 70.461 338.703 70.1351 338.05 69.7441C337.397 69.2879 336.81 68.7013 336.287 67.9844C335.243 66.6157 334.59 64.9212 334.394 63.0963C334.198 61.2714 334.459 59.4465 335.177 57.8172C335.896 56.1878 337.006 54.8191 338.442 53.7763C341.25 51.6908 344.776 50.9087 348.171 50.8435C351.632 50.7783 355.092 51.4952 358.357 52.7987C361.622 54.1022 364.691 56.0574 367.303 58.5992C369.914 61.141 371.939 64.3346 373.245 67.9192C373.897 69.6789 374.355 71.569 374.616 73.459C374.877 75.3491 375.008 77.3043 374.877 79.1944C374.55 82.9745 373.245 86.6894 371.155 89.6223C369.066 92.6203 366.127 94.8362 362.928 96.0094C361.296 96.596 359.598 96.9218 357.965 96.9218C356.333 96.9218 354.635 96.5308 353.134 95.8139C350.065 94.38 347.584 91.5775 346.343 88.1884C345.755 86.4939 345.364 84.6039 345.429 82.8441C345.494 81.0844 346.016 79.3247 346.865 77.8909C347.779 76.457 348.955 75.2839 350.391 74.567C351.109 74.2411 351.828 73.9804 352.546 73.8501C352.938 73.7849 353.33 73.7849 353.656 73.7197C353.982 73.7197 354.374 73.7197 354.701 73.8501C356.072 74.1108 357.508 74.958 358.357 76.0008C358.814 76.5222 359.075 77.1088 359.141 77.6302C359.206 78.1516 359.141 78.4775 358.945 78.8033C358.096 80.2372 358.488 82.1272 359.794 83.0397C361.034 83.9521 362.732 83.5611 363.581 82.1272C363.777 81.8014 363.907 81.4103 363.973 81.0193L364.103 80.3023C364.234 79.5202 364.234 78.673 364.103 77.8909C363.973 77.1088 363.777 76.3267 363.45 75.675C362.863 74.3063 361.948 73.3287 361.034 72.5466C359.206 71.0476 357.117 70.2655 355.027 70.2003C354.505 70.2003 353.982 70.2003 353.395 70.2655C352.872 70.3306 352.35 70.461 351.893 70.5913C350.914 70.852 349.934 71.3083 349.085 71.8948C347.322 73.0028 345.821 74.6322 344.841 76.5874C343.796 78.4775 343.274 80.6934 343.274 82.9093C343.274 85.1253 343.666 87.2108 344.449 89.2312C345.951 93.2069 348.889 96.4004 352.415 97.9646C354.178 98.7467 356.072 99.1378 357.965 99.1378C359.859 99.0726 361.687 98.6815 363.45 98.0298C366.976 96.7263 370.11 94.1845 372.461 90.9258C374.746 87.6671 376.183 83.6262 376.509 79.5202C376.705 77.4347 376.509 75.3491 376.248 73.3287C375.922 71.3083 375.465 69.2879 374.746 67.3978C373.375 63.6177 371.155 60.1634 368.413 57.4913C365.67 54.754 362.471 52.7335 359.01 51.3649C355.55 49.9962 351.958 49.2793 348.302 49.2793C346.474 49.2793 344.645 49.54 342.882 49.9962C341.119 50.4524 339.356 51.2345 337.724 52.4077C336.157 53.5156 334.786 55.145 333.937 57.1002C333.088 59.0555 332.696 61.2062 332.892 63.4222C333.088 65.5729 333.872 67.6585 335.112 69.353C335.765 70.2003 336.418 70.9172 337.267 71.569C338.116 72.1555 339.095 72.5466 340.075 72.7421C342.033 73.1331 344.188 72.6118 345.821 71.2431C346.669 70.5913 347.388 69.7441 347.91 68.7013C348.432 67.6585 348.694 66.4854 348.694 65.3122C348.694 64.1391 348.367 62.9008 347.845 61.9231C347.322 60.8804 346.474 60.0331 345.559 59.4465C344.645 58.8599 343.601 58.4037 342.295 58.5992C341.642 58.6644 340.989 58.9903 340.532 59.5117C340.009 60.0331 339.748 60.6197 339.552 61.2062C339.356 61.858 339.618 62.5749 340.205 62.8356C340.793 62.9659 341.446 62.6401 341.642 61.9883Z" fill="url(#paint1_linear_42_365)"/>
<path d="M343.143 47.5195L15.0352 48.9534C14.774 48.9534 14.5128 49.2141 14.5128 49.5399C14.5128 49.8658 14.7087 50.0613 15.0352 50.0613L343.143 51.4952C344.123 51.4952 344.906 50.6479 344.906 49.5399C344.972 48.432 344.188 47.5195 343.143 47.5195C343.143 47.5195 343.209 47.5195 343.143 47.5195Z" fill="url(#paint2_linear_42_365)"/>
<path d="M9.94195 56.1218C13.2067 56.1218 15.8838 53.1237 15.8838 49.474C15.8838 45.8242 13.2067 42.8262 9.94195 42.8262C6.6772 42.8262 4.00007 45.8242 4.00007 49.474C4.00007 53.1889 6.6772 56.1218 9.94195 56.1218ZM9.94195 43.4779C12.8802 43.4779 15.2962 46.1501 15.2962 49.474C15.2962 52.7979 12.8802 55.47 9.94195 55.47C7.00367 55.47 4.58775 52.7979 4.58775 49.474C4.58775 46.2152 7.00367 43.4779 9.94195 43.4779Z" fill="url(#paint3_linear_42_365)"/>
<path d="M13.3369 49.4742C13.3369 47.3234 11.7698 45.6289 9.87628 45.6289C7.98272 45.6289 6.41564 47.3234 6.41564 49.4742C6.41564 51.625 7.98272 53.3195 9.87628 53.3195C11.7698 53.3195 13.3369 51.625 13.3369 49.4742Z" fill="url(#paint4_linear_42_365)"/>
<path d="M343.078 47.715C340.728 47.9757 338.442 46.8026 336.549 45.1081C334.59 43.4135 332.827 41.3931 331.129 39.2424C327.734 35.006 324.404 30.5742 320.551 26.5985C318.593 24.6433 316.568 22.8184 314.348 21.2542C313.238 20.4721 312.063 19.7552 310.888 19.1686C309.712 18.5169 308.406 17.9303 307.166 17.5393C301.942 15.9751 296.131 16.9527 291.691 20.4069C289.471 22.1015 287.577 24.4478 286.337 27.1199C285.031 29.7921 284.508 32.9856 284.9 35.9836C285.618 42.0449 289.863 47.3892 295.217 48.3668C296.523 48.5623 297.894 48.432 299.2 48.0409C300.506 47.6499 301.681 46.9329 302.726 46.0205C303.77 45.1081 304.619 43.9349 305.207 42.6314C305.86 41.3279 306.121 39.8289 306.056 38.3299C305.925 35.3319 304.228 32.5294 301.681 31.3563C300.44 30.7697 299.004 30.7045 297.633 31.0956C296.98 31.2911 296.327 31.617 295.739 32.2035C295.152 32.7249 294.76 33.507 294.564 34.3543V34.4195C294.499 34.8105 294.694 35.1364 295.021 35.2667C295.347 35.3319 295.674 35.1364 295.739 34.7453V34.6802C295.87 33.507 296.784 32.5946 297.894 32.1383C299.004 31.6821 300.31 31.7473 301.42 32.1383C302.53 32.5946 303.575 33.507 304.293 34.615C305.011 35.7229 305.468 37.0916 305.533 38.4603C305.729 41.2628 304.293 43.9349 302.334 45.6295C300.375 47.324 297.763 48.0409 295.347 47.5195C294.107 47.2588 292.997 46.7374 291.952 45.9553C290.907 45.2384 289.993 44.326 289.21 43.218C287.643 41.1324 286.663 38.5254 286.467 35.7881C285.945 30.3786 288.753 25.0995 292.736 22.0363C296.653 18.9731 301.942 18.1258 306.578 19.5597C307.754 19.9507 308.864 20.4069 309.974 21.0587C311.149 21.6453 312.194 22.3622 313.238 23.0791C315.328 24.5781 317.352 26.2726 319.245 28.1627C323.033 31.9428 326.297 36.3095 329.823 40.5459C331.586 42.6314 333.415 44.7822 335.569 46.5419C336.614 47.3892 337.789 48.2364 339.095 48.7578C340.401 49.2792 341.838 49.5399 343.209 49.3444C343.601 49.2792 343.927 48.8882 343.862 48.432C343.862 47.9757 343.47 47.6499 343.078 47.715Z" fill="url(#paint5_linear_42_365)"/>
<path d="M343.144 49.9308C341.773 49.7353 340.336 49.9308 339.03 50.4522C337.724 50.9736 336.549 51.7557 335.439 52.603C333.284 54.3627 331.456 56.4483 329.693 58.5338C326.167 62.7702 322.837 67.1369 319.05 70.8518C317.156 72.7419 315.198 74.4364 313.043 75.9354C311.998 76.6523 310.888 77.3041 309.778 77.9558C308.668 78.6076 307.558 79.0638 306.383 79.4548C301.681 80.8887 296.458 79.9762 292.41 76.8479C288.427 73.7847 285.684 68.4404 286.206 63.0961C286.468 60.4239 287.382 57.8169 289.014 55.7313C289.798 54.6886 290.712 53.7761 291.757 53.0592C292.801 52.2771 293.911 51.7557 295.152 51.5602C297.568 51.0388 300.18 51.7557 302.138 53.5154C304.097 55.21 305.534 57.8821 305.273 60.6846C305.207 62.0533 304.75 63.4219 304.032 64.5299C303.314 65.6379 302.269 66.4851 301.159 67.0065C300.049 67.4627 298.743 67.4627 297.633 67.0065C296.523 66.5503 295.674 65.6379 295.478 64.3996C295.413 64.0085 295.087 63.7478 294.76 63.813C294.434 63.8782 294.172 64.204 294.238 64.5951V64.6602V64.7254C294.434 65.5075 294.891 66.2896 295.413 66.811C295.935 67.3976 296.588 67.7234 297.307 67.919C298.678 68.31 300.049 68.2448 301.355 67.6583C303.836 66.4851 305.599 63.6826 305.73 60.6846C305.795 59.1856 305.534 57.6866 304.881 56.3831C304.293 55.0796 303.444 53.9065 302.4 52.994C301.355 52.0816 300.18 51.3647 298.874 50.9736C297.568 50.5826 296.262 50.4522 294.891 50.6477C289.537 51.5602 285.227 56.9045 284.509 62.9657C284.117 65.9637 284.639 69.1573 285.945 71.8946C287.186 74.5668 289.014 76.913 291.234 78.6728C295.674 82.1922 301.486 83.1698 306.709 81.6056C308.015 81.2146 309.321 80.6932 310.431 80.0414C311.606 79.4548 312.782 78.7379 313.892 77.9558C316.112 76.3916 318.201 74.5668 320.16 72.6115C324.078 68.7011 327.408 64.2692 330.803 60.098C332.501 58.0125 334.264 55.9269 336.288 54.2975C338.247 52.6681 340.532 51.495 342.883 51.7557C343.274 51.8209 343.666 51.495 343.731 51.0388C343.862 50.387 343.536 49.996 343.144 49.9308Z" fill="url(#paint6_linear_42_365)"/>
<path d="M298.09 35.0707C298.09 33.8975 297.241 32.9199 296.196 32.9199C295.152 32.9199 294.303 33.8975 294.303 35.0707C294.303 36.2438 295.152 37.2214 296.196 37.2214C297.241 37.1563 298.09 36.2438 298.09 35.0707Z" fill="url(#paint7_linear_42_365)"/>
<path d="M296.065 66.1589C295.02 66.1589 294.172 65.196 294.172 64.0082C294.172 62.8203 295.02 61.8574 296.065 61.8574C297.111 61.8574 297.959 62.8203 297.959 64.0082C297.959 65.196 297.111 66.1589 296.065 66.1589Z" fill="url(#paint8_linear_42_365)"/>
<path d="M344.515 62.7048C344.515 61.0103 343.274 59.6416 341.772 59.6416C340.27 59.6416 339.03 61.0103 339.03 62.7048C339.03 64.3993 340.27 65.768 341.772 65.768C343.274 65.768 344.515 64.3993 344.515 62.7048Z" fill="url(#paint9_linear_42_365)"/>
<path d="M360.12 84.4735C357.848 84.4735 356.006 82.4018 356.006 79.8461C356.006 77.2905 357.848 75.2188 360.12 75.2188C362.392 75.2188 364.233 77.2905 364.233 79.8461C364.233 82.4018 362.392 84.4735 360.12 84.4735Z" fill="url(#paint10_linear_42_365)"/>
<path d="M341.707 33.2461C340.205 33.2461 338.964 34.6148 338.964 36.3093C338.964 38.0038 340.205 39.3725 341.707 39.3725C343.209 39.3725 344.449 38.0038 344.449 36.3093C344.384 34.6148 343.209 33.2461 341.707 33.2461Z" fill="url(#paint11_linear_42_365)"/>
<path d="M360.055 23.2743C357.783 23.2743 355.942 21.2026 355.942 18.6469C355.942 16.0913 357.783 14.0195 360.055 14.0195C362.327 14.0195 364.169 16.0913 364.169 18.6469C364.169 21.2026 362.327 23.2743 360.055 23.2743Z" fill="url(#paint12_linear_42_365)"/>
</mask>
<g mask="url(#mask0_42_365)">
<rect x="-38" y="-12" width="434" height="143" fill="white"/>
</g>
<defs>
<linearGradient id="paint0_linear_42_365" x1="378.882" y1="20.6228" x2="330.687" y2="20.6228" gradientUnits="userSpaceOnUse">
<stop stop-color="#E3B392"/>
<stop offset="1" stop-color="#E3B392" stop-opacity="0"/>
</linearGradient>
<linearGradient id="paint1_linear_42_365" x1="378.878" y1="69.8991" x2="330.798" y2="69.8991" gradientUnits="userSpaceOnUse">
<stop stop-color="#E3B392"/>
<stop offset="1" stop-color="#E3B392" stop-opacity="0"/>
</linearGradient>
<linearGradient id="paint2_linear_42_365" x1="362.202" y1="49.1637" x2="-0.927043" y2="49.1634" gradientUnits="userSpaceOnUse">
<stop stop-color="#E3B392"/>
<stop offset="1" stop-color="#E3B392" stop-opacity="0"/>
</linearGradient>
<linearGradient id="paint3_linear_42_365" x1="16.5057" y1="48.3248" x2="3.44473" y2="48.3248" gradientUnits="userSpaceOnUse">
<stop stop-color="#E3B392"/>
<stop offset="1" stop-color="#E3B392" stop-opacity="0"/>
</linearGradient>
<linearGradient id="paint4_linear_42_365" x1="13.6991" y1="48.8095" x2="6.0922" y2="48.8095" gradientUnits="userSpaceOnUse">
<stop stop-color="#E3B392"/>
<stop offset="1" stop-color="#E3B392" stop-opacity="0"/>
</linearGradient>
<linearGradient id="paint5_linear_42_365" x1="346.963" y1="30.2952" x2="282.011" y2="30.2952" gradientUnits="userSpaceOnUse">
<stop stop-color="#E3B392"/>
<stop offset="1" stop-color="#E3B392" stop-opacity="0"/>
</linearGradient>
<linearGradient id="paint6_linear_42_365" x1="346.868" y1="63.2854" x2="281.607" y2="63.2854" gradientUnits="userSpaceOnUse">
<stop stop-color="#E3B392"/>
<stop offset="1" stop-color="#E3B392" stop-opacity="0"/>
</linearGradient>
<linearGradient id="paint7_linear_42_365" x1="298.288" y1="34.6989" x2="294.126" y2="34.6989" gradientUnits="userSpaceOnUse">
<stop stop-color="#E3B392"/>
<stop offset="1" stop-color="#E3B392" stop-opacity="0"/>
</linearGradient>
<linearGradient id="paint8_linear_42_365" x1="298.157" y1="63.6364" x2="293.995" y2="63.6364" gradientUnits="userSpaceOnUse">
<stop stop-color="#E3B392"/>
<stop offset="1" stop-color="#E3B392" stop-opacity="0"/>
</linearGradient>
<linearGradient id="paint9_linear_42_365" x1="344.802" y1="62.1753" x2="338.774" y2="62.1753" gradientUnits="userSpaceOnUse">
<stop stop-color="#E3B392"/>
<stop offset="1" stop-color="#E3B392" stop-opacity="0"/>
</linearGradient>
<linearGradient id="paint10_linear_42_365" x1="364.664" y1="79.0462" x2="355.622" y2="79.0462" gradientUnits="userSpaceOnUse">
<stop stop-color="#E3B392"/>
<stop offset="1" stop-color="#E3B392" stop-opacity="0"/>
</linearGradient>
<linearGradient id="paint11_linear_42_365" x1="344.736" y1="35.7798" x2="338.708" y2="35.7798" gradientUnits="userSpaceOnUse">
<stop stop-color="#E3B392"/>
<stop offset="1" stop-color="#E3B392" stop-opacity="0"/>
</linearGradient>
<linearGradient id="paint12_linear_42_365" x1="364.6" y1="17.847" x2="355.557" y2="17.847" gradientUnits="userSpaceOnUse">
<stop stop-color="#E3B392"/>
<stop offset="1" stop-color="#E3B392" stop-opacity="0"/>
</linearGradient>
</defs>
</svg>
