<svg width="518" height="757" viewBox="0 0 518 757" fill="none" xmlns="http://www.w3.org/2000/svg">
<path d="M0 3H164C172.837 3 180 10.1634 180 19V237C180 245.837 172.837 253 164 253H0" stroke="url(#paint0_linear_9_39)" stroke-width="6"/>
<path d="M0 379H164C172.837 379 180 386.163 180 395V613C180 621.837 172.837 629 164 629H0" stroke="url(#paint1_linear_9_39)" stroke-width="6"/>
<path d="M518 378L354 378C345.163 378 338 370.837 338 362L338 144C338 135.163 345.163 128 354 128L518 128" stroke="url(#paint2_linear_9_39)" stroke-width="6"/>
<path d="M518 754L354 754C345.163 754 338 746.837 338 738L338 520C338 511.163 345.163 504 354 504L518 504" stroke="url(#paint3_linear_9_39)" stroke-width="6"/>
<g filter="url(#filter0_b_9_39)">
<line x1="260" y1="130" x2="260" y2="627" stroke="white" stroke-opacity="0.15" stroke-width="4" stroke-linecap="round"/>
</g>
<g filter="url(#filter1_f_9_39)">
<circle cx="260" cy="253" r="12" fill="#8775F9"/>
</g>
<g filter="url(#filter2_f_9_39)">
<circle cx="260" cy="504" r="12" fill="#8775F9"/>
</g>
<g filter="url(#filter3_f_9_39)">
<circle cx="260" cy="629" r="12" fill="#8775F9"/>
</g>
<path d="M184 504L189 506.887L189 501.113L184 504ZM188.364 504.5L191.273 504.5L191.273 503.5L188.364 503.5L188.364 504.5ZM194.182 504.5L197.091 504.5L197.091 503.5L194.182 503.5L194.182 504.5ZM200 504.5L202.909 504.5L202.909 503.5L200 503.5L200 504.5ZM205.818 504.5L208.727 504.5L208.727 503.5L205.818 503.5L205.818 504.5ZM211.636 504.5L214.545 504.5L214.545 503.5L211.636 503.5L211.636 504.5ZM217.455 504.5L220.364 504.5L220.364 503.5L217.455 503.5L217.455 504.5ZM223.273 504.5L226.182 504.5L226.182 503.5L223.273 503.5L223.273 504.5ZM229.091 504.5L232 504.5L232 503.5L229.091 503.5L229.091 504.5ZM234.909 504.5L237.818 504.5L237.818 503.5L234.909 503.5L234.909 504.5ZM240.727 504.5L243.636 504.5L243.636 503.5L240.727 503.5L240.727 504.5ZM246.545 504.5L248 504.5L248 503.5L246.545 503.5L246.545 504.5Z" fill="url(#paint4_linear_9_39)" fill-opacity="0.7"/>
<path d="M336 253L331 250.113L331 255.887L336 253ZM331.636 252.5L328.727 252.5L328.727 253.5L331.636 253.5L331.636 252.5ZM325.818 252.5L322.909 252.5L322.909 253.5L325.818 253.5L325.818 252.5ZM320 252.5L317.091 252.5L317.091 253.5L320 253.5L320 252.5ZM314.182 252.5L311.273 252.5L311.273 253.5L314.182 253.5L314.182 252.5ZM308.364 252.5L305.455 252.5L305.455 253.5L308.364 253.5L308.364 252.5ZM302.545 252.5L299.636 252.5L299.636 253.5L302.545 253.5L302.545 252.5ZM296.727 252.5L293.818 252.5L293.818 253.5L296.727 253.5L296.727 252.5ZM290.909 252.5L288 252.5L288 253.5L290.909 253.5L290.909 252.5ZM285.091 252.5L282.182 252.5L282.182 253.5L285.091 253.5L285.091 252.5ZM279.273 252.5L276.364 252.5L276.364 253.5L279.273 253.5L279.273 252.5ZM273.455 252.5L272 252.5L272 253.5L273.455 253.5L273.455 252.5Z" fill="url(#paint5_linear_9_39)" fill-opacity="0.7"/>
<path d="M330 629L325 626.113L325 631.887L330 629ZM325.636 628.5L322.727 628.5L322.727 629.5L325.636 629.5L325.636 628.5ZM319.818 628.5L316.909 628.5L316.909 629.5L319.818 629.5L319.818 628.5ZM314 628.5L311.091 628.5L311.091 629.5L314 629.5L314 628.5ZM308.182 628.5L305.273 628.5L305.273 629.5L308.182 629.5L308.182 628.5ZM302.364 628.5L299.455 628.5L299.455 629.5L302.364 629.5L302.364 628.5ZM296.545 628.5L293.636 628.5L293.636 629.5L296.545 629.5L296.545 628.5ZM290.727 628.5L287.818 628.5L287.818 629.5L290.727 629.5L290.727 628.5ZM284.909 628.5L282 628.5L282 629.5L284.909 629.5L284.909 628.5ZM279.091 628.5L276.182 628.5L276.182 629.5L279.091 629.5L279.091 628.5ZM273.273 628.5L270.364 628.5L270.364 629.5L273.273 629.5L273.273 628.5ZM267.455 628.5L266 628.5L266 629.5L267.455 629.5L267.455 628.5Z" fill="url(#paint6_linear_9_39)" fill-opacity="0.7"/>
<g filter="url(#filter4_f_9_39)">
<circle cx="260" cy="129" r="12" fill="#8775F9"/>
</g>
<path d="M184 129L189 131.887L189 126.113L184 129ZM188.364 129.5L191.273 129.5L191.273 128.5L188.364 128.5L188.364 129.5ZM194.182 129.5L197.091 129.5L197.091 128.5L194.182 128.5L194.182 129.5ZM200 129.5L202.909 129.5L202.909 128.5L200 128.5L200 129.5ZM205.818 129.5L208.727 129.5L208.727 128.5L205.818 128.5L205.818 129.5ZM211.636 129.5L214.545 129.5L214.545 128.5L211.636 128.5L211.636 129.5ZM217.455 129.5L220.364 129.5L220.364 128.5L217.455 128.5L217.455 129.5ZM223.273 129.5L226.182 129.5L226.182 128.5L223.273 128.5L223.273 129.5ZM229.091 129.5L232 129.5L232 128.5L229.091 128.5L229.091 129.5ZM234.909 129.5L237.818 129.5L237.818 128.5L234.909 128.5L234.909 129.5ZM240.727 129.5L243.636 129.5L243.636 128.5L240.727 128.5L240.727 129.5ZM246.545 129.5L248 129.5L248 128.5L246.545 128.5L246.545 129.5Z" fill="url(#paint7_linear_9_39)" fill-opacity="0.7"/>
<defs>
<filter id="filter0_b_9_39" x="211" y="81" width="98" height="595" filterUnits="userSpaceOnUse" color-interpolation-filters="sRGB">
<feFlood flood-opacity="0" result="BackgroundImageFix"/>
<feGaussianBlur in="BackgroundImageFix" stdDeviation="23.5"/>
<feComposite in2="SourceAlpha" operator="in" result="effect1_backgroundBlur_9_39"/>
<feBlend mode="normal" in="SourceGraphic" in2="effect1_backgroundBlur_9_39" result="shape"/>
</filter>
<filter id="filter1_f_9_39" x="230" y="223" width="60" height="60" filterUnits="userSpaceOnUse" color-interpolation-filters="sRGB">
<feFlood flood-opacity="0" result="BackgroundImageFix"/>
<feBlend mode="normal" in="SourceGraphic" in2="BackgroundImageFix" result="shape"/>
<feGaussianBlur stdDeviation="9" result="effect1_foregroundBlur_9_39"/>
</filter>
<filter id="filter2_f_9_39" x="230" y="474" width="60" height="60" filterUnits="userSpaceOnUse" color-interpolation-filters="sRGB">
<feFlood flood-opacity="0" result="BackgroundImageFix"/>
<feBlend mode="normal" in="SourceGraphic" in2="BackgroundImageFix" result="shape"/>
<feGaussianBlur stdDeviation="9" result="effect1_foregroundBlur_9_39"/>
</filter>
<filter id="filter3_f_9_39" x="230" y="599" width="60" height="60" filterUnits="userSpaceOnUse" color-interpolation-filters="sRGB">
<feFlood flood-opacity="0" result="BackgroundImageFix"/>
<feBlend mode="normal" in="SourceGraphic" in2="BackgroundImageFix" result="shape"/>
<feGaussianBlur stdDeviation="9" result="effect1_foregroundBlur_9_39"/>
</filter>
<filter id="filter4_f_9_39" x="230" y="99" width="60" height="60" filterUnits="userSpaceOnUse" color-interpolation-filters="sRGB">
<feFlood flood-opacity="0" result="BackgroundImageFix"/>
<feBlend mode="normal" in="SourceGraphic" in2="BackgroundImageFix" result="shape"/>
<feGaussianBlur stdDeviation="9" result="effect1_foregroundBlur_9_39"/>
</filter>
<linearGradient id="paint0_linear_9_39" x1="0" y1="128" x2="180" y2="128" gradientUnits="userSpaceOnUse">
<stop offset="0.081934" stop-color="white" stop-opacity="0"/>
<stop offset="0.706057" stop-color="#FB63CA"/>
<stop offset="1" stop-color="#280C66"/>
</linearGradient>
<linearGradient id="paint1_linear_9_39" x1="0" y1="504" x2="180" y2="504" gradientUnits="userSpaceOnUse">
<stop offset="0.081934" stop-color="white" stop-opacity="0"/>
<stop offset="0.706057" stop-color="#FB63CA"/>
<stop offset="1" stop-color="#280C66"/>
</linearGradient>
<linearGradient id="paint2_linear_9_39" x1="518" y1="253" x2="338" y2="253" gradientUnits="userSpaceOnUse">
<stop offset="0.081934" stop-color="white" stop-opacity="0"/>
<stop offset="0.706057" stop-color="#FB63CA"/>
<stop offset="1" stop-color="#904AC6"/>
</linearGradient>
<linearGradient id="paint3_linear_9_39" x1="518" y1="629" x2="338" y2="629" gradientUnits="userSpaceOnUse">
<stop offset="0.081934" stop-color="white" stop-opacity="0"/>
<stop offset="0.706057" stop-color="#FB63CA"/>
<stop offset="1" stop-color="#280C66"/>
</linearGradient>
<linearGradient id="paint4_linear_9_39" x1="191.04" y1="504.094" x2="191.051" y2="505.47" gradientUnits="userSpaceOnUse">
<stop stop-color="white"/>
<stop offset="1" stop-color="#280C66"/>
</linearGradient>
<linearGradient id="paint5_linear_9_39" x1="328.96" y1="252.906" x2="328.949" y2="251.53" gradientUnits="userSpaceOnUse">
<stop stop-color="white"/>
<stop offset="1" stop-color="#280C66"/>
</linearGradient>
<linearGradient id="paint6_linear_9_39" x1="322.96" y1="628.906" x2="322.949" y2="627.53" gradientUnits="userSpaceOnUse">
<stop stop-color="white"/>
<stop offset="1" stop-color="#280C66"/>
</linearGradient>
<linearGradient id="paint7_linear_9_39" x1="191.04" y1="129.094" x2="191.051" y2="130.47" gradientUnits="userSpaceOnUse">
<stop stop-color="white"/>
<stop offset="1" stop-color="#280C66"/>
</linearGradient>
</defs>
</svg>
