<svg width="27" height="27" viewBox="0 0 27 27" fill="none" xmlns="http://www.w3.org/2000/svg">
<path d="M13.1531 0.544922C5.88885 0.544922 0 6.43377 0 13.6981C0 20.9623 5.88885 26.8512 13.1531 26.8512C20.4174 26.8512 26.3063 20.9623 26.3063 13.6981C26.3063 6.43377 20.4174 0.544922 13.1531 0.544922ZM8.42622 5.76956C8.69722 5.75358 8.94218 5.91556 9.12788 6.20307L10.9262 9.61337C11.1155 10.0175 11.0079 10.4502 10.7255 10.7389L9.90179 11.5626C9.85095 11.6322 9.8175 11.7107 9.81668 11.797C10.1326 13.0197 11.0907 14.1475 11.9361 14.9231C12.7815 15.6987 13.6901 16.7488 14.8695 16.9976C15.0153 17.0382 15.1939 17.0528 15.2982 16.9558L16.2552 15.9812C16.5855 15.7309 17.0633 15.6095 17.416 15.8143H17.4321L20.677 17.7297C21.1533 18.0283 21.2026 18.6054 20.8616 18.9564L18.6266 21.1738C18.2966 21.5122 17.8581 21.626 17.4321 21.6265C15.548 21.5701 13.7677 20.6453 12.3054 19.695C9.90518 17.9489 7.7035 15.7831 6.32128 13.1666C5.79117 12.0694 5.16843 10.6695 5.22786 9.44483C5.23317 8.98412 5.35782 8.53277 5.68226 8.23582L7.91726 6.00082C8.09137 5.85267 8.26361 5.77917 8.42622 5.76956Z" fill="white"/>
</svg>
