<svg width="30" height="30" viewBox="0 0 30 30" fill="none" xmlns="http://www.w3.org/2000/svg">
<path d="M2.50502 27.4998L4.195 21.2898C3.08143 19.3809 2.49639 17.2099 2.50002 14.9999C2.50002 8.0962 8.09622 2.5 14.9999 2.5C21.9036 2.5 27.4998 8.0962 27.4998 14.9999C27.4998 21.9036 21.9036 27.4998 14.9999 27.4998C12.7909 27.5034 10.6208 26.9188 8.71246 25.8061L2.50502 27.4998ZM10.4887 9.13494C10.3273 9.14497 10.1695 9.18748 10.025 9.25994C9.88936 9.33673 9.76557 9.43272 9.65745 9.54494C9.50746 9.68619 9.42246 9.80869 9.33121 9.92744C8.86923 10.5287 8.62073 11.2667 8.62496 12.0249C8.62746 12.6374 8.78746 13.2337 9.03746 13.7912C9.54871 14.9186 10.3899 16.1124 11.5012 17.2186C11.7687 17.4849 12.0299 17.7524 12.3112 18.0011C13.6904 19.2154 15.334 20.0911 17.1111 20.5586L17.8224 20.6673C18.0536 20.6798 18.2849 20.6623 18.5174 20.6511C18.8814 20.6323 19.2369 20.5337 19.5586 20.3623C19.7661 20.2523 19.8636 20.1973 20.0374 20.0873C20.0374 20.0873 20.0911 20.0523 20.1936 19.9748C20.3624 19.8498 20.4661 19.7611 20.6061 19.6149C20.7099 19.5074 20.7999 19.3811 20.8686 19.2374C20.9661 19.0336 21.0636 18.6449 21.1036 18.3211C21.1336 18.0736 21.1249 17.9386 21.1211 17.8549C21.1161 17.7211 21.0049 17.5824 20.8836 17.5236L20.1561 17.1974C20.1561 17.1974 19.0686 16.7236 18.4049 16.4211C18.3349 16.3906 18.2599 16.3733 18.1836 16.3699C18.0981 16.3611 18.0117 16.3707 17.9302 16.3981C17.8487 16.4255 17.774 16.47 17.7111 16.5286V16.5261C17.7049 16.5261 17.6211 16.5974 16.7174 17.6924C16.6655 17.7621 16.5941 17.8147 16.5121 17.8437C16.4302 17.8726 16.3415 17.8765 16.2574 17.8549C16.176 17.8331 16.0962 17.8055 16.0187 17.7724C15.8637 17.7074 15.8099 17.6824 15.7037 17.6361L15.6974 17.6336C14.9823 17.3214 14.3202 16.8997 13.7349 16.3836C13.5774 16.2461 13.4312 16.0961 13.2812 15.9511C12.7894 15.4802 12.3608 14.9474 12.0062 14.3661L11.9324 14.2474C11.8795 14.1676 11.8366 14.0815 11.8049 13.9912C11.7574 13.8074 11.8812 13.6599 11.8812 13.6599C11.8812 13.6599 12.1849 13.3274 12.3262 13.1474C12.4438 12.9978 12.5535 12.8422 12.6549 12.6812C12.8024 12.4437 12.8487 12.1999 12.7712 12.0112C12.4212 11.1562 12.0587 10.3049 11.6862 9.45994C11.6124 9.29244 11.3937 9.17244 11.1949 9.14869C11.1274 9.14119 11.0599 9.13369 10.9924 9.12869C10.8246 9.12035 10.6564 9.12202 10.4887 9.13369V9.13494Z" fill="white"/>
</svg>
